<?xml version="1.0" encoding="UTF-8"?>
<svg version="1.1" xmlns="http://www.w3.org/2000/svg" width="511" height="626">
<path d="M0 0 C1.15226074 -0.00175232 2.30452148 -0.00350464 3.49169922 -0.00531006 C7.30454006 -0.00971255 11.11733446 -0.00679269 14.93017578 -0.00341797 C17.59937598 -0.00409229 20.2685748 -0.00506231 22.93777466 -0.00631714 C28.54478452 -0.00813636 34.15178121 -0.00574376 39.75878906 -0.00097656 C46.1761323 0.00441778 52.59344353 0.00273799 59.01078594 -0.00280297 C64.56198197 -0.00739896 70.11316856 -0.0079521 75.66436589 -0.0053643 C78.96040194 -0.00383043 82.25642035 -0.00393626 85.5524559 -0.00690079 C98.26624336 -0.01581329 110.97023605 0.04976708 123.67675781 0.51269531 C124.62695234 0.54303801 125.57714687 0.5733807 126.55613518 0.60464287 C134.96057861 0.95964875 142.84549089 2.26499517 150.67236328 5.39892578 C153.24322545 6.42617199 155.86843697 7.27397786 158.50048828 8.12939453 C158.50048828 8.78939453 158.50048828 9.44939453 158.50048828 10.12939453 C159.06896484 10.28794922 159.63744141 10.44650391 160.22314453 10.60986328 C165.83963056 12.30699846 169.97279686 14.37237399 174.50048828 18.12939453 C174.50048828 18.78939453 174.50048828 19.44939453 174.50048828 20.12939453 C175.30486328 20.39751953 176.10923828 20.66564453 176.93798828 20.94189453 C177.78361328 21.33376953 178.62923828 21.72564453 179.50048828 22.12939453 C179.83048828 23.11939453 180.16048828 24.10939453 180.50048828 25.12939453 C181.16048828 25.45939453 181.82048828 25.78939453 182.50048828 26.12939453 C183.16048828 26.45939453 183.82048828 26.78939453 184.50048828 27.12939453 C184.83048828 28.11939453 185.16048828 29.10939453 185.50048828 30.12939453 C186.16048828 30.45939453 186.82048828 30.78939453 187.50048828 31.12939453 C188.16048828 31.45939453 188.82048828 31.78939453 189.50048828 32.12939453 C189.83048828 33.11939453 190.16048828 34.10939453 190.50048828 35.12939453 C191.4798194 36.14964478 192.48198601 37.14824565 193.50048828 38.12939453 C197.56187062 43.45619273 199.47820704 48.5379692 200.50048828 55.12939453 C201.16048828 55.12939453 201.82048828 55.12939453 202.50048828 55.12939453 C205.54990164 66.63661475 205.54990164 66.63661475 206.12548828 71.81689453 C206.13412673 74.97072532 206.13412673 74.97072532 207.50048828 76.12939453 C208.82439815 86.03705147 208.62677674 96.0814998 208.58227539 106.05541992 C208.57871078 107.71584989 208.57562714 109.37628095 208.57298279 111.03671265 C208.56648122 114.58440019 208.55695552 118.13206159 208.54508781 121.67973518 C208.5266686 127.2896938 208.5171643 132.89964641 208.50917053 138.5096283 C208.4851085 154.45216583 208.44899994 170.39466504 208.40454102 186.3371582 C208.38000629 195.16316243 208.36263954 203.98915217 208.35298163 212.81518549 C208.34644093 218.39301836 208.33088993 223.97073079 208.3086642 229.54852211 C208.29694926 233.00999644 208.2935678 236.47144136 208.2925663 239.93293381 C208.29041631 241.53899289 208.28481601 243.14505157 208.27553558 244.75108528 C208.26336945 246.94081399 208.26349819 249.1302093 208.26670837 251.31996155 C208.26356597 252.54565385 208.26042356 253.77134615 208.25718594 255.03418064 C208.49207909 258.02241555 208.85409286 259.66175809 210.50048828 262.12939453 C211.824418 263.14181138 213.15647995 264.14378843 214.50048828 265.12939453 C214.50048828 265.78939453 214.50048828 266.44939453 214.50048828 267.12939453 C223.8861399 269.00922965 232.0497896 270.35071064 240.41064453 264.87939453 C242.57168498 263.1628234 244.25744614 261.61547882 245.50048828 259.12939453 C246.16048828 259.12939453 246.82048828 259.12939453 247.50048828 259.12939453 C248.16048828 256.81939453 248.82048828 254.50939453 249.50048828 252.12939453 C251.15048828 252.12939453 252.80048828 252.12939453 254.50048828 252.12939453 C255.16048828 254.10939453 255.82048828 256.08939453 256.50048828 258.12939453 C257.16048828 258.12939453 257.82048828 258.12939453 258.50048828 258.12939453 C259.00882419 259.37602784 259.50679973 260.6268884 260.00048828 261.87939453 C260.27892578 262.57548828 260.55736328 263.27158203 260.84423828 263.98876953 C261.50048828 266.12939453 261.50048828 266.12939453 261.50048828 270.12939453 C262.16048828 270.12939453 262.82048828 270.12939453 263.50048828 270.12939453 C264.98725094 278.30658917 265.31085747 286.98273317 263.50048828 295.12939453 C262.84048828 295.12939453 262.18048828 295.12939453 261.50048828 295.12939453 C261.47986328 296.22251953 261.45923828 297.31564453 261.43798828 298.44189453 C260.72450001 304.46330312 257.21208734 309.4663232 253.50048828 314.12939453 C252.84048828 314.12939453 252.18048828 314.12939453 251.50048828 314.12939453 C251.23236328 314.93376953 250.96423828 315.73814453 250.68798828 316.56689453 C250.29611328 317.41251953 249.90423828 318.25814453 249.50048828 319.12939453 C248.51048828 319.45939453 247.52048828 319.78939453 246.50048828 320.12939453 C246.17048828 321.11939453 245.84048828 322.10939453 245.50048828 323.12939453 C236.09423828 330.12939453 236.09423828 330.12939453 230.50048828 330.12939453 C230.50048828 330.78939453 230.50048828 331.44939453 230.50048828 332.12939453 C224.25966009 333.75829595 218.44368994 334.43064101 212.00512695 334.43579102 C211.10315582 334.44411453 210.20118469 334.45243805 209.2718811 334.46101379 C206.32069471 334.48491309 203.36972959 334.49385673 200.41845703 334.50048828 C198.35581907 334.5094628 196.29318174 334.51858479 194.23054504 334.52784729 C189.92280498 334.54428004 185.61514219 334.55202821 181.30737305 334.55493164 C175.78453518 334.56034058 170.26241996 334.59814829 164.7397871 334.6436758 C160.48732317 334.67337531 156.23503585 334.68065349 151.98247719 334.68165779 C149.94546474 334.68586641 147.90845207 334.69832631 145.87154198 334.71917534 C143.03010338 334.74597046 140.19037647 334.74130244 137.34887695 334.72875977 C136.08722969 334.7510112 136.08722969 334.7510112 134.8000946 334.77371216 C130.81497001 334.72350713 128.93894685 334.53867037 125.97407532 331.77113342 C124.23613 328.65547237 124.05444724 326.80013951 124.18798828 323.25439453 C124.24599609 321.67271484 124.24599609 321.67271484 124.30517578 320.05908203 C124.74190368 313.50816359 126.02937326 308.15588932 128.50048828 302.12939453 C128.89236328 301.13939453 129.28423828 300.14939453 129.68798828 299.12939453 C129.95611328 298.46939453 130.22423828 297.80939453 130.50048828 297.12939453 C131.16048828 297.12939453 131.82048828 297.12939453 132.50048828 297.12939453 C132.68611328 295.98470703 132.68611328 295.98470703 132.87548828 294.81689453 C133.50048828 292.12939453 133.50048828 292.12939453 135.50048828 289.12939453 C136.16048828 289.12939453 136.82048828 289.12939453 137.50048828 289.12939453 C137.71447266 288.39333984 137.92845703 287.65728516 138.14892578 286.89892578 C139.87031411 283.37157224 141.90751849 282.02457148 145.12548828 279.81689453 C146.12837891 279.11951172 147.13126953 278.42212891 148.16455078 277.70361328 C148.93541016 277.18412109 149.70626953 276.66462891 150.50048828 276.12939453 C149.73012171 274.27503389 148.9591703 272.4209162 148.18798828 270.56689453 C147.73423828 269.47376953 147.28048828 268.38064453 146.81298828 267.25439453 C145.80024487 264.8431007 144.75761816 262.45299196 143.68798828 260.06689453 C142.50048828 257.12939453 142.50048828 257.12939453 142.50048828 254.12939453 C141.84048828 254.12939453 141.18048828 254.12939453 140.50048828 254.12939453 C137.50048828 247.50439453 137.50048828 247.50439453 137.50048828 244.12939453 C136.84048828 244.12939453 136.18048828 244.12939453 135.50048828 244.12939453 C135.50048828 243.46939453 135.50048828 242.80939453 135.50048828 242.12939453 C134.68483398 242.15557861 133.86917969 242.1817627 133.02880859 242.20874023 C129.94245191 242.29500622 126.85671815 242.3571407 123.76953125 242.40405273 C121.80052356 242.44095675 119.83207333 242.50455633 117.86376953 242.56884766 C107.82742289 242.69621246 99.26828581 240.81915433 91.00048828 234.87939453 C86.89036503 230.35825896 84.27565636 225.27082655 84.25048828 219.06689453 C84.33298828 218.09751953 84.41548828 217.12814453 84.50048828 216.12939453 C85.16048828 216.12939453 85.82048828 216.12939453 86.50048828 216.12939453 C86.57396484 215.22447266 86.57396484 215.22447266 86.64892578 214.30126953 C86.72369141 213.50205078 86.79845703 212.70283203 86.87548828 211.87939453 C86.94509766 211.09048828 87.01470703 210.30158203 87.08642578 209.48876953 C87.9047507 204.8258615 89.95880495 202.42628387 93.50048828 199.37939453 C94.20173828 198.76580078 94.90298828 198.15220703 95.62548828 197.52001953 C97.50048828 196.12939453 97.50048828 196.12939453 99.50048828 196.12939453 C99.50048828 195.46939453 99.50048828 194.80939453 99.50048828 194.12939453 C100.09861328 193.90251953 100.69673828 193.67564453 101.31298828 193.44189453 C104.22300731 191.69588311 105.18052758 190.25561724 106.50048828 187.12939453 C106.40402791 182.0169947 104.8251683 178.36575713 102.34033203 174.02392578 C101.50048828 172.12939453 101.50048828 172.12939453 101.50048828 168.12939453 C100.84048828 168.12939453 100.18048828 168.12939453 99.50048828 168.12939453 C96.50048828 161.50439453 96.50048828 161.50439453 96.50048828 158.12939453 C95.84048828 158.12939453 95.18048828 158.12939453 94.50048828 158.12939453 C93.99681071 156.67232727 93.49766272 155.21369357 93.00048828 153.75439453 C92.72205078 152.94228516 92.44361328 152.13017578 92.15673828 151.29345703 C91.50048828 149.12939453 91.50048828 149.12939453 91.50048828 147.12939453 C90.84048828 147.12939453 90.18048828 147.12939453 89.50048828 147.12939453 C88.2438385 144.22339192 87.50048828 142.33334869 87.50048828 139.12939453 C86.41626335 139.13938728 86.41626335 139.13938728 85.31013489 139.14958191 C78.44179648 139.21011564 71.5734988 139.25558119 64.70496082 139.28483105 C61.17517879 139.30037512 57.64562026 139.3214024 54.1159668 139.35571289 C50.042298 139.39505611 45.96885773 139.40919652 41.89501953 139.42236328 C40.02702446 139.44558907 40.02702446 139.44558907 38.12129211 139.46928406 C29.86921445 139.47084194 22.45289702 138.32680136 14.50048828 136.12939453 C14.50048828 135.46939453 14.50048828 134.80939453 14.50048828 134.12939453 C13.62005859 134.03529297 12.73962891 133.94119141 11.83251953 133.84423828 C2.21482144 131.78088687 -5.69404324 122.63184611 -11.49951172 115.12939453 C-13.1102489 112.40275479 -13.49951172 111.3638673 -13.49951172 108.12939453 C-14.15951172 108.12939453 -14.81951172 108.12939453 -15.49951172 108.12939453 C-17.15032396 101.64227937 -17.78087712 95.78907558 -17.7265625 89.11157227 C-17.72685455 88.15440811 -17.72714661 87.19724396 -17.72744751 86.21107483 C-17.72606511 83.07828391 -17.71055561 79.94573715 -17.69482422 76.81298828 C-17.69109021 74.62866852 -17.68824507 72.44434707 -17.68624878 70.26002502 C-17.67864289 64.5340811 -17.65902069 58.80823997 -17.63684082 53.08233643 C-17.61631663 47.23019806 -17.60723304 41.37804295 -17.59716797 35.52587891 C-17.5757718 24.06033916 -17.54167283 12.59487542 -17.49951172 1.12939453 C-11.67533462 -0.1264736 -5.92597121 -0.01109143 0 0 Z M87.50048828 54.12939453 C87.50048828 54.78939453 87.50048828 55.44939453 87.50048828 56.12939453 C86.51048828 56.45939453 85.52048828 56.78939453 84.50048828 57.12939453 C81.81717175 62.63725477 81.46288762 69.32012085 83.07080078 75.22314453 C84.33591599 78.36595704 85.74767201 81.09470424 88.50048828 83.12939453 C89.16048828 83.12939453 89.82048828 83.12939453 90.50048828 83.12939453 C90.50048828 83.78939453 90.50048828 84.44939453 90.50048828 85.12939453 C96.74836154 88.38915449 102.61430093 89.32771805 109.55517578 87.62548828 C114.84655132 85.63838373 117.38305191 82.47601092 119.75048828 77.50439453 C121.43020568 69.94566624 121.42734712 62.8998408 117.50048828 56.12939453 C113.67316275 51.57798038 109.92997459 48.65538936 103.95361328 47.73876953 C96.94671046 47.31293566 92.28151212 48.84149997 87.50048828 54.12939453 Z " fill="#1E201F" transform="translate(135.49951171875,146.87060546875)"/>
<path d="M0 0 C5.10688667 0.63524828 10.16115108 0.80257299 15.30297852 0.89868164 C16.71552162 0.92985329 16.71552162 0.92985329 18.15660095 0.96165466 C21.13110872 1.02644317 24.10569607 1.08570241 27.08032227 1.14477539 C29.11092908 1.18802804 31.14152818 1.23164435 33.17211914 1.27563477 C38.12060767 1.38205082 43.06917532 1.48351205 48.01782227 1.58227539 C48.28762909 2.19335144 48.55743591 2.80442749 48.8354187 3.434021 C49.19193512 4.23930237 49.54845154 5.04458374 49.91577148 5.87426758 C50.26807831 6.67096863 50.62038513 7.46766968 50.98336792 8.28851318 C52.28747405 11.18019165 53.70019399 14.00744306 55.14282227 16.83227539 C60.01782227 26.38020285 60.01782227 26.38020285 60.01782227 31.58227539 C60.67782227 31.58227539 61.33782227 31.58227539 62.01782227 31.58227539 C65.01782227 38.20727539 65.01782227 38.20727539 65.01782227 41.58227539 C65.67782227 41.58227539 66.33782227 41.58227539 67.01782227 41.58227539 C67.52397524 42.85067065 68.02251326 44.12210641 68.51782227 45.39477539 C68.93547852 46.45631836 68.93547852 46.45631836 69.36157227 47.53930664 C70.01782227 49.58227539 70.01782227 49.58227539 70.01782227 52.58227539 C70.67782227 52.58227539 71.33782227 52.58227539 72.01782227 52.58227539 C72.34782227 54.56227539 72.67782227 56.54227539 73.01782227 58.58227539 C26.48782227 58.58227539 -20.04217773 58.58227539 -67.98217773 58.58227539 C-66.85388826 51.81253855 -66.85388826 51.81253855 -65.29467773 48.45727539 C-64.94405273 47.69930664 -64.59342773 46.94133789 -64.23217773 46.16040039 C-62.28513835 42.14463166 -60.28034902 38.15894521 -58.25170898 34.18383789 C-56.90360722 31.56632426 -56.90360722 31.56632426 -55.98217773 28.58227539 C-55.32217773 28.58227539 -54.66217773 28.58227539 -53.98217773 28.58227539 C-52.49717773 23.13727539 -52.49717773 23.13727539 -50.98217773 17.58227539 C-50.32217773 17.58227539 -49.66217773 17.58227539 -48.98217773 17.58227539 C-48.85842773 16.86040039 -48.73467773 16.13852539 -48.60717773 15.39477539 C-47.99168464 12.62505645 -47.09773399 10.18523999 -45.98217773 7.58227539 C-45.32217773 7.58227539 -44.66217773 7.58227539 -43.98217773 7.58227539 C-43.65217773 5.60227539 -43.32217773 3.62227539 -42.98217773 1.58227539 C-41.87181152 1.55721924 -40.76144531 1.53216309 -39.61743164 1.50634766 C-35.50614455 1.41232624 -31.3950285 1.31209282 -27.28393555 1.20996094 C-25.50305171 1.1665921 -23.72212576 1.12491846 -21.94116211 1.08496094 C-19.38439225 1.02730549 -16.82783475 0.96359769 -14.27124023 0.89868164 C-13.47223297 0.88196915 -12.67322571 0.86525665 -11.8500061 0.84803772 C-7.59895345 0.73355451 -4.13671796 -0.58406754 0 0 Z " fill="#1F2020" transform="translate(180.982177734375,422.417724609375)"/>
<path d="M0 0 C0.99 0 1.98 0 3 0 C3 0.66 3 1.32 3 2 C3.66 2 4.32 2 5 2 C5.96277259 4.35243492 6.92028498 6.70679619 7.875 9.0625 C8.14441406 9.71927734 8.41382813 10.37605469 8.69140625 11.05273438 C10.41389523 15.31694491 11.80982981 19.55708313 13 24 C13.66 24 14.32 24 15 24 C15.29390625 24.804375 15.29390625 24.804375 15.59375 25.625 C18.2841699 32.6757556 21.58661435 39.35083819 25 46.0703125 C25.32484375 46.71000977 25.6496875 47.34970703 25.984375 48.00878906 C26.69852348 49.40893209 27.41773426 50.80649894 28.140625 52.20214844 C28.50671875 52.91661133 28.8728125 53.63107422 29.25 54.3671875 C29.58515625 55.0154248 29.9203125 55.66366211 30.265625 56.33154297 C31 58 31 58 31 60 C28.46115401 61.26942299 26.68949709 61.12701165 23.84765625 61.12939453 C22.23588501 61.13412277 22.23588501 61.13412277 20.59155273 61.13894653 C19.42696533 61.1369223 18.26237793 61.13489807 17.0625 61.1328125 C15.27598022 61.13424759 15.27598022 61.13424759 13.45336914 61.13571167 C10.93147733 61.13639315 8.40958377 61.1345411 5.88769531 61.13037109 C2.01623616 61.12502243 -1.85510698 61.13031721 -5.7265625 61.13671875 C-8.17187526 61.13605796 -10.61718794 61.13477679 -13.0625 61.1328125 C-14.2270874 61.13483673 -15.3916748 61.13686096 -16.59155273 61.13894653 C-17.66606689 61.13579437 -18.74058105 61.13264221 -19.84765625 61.12939453 C-20.79648682 61.12859894 -21.74531738 61.12780334 -22.72290039 61.12698364 C-25 61 -25 61 -27 60 C-26.24029922 56.64132288 -25.12906745 53.47876342 -23.9375 50.25 C-23.57527344 49.26515625 -23.21304688 48.2803125 -22.83984375 47.265625 C-22.42412109 46.14414062 -22.42412109 46.14414062 -22 45 C-21.34 45 -20.68 45 -20 45 C-19.01 41.7 -18.02 38.4 -17 35 C-16.34 35 -15.68 35 -15 35 C-14.87625 34.113125 -14.7525 33.22625 -14.625 32.3125 C-14.05587264 29.29612498 -13.23385564 26.79673946 -12 24 C-11.34 24 -10.68 24 -10 24 C-9.01 20.37 -8.02 16.74 -7 13 C-6.34 13 -5.68 13 -5 13 C-4.86722656 12.37351562 -4.73445313 11.74703125 -4.59765625 11.1015625 C-4.42105469 10.28429687 -4.24445313 9.46703125 -4.0625 8.625 C-3.80146484 7.40683594 -3.80146484 7.40683594 -3.53515625 6.1640625 C-3 4 -3 4 -2 2 C-1.34 2 -0.68 2 0 2 C0 1.34 0 0.68 0 0 Z " fill="#202020" transform="translate(182,326)"/>
<path d="M0 0 C0.66 0 1.32 0 2 0 C5.04941336 11.50722022 5.04941336 11.50722022 5.625 16.6875 C5.63363845 19.84133079 5.63363845 19.84133079 7 21 C8.33456365 30.98595131 8.13739693 41.11933914 8.11352539 51.1730957 C8.11324267 52.85972085 8.1134029 54.54634612 8.1139679 56.23297119 C8.11425257 60.77132383 8.10840955 65.30964956 8.10139394 69.847996 C8.09510511 74.60587185 8.09455225 79.36374844 8.09336853 84.12162781 C8.09027142 93.11331486 8.08208005 102.10498962 8.07201904 111.09667128 C8.06080736 121.34103251 8.05533476 131.58539435 8.05032361 141.82976019 C8.03989594 162.88651363 8.02232814 183.94325604 8 205 C7.34 205 6.68 205 6 205 C4.78963666 202.57927331 4.86206714 201.02675975 4.84178162 198.32113647 C4.8319928 197.33283844 4.82220398 196.34454041 4.81211853 195.32629395 C4.80636307 194.23683472 4.8006076 193.14737549 4.79467773 192.02490234 C4.78477814 190.87941925 4.77487854 189.73393616 4.76467896 188.55374146 C4.73288627 184.73116154 4.70818444 180.90857003 4.68359375 177.0859375 C4.66298716 174.40450667 4.64202299 171.72308086 4.62062073 169.04165649 C4.57623204 163.3837486 4.53553733 157.72582385 4.49731445 152.06787109 C4.4491371 144.93862054 4.39525009 137.80942653 4.33933067 130.680233 C3.97236371 83.8757027 3.97236371 83.8757027 4.00830078 66.68457031 C4.01085609 65.29613765 4.01085609 65.29613765 4.01346302 63.87965584 C4.02235934 59.76198824 4.03748398 55.6445285 4.0655365 51.52694702 C4.1027496 44.13606564 3.95888137 36.78119249 3.56030273 29.39990234 C3.52120568 28.66996881 3.48210863 27.94003529 3.44182682 27.18798256 C3.04927749 16.25952675 3.04927749 16.25952675 0 6 C-0.039992 4.00039988 -0.04346799 1.99952758 0 0 Z " fill="#777777" transform="translate(336,202)"/>
<path d="M0 0 C0.99 0.33 1.98 0.66 3 1 C3 34.66 3 68.32 3 103 C4.32 103 5.64 103 7 103 C7.0825 104.216875 7.165 105.43375 7.25 106.6875 C7.76218449 110.83619435 9.09942787 112.92880598 12 116 C13.8125 118.125 13.8125 118.125 15 120 C14.67 120.99 14.34 121.98 14 123 C12.50946894 121.28061972 11.03296575 119.54907187 9.5625 117.8125 C8.73878906 116.84957031 7.91507812 115.88664062 7.06640625 114.89453125 C5.05561826 112.07790762 4.3412259 110.39364669 4 107 C3.34 107 2.68 107 2 107 C0.34918775 100.51288484 -0.2813654 94.65968104 -0.22705078 87.98217773 C-0.22734283 87.02501358 -0.22763489 86.06784943 -0.22793579 85.0816803 C-0.2265534 81.94888937 -0.21104389 78.81634262 -0.1953125 75.68359375 C-0.19157849 73.49927399 -0.18873335 71.31495254 -0.18673706 69.13063049 C-0.17913117 63.40468657 -0.15950897 57.67884544 -0.1373291 51.95294189 C-0.11680491 46.10080353 -0.10772132 40.24864842 -0.09765625 34.39648438 C-0.07626008 22.93094463 -0.04216111 11.46548089 0 0 Z " fill="#585958" transform="translate(118,148)"/>
<path d="M0 0 C2 2 2 2 2 5 C2.66 5 3.32 5 4 5 C4.33 6.98 4.66 8.96 5 11 C-41.53 11 -88.06 11 -136 11 C-134.875 4.25 -134.875 4.25 -132 2 C-132.33 3.98 -132.66 5.96 -133 8 C-117.36069355 8.98185765 -101.77594233 9.13218125 -86.109375 9.09765625 C-83.58205188 9.09578616 -81.0547284 9.09436506 -78.52740479 9.09336853 C-72.61359509 9.0899736 -66.69980507 9.08213715 -60.78600335 9.07201904 C-54.0383913 9.06073191 -47.29077819 9.05531614 -40.54315901 9.05032361 C-26.69542855 9.03994983 -12.84771607 9.02222189 1 9 C0.67 6.03 0.34 3.06 0 0 Z " fill="#696969" transform="translate(249,470)"/>
<path d="M0 0 C1.61455078 0.14018555 1.61455078 0.14018555 3.26171875 0.28320312 C4.38964844 0.38697266 5.51757812 0.49074219 6.6796875 0.59765625 C8.38318359 0.74750977 8.38318359 0.74750977 10.12109375 0.90039062 C12.93279249 1.14848169 15.74390179 1.40195837 18.5546875 1.66015625 C18.5546875 1.99015625 18.5546875 2.32015625 18.5546875 2.66015625 C11.12124875 3.79703512 4.0363933 3.47173478 -3.41796875 2.81640625 C-4.91650391 2.7390625 -4.91650391 2.7390625 -6.4453125 2.66015625 C-6.7753125 2.99015625 -7.1053125 3.32015625 -7.4453125 3.66015625 C-9.35075502 3.76017453 -11.25990406 3.79096673 -13.16796875 3.79296875 C-14.34681641 3.79425781 -15.52566406 3.79554688 -16.74023438 3.796875 C-17.98353516 3.79300781 -19.22683594 3.78914063 -20.5078125 3.78515625 C-22.3321582 3.79095703 -22.3321582 3.79095703 -24.19335938 3.796875 C-30.3713737 3.7901707 -36.33946075 3.62062731 -42.4453125 2.66015625 C-42.53167969 3.31242187 -42.61804688 3.9646875 -42.70703125 4.63671875 C-43.70244574 10.82837954 -45.20277697 13.91255696 -49.4453125 18.66015625 C-50.59874122 21.00637986 -51.59340426 23.37254255 -52.55078125 25.8046875 C-53.4453125 27.66015625 -53.4453125 27.66015625 -55.4453125 28.66015625 C-53.9603125 23.21515625 -53.9603125 23.21515625 -52.4453125 17.66015625 C-51.7853125 17.66015625 -51.1253125 17.66015625 -50.4453125 17.66015625 C-50.2596875 16.57734375 -50.2596875 16.57734375 -50.0703125 15.47265625 C-49.4548194 12.70293731 -48.56086876 10.26312085 -47.4453125 7.66015625 C-46.7853125 7.66015625 -46.1253125 7.66015625 -45.4453125 7.66015625 C-45.1153125 5.68015625 -44.7853125 3.70015625 -44.4453125 1.66015625 C-43.33494629 1.6351001 -42.22458008 1.61004395 -41.08056641 1.58422852 C-36.96927931 1.4902071 -32.85816327 1.38997368 -28.74707031 1.2878418 C-26.96618647 1.24447295 -25.18526052 1.20279931 -23.40429688 1.1628418 C-20.84752702 1.10518635 -18.29096952 1.04147855 -15.734375 0.9765625 C-14.93536774 0.95985001 -14.13636047 0.94313751 -13.31314087 0.92591858 C-8.53206392 0.79716152 -4.76573036 -0.42640745 0 0 Z " fill="#4B4B4B" transform="translate(182.4453125,422.33984375)"/>
<path d="M0 0 C40.26 0 80.52 0 122 0 C122 0.33 122 0.66 122 1 C105.97638817 3.06756282 90.14151056 3.22739449 74 3 C74 2.34 74 1.68 74 1 C49.58 1 25.16 1 0 1 C0 0.67 0 0.34 0 0 Z " fill="#757575" transform="translate(124,147)"/>
<path d="M0 0 C0.33 0 0.66 0 1 0 C1.33 40.59 1.66 81.18 2 123 C1.34 122.67 0.68 122.34 0 122 C-1.6526455 111.04277418 -1.12329864 99.61523464 -1.0625 88.5625 C-1.05746709 86.94466287 -1.0529074 85.32682419 -1.04882812 83.70898438 C-1.03798246 79.80595033 -1.02082023 75.90299305 -1 72 C-4.01031744 71.06576355 -4.86650268 70.95550089 -8 72 C-8 70.68 -8 69.36 -8 68 C-5.36 68.33 -2.72 68.66 0 69 C0 68.34 0 67.68 0 67 C-1.32 66.67 -2.64 66.34 -4 66 C-2.515 65.505 -2.515 65.505 -1 65 C-0.67 43.55 -0.34 22.1 0 0 Z " fill="#373737" transform="translate(340,284)"/>
<path d="M0 0 C0.66 0 1.32 0 2 0 C1.71572583 1.58467728 1.42225182 3.1677057 1.125 4.75 C0.96257812 5.63171875 0.80015625 6.5134375 0.6328125 7.421875 C0.02938267 9.88029283 -0.83504361 11.76958528 -2 14 C-0.10894531 13.99214478 -0.10894531 13.99214478 1.8203125 13.98413086 C6.524244 13.96594936 11.22817243 13.95452013 15.93212891 13.94506836 C17.96305871 13.94005811 19.99398494 13.93324809 22.02490234 13.92456055 C24.95411057 13.91234953 27.88327085 13.90673847 30.8125 13.90234375 C31.71178223 13.89718246 32.61106445 13.89202118 33.53759766 13.88670349 C38.78569067 13.88624272 43.80624001 14.23729846 49 15 C49 12.36 49 9.72 49 7 C51.15377564 9.62198774 52.40072174 11.64404172 53 15 C50.46115401 16.26942299 48.68949709 16.12701165 45.84765625 16.12939453 C44.23588501 16.13412277 44.23588501 16.13412277 42.59155273 16.13894653 C41.42696533 16.1369223 40.26237793 16.13489807 39.0625 16.1328125 C37.27598022 16.13424759 37.27598022 16.13424759 35.45336914 16.13571167 C32.93147733 16.13639315 30.40958377 16.1345411 27.88769531 16.13037109 C24.01623616 16.12502243 20.14489302 16.13031721 16.2734375 16.13671875 C13.82812474 16.13605796 11.38281206 16.13477679 8.9375 16.1328125 C7.7729126 16.13483673 6.6083252 16.13686096 5.40844727 16.13894653 C4.33393311 16.13579437 3.25941895 16.13264221 2.15234375 16.12939453 C1.20351318 16.12859894 0.25468262 16.12780334 -0.72290039 16.12698364 C-3 16 -3 16 -5 15 C-4.24029922 11.64132288 -3.12906745 8.47876342 -1.9375 5.25 C-1.57527344 4.26515625 -1.21304688 3.2803125 -0.83984375 2.265625 C-0.56269531 1.51796875 -0.28554687 0.7703125 0 0 Z " fill="#2C2C2C" transform="translate(160,371)"/>
<path d="M0 0 C0.66 0 1.32 0 2 0 C5.04941336 11.50722022 5.04941336 11.50722022 5.625 16.6875 C5.63363845 19.84133079 5.63363845 19.84133079 7 21 C8.11415464 29.0961904 8.05351939 36.91221266 7 45 C6.67 45 6.34 45 6 45 C5.67 56.22 5.34 67.44 5 79 C4.67 79 4.34 79 4 79 C4.00523682 77.88254395 4.01047363 76.76508789 4.01586914 75.61376953 C4.03428742 71.37549678 4.04556316 67.13722737 4.05493164 62.89892578 C4.0598893 61.08186239 4.06665744 59.26480283 4.07543945 57.44775391 C4.11987174 48.00197234 4.0756882 38.58234546 3.55859375 29.1484375 C3.51960464 28.43438751 3.48061554 27.72033752 3.44044495 26.98464966 C3.02374182 16.17845822 3.02374182 16.17845822 0 6 C-0.039992 4.00039988 -0.04346799 1.99952758 0 0 Z " fill="#494949" transform="translate(336,202)"/>
<path d="M0 0 C0.33 0 0.66 0 1 0 C1.06058594 0.89203125 1.12117188 1.7840625 1.18359375 2.703125 C1.26738281 3.87359375 1.35117187 5.0440625 1.4375 6.25 C1.55931641 7.99023438 1.55931641 7.99023438 1.68359375 9.765625 C1.9340338 12.32567884 2.3414807 14.53465371 3 17 C4.46578491 16.99214478 4.46578491 16.99214478 5.96118164 16.98413086 C30.99241329 16.86256409 55.98083896 17.22440395 81 18 C81 18.33 81 18.66 81 19 C70.89926937 19.11581961 60.79869654 19.20467755 50.69743729 19.25906086 C46.00703742 19.28516155 41.31709163 19.32056787 36.62695312 19.37719727 C32.1011585 19.43150075 27.57580076 19.46141698 23.04970551 19.47438622 C21.32246776 19.48362915 19.59525409 19.50167872 17.86820221 19.52865028 C15.44969409 19.56492026 13.03299387 19.56994648 10.61425781 19.56762695 C9.89928131 19.58560333 9.18430481 19.60357971 8.44766235 19.62210083 C4.73294946 19.58352073 3.27518056 19.26349727 0.55072021 16.65470886 C-1.32045177 13.45141223 -1.44520828 11.4962988 -1.3125 7.8125 C-1.28800781 6.76707031 -1.26351563 5.72164063 -1.23828125 4.64453125 C-1 2 -1 2 0 0 Z " fill="#646464" transform="translate(261,462)"/>
<path d="M0 0 C5.84950002 0.52227679 10.57882552 1.81368272 16 4 C17.99640639 4.67735217 19.99504414 5.34838935 22 6 C22 6.66 22 7.32 22 8 C22.56847656 8.15855469 23.13695312 8.31710938 23.72265625 8.48046875 C29.33914228 10.17760393 33.47230858 12.24297946 38 16 C38 16.66 38 17.32 38 18 C38.804375 18.268125 39.60875 18.53625 40.4375 18.8125 C41.283125 19.204375 42.12875 19.59625 43 20 C43.495 21.485 43.495 21.485 44 23 C44.66 23.33 45.32 23.66 46 24 C46.66 24.33 47.32 24.66 48 25 C48.495 26.485 48.495 26.485 49 28 C49.66 28.33 50.32 28.66 51 29 C51.66 29.33 52.32 29.66 53 30 C53.495 31.485 53.495 31.485 54 33 C54.515625 33.515625 55.03125 34.03125 55.5625 34.5625 C56.036875 35.036875 56.51125 35.51125 57 36 C57 36.66 57 37.32 57 38 C56.34 38 55.68 38 55 38 C50 32.52380952 50 32.52380952 50 30 C49.401875 29.9175 48.80375 29.835 48.1875 29.75 C45.37067727 28.78423221 44.52200868 27.51131433 43 25 C43 24.34 43 23.68 43 23 C42.01 22.67 41.02 22.34 40 22 C40 21.34 40 20.68 40 20 C38.68 19.67 37.36 19.34 36 19 C36 18.34 36 17.68 36 17 C34.68 16.67 33.36 16.34 32 16 C32 15.34 32 14.68 32 14 C31.37351562 13.79503906 30.74703125 13.59007812 30.1015625 13.37890625 C29.28429687 13.10949219 28.46703125 12.84007812 27.625 12.5625 C26.81289063 12.29566406 26.00078125 12.02882812 25.1640625 11.75390625 C23 11 23 11 21 10 C21 9.34 21 8.68 21 8 C18.03 7.34 15.06 6.68 12 6 C12 5.34 12 4.68 12 4 C11.38511719 3.93941406 10.77023437 3.87882813 10.13671875 3.81640625 C9.32847656 3.73261719 8.52023437 3.64882812 7.6875 3.5625 C6.88699219 3.48128906 6.08648437 3.40007812 5.26171875 3.31640625 C3 3 3 3 0 2 C0 1.34 0 0.68 0 0 Z " fill="#767676" transform="translate(272,149)"/>
<path d="M0 0 C1.32 0 2.64 0 4 0 C4.144375 1.051875 4.28875 2.10375 4.4375 3.1875 C4.87526966 6.15460549 5.37804866 9.06794366 6 12 C7.65 12 9.3 12 11 12 C10.34 13.98 9.68 15.96 9 18 C9.66 18 10.32 18 11 18 C11 19.65 11 21.3 11 23 C9.02 23.99 9.02 23.99 7 25 C7 24.34 7 23.68 7 23 C6.34 23 5.68 23 5 23 C4.8046875 20.94921875 4.609375 18.8984375 4.4140625 16.84765625 C4.20910156 15.93306641 4.20910156 15.93306641 4 15 C3.34 14.67 2.68 14.34 2 14 C-0.11596899 9.18029285 -0.17786056 5.15795631 0 0 Z " fill="#323433" transform="translate(258,288)"/>
<path d="M0 0 C0.7734375 0.2165625 0.7734375 0.2165625 1.5625 0.4375 C4.68509571 1.15809901 7.82550692 1.57266439 11 2 C11 2.66 11 3.32 11 4 C11.66 4 12.32 4 13 4 C13 4.66 13 5.32 13 6 C13.85464844 6.13277344 14.70929688 6.26554687 15.58984375 6.40234375 C17.24693359 6.66724609 17.24693359 6.66724609 18.9375 6.9375 C20.03964844 7.11152344 21.14179688 7.28554688 22.27734375 7.46484375 C25 8 25 8 26 9 C27.84031989 9.12337174 29.68529411 9.17791308 31.52954102 9.20532227 C32.71068985 9.22526749 33.89183868 9.24521271 35.10877991 9.26576233 C36.3941716 9.28247482 37.67956329 9.29918732 39.00390625 9.31640625 C40.31205795 9.33718735 41.62020966 9.35796844 42.96800232 9.37937927 C46.45155447 9.434663 49.9351666 9.48404431 53.41882324 9.53222656 C56.9713273 9.58239574 60.5237439 9.63810567 64.07617188 9.69335938 C71.05070546 9.80101791 78.02531798 9.90244567 85 10 C85 10.33 85 10.66 85 11 C77.40156309 11.07003094 69.80316036 11.12307729 62.20447254 11.15543652 C58.67469051 11.17098059 55.14513198 11.19200787 51.61547852 11.22631836 C47.54180972 11.26566158 43.46836944 11.27980199 39.39453125 11.29296875 C37.52653618 11.31619453 37.52653618 11.31619453 35.62080383 11.33988953 C27.36872617 11.3414474 19.95240874 10.19740683 12 8 C12 7.34 12 6.68 12 6 C11.13375 5.9175 10.2675 5.835 9.375 5.75 C5.50735871 4.89052416 3.13222497 3.38645712 0 1 C0 0.67 0 0.34 0 0 Z " fill="#737574" transform="translate(138,275)"/>
<path d="M0 0 C0 0.99 0 1.98 0 3 C0.66 3.33 1.32 3.66 2 4 C0.35 3.67 -1.3 3.34 -3 3 C-2.54625 3.45375 -2.0925 3.9075 -1.625 4.375 C-0.41666667 5.58333333 0.79166667 6.79166667 2 8 C-2.75 9 -2.75 9 -5 9 C-7.00212229 9.32033957 -9.00239695 9.65259077 -11 10 C-11 9.34 -11 8.68 -11 8 C-11.99 8.33 -12.98 8.66 -14 9 C-14.33 7.02 -14.66 5.04 -15 3 C-13.906875 2.87625 -12.81375 2.7525 -11.6875 2.625 C-7.12545157 1.85177145 -4.7464946 -0.25656728 0 0 Z " fill="#2B2D2C" transform="translate(204,456)"/>
<path d="M0 0 C0.99 0 1.98 0 3 0 C3 0.66 3 1.32 3 2 C3.66 2 4.32 2 5 2 C5.98459071 4.3937297 6.96278703 6.7897507 7.9375 9.1875 C8.21529297 9.86103516 8.49308594 10.53457031 8.77929688 11.22851562 C10.22621056 14.80221811 11.41163129 18.16443184 12 22 C11.34 22 10.68 22 10 22 C9.67 20.35 9.34 18.7 9 17 C8.34 17 7.68 17 7 17 C4.97944157 12.60748167 3.59104765 8.84659077 3 4 C2.01 3.67 1.02 3.34 0 3 C-0.19335938 3.63808594 -0.38671875 4.27617187 -0.5859375 4.93359375 C-0.84632813 5.75988281 -1.10671875 6.58617187 -1.375 7.4375 C-1.75785156 8.67306641 -1.75785156 8.67306641 -2.1484375 9.93359375 C-3 12 -3 12 -5 13 C-4.69078116 11.54096742 -4.37751201 10.08279278 -4.0625 8.625 C-3.88847656 7.81289063 -3.71445313 7.00078125 -3.53515625 6.1640625 C-3 4 -3 4 -2 2 C-1.34 2 -0.68 2 0 2 C0 1.34 0 0.68 0 0 Z " fill="#575757" transform="translate(182,326)"/>
<path d="M0 0 C0.33 0 0.66 0 1 0 C1.06058594 0.89203125 1.12117188 1.7840625 1.18359375 2.703125 C1.26738281 3.87359375 1.35117187 5.0440625 1.4375 6.25 C1.55931641 7.99023438 1.55931641 7.99023438 1.68359375 9.765625 C1.9355392 13.15845566 1.9355392 13.15845566 3 17 C15.87 17 28.74 17 42 17 C42 17.33 42 17.66 42 18 C36.35836923 18.0988093 30.71724101 18.17143996 25.07495117 18.21972656 C23.15526559 18.23985348 21.23564138 18.2671579 19.31616211 18.30175781 C16.55827704 18.3502293 13.80120173 18.37295742 11.04296875 18.390625 C10.18350143 18.41127014 9.32403412 18.43191528 8.43852234 18.45318604 C2.50599399 18.4554248 2.50599399 18.4554248 -0.04467773 16.15966797 C-1.31627181 13.28501394 -1.32699148 11.00855304 -1.25 7.875 C-1.23453125 6.82054687 -1.2190625 5.76609375 -1.203125 4.6796875 C-1 2 -1 2 0 0 Z " fill="#333433" transform="translate(261,462)"/>
<path d="M0 0 C2.15377564 2.62198774 3.40072174 4.64404172 4 8 C1.45061185 9.27469407 -0.33040998 9.12016184 -3.18408203 9.11352539 C-4.26505157 9.11344986 -5.34602112 9.11337433 -6.45974731 9.11329651 C-8.21603958 9.10555458 -8.21603958 9.10555458 -10.0078125 9.09765625 C-11.20356903 9.0962413 -12.39932556 9.09482635 -13.63131714 9.09336853 C-17.46256987 9.08775663 -21.29376484 9.07520208 -25.125 9.0625 C-27.71744707 9.05748653 -30.30989506 9.05292336 -32.90234375 9.04882812 C-39.26824898 9.03778333 -45.63412037 9.02103359 -52 9 C-52 8.67 -52 8.34 -52 8 C-34.84 8 -17.68 8 0 8 C0 5.36 0 2.72 0 0 Z " fill="#949494" transform="translate(209,378)"/>
<path d="M0 0 C0.99 0 1.98 0 3 0 C3.21914062 0.51046875 3.43828125 1.0209375 3.6640625 1.546875 C6.13026771 7.20110158 8.82783176 12.70943216 11.6328125 18.203125 C15 25.09142857 15 25.09142857 15 29 C12 28 12 28 10.68359375 25.48828125 C10.27238281 24.44027344 9.86117187 23.39226562 9.4375 22.3125 C8.81681641 20.75982422 8.81681641 20.75982422 8.18359375 19.17578125 C7.05115167 16.13724854 6.00313962 13.08338308 5 10 C4.34 10 3.68 10 3 10 C2.01 6.7 1.02 3.4 0 0 Z " fill="#787979" transform="translate(226,424)"/>
<path d="M0 0 C0.66 0.33 1.32 0.66 2 1 C1.54109375 1.36609375 1.0821875 1.7321875 0.609375 2.109375 C-5.20630298 7.24085557 -7.05981116 12.61948265 -9 20 C-9.33837891 21.26263672 -9.33837891 21.26263672 -9.68359375 22.55078125 C-10.14965511 24.360385 -10.57981471 26.17919708 -11 28 C-11.66 27.67 -12.32 27.34 -13 27 C-13 24.69 -13 22.38 -13 20 C-12.34 20 -11.68 20 -11 20 C-10.95101562 19.39671875 -10.90203125 18.7934375 -10.8515625 18.171875 C-10.77679688 17.37265625 -10.70203125 16.5734375 -10.625 15.75 C-10.52058594 14.56664062 -10.52058594 14.56664062 -10.4140625 13.359375 C-9.58320673 8.62506476 -7.50729835 6.29644378 -3.875 3.25 C-3.15054688 2.63640625 -2.42609375 2.0228125 -1.6796875 1.390625 C-0.84824219 0.70226562 -0.84824219 0.70226562 0 0 Z " fill="#626262" transform="translate(233,343)"/>
<path d="M0 0 C2 3 2 3 2 7 C2.66 7 3.32 7 4 7 C5.48676266 15.17719464 5.81036919 23.85333864 4 32 C3.34 32 2.68 32 2 32 C2.03480469 30.15535156 2.03480469 30.15535156 2.0703125 28.2734375 C2.08908039 26.6406311 2.10727949 25.0078181 2.125 23.375 C2.14175781 22.56675781 2.15851563 21.75851562 2.17578125 20.92578125 C2.21460177 16.15085727 1.68347654 12.52434321 0 8 C-0.22663986 5.28938725 -0.0940868 2.72851708 0 0 Z " fill="#666766" transform="translate(395,410)"/>
<path d="M0 0 C0.66 0 1.32 0 2 0 C2 1.32 2 2.64 2 4 C3.32 4 4.64 4 6 4 C6.12375 5.8253125 6.12375 5.8253125 6.25 7.6875 C6.76218449 11.83619435 8.09942787 13.92880598 11 17 C12.8125 19.125 12.8125 19.125 14 21 C13.67 21.99 13.34 22.98 13 24 C11.50946894 22.28061972 10.03296575 20.54907187 8.5625 18.8125 C7.32693359 17.36810547 7.32693359 17.36810547 6.06640625 15.89453125 C4.05561826 13.07790762 3.3412259 11.39364669 3 8 C2.34 8 1.68 8 1 8 C0.67 5.36 0.34 2.72 0 0 Z " fill="#595B5A" transform="translate(119,247)"/>
<path d="M0 0 C0.99 0.33 1.98 0.66 3 1 C3.66 5.95 4.32 10.9 5 16 C4.34 16 3.68 16 3 16 C2.9175 17.0725 2.835 18.145 2.75 19.25 C1.94429847 23.27850766 1.21808534 24.56205656 -2 27 C-2.66 27 -3.32 27 -4 27 C-3.731875 26.484375 -3.46375 25.96875 -3.1875 25.4375 C-2.795625 24.633125 -2.40375 23.82875 -2 23 C-1.46375 21.989375 -0.9275 20.97875 -0.375 19.9375 C2.29940305 13.68371914 1.45055982 6.48072694 0 0 Z " fill="#575857" transform="translate(254,205)"/>
<path d="M0 0 C3 1 3 1 4.25 3.3125 C5.40540541 7.4527027 5.40540541 7.4527027 4 10 C2 10.66666667 0 11.33333333 -2 12 C-2.8237956 13.96128755 -2.8237956 13.96128755 -3 16 C-5 18 -5 18 -7.625 18.125 C-8.40875 18.08375 -9.1925 18.0425 -10 18 C-8.68774191 14.06322574 -6.8038606 13.1728218 -3.4375 10.8125 C-2.42558594 10.09707031 -1.41367187 9.38164062 -0.37109375 8.64453125 C0.80259766 7.83048828 0.80259766 7.83048828 2 7 C1.34 4.69 0.68 2.38 0 0 Z " fill="#646464" transform="translate(284,416)"/>
<path d="M0 0 C5.84950002 0.52227679 10.57882552 1.81368272 16 4 C17.99640639 4.67735217 19.99504414 5.34838935 22 6 C22 6.66 22 7.32 22 8 C23.98 8.66 25.96 9.32 28 10 C28 10.66 28 11.32 28 12 C25.69 11.34 23.38 10.68 21 10 C21 9.34 21 8.68 21 8 C18.03 7.34 15.06 6.68 12 6 C12 5.34 12 4.68 12 4 C11.38511719 3.93941406 10.77023437 3.87882813 10.13671875 3.81640625 C9.32847656 3.73261719 8.52023437 3.64882812 7.6875 3.5625 C6.88699219 3.48128906 6.08648437 3.40007812 5.26171875 3.31640625 C3 3 3 3 0 2 C0 1.34 0 0.68 0 0 Z " fill="#646464" transform="translate(272,149)"/>
<path d="M0 0 C0.7734375 0.2165625 0.7734375 0.2165625 1.5625 0.4375 C4.68509571 1.15809901 7.82550692 1.57266439 11 2 C11 2.66 11 3.32 11 4 C11.66 4 12.32 4 13 4 C13 4.66 13 5.32 13 6 C13.85464844 6.12117188 14.70929688 6.24234375 15.58984375 6.3671875 C17.24693359 6.61855469 17.24693359 6.61855469 18.9375 6.875 C20.59072266 7.11863281 20.59072266 7.11863281 22.27734375 7.3671875 C23.17582031 7.57601563 24.07429688 7.78484375 25 8 C25.33 8.66 25.66 9.32 26 10 C24.22880197 9.85866501 22.45804713 9.71176792 20.6875 9.5625 C19.70136719 9.48128906 18.71523437 9.40007812 17.69921875 9.31640625 C15 9 15 9 12 8 C12 7.34 12 6.68 12 6 C11.13375 5.9175 10.2675 5.835 9.375 5.75 C5.50735871 4.89052416 3.13222497 3.38645712 0 1 C0 0.67 0 0.34 0 0 Z " fill="#5A5B5A" transform="translate(138,275)"/>
<path d="M0 0 C1.423125 0.495 1.423125 0.495 2.875 1 C10.06336905 3.03718961 17.01794484 2.42854093 24 0 C23 3 23 3 20.625 4.1875 C14.08762335 5.65277408 7.08085896 6.20607678 1 3 C0.67 2.01 0.34 1.02 0 0 Z " fill="#464848" transform="translate(226,232)"/>
<path d="M0 0 C0.66 0 1.32 0 2 0 C1.83628906 0.83789062 1.67257813 1.67578125 1.50390625 2.5390625 C0.97012717 6.20517307 0.90256975 9.67239385 0.9375 13.375 C0.94652344 14.62023437 0.95554688 15.86546875 0.96484375 17.1484375 C0.97644531 18.08945313 0.98804688 19.03046875 1 20 C0.01 20 -0.98 20 -2 20 C-2.05407567 17.41638482 -2.093707 14.83390745 -2.125 12.25 C-2.14175781 11.52039063 -2.15851563 10.79078125 -2.17578125 10.0390625 C-2.21072239 6.1955376 -2.17499684 3.25393228 0 0 Z " fill="#4B4C4B" transform="translate(218,204)"/>
<path d="M0 0 C1 3 1 3 0 6 C6.6 6.33 13.2 6.66 20 7 C20 7.33 20 7.66 20 8 C12.41 8.33 4.82 8.66 -3 9 C-2 3 -2 3 0 0 Z " fill="#323434" transform="translate(116,472)"/>
<path d="M0 0 C1.65 0.33 3.3 0.66 5 1 C5.80967438 3.91482778 6.21845993 5.46113217 5.0625 8.3125 C4.5365625 9.1478125 4.5365625 9.1478125 4 10 C3.01 10 2.02 10 1 10 C1.33 8.35 1.66 6.7 2 5 C0.68 4.67 -0.64 4.34 -2 4 C-1.34 2.68 -0.68 1.36 0 0 Z " fill="#323433" transform="translate(317,369)"/>
<path d="M0 0 C5.53846154 0.49230769 5.53846154 0.49230769 7.875 3.0625 C8.431875 4.0215625 8.431875 4.0215625 9 5 C8.34 6.32 7.68 7.64 7 9 C6.01 8.67 5.02 8.34 4 8 C3.3125 5.9375 3.3125 5.9375 3 4 C1.68 4 0.36 4 -1 4 C-0.67 2.68 -0.34 1.36 0 0 Z " fill="#303231" transform="translate(314,387)"/>
<path d="M0 0 C0.66 0 1.32 0 2 0 C1.3237809 4.32945155 -0.15932496 8.18286337 -1.875 12.1875 C-2.13152344 12.81591797 -2.38804687 13.44433594 -2.65234375 14.09179688 C-4.09895503 17.49024298 -4.84742254 18.8982817 -8 21 C-6.515 15.555 -6.515 15.555 -5 10 C-4.34 10 -3.68 10 -3 10 C-2.814375 8.9171875 -2.814375 8.9171875 -2.625 7.8125 C-2.0095069 5.04278106 -1.11555626 2.6029646 0 0 Z " fill="#7B7D7C" transform="translate(135,430)"/>
<path d="M0 0 C0.33 0.66 0.66 1.32 1 2 C1.66 2 2.32 2 3 2 C3.25394531 2.65226562 3.50789062 3.30453125 3.76953125 3.9765625 C5.31328413 7.89665407 6.86444668 11.72889336 8.75 15.5 C10 18 10 18 10 20 C7 19 7 19 5.9375 17.14453125 C5.4734375 15.99017578 5.4734375 15.99017578 5 14.8125 C3.84220289 12.00706854 2.6717321 9.37863577 1.25 6.6875 C0 4 0 4 0 0 Z " fill="#656565" transform="translate(194,348)"/>
<path d="M0 0 C0.66 0 1.32 0 2 0 C3.90420731 6.80074041 5.40850553 12.91923749 5 20 C1.72679447 13.82360349 -0.55618343 7.04499011 0 0 Z " fill="#6F706F" transform="translate(336,202)"/>
<path d="M0 0 C0.66 0 1.32 0 2 0 C1.34 3.3 0.68 6.6 0 10 C-0.66 10 -1.32 10 -2 10 C-2.4021875 11.0828125 -2.4021875 11.0828125 -2.8125 12.1875 C-3.98982498 14.97590126 -5.39145884 17.44095724 -7 20 C-7.33 19.34 -7.66 18.68 -8 18 C-6.94583866 15.45882337 -5.8391207 13.02549676 -4.625 10.5625 C-2.08205349 5.37929577 -2.08205349 5.37929577 0 0 Z " fill="#6D7470" transform="translate(125,451)"/>
<path d="M0 0 C0.99 0 1.98 0 3 0 C3 0.66 3 1.32 3 2 C3.66 2 4.32 2 5 2 C5.33 3.65 5.66 5.3 6 7 C5.34 7 4.68 7 4 7 C3.67 6.01 3.34 5.02 3 4 C2.01 3.67 1.02 3.34 0 3 C-0.19335938 3.63808594 -0.38671875 4.27617187 -0.5859375 4.93359375 C-0.84632813 5.75988281 -1.10671875 6.58617187 -1.375 7.4375 C-1.75785156 8.67306641 -1.75785156 8.67306641 -2.1484375 9.93359375 C-3 12 -3 12 -5 13 C-4.69078116 11.54096742 -4.37751201 10.08279278 -4.0625 8.625 C-3.88847656 7.81289063 -3.71445313 7.00078125 -3.53515625 6.1640625 C-3 4 -3 4 -2 2 C-1.34 2 -0.68 2 0 2 C0 1.34 0 0.68 0 0 Z " fill="#787878" transform="translate(182,326)"/>
<path d="M0 0 C0.99 0.66 1.98 1.32 3 2 C3 2.99 3 3.98 3 5 C3.66 5.33 4.32 5.66 5 6 C4.67 6.99 4.34 7.98 4 9 C2.35 9 0.7 9 -1 9 C-2.0326802 6.21176345 -2.04509293 5.1322726 -1.0625 2.25 C-0.711875 1.5075 -0.36125 0.765 0 0 Z " fill="#313232" transform="translate(165,268)"/>
<path d="M0 0 C1.18851563 0.00902344 2.37703125 0.01804688 3.6015625 0.02734375 C4.51679688 0.03894531 5.43203125 0.05054688 6.375 0.0625 C6.375 0.7225 6.375 1.3825 6.375 2.0625 C5.60414063 2.11148438 4.83328125 2.16046875 4.0390625 2.2109375 C3.03617188 2.28570312 2.03328125 2.36046875 1 2.4375 C0.00226563 2.50710937 -0.99546875 2.57671875 -2.0234375 2.6484375 C-4.78008879 2.82613964 -4.78008879 2.82613964 -6.625 5.0625 C-7.615 5.0625 -8.605 5.0625 -9.625 5.0625 C-9.25 3.125 -9.25 3.125 -8.625 1.0625 C-5.74084117 -0.37957941 -3.20778472 -0.03144887 0 0 Z " fill="#4D4F4E" transform="translate(235.625,192.9375)"/>
<path d="M0 0 C0.66 0 1.32 0 2 0 C5 6.625 5 6.625 5 10 C5.66 10 6.32 10 7 10 C7.33 11.98 7.66 13.96 8 16 C7.34 16 6.68 16 6 16 C0 4.26213592 0 4.26213592 0 0 Z " fill="#737473" transform="translate(241,454)"/>
<path d="M0 0 C0.89203125 0.144375 1.7840625 0.28875 2.703125 0.4375 C3.87359375 0.623125 5.0440625 0.80875 6.25 1 C7.99023438 1.2784375 7.99023438 1.2784375 9.765625 1.5625 C13.11667846 2.08936331 13.11667846 2.08936331 17 2 C17 2.66 17 3.32 17 4 C14.54159395 4.02691685 12.08348118 4.04679802 9.625 4.0625 C8.92632812 4.07087891 8.22765625 4.07925781 7.5078125 4.08789062 C2.2265625 4.11328125 2.2265625 4.11328125 0 3 C0 2.01 0 1.02 0 0 Z " fill="#707171" transform="translate(351,414)"/>
<path d="M0 0 C0.86406958 2.43260352 1.11148146 3.66124417 0.29296875 6.1484375 C-0.07183594 6.88320313 -0.43664062 7.61796875 -0.8125 8.375 C-2.47872546 11.86311904 -3.8606302 15.29704814 -5 19 C-5.66 19 -6.32 19 -7 19 C-6.19429304 15.50577615 -5.08208283 12.14682647 -3.9375 8.75 C-3.57527344 7.67234375 -3.21304687 6.5946875 -2.83984375 5.484375 C-2.56269531 4.66453125 -2.28554688 3.8446875 -2 3 C-1.34 3 -0.68 3 0 3 C0 2.01 0 1.02 0 0 Z " fill="#808580" transform="translate(268,441)"/>
<path d="M0 0 C0.66 0 1.32 0 2 0 C0.18042813 11.02446483 0.18042813 11.02446483 -3 15 C-3.66 15 -4.32 15 -5 15 C-4.24029922 11.64132288 -3.12906745 8.47876342 -1.9375 5.25 C-1.57527344 4.26515625 -1.21304688 3.2803125 -0.83984375 2.265625 C-0.56269531 1.51796875 -0.28554687 0.7703125 0 0 Z " fill="#707070" transform="translate(160,371)"/>
<path d="M0 0 C3 1 3 1 4.1875 3.0625 C5.23642055 6.85475122 5.13319932 10.07062002 5 14 C4.01 14.495 4.01 14.495 3 15 C1.98573784 11.37763515 1.53128748 7.71901233 1 4 C0.69096017 2.66082739 0.37057089 1.32346746 0 0 Z " fill="#474747" transform="translate(240,323)"/>
<path d="M0 0 C2 2 2 2 2 5 C2.66 5 3.32 5 4 5 C4.33 6.98 4.66 8.96 5 11 C1.7 11 -1.6 11 -5 11 C-5 10.67 -5 10.34 -5 10 C-3.02 9.67 -1.04 9.34 1 9 C0.67 6.03 0.34 3.06 0 0 Z " fill="#5F6060" transform="translate(249,470)"/>
<path d="M0 0 C0.33 0 0.66 0 1 0 C1.33 5.61 1.66 11.22 2 17 C-1 14 -1 14 -1.328125 11.15234375 C-1.30234375 10.09144531 -1.2765625 9.03054688 -1.25 7.9375 C-1.23453125 6.87402344 -1.2190625 5.81054688 -1.203125 4.71484375 C-1 2 -1 2 0 0 Z " fill="#828282" transform="translate(261,462)"/>
<path d="M0 0 C3.93208182 3.25413668 5.9145134 7.05951428 7 12 C6.67 12.99 6.34 13.98 6 15 C6 14.34 6 13.68 6 13 C5.01 12.67 4.02 12.34 3 12 C3 10.02 3 8.04 3 6 C2.34 6 1.68 6 1 6 C0.67 4.02 0.34 2.04 0 0 Z " fill="#868787" transform="translate(329,187)"/>
<path d="M0 0 C0.99 0.495 0.99 0.495 2 1 C2 1.66 2 2.32 2 3 C2.639375 3.268125 3.27875 3.53625 3.9375 3.8125 C6 5 6 5 7 8 C7.515625 8.515625 8.03125 9.03125 8.5625 9.5625 C9.036875 10.036875 9.51125 10.51125 10 11 C10 11.66 10 12.32 10 13 C9.34 13 8.68 13 8 13 C3 7.52380952 3 7.52380952 3 5 C2.01 4.67 1.02 4.34 0 4 C0 2.68 0 1.36 0 0 Z " fill="#919191" transform="translate(319,174)"/>
<path d="M0 0 C2.31 0 4.62 0 7 0 C7 0.33 7 0.66 7 1 C5.35 1 3.7 1 2 1 C1.89042969 1.69867188 1.78085938 2.39734375 1.66796875 3.1171875 C1.50941406 4.02726562 1.35085937 4.93734375 1.1875 5.875 C1.03667969 6.77992188 0.88585937 7.68484375 0.73046875 8.6171875 C0 11 0 11 -3 13 C-2.01 8.71 -1.02 4.42 0 0 Z " fill="#505453" transform="translate(138,424)"/>
<path d="M0 0 C2.475 0.495 2.475 0.495 5 1 C5.33 2.65 5.66 4.3 6 6 C4.33388095 6.042721 2.66617115 6.04063832 1 6 C0 5 0 5 -0.0625 2.4375 C-0.041875 1.633125 -0.02125 0.82875 0 0 Z " fill="#2C2E2D" transform="translate(245,285)"/>
<path d="M0 0 C0.38218767 1.65614657 0.71395102 3.32457024 1 5 C0 6 0 6 -2.5625 6.0625 C-3.7690625 6.0315625 -3.7690625 6.0315625 -5 6 C-5.33 4.68 -5.66 3.36 -6 2 C-2.25 0 -2.25 0 0 0 Z " fill="#313332" transform="translate(325,223)"/>
<path d="M0 0 C1.32 0.33 2.64 0.66 4 1 C4 2.65 4 4.3 4 6 C3.21625 6.12375 2.4325 6.2475 1.625 6.375 C-1.14057822 6.79117993 -1.14057822 6.79117993 -3 9 C-2.30058404 5.85262818 -1.23921302 2.97411124 0 0 Z " fill="#2D2D2D" transform="translate(182,329)"/>
<path d="M0 0 C0.33 0.66 0.66 1.32 1 2 C-0.375 4 -0.375 4 -2 6 C-2.66 6 -3.32 6 -4 6 C-4.33 6.99 -4.66 7.98 -5 9 C-7.0625 9.6875 -7.0625 9.6875 -9 10 C-8.67 9.01 -8.34 8.02 -8 7 C-7.01 7 -6.02 7 -5 7 C-5 6.01 -5 5.02 -5 4 C-4.34 4 -3.68 4 -3 4 C-2.67 3.01 -2.34 2.02 -2 1 C-1.34 0.67 -0.68 0.34 0 0 Z " fill="#6C6D6C" transform="translate(386,461)"/>
<path d="M0 0 C2.0625 0.4375 2.0625 0.4375 4 1 C4 2.32 4 3.64 4 5 C1.69 5 -0.62 5 -3 5 C-1.125 1.125 -1.125 1.125 0 0 Z " fill="#2D2E2D" transform="translate(130,467)"/>
<path d="M0 0 C1.98 0 3.96 0 6 0 C6 0.66 6 1.32 6 2 C5.34 2 4.68 2 4 2 C3.67 3.32 3.34 4.64 3 6 C2.01 6 1.02 6 0 6 C0 4.02 0 2.04 0 0 Z " fill="#303231" transform="translate(329,294)"/>
<path d="M0 0 C0.33 0.99 0.66 1.98 1 3 C-0.1875 4.5 -0.1875 4.5 -2 6 C-4.6875 6.1875 -4.6875 6.1875 -7 6 C-6 3 -6 3 -2.9375 1.3125 C-1.968125 0.879375 -0.99875 0.44625 0 0 Z " fill="#5B5B5B" transform="translate(281,428)"/>
<path d="M0 0 C1.65 0 3.3 0 5 0 C5.33 1.32 5.66 2.64 6 4 C5.4225 3.7525 4.845 3.505 4.25 3.25 C3.5075 3.1675 2.765 3.085 2 3 C-0.27144074 4.85432087 -0.27144074 4.85432087 -2 7 C-1.34 4.69 -0.68 2.38 0 0 Z " fill="#606060" transform="translate(385,399)"/>
<path d="M0 0 C2.31 0 4.62 0 7 0 C7 0.99 7 1.98 7 3 C7.3062434 4.33981486 7.63451555 5.67511887 8 7 C4.2047869 5.50902342 2.38957269 3.24299151 0 0 Z " fill="#3D3E3D" transform="translate(248,198)"/>
<path d="M0 0 C0.33 0 0.66 0 1 0 C0.67 5.61 0.34 11.22 0 17 C-0.33 17 -0.66 17 -1 17 C-1.33 12.05 -1.66 7.1 -2 2 C-1.34 2 -0.68 2 0 2 C0 1.34 0 0.68 0 0 Z " fill="#3F403F" transform="translate(263,458)"/>
<path d="M0 0 C0.99 0 1.98 0 3 0 C3 1.98 3 3.96 3 6 C2.01 6.495 2.01 6.495 1 7 C0.01 6.67 -0.98 6.34 -2 6 C-1.34 4.02 -0.68 2.04 0 0 Z " fill="#2A2C2B" transform="translate(133,458)"/>
<path d="M0 0 C0.99 0 1.98 0 3 0 C4.60355101 3.50776784 5.22036864 6.14354879 5 10 C4.34 10 3.68 10 3 10 C2.01 6.7 1.02 3.4 0 0 Z " fill="#616161" transform="translate(226,424)"/>
<path d="M0 0 C0 2.31 0 4.62 0 7 C-2.31 7 -4.62 7 -7 7 C-7 5 -7 5 -4.625 2.375 C-2 0 -2 0 0 0 Z " fill="#4C4D4C" transform="translate(383,406)"/>
<path d="M0 0 C6.75 -0.125 6.75 -0.125 9 1 C9 1.66 9 2.32 9 3 C6.36 3 3.72 3 1 3 C0.67 2.01 0.34 1.02 0 0 Z " fill="#2E302F" transform="translate(189,274)"/>
<path d="M0 0 C0.85276722 2.41707906 1.12087895 3.64003451 0.29296875 6.10546875 C-0.25423828 7.13607422 -0.25423828 7.13607422 -0.8125 8.1875 C-1.34810547 9.22970703 -1.34810547 9.22970703 -1.89453125 10.29296875 C-3 12 -3 12 -5 13 C-4.01 9.7 -3.02 6.4 -2 3 C-1.34 3 -0.68 3 0 3 C0 2.01 0 1.02 0 0 Z " fill="#6A6A6A" transform="translate(167,358)"/>
<path d="M0 0 C1.65 0 3.3 0 5 0 C5.33 1.32 5.66 2.64 6 4 C3.69 3.67 1.38 3.34 -1 3 C-0.67 2.01 -0.34 1.02 0 0 Z " fill="#2C2E2D" transform="translate(284,361)"/>
<path d="M0 0 C2.475 0.495 2.475 0.495 5 1 C4.67 2.65 4.34 4.3 4 6 C3.01 5.67 2.02 5.34 1 5 C0.67 3.35 0.34 1.7 0 0 Z " fill="#323433" transform="translate(313,314)"/>
<path d="M0 0 C1 3 1 3 0.4375 5.0625 C0.2209375 6.0215625 0.2209375 6.0215625 0 7 C0.66 7.66 1.32 8.32 2 9 C0.35 9 -1.3 9 -3 9 C-2.5020163 5.26512223 -2.12508244 3.18762365 0 0 Z " fill="#7A7C7A" transform="translate(116,472)"/>
<path d="M0 0 C0.99 0.33 1.98 0.66 3 1 C0.64264116 3.72957339 -1.58133526 4.88893396 -5 6 C-5.99 6 -6.98 6 -8 6 C-8 5.34 -8 4.68 -8 4 C-6.865625 3.525625 -5.73125 3.05125 -4.5625 2.5625 C-1.24259834 1.36377917 -1.24259834 1.36377917 0 0 Z " fill="#6A6B6A" transform="translate(374,471)"/>
<path d="M0 0 C1.98 0.495 1.98 0.495 4 1 C4 2.32 4 3.64 4 5 C2.35 5 0.7 5 -1 5 C-0.67 3.35 -0.34 1.7 0 0 Z " fill="#343534" transform="translate(270,467)"/>
<path d="M0 0 C2.475 0.495 2.475 0.495 5 1 C4.67 2.65 4.34 4.3 4 6 C3.01 6 2.02 6 1 6 C1.33 4.68 1.66 3.36 2 2 C1.34 2 0.68 2 0 2 C0 1.34 0 0.68 0 0 Z " fill="#363837" transform="translate(193,459)"/>
<path d="M0 0 C2.475 0.495 2.475 0.495 5 1 C5 1.66 5 2.32 5 3 C6.32 2.67 7.64 2.34 9 2 C9 3.32 9 4.64 9 6 C4.64464931 4.83857315 2.35380297 3.92300495 0 0 Z " fill="#4A4A4A" transform="translate(227,380)"/>
<path d="M0 0 C0.66 0 1.32 0 2 0 C1.67 1.65 1.34 3.3 1 5 C-0.98 5.33 -2.96 5.66 -5 6 C-5 5.34 -5 4.68 -5 4 C-4.360625 3.71125 -3.72125 3.4225 -3.0625 3.125 C-0.84793921 2.17176549 -0.84793921 2.17176549 0 0 Z " fill="#555555" transform="translate(240,337)"/>
<path d="M0 0 C0.6875 1.625 0.6875 1.625 1 4 C-0.4375 7.25 -0.4375 7.25 -2 10 C-2.66 10 -3.32 10 -4 10 C-3.47731534 7.23723823 -2.89130413 4.6739124 -2 2 C-1.34 2 -0.68 2 0 2 C0 1.34 0 0.68 0 0 Z " fill="#686868" transform="translate(172,348)"/>
<path d="M0 0 C0.66 0.33 1.32 0.66 2 1 C0.71451591 2.33929505 -0.57858155 3.67128643 -1.875 5 C-2.59429687 5.7425 -3.31359375 6.485 -4.0546875 7.25 C-6 9 -6 9 -8 9 C-8 8.34 -8 7.68 -8 7 C-6.25 5.2734375 -6.25 5.2734375 -4 3.375 C-3.2575 2.74335938 -2.515 2.11171875 -1.75 1.4609375 C-1.1725 0.97882813 -0.595 0.49671875 0 0 Z " fill="#4E4E4E" transform="translate(233,343)"/>
<path d="M0 0 C3 1 3 1 4.25 3.3125 C5.0275526 6.09873015 4.98726527 7.33438378 4 10 C4 9.34 4 8.68 4 8 C3.34 8 2.68 8 2 8 C0.74335022 5.09399739 0 3.20395416 0 0 Z " fill="#515251" transform="translate(223,286)"/>
<path d="M0 0 C1.32 0 2.64 0 4 0 C3.67 1.32 3.34 2.64 3 4 C1.68 4.33 0.36 4.66 -1 5 C-0.67 3.35 -0.34 1.7 0 0 Z " fill="#2D2F2E" transform="translate(187,213)"/>
<path d="M0 0 C0.99 0 1.98 0 3 0 C3.33 0.99 3.66 1.98 4 3 C2.125 4.0625 2.125 4.0625 0 5 C-0.66 4.67 -1.32 4.34 -2 4 C-1.34 2.68 -0.68 1.36 0 0 Z " fill="#2E302F" transform="translate(196,467)"/>
<path d="M0 0 C0.66 1.32 1.32 2.64 2 4 C-0.19512195 9.59756098 -0.19512195 9.59756098 -3 11 C-2.01 7.37 -1.02 3.74 0 0 Z " fill="#595A59" transform="translate(130,440)"/>
<path d="M0 0 C2.15377564 2.62198774 3.40072174 4.64404172 4 8 C2.68 8 1.36 8 0 8 C0 5.36 0 2.72 0 0 Z " fill="#7C7C7C" transform="translate(209,378)"/>
<path d="M0 0 C0.33 0.66 0.66 1.32 1 2 C1.66 2 2.32 2 3 2 C4.4606285 4.64738916 5 5.89448334 5 9 C4.01 8.67 3.02 8.34 2 8 C0.5522078 5.10441559 0 3.25811062 0 0 Z " fill="#5C5C5C" transform="translate(222,371)"/>
<path d="M0 0 C1.1725131 0.95117134 2.33787015 1.91117009 3.5 2.875 C4.47453125 3.67550781 4.47453125 3.67550781 5.46875 4.4921875 C5.9740625 4.98976562 6.479375 5.48734375 7 6 C7 6.66 7 7.32 7 8 C5.68 7.67 4.36 7.34 3 7 C3 6.34 3 5.68 3 5 C2.01 4.67 1.02 4.34 0 4 C0 2.68 0 1.36 0 0 Z " fill="#515251" transform="translate(219,224)"/>
<path d="M0 0 C2.86724686 0.57344937 3.8614515 0.8614515 6 3 C4.02 3.99 4.02 3.99 2 5 C1.34 4.34 0.68 3.68 0 3 C0 2.01 0 1.02 0 0 Z " fill="#2A2C2B" transform="translate(345,421)"/>
<path d="M0 0 C4.42857143 5.14285714 4.42857143 5.14285714 5 9 C2 8 2 8 0.8125 6.1875 C0 4 0 4 0 0 Z " fill="#6F6F6F" transform="translate(204,369)"/>
<path d="M0 0 C0.66 0 1.32 0 2 0 C2.20086443 3.71599191 2.1519437 4.77208445 0 8 C-0.66 8 -1.32 8 -2 8 C-1.47731534 5.23723823 -0.89130413 2.6739124 0 0 Z " fill="#6E6E6E" transform="translate(175,340)"/>
<path d="M0 0 C1.32 0.66 2.64 1.32 4 2 C3.67 2.99 3.34 3.98 3 5 C1.68 5 0.36 5 -1 5 C-0.67 3.35 -0.34 1.7 0 0 Z " fill="#333534" transform="translate(150,214)"/>
<path d="M0 0 C0.6875 1.625 0.6875 1.625 1 4 C-0.4375 7.25 -0.4375 7.25 -2 10 C-2.33 10 -2.66 10 -3 10 C-2.67 7.69 -2.34 5.38 -2 3 C-1.34 3 -0.68 3 0 3 C0 2.01 0 1.02 0 0 Z " fill="#686968" transform="translate(268,441)"/>
<path d="M0 0 C0.33 0.66 0.66 1.32 1 2 C1.66 2 2.32 2 3 2 C3.33 4.64 3.66 7.28 4 10 C1.997499 7.997499 1.06784629 6.593341 0 4 C0 2.68 0 1.36 0 0 Z " fill="#565656" transform="translate(194,348)"/>
<path d="M0 0 C2 1 2 1 3.125 3.375 C4 6 4 6 4 9 C3.34 9 2.68 9 2 9 C0.50178941 5.62902617 0 3.79557881 0 0 Z " fill="#707070" transform="translate(190,339)"/>
<path d="M0 0 C0.66 0 1.32 0 2 0 C4.1875 2.8125 4.1875 2.8125 6 6 C5.67 6.99 5.34 7.98 5 9 C0.57142857 3.85714286 0.57142857 3.85714286 0 0 Z " fill="#414241" transform="translate(127,262)"/>
<path d="M0 0 C0.99 0 1.98 0 3 0 C3 1.65 3 3.3 3 5 C1.68 5 0.36 5 -1 5 C-0.67 3.35 -0.34 1.7 0 0 Z " fill="#343635" transform="translate(330,233)"/>
<path d="M0 0 C1.32 0 2.64 0 4 0 C4.33 0.99 4.66 1.98 5 3 C4.01 3.66 3.02 4.32 2 5 C1.34 4.67 0.68 4.34 0 4 C0 2.68 0 1.36 0 0 Z " fill="#323433" transform="translate(281,192)"/>
<path d="M0 0 C1.36125 0.12375 1.36125 0.12375 2.75 0.25 C0.452779 1.99271938 -1.84866729 3.64911152 -4.25 5.25 C-5.24 4.92 -6.23 4.59 -7.25 4.25 C-4.83923194 1.28290085 -3.90322061 0.30024774 0 0 Z " fill="#2F3130" transform="translate(374.25,469.75)"/>
<path d="M0 0 C0.33 0.99 0.66 1.98 1 3 C1.66 3 2.32 3 3 3 C3.33 4.98 3.66 6.96 4 9 C3.34 9 2.68 9 2 9 C0.50178941 5.62902617 0 3.79557881 0 0 Z " fill="#8C8D8D" transform="translate(245,461)"/>
<path d="M0 0 C0.99 0 1.98 0 3 0 C3.33 1.65 3.66 3.3 4 5 C1.525 4.01 1.525 4.01 -1 3 C-0.67 2.01 -0.34 1.02 0 0 Z " fill="#2C2E2D" transform="translate(189,447)"/>
<path d="M0 0 C2.5 2.3125 2.5 2.3125 5 5 C5 5.99 5 6.98 5 8 C4.01 7.67 3.02 7.34 2 7 C0.8125 3.4375 0.8125 3.4375 0 0 Z " fill="#5B5D5C" transform="translate(236,445)"/>
<path d="M0 0 C2 3 2 3 2 7 C2.66 7.33 3.32 7.66 4 8 C3.34 8 2.68 8 2 8 C1.67 8.66 1.34 9.32 1 10 C-0.60725635 6.78548731 -0.05748185 3.56387464 0 0 Z " fill="#4C4E4D" transform="translate(395,410)"/>
<path d="M0 0 C0 0.99 0 1.98 0 3 C-1.98 3.66 -3.96 4.32 -6 5 C-5.67 4.01 -5.34 3.02 -5 2 C-2.4375 0.8125 -2.4375 0.8125 0 0 Z " fill="#4E5252" transform="translate(374,413)"/>
<path d="M0 0 C1 3 1 3 0.0625 5.1875 C-0.4634375 6.0846875 -0.4634375 6.0846875 -1 7 C-1.99 7 -2.98 7 -4 7 C-3.67 5.35 -3.34 3.7 -3 2 C-2.34 2 -1.68 2 -1 2 C-0.67 1.34 -0.34 0.68 0 0 Z " fill="#2A2C2B" transform="translate(322,372)"/>
<path d="M0 0 C0.33 0 0.66 0 1 0 C1.33 1.98 1.66 3.96 2 6 C1.01 6.495 1.01 6.495 0 7 C-0.66 6.67 -1.32 6.34 -2 6 C-1.125 1.125 -1.125 1.125 0 0 Z " fill="#2C2E2D" transform="translate(146,206)"/>
<path d="M0 0 C0.66 0 1.32 0 2 0 C2.33 2.31 2.66 4.62 3 7 C2.01 6.67 1.02 6.34 0 6 C0 4.02 0 2.04 0 0 Z " fill="#787878" transform="translate(336,202)"/>
<path d="M0 0 C1.32 0 2.64 0 4 0 C3.1875 1.9375 3.1875 1.9375 2 4 C1.01 4.33 0.02 4.66 -1 5 C-0.67 3.35 -0.34 1.7 0 0 Z " fill="#2B2D2C" transform="translate(153,203)"/>
</svg>
