<svg width="996" height="619" version="1.1" xmlns="http://www.w3.org/2000/svg" desc="Created with imagetracer.js version 1.2.6" ><path fill="rgb(0,0,0)" stroke="rgb(0,0,0)" stroke-width="1" opacity="0" d="M 0 0 L 996 0 L 996 556.5 L 993 559.5 Q 994.3 565.3 991 566.5 L 991 573.5 L 992 574.5 L 992 582.5 L 991 585.5 L 992 586.5 L 992 594.5 Q 989.5 596 991 601.5 L 994 603 L 995 605.5 L 993 608.5 L 996 610 L 996 618.5 L 995.5 619 L 0 619 L 0 0 Z M 252 139 L 250 141 L 241 141 L 239 143 Q 231 142 232 145 L 229 145 L 223 148 Q 220 147 221 150 Q 218 149 217 152 Q 213 151 214 154 L 207 159 Q 204 158 205 161 L 203 161 L 203 163 L 201 163 L 196 171 Q 197 173 194 172 Q 195 175 192 177 Q 193 180 190 179 L 187 186 L 187 189 L 185 191 L 185 194 L 183 196 Q 185 203 181 206 L 181 219 L 179 221 L 179 318 L 181 320 L 181 354 L 179 356 L 179 451 L 181 453 L 181 465 L 182 467 L 184 468 L 183 468 L 184 470 L 233 470 L 235 469 L 236 466 L 235 464 L 237 464 L 237 297 L 309 297 L 309 392 L 311 398 L 312 394 L 313 398 L 311 401 L 312 410 L 314 409 L 314 412 Q 312 418 316 417 Q 315 423 318 425 Q 317 430 320 429 L 320 432 Q 321 434 323 432 L 322 434 L 323 436 Q 322 438 325 437 L 325 439 L 327 439 L 327 442 L 333 448 Q 335 447 334 450 L 336 450 L 336 452 L 338 452 L 338 454 L 344 457 Q 346 456 345 459 L 348 459 L 362 468 L 367 468 L 369 470 L 374 470 L 376 472 L 385 473 L 390 475 L 420 475 L 425 472 L 428 472 L 430 472 L 432 472 L 433 470 L 439 470 Q 438 467 441 468 L 443 468 L 449 466 L 460 459 Q 462 460 461 457 L 464 457 L 470 452 Q 469 449 472 450 L 472 448 L 479 443 Q 478 440 481 441 L 481 439 L 483 439 L 483 437 L 492 424 Q 491 420 494 421 L 494 419 L 499 411 Q 498 407 501 408 L 507 401 Q 509 402 508 399 Q 513 400 515 397 Q 519 396 518 399 L 526 399 L 535 404 L 537 404 L 537 406 L 540 406 L 542 410 L 544 410 L 546 414 Q 545 416 549 415 L 548 417 L 553 423 Q 552 427 555 426 Q 554 429 557 431 Q 556 433 559 432 L 559 435 L 563 439 L 566 441 L 570 446 Q 572 445 571 448 L 573 448 L 573 450 L 576 450 L 576 452 L 579 452 L 583 455 L 585 454 L 585 456 Q 586 458 593 457 L 595 459 L 619 459 L 621 457 L 625 457 Q 625 454 630 455 L 637 450 Q 639 451 638 448 L 645 443 Q 644 440 647 441 L 646 440 L 648 439 L 650 436 L 649 433 L 651 432 L 652 431 L 652 414 L 650 412 L 650 411 L 650 407 L 645 400 Q 646 397 643 398 L 638 391 Q 635 392 636 389 L 634 389 L 634 387 L 617 378 L 610 378 L 609 376 Q 606 374 599 375 L 597 373 L 588 373 L 587 371 Q 580 373 579 369 Q 571 370 572 367 L 567 367 L 564 364 Q 559 365 558 362 Q 553 363 554 360 L 547 358 L 537 351 Q 533 352 534 349 L 531 347 L 528 347 L 528 345 Q 525 346 526 344 L 524 342 L 512 330 Q 513 326 510 327 L 510 323 L 508 323 L 508 318 L 506 316 L 506 311 L 504 308 Q 506 301 503 300 L 503 265 L 501 263 L 502 261 L 501 259 L 502 257 L 501 248 L 499 245 L 448 245 Q 444 247 445 255 L 445 257 L 444 261 L 444 394 Q 441 395 442 402 L 440 404 Q 441 408 438 407 L 438 410 L 431 418 Q 428 417 429 420 L 422 424 L 417 424 L 415 426 L 397 426 Q 395 423 389 424 L 383 420 Q 380 421 381 418 L 375 414 Q 376 410 373 411 L 368 399 L 368 392 L 366 390 L 366 248 L 364 245 L 238 245 L 236 244 L 237 242 L 237 226 L 236 225 L 238 224 L 238 213 L 240 211 L 240 206 Q 244 207 242 202 L 244 202 L 252 191 L 256 191 L 263 187 L 278 187 L 279 186 L 283 187 L 298 186 L 301 189 L 302 188 L 303 189 L 310 189 L 311 187 L 311 150 L 309 147 L 305 143 Q 296 145 295 141 L 282 141 L 280 139 L 252 139 Z M 788 240 Q 785 244 778 243 L 776 245 Q 769 243 770 247 L 766 247 L 755 254 L 752 254 L 750 258 L 746 258 L 746 260 L 743 262 Q 744 264 741 263 L 741 265 Q 734 267 730 274 Q 731 277 729 276 L 721 285 L 721 287 Q 718 286 719 289 L 714 293 Q 715 295 712 294 L 712 296 L 710 296 L 710 298 L 708 298 L 708 300 L 703 303 Q 700 302 701 305 L 697 305 L 697 307 L 683 307 Q 674 303 669 296 Q 666 297 667 294 L 665 294 L 665 292 L 660 285 Q 657 286 658 283 L 656 283 L 656 280 L 654 280 L 651 276 Q 652 273 649 274 L 645 269 Q 646 266 643 267 L 643 265 L 636 260 Q 633 261 634 258 L 627 256 L 625 254 L 621 254 L 619 252 L 607 251 L 606 250 L 605 251 L 594 251 L 593 252 Q 587 250 588 254 Q 582 252 581 256 Q 576 255 577 258 L 575 258 L 570 262 Q 571 264 568 263 L 568 265 L 566 265 L 566 267 L 564 267 L 564 269 L 562 269 L 557 280 L 557 300 L 559 302 Q 557 307 561 306 L 564 312 L 570 319 L 575 322 Q 578 321 577 324 Q 581 323 583 326 Q 587 325 586 328 L 595 331 L 600 331 L 603 333 L 613 333 L 614 335 L 624 335 L 624 337 L 630 338 L 632 337 L 635 340 Q 641 339 643 342 Q 649 340 648 344 Q 653 343 655 346 Q 660 344 659 348 Q 664 348 666 351 Q 669 350 668 353 L 676 357 Q 678 356 677 359 L 687 366 Q 689 365 688 368 L 690 368 L 690 370 L 693 371 L 692 373 L 699 381 L 701 387 L 704 388 L 703 390 Q 702 393 706 392 L 705 394 L 706 398 L 708 397 L 708 400 L 708 404 Q 712 402 711 406 L 710 409 Q 709 411 713 410 L 712 414 L 715 415 L 714 417 L 719 424 Q 718 427 721 426 Q 723 427 721 429 L 723 432 L 725 431 Q 727 432 725 434 L 731 439 Q 730 441 733 440 L 733 443 Q 734 445 736 443 L 735 445 L 740 448 Q 742 447 741 450 L 743 450 L 743 452 L 748 455 Q 751 454 750 457 L 758 461 Q 762 459 761 463 L 767 466 Q 771 465 770 468 L 776 468 L 778 470 L 783 470 Q 784 473 789 472 L 791 472 L 793 473 L 795 472 L 795 474 L 798 475 Q 804 477 806 474 L 831 474 L 832 475 L 840 475 L 840 474 L 842 474 L 845 474 L 842 473 L 843 471 L 845 472 L 847 472 Q 852 471 854 473 L 860 470 L 866 469 L 865 467 L 867 466 L 867 447 L 866 446 L 866 435 L 867 434 L 866 429 L 863 426 Q 853 425 850 429 L 837 429 L 835 431 L 811 431 L 809 429 L 801 429 L 800 427 L 797 426 Q 792 427 793 424 Q 789 425 788 422 L 784 422 L 782 418 L 778 418 L 773 411 L 771 411 L 771 407 L 769 407 L 762 394 L 762 391 L 760 391 L 760 387 L 759 387 L 759 386 L 758 383 L 758 381 L 756 373 L 901 373 L 902 372 Q 901 369 904 370 L 904 360 L 906 358 L 906 339 L 904 337 L 904 322 Q 901 322 902 314 L 899 311 L 900 310 L 899 307 Q 900 304 898 305 L 898 304 L 897 301 Q 898 297 895 298 L 893 295 L 893 291 L 891 289 L 891 288 L 886 280 Q 887 277 884 278 L 880 270 L 877 269 Q 878 266 875 267 L 875 265 L 873 265 L 873 263 L 871 263 L 871 261 L 867 258 L 864 258 L 862 254 L 858 254 L 858 252 L 856 251 Q 852 252 853 249 L 850 249 L 843 245 Q 836 247 837 243 L 830 243 L 825 240 L 788 240 Z " /><path fill="rgb(0,0,0)" stroke="rgb(0,0,0)" stroke-width="1" opacity="0" d="M 180.5 271 L 181 283.5 L 180 283.5 L 180.5 271 Z " /><path fill="rgb(0,0,0)" stroke="rgb(0,0,0)" stroke-width="1" opacity="0" d="M 801 284 L 812.5 284 L 813.5 286 L 821.5 286 L 823.5 287 L 825 286.5 L 824.5 288 L 830 289 Q 828.9 291.7 831.5 291 L 834 290 L 834.5 292 Q 835.8 289.8 837 292.5 L 837.5 294 L 838.5 293 L 843 297.5 L 844.5 300 L 847 301.5 L 848.5 304 L 850 304.5 L 850 306.5 Q 849.3 309.1 852 308 L 852 310.5 L 856 316.5 Q 855.2 321.8 858 323.5 L 858 331 L 853.5 332 L 852.5 331 L 832.5 331 L 831.5 332 L 779.5 332 L 778.5 331 L 756 331 Q 755 326.8 758 325.5 L 758 319 L 760 319 L 760 315 Q 763 316.3 762 312.5 L 763.5 309 Q 765.8 309.8 765 307.5 L 767 304 L 769 304 L 769 302 L 771 302 Q 769.9 299.3 772.5 300 L 774 297 L 776 296.5 L 775.5 295 L 782 292.5 Q 779.8 291.3 782.5 290 L 785.5 291 L 795.5 286 L 801 286 L 801 284 Z " /><path fill="rgb(0,0,0)" stroke="rgb(0,0,0)" stroke-width="1" opacity="0" d="M 235.5 354 L 236 405.5 L 235 405.5 L 235.5 354 Z " /><path fill="rgb(6,6,8)" stroke="rgb(6,6,8)" stroke-width="1" opacity="0.8196078431372549" d="M 257.5 142 L 271.5 142 L 272.5 143 L 293.5 144 L 304.5 147 L 307 149.5 L 307 185.5 L 305.5 186 L 303.5 186 Q 297.4 186.6 294.5 184 L 284.5 184 L 283.5 183 L 264.5 183 Q 250.7 186.2 243 195.5 L 235 212.5 L 234 234.5 L 233 235.5 L 234 236.5 L 234 246.5 L 235.5 248 L 361.5 248 L 363 249.5 L 363 371.5 L 364 372.5 L 363 373.5 L 363 382.5 L 364 383.5 L 365 399.5 L 367 405.5 L 377.5 421 L 390.5 428 L 406.5 430 L 422.5 427 L 431.5 422 L 438 415.5 L 443 406.5 L 447 393.5 L 448 250.5 L 450.5 248 L 497.5 248 L 498 249.5 L 499 250.5 L 499 300.5 L 502 315.5 Q 508 335 522.5 346 Q 539 359.5 560.5 368 L 575.5 372 L 578.5 374 L 583.5 374 L 596.5 378 L 602.5 378 L 619.5 383 Q 631.5 388.5 640 397.5 Q 646.5 404 649 414.5 L 649 429.5 L 645 438.5 L 636.5 447 L 625.5 453 L 614.5 456 L 597.5 456 L 587.5 454 Q 585.7 450.8 580.5 451 L 563 435.5 L 554 419.5 L 543.5 406 Q 533.3 395.2 512.5 395 L 501 401.5 Q 501.8 403.8 499.5 403 L 484 431.5 L 469.5 448 L 447.5 463 L 431.5 469 L 421.5 471 L 414.5 471 L 413.5 472 L 395.5 472 L 394.5 471 L 386.5 471 L 376.5 469 L 361.5 464 L 348.5 457 L 330 440.5 L 319 422.5 L 319 419.5 L 314 406.5 L 314 399.5 L 312 391.5 L 312 295.5 L 309.5 293 L 235.5 293 L 235 294.5 L 234 295.5 L 234 463.5 L 231.5 467 L 185.5 467 L 183 464.5 L 183 397.5 L 182 396.5 L 182 371.5 L 183 370.5 L 183 223.5 L 183 221.5 Q 185.3 177.3 212.5 158 Q 222.3 150.3 235.5 146 L 257.5 142 Z M 257 144 L 256 145 L 248 145 L 245 147 L 239 147 L 237 149 L 234 149 L 225 153 L 215 160 L 212 162 Q 202 170 195 182 L 189 196 L 185 216 L 185 464 Q 185 465 191 464 L 193 464 L 197 465 L 205 465 L 206 464 L 232 464 L 232 464 L 232 294 L 236 291 L 311 291 L 313 292 L 315 298 Q 317 304 314 306 L 314 364 L 315 365 Q 317 371 314 373 L 315 401 L 318 413 L 326 432 L 335 444 L 345 451 Q 347 450 346 453 L 359 460 L 361 460 L 362 462 L 366 462 L 366 464 L 382 467 L 385 469 L 397 469 L 398 470 L 422 469 L 440 464 L 448 460 Q 450 461 449 458 L 457 455 L 471 444 Q 470 441 473 442 L 486 425 L 496 404 L 502 398 Q 504 399 503 396 L 514 392 L 531 395 Q 541 400 548 408 Q 547 410 550 409 L 568 438 Q 574 445 583 449 L 594 453 Q 600 451 602 454 L 617 453 L 625 451 L 639 442 Q 638 439 641 440 L 644 435 Q 647 433 645 432 L 648 426 L 648 418 Q 645 416 646 411 L 639 399 L 625 388 L 617 384 L 611 383 L 609 383 L 607 382 L 605 382 L 597 379 L 591 379 L 589 377 L 583 377 Q 581 374 576 375 L 551 366 L 531 355 L 511 339 Q 509 332 504 328 L 498 307 Q 499 302 497 301 L 497 252 L 496 250 L 453 250 L 450 251 L 450 390 Q 447 392 448 400 L 439 418 Q 434 424 426 428 Q 421 427 421 430 L 412 431 L 410 431 L 408 432 L 390 430 L 377 423 L 369 415 L 365 407 L 365 404 L 363 402 Q 365 396 362 395 L 362 375 L 361 374 L 361 326 L 362 325 L 362 295 L 361 294 L 361 280 L 362 279 L 362 258 Q 360 256 361 252 L 360 250 L 236 250 L 232 248 L 232 217 L 234 214 L 234 209 L 238 199 L 241 196 L 245 191 L 253 185 L 263 181 L 294 181 L 302 184 L 305 184 L 305 151 L 299 147 L 292 147 L 284 145 L 274 145 L 273 144 L 257 144 Z " /><path fill="rgb(6,6,8)" stroke="rgb(6,6,8)" stroke-width="1" opacity="0.8196078431372549" d="M 794.5 243 L 815.5 243 L 840.5 248 Q 862.6 256.4 877 272.5 L 879 275.5 L 888 287.5 L 897 307.5 L 899 318.5 L 901 322.5 L 901 330.5 L 903 339.5 L 903 353.5 L 902 354.5 L 901 368.5 L 899.5 370 L 755.5 370 L 753 372.5 L 755 379.5 L 755 384.5 L 763 403.5 L 778.5 421 L 795.5 430 L 808.5 433 L 819.5 433 L 820.5 434 L 825.5 433 L 827.5 433 L 846.5 432 L 861.5 429 L 863 430.5 L 864 463.5 L 863 467 L 847.5 471 L 826.5 472 L 825.5 473 L 809.5 473 L 808.5 472 L 798.5 472 Q 795.2 469.3 788.5 470 L 772.5 465 Q 753.4 456.8 739 445 L 739 443 L 737 443 Q 738.1 440.3 735.5 441 Q 725.3 431.3 718 418.5 L 711 404.5 L 711 401.5 L 703 381.5 Q 694.9 368.6 683.5 359 L 680.5 357 L 668.5 348 L 652.5 341 L 649.5 341 L 647.5 339 L 627.5 333 L 596.5 328 Q 581.3 323.5 571 315 Q 572.1 312.3 569.5 313 L 561 299.5 Q 558.7 292.8 560 282.5 Q 563.7 270.7 572.5 264 L 587.5 256 L 596.5 254 L 611.5 254 L 627.5 259 L 642 269.5 L 656 287.5 L 671.5 304 L 681.5 310 L 694.5 311 L 712 301 L 713.5 298 L 718 294.5 Q 728.5 278.5 742.5 266 Q 753.9 256.4 768.5 250 L 783.5 245 L 794.5 243 Z M 796 245 L 777 249 L 767 253 L 750 264 L 747 264 Q 748 267 746 266 Q 733 276 725 290 L 720 293 L 718 298 L 709 306 L 696 313 L 684 313 L 679 311 Q 668 306 661 297 Q 662 294 659 295 L 650 283 Q 651 280 648 281 L 648 279 L 646 279 L 643 275 L 641 272 L 634 266 Q 631 267 632 264 Q 623 259 611 256 L 609 257 L 607 256 L 599 256 L 589 258 L 574 266 L 566 274 L 562 285 Q 560 301 568 308 L 570 311 Q 578 319 590 323 L 603 327 L 619 329 Q 622 332 629 331 L 636 334 L 640 334 L 649 338 L 652 338 L 666 345 Q 669 344 668 347 Q 679 350 686 358 L 691 362 L 707 385 L 711 399 L 718 415 L 737 440 L 743 444 Q 745 443 744 446 L 771 462 L 775 462 L 777 464 L 794 469 L 804 469 L 807 471 L 809 470 L 811 471 L 827 471 L 836 469 L 847 469 L 851 467 L 860 466 L 861 465 L 861 432 L 854 432 L 849 434 L 841 434 L 840 435 L 808 435 Q 806 433 802 434 L 789 430 L 772 419 Q 773 416 770 417 L 770 415 L 768 415 L 759 402 L 759 399 L 757 397 L 754 385 L 752 382 Q 754 375 751 374 L 752 369 L 756 368 L 758 368 L 858 368 L 859 367 Q 865 365 867 368 L 877 368 L 878 367 L 883 368 L 898 368 L 900 365 L 900 348 L 901 347 L 900 345 L 900 332 L 898 325 L 898 319 L 896 317 L 896 312 Q 893 310 894 306 L 885 287 L 876 273 L 869 269 L 868 266 Q 865 267 866 264 L 864 264 L 853 256 L 837 249 L 815 245 L 796 245 Z " /><path fill="rgb(6,6,8)" stroke="rgb(6,6,8)" stroke-width="1" opacity="0.8196078431372549" d="M 803.5 279 L 811.5 279 L 828.5 283 L 844 292 Q 842.9 294.7 845.5 294 L 851 301 Q 853.7 299.9 853 302.5 Q 862.9 313.1 864 332.5 L 861.5 335 L 853.5 335 L 852.5 336 L 830.5 336 L 826.5 335 L 822.5 336 L 821.5 335 L 769.5 335 Q 767.8 337.8 761.5 336 L 759.5 336 L 752 335 L 751 328.5 L 754 316.5 L 763 301 Q 765.7 302.1 765 299.5 L 779.5 287 L 787.5 283 L 803.5 279 Z M 806 281 L 787 286 L 774 294 L 762 307 L 756 318 L 755 325 L 753 328 Q 752 333 756 334 L 860 334 L 862 332 L 859 318 L 854 308 L 846 297 L 830 286 L 821 283 L 806 281 Z " /><path fill="rgb(6,6,8)" stroke="rgb(6,6,8)" stroke-width="1" opacity="0.8196078431372549" d="M 995.5 563 L 996 579.5 L 995 580.5 L 995 588.5 L 996 589.5 L 996 605.5 L 995 605.5 L 994 596.5 L 992 591.5 L 992 577.5 Q 995 573.5 994 565.5 L 995.5 563 Z " /><path fill="rgb(2,2,3)" stroke="rgb(2,2,3)" stroke-width="1" opacity="0.984313725490196" d="M 256.5 144 L 272.5 144 L 273.5 145 L 283.5 145 L 291.5 147 L 298.5 147 L 305 150.5 L 305 183.5 L 301.5 184 L 293.5 181 L 265 181 L 264.5 179 L 264 181 L 252.5 185 L 245 190.5 L 241 195.5 L 238 198.5 L 234 208.5 L 234 213.5 L 232 216.5 L 232 247.5 L 235.5 250 L 359.5 250 L 361 251.5 Q 359.7 256.3 362 257.5 L 362 278.5 L 361 279.5 L 361 293.5 L 362 294.5 L 362 324.5 L 361 325.5 L 361 373.5 L 362 374.5 L 362 394.5 Q 364.5 396 363 401.5 L 365 403.5 L 365 406.5 L 369 414.5 L 376.5 423 L 389.5 430 L 407.5 432 L 409.5 431 L 411.5 431 L 420.5 430 Q 421.3 427.3 425.5 428 Q 433.9 424.4 439 417.5 L 448 399.5 L 448 392.5 L 450 389.5 L 450.5 381 Q 452.9 384.1 452 390.5 L 454 394 L 456 394.5 L 456 401.5 L 458 402.5 L 459.5 400 L 461 403 L 456.5 405 L 452.5 402 L 452 403.5 Q 454.7 404.6 454 408 L 451 408 Q 452.7 403.9 448.5 405 L 446 408.5 L 450 411.5 L 450 414.5 L 446.5 419 Q 443.9 418.2 445 421.5 L 449 423.5 L 440 426 L 441 431 L 430.5 432 L 428 434.5 L 429 437.5 L 425.5 439 L 421.5 438 L 417.5 441 Q 414.3 439.3 418 437.5 Q 417.1 434.5 421.5 436 Q 422.8 438.3 424 435.5 L 420 434 L 419.5 432 L 415.5 437 L 413 435.5 L 414 433.5 L 410.5 433 L 409 436 Q 406 435 407 438 L 410 439.5 Q 409.3 441.8 411.5 441 L 410.5 443 L 410 441 L 407 439.5 L 405.5 437 L 402 435.5 Q 402.8 433.3 400.5 434 L 397 433 L 396 439 L 394 439 Q 395.1 436.3 392.5 437 L 388.5 430 L 385.5 431 L 383.5 430 L 384.5 432 Q 388.3 431 387 434 L 377.5 432 L 373.5 434 Q 370.3 432.3 374 430.5 L 374 428 Q 371.3 429.1 372 426.5 Q 370.8 424 367 425 L 367 419 L 364.5 419 Q 360.5 416.5 362 408.5 L 363 406 L 361 406.5 L 361 416 L 358.5 416 L 357 416.5 L 355 405.5 Q 357.5 404 354 402.5 Q 352.8 398.8 356.5 400 L 356 398.5 L 354 390.5 L 357 389 L 359.5 394 L 360 253 L 357.5 252 L 354.5 253 L 350.5 252 L 349.5 253 L 303.5 253 L 301.5 253 L 241.5 253 Q 240.2 256.2 234.5 255 Q 232 249.5 229.5 254 L 226 251.5 Q 227 243.5 224 239.5 L 227.5 234 L 230.5 235 L 231 227.5 L 230 227.5 L 229.5 229 L 226 220.5 L 230 210 L 232 209.5 L 230 205.5 L 234 200.5 L 232.5 200 L 230 201 Q 228.5 192.6 231.5 188 L 232 196 Q 236.9 197.8 235 191.5 Q 237.8 190.7 237 186.5 L 237 184.5 L 238.5 182 Q 243 183 244 180.5 L 241 178.5 L 246.5 176 L 249.5 178 L 252.5 177 L 255.5 179 Q 257 175.5 263.5 177 L 265.5 177 L 275.5 177 L 285 180 Q 283.2 175.1 289.5 177 L 291.5 178 L 297 177 L 297.5 179 L 300.5 177 Q 302.3 180.8 304 177.5 L 304 158.5 L 299 156 Q 300.1 158.7 297.5 158 L 295.5 157 L 293 158.5 L 291.5 156 Q 289.3 156.8 290 154.5 L 288 151 Q 285.3 152.1 286 149.5 L 285 147 Q 281.3 145.8 283 151 L 285 151 Q 283.5 154.7 286.5 154 L 288 158 L 280 159 L 280.5 157 L 285 158 L 285 154 Q 281.7 155.1 283 151 L 278.5 151 L 277.5 149 L 281 147.5 Q 273.8 147.8 269.5 145 L 258.5 145 Q 255.5 148 248.5 147 L 244 149.5 L 249 151.5 L 249 153 L 253 153 L 253 155 Q 248 156.3 246.5 153 L 244.5 154 Q 242.8 150.3 241 153.5 L 242 156.5 L 237 159 Q 238.1 156.3 235.5 157 L 233 156 Q 234.1 158.7 231.5 158 Q 229.5 162 221.5 160 L 209 167.5 L 212 168 L 210.5 171 Q 206.8 170 208 173 L 211.5 172 L 213 175 L 206.5 178 L 203.5 174 Q 200.9 173.2 202 176.5 L 197 182.5 L 197 186.5 L 198 189.5 L 195 196.5 L 196 198.5 L 192.5 200 L 191 199.5 L 191 201 L 195 201 L 195 204.5 L 191 206 Q 192.2 212 189 214.5 L 190.5 214 L 193 215.5 L 195 218.5 L 187 222.5 L 189 226 L 187 226.5 L 187 283.5 Q 189.3 284.8 188 289.5 L 187 290.5 L 187 319.5 L 188 320.5 L 188 328.5 L 187 329.5 L 187 462 L 190 461.5 Q 186.5 459.8 188 454 Q 191.7 452.6 190 458.5 L 193 460 L 193.5 462 L 228.5 462 L 231 459.5 L 231 448.5 Q 228.8 447.2 230 442.5 L 231 441.5 L 231 324.5 L 230 318 Q 226.5 319.1 228 311.5 L 226 308.5 L 225 296.5 L 226 291.5 L 228.5 288 Q 233.8 289.8 232 284.5 L 235 283 Q 232.9 288.2 237.5 287 L 240.5 283 L 244 284.5 L 243 286.5 Q 248.1 285.9 249.5 289 L 300.5 289 L 302.5 288 L 305 289 L 304 286.5 L 305.5 287 Q 311.7 288.8 313.5 286 L 314 288 Q 317.8 287 319 289.5 L 318 292 L 323 295.5 L 323 299.5 L 321 305 L 317.5 304 Q 314.9 306.4 316 312.5 L 317 313.5 L 317 374.5 L 316 378.5 L 317 381.5 L 317 383.5 L 317 391.5 L 319 392 L 319 394.5 L 317 394.5 L 319 400.5 L 318 405 L 320 405 L 320 412.5 L 322 413 L 322 414.5 L 322 416.5 L 322.5 420 L 323 416 L 330 421.5 L 331.5 425 Q 338.1 425.9 341 430.5 Q 342.8 439.8 337 441.5 Q 342.4 441.6 344.5 445 L 346 442 L 350 442 Q 348.9 444.7 351.5 444 L 353.5 443 L 355 446 L 361.5 447 L 363 448.5 Q 361.3 453.8 366.5 452 Q 369.8 453.9 368 460 L 372 460 Q 370.9 462.7 373.5 462 L 377.5 464 L 383 461 Q 381.3 465.1 385.5 464 L 389.5 462 Q 391 464.5 396.5 463 L 400.5 462 L 404.5 467 Q 409.5 468 408.5 465 L 412.5 465 L 420.5 462 L 427 464 L 428.5 461 L 430.5 460 Q 431.8 463 436 462 L 436 460 L 442 460 L 442 456.5 L 439 457.5 Q 439.8 455.3 437.5 456 Q 434.8 454.6 436 450 L 440.5 450 Q 439.5 453 444.5 452 L 447 451 L 449.5 447 L 451 447 L 451.5 445 L 458 445 Q 457 448 460 447 L 460.5 444 L 462 444.5 Q 461.2 441.9 464.5 443 L 467 444 L 466 435.5 L 469 434 L 470.5 431 L 479.5 429 L 482 426.5 L 480.5 426 L 478 427 L 480 423 Q 477.3 424.1 478 421.5 L 480.5 420 L 482.5 420 L 485 419.5 L 480 419 L 480 416 L 482 416 Q 480.9 413.3 483.5 414 L 486 413 L 485.5 409 L 484 412 L 481.5 413 L 479 412 L 480.5 409 L 483 409 L 483 403.5 L 484.5 403 L 495 394.5 Q 494 390 496.5 389 Q 499.1 389.8 498 386.5 L 502.5 383 Q 504.2 385.8 509.5 385 L 512.5 384 Q 513.3 386.8 517.5 386 Q 519 383.5 524.5 385 Q 527.5 388 534.5 387 L 541 390.5 Q 540.2 393.1 543.5 392 L 547 397.5 L 545.5 400 Q 547.8 399.3 547 401.5 L 552.5 409 L 555 408.5 Q 554.2 405.5 558 407 Q 556.8 410.7 562 409 Q 560.9 406.3 563.5 407 L 567 412.5 L 563 414 Q 561.3 419.2 565 418 L 565.5 416 L 566.5 418 Q 563.9 417.3 565 420 Q 568 418.8 567 422.5 L 565.5 425 Q 569.7 423.9 568 428 L 564 426.5 L 563.5 425 L 563 429 Q 568.3 427.8 567.5 431 L 570.5 431 Q 571.9 428.4 576.5 429 L 580 431.5 L 581 439.5 L 579 443 L 586 445 Q 584.9 441.7 589 443 L 589.5 446 L 592.5 444 L 594 447 L 599.5 446 L 601 449 Q 604.1 448.3 603.5 451 L 608.5 451 L 607.5 448 L 614.5 447 L 618.5 445 L 620 449 Q 623.3 450.3 622 445.5 L 627 442 L 629 432 Q 636.3 432.6 639 427.5 Q 637.9 424.2 640.5 425 L 644.5 420 L 646 419.5 Q 644 415 642 418.5 Q 642.7 421.1 640 420 L 640 424 L 638 424 L 637 421.5 L 640 419.5 L 639 414 Q 641.7 415.1 641 412.5 L 638.5 406 L 638 408 L 633 408 L 633 406.5 L 637 404.5 L 633 403 Q 634.3 399.7 629.5 401 L 628 397 L 625.5 396 L 625 397.5 Q 627.8 398.3 627 402.5 Q 625.5 405.5 624 402.5 Q 625.5 398.1 622.5 399 L 618.5 398 L 615 394.5 Q 615.5 390.5 612.5 390 Q 608.1 391.5 609 388.5 L 608 385.5 L 608.5 384 L 607 384 L 607 388 L 604 388 Q 606.1 382.8 601.5 384 L 597.5 382 L 589 386.5 Q 590.1 389.8 587.5 389 L 586 386.5 L 589 384.5 L 584.5 381 L 579.5 381 L 580.5 383 Q 584.3 382 583 385 L 573.5 385 Q 574.5 388 569.5 387 L 571 384.5 L 569.5 382 Q 563 381.7 560 379 L 560 371 L 556.5 371 L 553.5 370 Q 552 372.5 546.5 371 L 543.5 373 L 542 370 Q 538.6 369.3 537.5 372 L 534.5 368 L 531.5 368 L 525 363.5 L 527 357 L 524 355.5 L 523.5 353 L 523 355 Q 518.5 356.8 520 351.5 L 517.5 353 L 513 354 Q 514.5 350.2 511.5 351 L 508.5 350 L 505.5 354 L 503 352.5 L 500 346.5 L 498 333.5 L 500 330.5 Q 498.8 327.3 495 328 Q 493.2 323.1 499.5 325 L 499.5 324 L 495 323 L 496.5 319 L 499.5 320 L 499 318.5 L 499 317 L 495 317 L 495 314 L 498 313.5 L 495 312 L 497 308 L 495 307.5 L 495 252.5 L 493.5 253 Q 490.9 252.2 492 255.5 L 488.5 257 L 487 253 L 476.5 252 L 475.5 253 L 460.5 253 L 458.5 252 L 452 253.5 L 452 255.5 L 453.5 274 L 454.5 255 L 455 284.5 L 454 285.5 L 453 307.5 L 454 308.5 L 454 317.5 Q 450.8 318.8 452 324.5 L 453.5 330 L 454 328 L 456 328.5 L 451 334.5 L 450.5 378 L 450 251 L 452.5 250 L 495.5 250 L 497 251.5 L 497 300.5 Q 499.3 301.8 498 306.5 L 504 327.5 Q 509.4 331.9 511 339 L 530.5 355 L 550.5 366 L 575.5 375 Q 580.8 374.2 582.5 377 L 588.5 377 L 590.5 379 L 596.5 379 L 604.5 382 L 606.5 382 L 608.5 383 L 610.5 383 L 616.5 384 L 624.5 388 L 639 399 L 646 410.5 Q 645.2 415.8 648 417.5 L 648 425.5 L 645 431.5 Q 647.5 433 644 434.5 L 640.5 440 Q 638.3 439.3 639 441.5 L 624.5 451 L 616.5 453 L 601.5 454 Q 599.8 451.3 593.5 453 L 582.5 449 Q 573.8 444.8 568 437.5 L 550 409 Q 547.3 410.1 548 407.5 Q 540.9 399.6 530.5 395 L 513.5 392 L 503 396 Q 504.1 398.7 501.5 398 L 496 403.5 L 486 424.5 L 473 442 Q 470.3 440.9 471 443.5 L 456.5 455 L 449 458 Q 450.1 460.7 447.5 460 L 439.5 464 L 421.5 469 L 397.5 470 L 396.5 469 L 384.5 469 L 381.5 467 L 366 464 L 366 462 L 361.5 462 L 361 460 L 358.5 460 L 346 453 Q 347.1 450.3 344.5 451 L 335 444 L 326 431.5 L 318 412.5 L 315 400.5 L 314 372.5 Q 316.8 370.8 315 364.5 L 314 363.5 L 314 305.5 Q 316.8 303.7 315 297.5 L 313 292 L 310.5 291 L 235.5 291 L 232 293.5 L 232 463.5 L 231.5 464 L 205.5 464 L 204.5 465 L 196.5 465 L 192.5 464 L 190.5 464 Q 185.1 464.6 185 463.5 L 185 215.5 L 189 195.5 L 195 181.5 Q 201.7 170.2 211.5 162 L 214.5 160 L 224.5 153 L 233.5 149 L 236.5 149 L 238.5 147 L 244.5 147 L 247.5 145 L 255.5 145 L 256.5 144 Z M 289 147 L 290 148 L 292 151 L 292 149 L 289 147 Z M 296 149 L 297 150 L 298 151 Q 299 148 296 149 Z M 293 151 L 293 153 Q 292 157 296 155 L 296 153 L 294 153 Q 295 150 293 151 Z M 299 151 L 299 152 L 302 152 L 299 151 Z M 238 154 L 237 157 L 238 157 L 238 154 Z M 223 156 L 223 157 L 225 157 L 223 156 Z M 241 188 L 239 190 L 243 190 Q 244 187 241 188 Z M 190 202 L 189 205 L 190 205 L 190 202 Z M 192 217 L 190 219 L 192 219 L 192 217 Z M 543 366 L 545 370 Q 547 371 546 368 L 543 366 Z M 573 375 L 573 376 L 575 376 L 573 375 Z M 590 382 L 590 383 L 593 383 L 590 382 Z M 612 386 L 613 389 L 617 387 L 612 386 Z M 619 388 L 620 389 L 621 390 Q 622 387 619 388 Z M 499 390 L 500 392 Q 501 389 499 390 Z M 533 390 L 531 393 L 534 393 L 533 390 Z M 362 395 L 359 398 L 362 398 L 362 395 Z M 451 395 L 451 396 L 454 396 L 451 395 Z M 453 399 L 449 401 L 449 402 L 454 401 Q 455 398 453 399 Z M 358 400 L 357 403 Q 361 404 360 401 L 358 400 Z M 563 410 L 563 412 L 565 411 L 563 410 Z M 325 420 L 324 424 Q 326 427 327 424 L 325 420 Z M 562 421 L 564 423 Q 565 420 562 421 Z M 644 427 L 643 428 Q 639 427 640 430 L 642 431 Q 641 428 644 429 L 644 427 Z M 380 428 L 381 429 Q 382 431 383 429 L 380 428 Z M 423 430 L 423 431 L 425 431 L 423 430 Z M 407 433 L 406 436 L 407 436 L 407 433 Z M 335 439 Q 334 442 337 441 Q 338 438 335 439 Z M 456 447 L 455 449 L 458 449 L 456 447 Z M 590 447 Q 588 450 591 449 L 590 447 Z M 451 451 L 450 454 L 451 454 L 451 451 Z M 361 452 L 361 457 L 363 458 Q 365 451 361 452 Z M 444 453 Q 441 455 444 456 L 447 456 L 444 453 Z M 389 465 Q 387 468 390 467 L 389 465 Z M 421 465 L 421 466 L 424 466 L 421 465 Z M 419 466 L 417 467 L 417 468 L 420 467 L 419 466 Z " /><path fill="rgb(2,2,3)" stroke="rgb(2,2,3)" stroke-width="1" opacity="0.984313725490196" d="M 277.5 152 L 281 153 Q 282.3 156 278.5 155 L 276.5 156 L 273 153.5 L 277.5 152 Z " /><path fill="rgb(2,2,3)" stroke="rgb(2,2,3)" stroke-width="1" opacity="0.984313725490196" d="M 192 208 Q 196.5 206.5 195 211 Q 190.5 212.5 192 208 Z " /><path fill="rgb(2,2,3)" stroke="rgb(2,2,3)" stroke-width="1" opacity="0.984313725490196" d="M 193.5 213 L 196 213.5 L 193.5 214 L 193.5 213 Z " /><path fill="rgb(2,2,3)" stroke="rgb(2,2,3)" stroke-width="1" opacity="0.984313725490196" d="M 193.5 221 Q 196.5 222.5 193.5 224 L 193.5 221 Z " /><path fill="rgb(2,2,3)" stroke="rgb(2,2,3)" stroke-width="1" opacity="0.984313725490196" d="M 193 226 L 195 226.5 L 193 227.5 L 193 226 Z " /><path fill="rgb(2,2,3)" stroke="rgb(2,2,3)" stroke-width="1" opacity="0.984313725490196" d="M 189.5 227 L 190 230.5 L 189 230.5 L 189.5 227 Z " /><path fill="rgb(2,2,3)" stroke="rgb(2,2,3)" stroke-width="1" opacity="0.984313725490196" d="M 189.5 235 L 190 247.5 L 188 246.5 Q 187.1 239.1 189.5 235 Z " /><path fill="rgb(2,2,3)" stroke="rgb(2,2,3)" stroke-width="1" opacity="0.984313725490196" d="M 795.5 245 L 814.5 245 L 836.5 249 L 852.5 256 L 863.5 264 L 866 264 Q 864.9 266.7 867.5 266 L 869 269 L 876 273 L 885 286.5 L 894 305.5 Q 893.4 310.1 896 311.5 L 896 316.5 L 898 318.5 L 898 324.5 L 900 331.5 L 900 344.5 L 901 346.5 L 900 347.5 L 900 364.5 L 897.5 368 L 882.5 368 L 877.5 367 L 876.5 368 L 866.5 368 Q 864.8 365.2 858.5 367 L 857.5 368 L 757.5 368 L 755.5 368 L 752 369 L 751 373.5 Q 753.8 375.3 752 381.5 L 754 384.5 L 757 396.5 L 759 398.5 L 759 401.5 L 768 415 L 770 415 L 770 417 Q 772.7 415.9 772 418.5 L 788.5 430 L 801.5 434 Q 806.2 432.7 807.5 435 L 839.5 435 L 840.5 434 L 848.5 434 L 853.5 432 L 861 432 L 861 464.5 L 859.5 466 L 850.5 467 L 846.5 469 L 835.5 469 L 826.5 471 L 810.5 471 L 808.5 470 L 806.5 471 L 803.5 469 L 793.5 469 L 776.5 464 L 774.5 462 L 770.5 462 L 744 445.5 Q 744.8 443.3 742.5 444 L 737 440 L 718 414.5 L 711 398.5 L 707 384.5 L 690.5 362 L 685.5 358 Q 678.6 350 668 347 Q 669.3 344 665.5 345 L 651.5 338 L 648.5 338 L 639.5 334 L 635.5 334 L 628.5 331 Q 621.8 331.7 618.5 329 L 602.5 327 L 589.5 323 Q 577.6 318.9 570 310.5 L 568 307.5 Q 560.3 300.7 562 284.5 L 566 273.5 L 573.5 266 L 588.5 258 L 598.5 256 L 606.5 256 L 608.5 257 L 610.5 256 Q 623.2 258.5 632 264 Q 630.9 266.7 633.5 266 L 641 271.5 L 643 274.5 L 646 279 L 648 279 L 648 281 Q 650.7 279.9 650 282.5 L 659 295 Q 661.7 293.9 661 296.5 Q 667.9 305.6 678.5 311 L 683.5 313 L 695.5 313 L 708.5 306 L 718 298 L 720 293 L 725 289.5 Q 733 275.5 745.5 266 Q 748.1 266.7 747 264 L 749.5 264 L 766.5 253 L 776.5 249 L 795.5 245 Z M 799 247 Q 794 248 795 254 Q 794 256 790 255 Q 787 254 788 249 L 784 255 L 784 256 L 779 256 L 779 259 Q 776 260 777 258 L 772 262 L 770 259 L 767 261 L 769 264 L 769 265 L 772 263 Q 775 265 772 266 L 770 266 L 770 270 L 762 270 L 761 264 L 758 268 L 759 272 L 757 273 L 755 272 Q 746 271 743 273 L 745 281 L 740 284 L 736 290 L 734 289 L 727 294 Q 728 296 725 295 L 726 300 L 724 304 L 717 307 L 718 309 L 710 312 Q 711 314 707 313 L 706 317 Q 703 316 704 319 Q 703 321 702 319 Q 699 320 700 317 L 696 316 L 695 321 L 691 321 L 693 318 Q 688 318 687 315 L 677 315 L 677 319 L 676 319 Q 677 316 673 317 L 672 320 L 667 320 L 660 316 L 662 312 L 657 309 L 659 306 L 659 300 L 657 303 L 654 299 L 650 301 L 643 295 Q 641 291 642 285 L 638 281 L 640 278 L 643 279 L 644 279 Q 643 276 639 277 L 638 274 L 639 271 L 637 270 L 633 272 L 631 271 L 626 271 L 622 274 Q 619 274 619 270 L 623 268 Q 624 265 620 266 Q 618 268 617 266 Q 618 262 614 264 L 617 269 L 617 270 L 612 270 L 613 268 L 611 263 L 608 261 L 611 259 L 611 258 L 606 259 L 601 258 L 600 262 Q 599 265 602 264 L 602 265 Q 596 267 598 261 L 596 260 Q 598 266 593 264 L 594 266 Q 598 264 597 268 L 593 271 L 587 272 Q 585 275 584 271 L 581 273 Q 578 274 579 271 L 575 271 Q 573 275 577 274 L 579 278 L 578 280 L 570 277 L 569 280 Q 567 284 571 283 Q 573 284 571 286 L 571 287 L 565 287 L 565 296 L 571 303 L 574 301 L 576 302 L 582 301 Q 583 304 581 303 Q 578 304 580 306 Q 579 309 582 308 L 579 315 L 579 316 L 581 316 L 582 318 L 587 318 L 587 320 Q 590 321 589 318 L 594 318 Q 595 316 597 319 L 600 318 Q 608 316 610 320 Q 612 321 611 318 L 614 320 Q 613 322 617 321 L 619 325 L 621 321 Q 623 316 625 320 Q 624 323 627 322 L 630 318 L 633 318 Q 634 322 638 321 L 639 319 L 644 328 L 643 333 L 645 333 L 646 335 L 646 333 L 655 334 Q 656 337 658 335 Q 660 336 659 334 Q 661 330 663 334 L 664 334 L 664 338 L 668 338 L 673 335 L 675 338 L 675 349 Q 678 351 686 350 L 690 354 L 692 354 Q 695 356 694 364 L 696 366 Q 695 368 698 367 L 699 369 L 702 367 L 707 368 L 711 374 L 707 375 Q 706 379 709 378 L 709 382 L 714 385 L 717 385 Q 718 381 720 385 L 720 389 Q 723 388 722 391 L 725 391 L 725 394 L 723 395 L 721 392 L 719 393 L 720 396 Q 722 400 725 396 L 727 398 L 724 399 L 724 401 Q 725 406 722 407 L 722 410 Q 726 411 726 416 L 726 414 L 730 413 L 735 418 Q 733 423 725 422 L 729 422 L 731 422 Q 734 421 733 424 L 739 425 L 740 429 Q 743 428 745 431 L 747 430 L 752 431 L 754 434 L 754 437 Q 758 437 757 442 L 756 444 L 758 443 L 761 445 Q 763 444 762 447 L 770 445 L 769 452 L 771 458 L 779 462 L 783 460 L 787 463 Q 789 464 788 461 Q 795 460 798 464 Q 800 465 799 462 L 803 461 L 812 463 L 813 467 L 812 469 L 814 468 L 819 469 Q 820 466 817 467 L 815 463 Q 812 464 813 461 Q 816 460 815 463 L 819 463 L 821 462 L 819 467 L 823 469 L 827 468 L 828 465 L 834 464 L 836 467 L 839 463 Q 842 462 841 465 Q 849 467 852 462 L 856 465 L 856 464 L 859 462 L 860 460 L 860 451 L 859 450 L 859 448 L 855 448 L 854 441 Q 846 441 843 447 L 840 446 Q 837 447 838 445 L 835 443 L 833 443 Q 829 444 830 442 L 832 439 Q 827 439 826 443 Q 827 445 823 444 L 823 441 L 821 445 L 817 445 L 808 440 L 805 443 L 795 443 Q 794 439 797 440 L 797 437 L 801 438 L 803 441 L 803 439 L 796 433 L 795 437 L 792 436 L 793 434 L 791 433 L 788 439 L 784 438 L 784 436 L 788 436 L 788 432 L 782 435 L 779 428 Q 776 429 777 433 L 774 434 L 771 432 Q 772 427 770 426 L 772 425 L 767 424 L 768 422 L 770 419 Q 764 417 766 423 L 764 422 Q 765 419 762 420 L 761 413 L 758 412 L 756 412 L 756 408 L 753 407 Q 754 403 752 404 L 750 400 L 753 400 Q 752 403 756 402 L 756 401 Q 753 402 754 400 Q 752 395 750 399 Q 746 400 745 398 L 745 396 L 750 396 L 751 391 L 749 389 L 749 388 Q 754 390 752 385 L 744 387 Q 743 384 746 385 L 745 383 Q 742 384 743 381 L 741 381 L 739 380 L 738 371 Q 739 367 743 368 L 744 364 L 748 365 Q 749 368 746 367 Q 743 368 745 370 Q 744 373 749 371 Q 752 370 751 364 L 754 363 Q 761 361 759 366 Q 762 367 761 364 L 797 364 L 798 365 L 802 364 L 832 364 L 834 362 L 837 363 L 836 365 L 867 365 L 869 363 L 875 363 L 881 365 L 885 365 Q 886 362 889 363 L 891 360 Q 893 361 892 358 L 896 356 L 895 352 Q 894 349 898 350 L 898 333 L 896 341 L 894 339 L 894 321 Q 891 322 890 319 Q 887 320 888 317 L 885 316 L 886 312 L 888 312 L 888 317 L 893 316 L 891 315 Q 888 314 889 309 L 887 310 L 885 309 L 888 308 L 887 306 Q 888 303 885 304 Q 886 299 883 298 L 883 290 L 878 289 L 870 290 L 867 285 L 868 282 L 867 277 L 861 270 Q 853 268 852 272 L 848 272 L 848 265 L 852 263 Q 844 261 841 255 L 834 255 L 832 252 L 824 251 L 822 251 L 817 248 Q 813 251 806 249 L 805 250 L 799 247 Z M 835 251 L 835 252 L 838 252 L 835 251 Z M 843 253 L 843 257 Q 847 256 846 259 L 850 259 L 847 255 Q 844 256 845 253 L 843 253 Z M 772 255 L 771 259 L 772 259 L 772 255 Z M 613 259 L 612 261 L 617 261 L 613 259 Z M 765 264 L 765 265 L 767 265 L 765 264 Z M 738 277 L 737 281 Q 739 284 741 280 Q 742 275 738 277 Z M 887 295 L 886 299 L 887 299 L 887 295 Z M 715 304 L 715 305 L 717 305 L 715 304 Z M 630 322 L 630 323 L 632 323 L 630 322 Z M 637 323 L 635 325 L 637 325 L 637 323 Z M 615 326 L 615 327 L 617 327 L 615 326 Z M 636 328 L 636 330 L 638 329 L 636 328 Z M 670 339 Q 669 341 673 341 Q 674 338 670 339 Z M 895 359 L 893 363 Q 892 365 895 364 L 898 360 L 895 359 Z M 750 379 Q 748 382 751 383 L 752 383 L 750 379 Z M 754 388 L 753 393 L 754 393 L 754 388 Z M 717 396 Q 715 399 718 398 L 719 400 L 719 397 L 717 396 Z M 764 417 Q 763 420 766 419 Q 767 416 764 417 Z M 804 435 L 804 437 L 804 438 L 808 438 L 804 435 Z M 844 435 L 844 436 Q 851 434 854 438 L 854 437 L 853 435 L 844 435 Z M 825 437 L 825 438 L 827 438 L 825 437 Z M 834 437 L 834 438 L 839 438 L 834 437 Z M 840 438 L 840 440 L 843 441 L 850 441 L 850 439 L 840 438 Z M 813 439 L 813 441 L 815 440 L 813 439 Z M 856 439 L 857 440 L 858 441 Q 859 438 856 439 Z M 788 463 L 790 466 L 792 465 Q 793 461 788 463 Z " /><path fill="rgb(2,2,3)" stroke="rgb(2,2,3)" stroke-width="1" opacity="0.984313725490196" d="M 798.5 252 L 802 253.5 L 802 256 L 797 256 L 796 253.5 L 798.5 252 Z " /><path fill="rgb(2,2,3)" stroke="rgb(2,2,3)" stroke-width="1" opacity="0.984313725490196" d="M 832 257 Q 835 256 834 259 Q 831 260 832 257 Z " /><path fill="rgb(2,2,3)" stroke="rgb(2,2,3)" stroke-width="1" opacity="0.984313725490196" d="M 837 257 L 841 258.5 L 844 262.5 Q 842.3 265.8 840.5 262 Q 838.3 262.8 839 260.5 L 837 257 Z " /><path fill="rgb(2,2,3)" stroke="rgb(2,2,3)" stroke-width="1" opacity="0.984313725490196" d="M 775.5 260 L 778 261.5 L 779 264.5 L 777.5 264 Q 772.7 265.7 774 261.5 L 775.5 260 Z " /><path fill="rgb(2,2,3)" stroke="rgb(2,2,3)" stroke-width="1" opacity="0.984313725490196" d="M 355.5 261 Q 358.5 262.5 355.5 264 Q 352.5 262.5 355.5 261 Z " /><path fill="rgb(2,2,3)" stroke="rgb(2,2,3)" stroke-width="1" opacity="0.984313725490196" d="M 837 264 Q 840 263 839 266 Q 836 267 837 264 Z " /><path fill="rgb(2,2,3)" stroke="rgb(2,2,3)" stroke-width="1" opacity="0.984313725490196" d="M 792.5 271 Q 794 276.5 802.5 275 Q 804.5 270 813.5 272 Q 816.3 273.4 815 278 L 818.5 279 L 821 278.5 L 817 273.5 L 820.5 272 L 821.5 273 L 831.5 273 L 837 277.5 Q 834.4 284.8 840.5 283 Q 842.5 279 844.5 283 Q 847.1 282.2 846 285.5 L 845.5 287 L 849.5 285 L 855.5 296 L 861 299.5 L 860 303.5 L 861.5 303 Q 864.1 303.7 863 301 L 866 301 Q 865 306.3 868 308.5 L 866 313 L 864 313.5 L 869 315.5 Q 869.8 317.8 867.5 317 L 869 319.5 Q 869.7 322.1 867 321 L 867 323 Q 870.3 321.9 869 326 L 866 326.5 L 869 328.5 L 866 335.5 L 867 338.5 L 864 337.5 L 863.5 340 Q 862.4 337.3 859 338 L 859 341 Q 856 340 857 343 L 850 343 L 849 337 L 834.5 337 L 833.5 338 L 780.5 338 L 775.5 337 L 774.5 338 L 761.5 338 L 758.5 337 L 754.5 338 L 750 337 L 749.5 334 L 749 337 L 746 337 Q 747.1 334.3 744.5 335 L 740.5 336 L 739 334.5 L 739 320 L 745.5 319 L 747.5 320 L 749.5 317 Q 751.3 320.8 753 317.5 Q 749.3 315.8 752.5 314 Q 754.8 314.8 754 312.5 L 750 306.5 L 752 306 L 753.5 303 Q 757.9 304.5 757 301.5 L 752 295.5 L 752 293.5 L 754.5 290 Q 755.9 292.6 760.5 292 L 763 291 L 766.5 285 L 768 285 L 768.5 283 L 776.5 283 L 780.5 279 L 782.5 281 L 786 279.5 Q 784.5 273.5 787.5 272 L 792.5 271 Z M 807 275 L 807 276 L 812 276 L 807 275 Z M 826 277 L 825 280 L 828 281 Q 830 282 829 279 L 826 277 Z M 804 279 L 788 283 L 780 287 L 765 300 Q 766 302 763 301 L 754 317 L 751 329 L 752 335 L 760 336 L 762 336 Q 768 338 770 335 L 822 335 L 823 336 L 827 335 L 831 336 L 853 336 L 854 335 L 862 335 L 864 333 Q 863 313 853 303 Q 854 300 851 301 L 846 294 Q 843 295 844 292 L 829 283 L 812 279 L 804 279 Z M 841 283 Q 840 286 843 285 Q 844 282 841 283 Z M 772 285 L 769 286 L 770 288 L 772 287 L 772 285 Z M 753 306 L 754 308 L 757 307 L 753 306 Z " /><path fill="rgb(2,2,3)" stroke="rgb(2,2,3)" stroke-width="1" opacity="0.984313725490196" d="M 773.5 272 L 775 275.5 L 773 276.5 L 773.5 272 Z " /><path fill="rgb(2,2,3)" stroke="rgb(2,2,3)" stroke-width="1" opacity="0.984313725490196" d="M 246.5 283 L 249 284.5 L 246.5 286 Q 243.5 284.5 246.5 283 Z " /><path fill="rgb(2,2,3)" stroke="rgb(2,2,3)" stroke-width="1" opacity="0.984313725490196" d="M 576 284 Q 579 282.8 578 286.5 L 579 289.5 L 576.5 296 L 576 284 Z " /><path fill="rgb(2,2,3)" stroke="rgb(2,2,3)" stroke-width="1" opacity="0.984313725490196" d="M 744 284 Q 747.3 282.9 746 287 Q 742.7 288.1 744 284 Z " /><path fill="rgb(2,2,3)" stroke="rgb(2,2,3)" stroke-width="1" opacity="0.984313725490196" d="M 355.5 290 L 356 300.5 L 355 300.5 L 355.5 290 Z " /><path fill="rgb(2,2,3)" stroke="rgb(2,2,3)" stroke-width="1" opacity="0.984313725490196" d="M 729.5 294 Q 732.5 295.5 729.5 297 Q 727.3 297.8 728 295.5 L 729.5 294 Z " /><path fill="rgb(2,2,3)" stroke="rgb(2,2,3)" stroke-width="1" opacity="0.984313725490196" d="M 570.5 297 L 571 299.5 L 570 299.5 L 570.5 297 Z " /><path fill="rgb(2,2,3)" stroke="rgb(2,2,3)" stroke-width="1" opacity="0.984313725490196" d="M 191.5 301 L 192 318.5 L 191 318.5 Q 188.4 312.6 190 302.5 L 191.5 301 Z " /><path fill="rgb(2,2,3)" stroke="rgb(2,2,3)" stroke-width="1" opacity="0.984313725490196" d="M 683.5 316 L 686 317 Q 687.2 320.7 682 319 L 683.5 316 Z " /><path fill="rgb(2,2,3)" stroke="rgb(2,2,3)" stroke-width="1" opacity="0.984313725490196" d="M 355.5 328 L 356 335.5 L 355 335.5 L 355.5 328 Z " /><path fill="rgb(2,2,3)" stroke="rgb(2,2,3)" stroke-width="1" opacity="0.984313725490196" d="M 889.5 348 L 892 356.5 L 888 359 Q 889.3 362 885.5 361 L 880 359.5 Q 887 359.5 890 355.5 Q 887.2 353.7 889.5 348 Z " /><path fill="rgb(2,2,3)" stroke="rgb(2,2,3)" stroke-width="1" opacity="0.984313725490196" d="M 773.5 359 L 779 359.5 L 773.5 360 L 773.5 359 Z " /><path fill="rgb(2,2,3)" stroke="rgb(2,2,3)" stroke-width="1" opacity="0.984313725490196" d="M 190 373 L 192 373.5 L 192 389.5 L 190 388.5 L 190 373 Z " /><path fill="rgb(2,2,3)" stroke="rgb(2,2,3)" stroke-width="1" opacity="0.984313725490196" d="M 746.5 391 Q 749.5 390.2 748 394 Q 742.8 395.7 744 392 L 746.5 391 Z " /><path fill="rgb(2,2,3)" stroke="rgb(2,2,3)" stroke-width="1" opacity="0.984313725490196" d="M 559.5 396 L 562 396 L 562 401.5 L 561 404 Q 557.2 405 556 402.5 L 557 397 L 559.5 396 Z " /><path fill="rgb(2,2,3)" stroke="rgb(2,2,3)" stroke-width="1" opacity="0.984313725490196" d="M 744.5 401 L 749 403 L 747.5 406 Q 744.9 406.8 746 403.5 L 744.5 401 Z " /><path fill="rgb(2,2,3)" stroke="rgb(2,2,3)" stroke-width="1" opacity="0.984313725490196" d="M 620 402 Q 623.3 400.9 622 405 Q 618.7 406.1 620 402 Z " /><path fill="rgb(2,2,3)" stroke="rgb(2,2,3)" stroke-width="1" opacity="0.984313725490196" d="M 628 403 Q 632.1 401.3 631 405.5 Q 630.3 407.8 626.5 407 L 628 404.5 L 628 403 Z " /><path fill="rgb(2,2,3)" stroke="rgb(2,2,3)" stroke-width="1" opacity="0.984313725490196" d="M 724.5 407 L 727 408.5 L 724.5 410 Q 721.5 408.5 724.5 407 Z " /><path fill="rgb(2,2,3)" stroke="rgb(2,2,3)" stroke-width="1" opacity="0.984313725490196" d="M 189.5 414 L 190 441.5 L 189 441.5 L 189.5 414 Z " /><path fill="rgb(2,2,3)" stroke="rgb(2,2,3)" stroke-width="1" opacity="0.984313725490196" d="M 398 436 L 401 436 Q 400 439 403 438 L 403 441 L 398 437.5 L 398 436 Z " /><path fill="rgb(2,2,3)" stroke="rgb(2,2,3)" stroke-width="1" opacity="0.984313725490196" d="M 790 438 Q 794.5 436.5 793 441 Q 788.5 442.5 790 438 Z " /><path fill="rgb(2,2,3)" stroke="rgb(2,2,3)" stroke-width="1" opacity="0.984313725490196" d="M 388.5 440 Q 391.5 441.5 388.5 443 Q 385.5 441.5 388.5 440 Z " /><path fill="rgb(2,2,3)" stroke="rgb(2,2,3)" stroke-width="1" opacity="0.984313725490196" d="M 781.5 441 L 784 441.5 Q 781.9 444.8 781.5 441 Z " /><path fill="rgb(2,2,3)" stroke="rgb(2,2,3)" stroke-width="1" opacity="0.984313725490196" d="M 446.5 444 L 447 447 Q 444.3 445.9 445 448.5 Q 443.5 451.5 442 448.5 L 445 447 L 446.5 444 Z " /><path fill="rgb(2,2,3)" stroke="rgb(2,2,3)" stroke-width="1" opacity="0.984313725490196" d="M 835.5 460 L 837 463 L 834 461.5 L 835.5 460 Z " /><path fill="rgb(2,2,3)" stroke="rgb(2,2,3)" stroke-width="1" opacity="0.984313725490196" d="M 407.5 461 L 410 461.5 Q 407.9 464.8 407.5 461 Z " /><path fill="rgb(2,2,3)" stroke="rgb(2,2,3)" stroke-width="1" opacity="0.984313725490196" d="M 824.5 461 L 826 463.5 L 824 464 L 824.5 461 Z " /><path fill="rgb(2,2,3)" stroke="rgb(2,2,3)" stroke-width="1" opacity="0.984313725490196" d="M 830.5 461 Q 832.8 460.3 832 462.5 L 830.5 461 Z " /><path fill="rgb(2,2,3)" stroke="rgb(2,2,3)" stroke-width="1" opacity="0.984313725490196" d="M 844.5 461 L 847 461.5 L 844.5 462 L 844.5 461 Z " /><path fill="rgb(2,2,3)" stroke="rgb(2,2,3)" stroke-width="1" opacity="0.984313725490196" d="M 995.5 580 L 996 588.5 L 995 588.5 L 995.5 580 Z " /><path fill="rgb(21,21,23)" stroke="rgb(21,21,23)" stroke-width="1" opacity="0.22745098039215686" d="M 251.5 139 L 279.5 139 L 281.5 141 L 294.5 141 Q 296.5 145 304.5 143 L 309 146.5 L 311 149.5 L 311 186.5 L 310 189 L 302.5 189 L 301.5 188 L 300.5 189 L 297.5 186 L 282.5 187 L 278.5 186 L 277.5 187 L 262.5 187 L 255.5 191 L 252 191 L 244 202 L 242 202 Q 243.7 207.2 240 206 L 240 210.5 L 238 212.5 L 238 224 L 236 224.5 L 237 225.5 L 237 241.5 L 236 243.5 L 237.5 245 L 363.5 245 L 366 247.5 L 366 389.5 L 368 391.5 L 368 398.5 L 373 411 Q 376 409.8 375 413.5 L 381 418 Q 379.9 420.7 382.5 420 L 388.5 424 Q 394.5 423 396.5 426 L 414.5 426 L 416.5 424 L 421.5 424 L 429 420 Q 427.9 417.3 430.5 418 L 438 409.5 L 438 407 Q 441.3 408.3 440 403.5 L 442 401.5 Q 440.5 395 444 393.5 L 444 260.5 L 445 256.5 L 445 254.5 Q 443.8 247.3 447.5 245 L 498.5 245 L 501 247.5 L 502 256.5 L 501 258.5 L 502 260.5 L 501 262.5 L 503 264.5 L 503 299.5 Q 505.7 301.3 504 307.5 L 506 310.5 L 506 315.5 L 508 317.5 L 508 323 L 510 323 L 510 327 Q 513 325.8 512 329.5 L 523.5 342 L 526 343.5 Q 525.3 346.1 528 345 L 528 347 L 530.5 347 L 534 349 Q 532.8 352 536.5 351 L 546.5 358 L 554 360 Q 552.7 363.3 557.5 362 Q 558.5 365 563.5 364 L 566.5 367 L 572 367 Q 570.9 370.5 578.5 369 Q 580.4 372.8 587 371 L 587.5 373 L 596.5 373 L 598.5 375 Q 605.5 374.3 609 376 L 609.5 378 L 616.5 378 L 634 387 L 634 389 L 636 389 Q 634.9 391.7 637.5 391 L 643 398 Q 645.7 396.9 645 399.5 L 650 406.5 L 650 410.5 L 649.5 412 L 652 413.5 L 652 430.5 L 650.5 432 L 649 432.5 L 650 435.5 L 647.5 439 L 646 439.5 L 646.5 441 Q 644.3 440.3 645 442.5 L 638 448 Q 639.1 450.7 636.5 450 L 629.5 455 Q 625.3 454.3 624.5 457 L 620.5 457 L 618.5 459 L 594.5 459 L 592.5 457 Q 586.5 458.5 585 455.5 L 584.5 454 L 582.5 455 L 578.5 452 L 576 452 L 576 450 L 573 450 L 573 448 L 571 448 Q 572.1 445.3 569.5 446 L 565.5 441 L 562.5 439 L 559 434.5 L 559 432 Q 556.3 433.1 557 430.5 Q 554.3 429.4 555 426 Q 551.7 427.3 553 422.5 L 548 416.5 L 548.5 415 Q 545.2 416.1 546 413.5 L 544 410 L 542 410 L 540 406 L 537 406 L 537 404 L 534.5 404 L 525.5 399 L 518 399 Q 519.3 395.7 514.5 397 Q 513.1 400.3 508 399 Q 509.1 401.7 506.5 401 L 501 408 Q 498 406.8 499 410.5 L 494 418.5 L 494 421 Q 491 419.8 492 423.5 L 483 436.5 L 483 439 L 481 439 L 481 441 Q 478.3 439.9 479 442.5 L 472 448 L 472 450 Q 469.3 448.9 470 451.5 L 463.5 457 L 461 457 Q 462.1 459.7 459.5 459 L 448.5 466 L 442.5 468 L 440.5 468 Q 437.9 467.3 439 470 L 432.5 470 L 432 472 L 429.5 472 L 427.5 472 L 424.5 472 L 419.5 475 L 389.5 475 L 384.5 473 L 375.5 472 L 373.5 470 L 368.5 470 L 366.5 468 L 361.5 468 L 347.5 459 L 345 459 Q 346.1 456.3 343.5 457 L 338 454 L 338 452 L 336 452 L 336 450 L 334 450 Q 335.1 447.3 332.5 448 L 327 441.5 L 327 439 L 325 439 L 325 437 Q 322.3 438.1 323 435.5 Q 319.1 433.4 320 428 Q 316.7 429.3 318 424.5 Q 314.5 422.8 316 417 Q 312 418.4 314 411.5 Q 309.5 409 311 400.5 L 312.5 398 L 314 399.5 L 314 406.5 L 316 413.5 L 323 430.5 Q 329.7 441.8 339.5 450 L 353.5 460 L 376.5 469 L 386.5 471 L 394.5 471 L 395.5 472 L 413.5 472 L 414.5 471 L 421.5 471 L 431.5 469 L 447.5 463 L 459.5 456 L 474 443.5 L 484 431.5 L 499.5 403 Q 501.8 403.8 501 401.5 L 512.5 395 L 521.5 395 L 537.5 401 L 546 408.5 L 563 435.5 L 574.5 447 L 587.5 454 L 597.5 456 L 614.5 456 Q 634.5 452 645 438.5 L 649 429.5 L 649 414.5 Q 645.6 401.4 636.5 394 L 619.5 383 L 602.5 378 L 596.5 378 L 583.5 374 L 578.5 374 L 553.5 365 L 528.5 351 L 512 335.5 L 503 318.5 L 499 300.5 L 499 250.5 L 498 248 L 450.5 248 L 448 250.5 L 447 393.5 L 440 412.5 L 431.5 422 L 422.5 427 L 405.5 430 L 404.5 429 L 394.5 429 L 387.5 427 Q 379.2 423.8 374 417.5 L 365 399.5 L 363 373.5 L 363 371.5 L 363 249.5 L 361.5 248 L 235.5 248 L 234 246.5 L 234 236.5 L 233 235.5 L 234 234.5 L 235 212.5 Q 238.8 199.3 247.5 191 Q 254.3 185.3 264.5 183 L 283.5 183 L 284.5 184 L 294.5 184 L 304.5 187 L 307 186 L 307 149.5 L 304.5 147 L 293.5 144 L 272.5 143 L 271.5 142 L 257.5 142 L 256.5 143 L 248.5 143 L 238.5 145 L 223.5 151 Q 208.8 158.7 199 171.5 L 193 180.5 L 188 192.5 L 186 202.5 L 184 205.5 L 184 213.5 L 182 222.5 L 183 223.5 L 183 370.5 L 182 371.5 L 182 396.5 L 183 397.5 L 183 464.5 L 185.5 467 L 231.5 467 L 233 465.5 L 234 463.5 L 234 295.5 L 235 293 L 309.5 293 L 312 295.5 L 312 391.5 L 313 396.5 L 312 396.5 L 311.5 394 L 310.5 398 L 309 391.5 L 309 297 L 237 297 L 237 463.5 L 235 469 L 232.5 470 L 183.5 470 Q 179.2 468.3 182 466.5 L 181 464.5 L 181 452.5 L 179 450.5 L 179 355.5 L 181 353.5 L 181 319.5 L 179 317.5 L 179 220.5 L 181 218.5 L 181 205.5 Q 185 203.5 183 195.5 L 185 193.5 L 185 190.5 L 187 188.5 L 187 185.5 L 190 179 Q 193 180.3 192 176.5 Q 194.8 175.4 194 172 Q 196.7 173.1 196 170.5 L 201 163 L 203 163 L 203 161 L 205 161 Q 203.9 158.3 206.5 159 L 214 154 Q 212.8 151 216.5 152 Q 217.6 149.3 221 150 Q 219.9 147.3 222.5 148 L 228.5 145 L 232 145 Q 230.9 141.5 238.5 143 L 240.5 141 L 249.5 141 L 251.5 139 Z M 181 271 L 180 284 L 181 284 L 181 271 Z M 236 354 L 235 406 L 236 406 L 236 354 Z " /><path fill="rgb(21,21,23)" stroke="rgb(21,21,23)" stroke-width="1" opacity="0.22745098039215686" d="M 787.5 240 L 824.5 240 L 829.5 243 L 837 243 Q 835.6 247 842.5 245 L 849.5 249 L 853 249 Q 851.8 252 855.5 251 L 858 252 L 858 254 L 862 254 L 864 258 L 866.5 258 L 871 261 L 871 263 L 873 263 L 873 265 L 875 265 L 875 267 Q 877.7 265.9 877 268.5 L 880 270 L 884 278 Q 886.7 276.9 886 279.5 L 891 287.5 L 890.5 289 L 893 290.5 L 893.5 295 L 895 294.5 L 895 296.5 Q 894.3 299.1 897 298 L 897 300.5 L 898 303.5 L 897.5 305 Q 899.8 304.3 899 306.5 L 900 309.5 L 899 310.5 L 902 313.5 Q 900.6 322.3 904 321.5 L 904 336.5 L 906 338.5 L 906 357.5 L 904 359.5 L 904 370 Q 901.3 368.9 902 371.5 L 900.5 373 L 756 373 L 758 380.5 L 758 382.5 L 760 386.5 L 760 391 Q 763 389.8 762 393.5 L 769 407 L 771 407 L 771 411 L 772.5 411 L 778 418 L 782 418 L 784 422 L 787.5 422 Q 788.8 425 793 424 Q 791.7 427.3 796.5 426 L 800 427 L 800.5 429 L 808.5 429 L 810.5 431 L 834.5 431 L 836.5 429 L 849.5 429 Q 853.3 424.8 862.5 426 L 866 428.5 L 867 433.5 L 866 434.5 L 866 445.5 L 867 446.5 L 867 466 L 865 466.5 L 866 469 L 859.5 470 L 853.5 473 Q 852 470.5 846.5 472 Q 845.7 474.8 841.5 474 L 840 473.5 L 839.5 475 L 831.5 475 L 830.5 474 L 805.5 474 Q 803.8 476.7 797.5 475 L 795 474 L 794.5 472 L 792.5 473 L 790.5 472 L 788.5 472 Q 783.5 473 782.5 470 L 777.5 470 L 775.5 468 L 770 468 Q 771.3 464.7 766.5 466 L 761 462.5 Q 761.9 459.5 757.5 461 L 750 457 Q 751.3 454 747.5 455 L 743 452 L 743 450 L 741 450 Q 742.1 447.3 739.5 448 L 733 442.5 L 733 440 Q 730.3 441.1 731 438.5 L 725 433.5 Q 727.3 432.3 724.5 431 L 723 431.5 L 721 428.5 Q 723.3 427.3 720.5 426 Q 717.9 426.8 719 423.5 L 714 416.5 L 714.5 415 L 712 413.5 L 713 410 Q 709.3 411.5 710 408.5 L 711.5 405 Q 720.1 426.4 735.5 441 L 740.5 445 L 748.5 452 L 763.5 461 L 784.5 469 L 793.5 470 L 798.5 472 L 825.5 473 L 826.5 472 Q 836.8 473.2 842 471 Q 840.8 474 844.5 473 L 844.5 472 L 843 471.5 L 857.5 469 L 863 467 Q 865.3 461.5 864 450.5 L 863 449.5 L 863 430.5 L 861.5 429 L 846.5 432 L 837.5 432 L 826.5 434 L 821.5 433 L 819.5 433 L 808.5 433 L 792.5 429 Q 776.7 422.3 767 409.5 L 757 390.5 L 753 372.5 L 755.5 370 L 899.5 370 L 901 368.5 L 902 354.5 L 903 353.5 L 903 339.5 L 901 330.5 L 901 322.5 L 895 301.5 Q 888.3 286 879 274 Q 876.3 275.1 877 272.5 Q 862.6 256.4 840.5 248 L 815.5 243 L 794.5 243 L 773.5 248 L 758.5 255 Q 742.4 263.9 731 277.5 L 714.5 298 L 712 299.5 Q 712.8 301.8 710.5 301 L 697.5 310 L 685.5 311 Q 670.4 306.1 662 294.5 L 640.5 268 Q 631.1 258.9 616.5 255 L 611.5 254 L 596.5 254 Q 576.5 257.5 566 270.5 L 560 282.5 L 560 295.5 Q 562.3 306.7 569.5 313 L 572.5 315 Q 581.8 324.2 596.5 328 L 627.5 333 L 647.5 339 L 649.5 341 L 652.5 341 L 668.5 348 L 682 357 Q 680.9 359.7 683.5 359 Q 694.9 368.6 703 381.5 L 711 404 Q 706.1 405.8 708 399.5 L 705 393.5 L 705.5 392 Q 701.8 393.3 703 389.5 L 703.5 388 L 701 386.5 L 699 380.5 L 692 372.5 L 692.5 371 L 690 369.5 L 690 368 L 688 368 Q 689.1 365.3 686.5 366 L 677 359 Q 678.1 356.3 675.5 357 L 668 353 Q 669.3 350 665.5 351 Q 663.5 347.8 659 348 Q 660.4 344.3 654.5 346 Q 653 342.8 648 344 Q 649.4 340 642.5 342 Q 641 338.5 634.5 340 L 631.5 337 L 629.5 338 L 624 337 L 624 335 L 613.5 335 L 612.5 333 L 602.5 333 L 599.5 331 L 594.5 331 L 586 328 Q 587.3 324.7 582.5 326 Q 581.3 323 577 324 Q 578.3 321 574.5 322 L 570 318.5 L 564 311.5 L 561 306 Q 557.3 307.4 559 301.5 L 557 299.5 L 557 279.5 L 562 269 L 564 269 L 564 267 L 566 267 L 566 265 L 568 265 L 568 263 Q 570.7 264.1 570 261.5 L 574.5 258 L 577 258 Q 575.7 254.7 580.5 256 Q 582.2 252.5 588 254 Q 586.6 250.3 592.5 252 L 593.5 251 L 604.5 251 L 605.5 250 L 606.5 251 L 618.5 252 L 620.5 254 L 624.5 254 L 626.5 256 L 634 258 Q 632.9 260.7 635.5 260 L 643 265 L 643 267 Q 645.7 265.9 645 268.5 L 649 274 Q 651.7 272.9 651 275.5 L 654 280 L 656 280 L 656 283 L 658 283 Q 656.9 285.7 659.5 285 L 665 291.5 L 665 294 L 667 294 Q 665.9 296.7 668.5 296 Q 673.8 303.2 682.5 307 L 697 307 L 697 305 L 701 305 Q 699.9 302.3 702.5 303 L 708 300 L 708 298 L 710 298 L 710 296 L 712 296 L 712 294 Q 714.7 295.1 714 292.5 L 719 289 Q 718 286 721 287 L 721 284.5 L 728.5 276 Q 731.1 276.8 730 273.5 Q 734.1 267.1 741 265 L 741 263 Q 743.7 264.1 743 261.5 L 746 260 L 746 258 L 750 258 L 752 254 L 754.5 254 L 765.5 247 L 770 247 Q 768.6 243 775.5 245 L 777.5 243 Q 784.9 243.9 787.5 240 Z " /><path fill="rgb(21,21,23)" stroke="rgb(21,21,23)" stroke-width="1" opacity="0.22745098039215686" d="M 805.5 281 L 820.5 283 L 829.5 286 L 846 297 L 854 307.5 L 859 317.5 L 862 331.5 L 859.5 334 L 755.5 334 Q 752 333 753 327.5 L 755 324.5 L 756 317.5 L 762 306.5 L 773.5 294 L 786.5 286 L 805.5 281 Z M 801 284 L 801 286 L 796 286 L 786 291 L 783 290 Q 780 291 782 293 L 776 295 L 776 297 L 774 297 L 773 300 Q 770 299 771 302 L 769 302 L 769 304 L 767 304 L 765 308 Q 766 310 764 309 Q 765 311 762 313 Q 763 316 760 315 L 760 319 L 758 319 L 758 326 Q 755 327 756 331 L 779 331 L 780 332 L 832 332 L 833 331 L 853 331 L 854 332 L 858 331 L 858 324 Q 855 322 856 317 L 852 311 L 852 308 Q 849 309 850 307 L 850 305 L 849 304 L 847 302 L 845 300 L 843 298 L 840 294 L 839 295 L 837 293 L 836 293 L 834 290 L 832 291 Q 829 292 830 289 L 822 286 L 814 286 L 813 284 L 801 284 Z " /><path fill="rgb(21,21,23)" stroke="rgb(21,21,23)" stroke-width="1" opacity="0.22745098039215686" d="M 995.5 557 L 996 562.5 L 994 565.5 Q 994.9 572.9 992.5 577 Q 990 573.6 991 566.5 Q 994.3 565.3 993 559.5 L 995.5 557 Z " /><path fill="rgb(21,21,23)" stroke="rgb(21,21,23)" stroke-width="1" opacity="0.22745098039215686" d="M 991.5 583 L 992 585.5 L 991 585.5 L 991.5 583 Z " /><path fill="rgb(21,21,23)" stroke="rgb(21,21,23)" stroke-width="1" opacity="0.22745098039215686" d="M 992.5 592 L 994 603 L 991 601.5 Q 990.1 595.1 992.5 592 Z " /><path fill="rgb(21,21,23)" stroke="rgb(21,21,23)" stroke-width="1" opacity="0.22745098039215686" d="M 994.5 606 L 996 606 L 996 610 L 993 608.5 L 994.5 606 Z " /><path fill="rgb(1,1,1)" stroke="rgb(1,1,1)" stroke-width="1" opacity="1" d="M 258.5 145 L 269.5 145 Q 273.8 147.8 281 147.5 L 277 149.5 Q 278.4 152.3 283 151 Q 281.3 145.8 285 147 L 286 151 Q 288.7 149.9 288 152.5 L 290 156 L 293 157.5 L 293.5 159 L 296.5 157 L 299 158 Q 298 155 301 156 L 301 158 L 304 158.5 L 304 177.5 Q 302.3 180.8 300.5 177 L 297.5 179 L 297 177 L 290.5 178 L 285 177 Q 286.5 180.7 283.5 180 Q 277.4 175.6 265.5 177 L 263.5 177 Q 256.8 175.8 254.5 179 L 250.5 177 L 248.5 178 L 245.5 176 L 241 178.5 L 244 180.5 L 237 183.5 L 236 185.5 L 237 189.5 Q 233.8 190.9 235 196 L 232 196 L 232 188.5 L 231 188.5 L 230 201 L 233.5 200 L 232 202.5 L 230 207.5 L 231.5 210 Q 229.3 209.3 230 211.5 L 228 213.5 L 226 220.5 L 229.5 229 L 230.5 227 L 231 234.5 L 229.5 234 L 226 235.5 L 224 240.5 Q 227.2 243.8 226 251.5 L 228.5 254 L 231.5 252 Q 232.8 256.3 239.5 255 L 241.5 253 L 301.5 253 L 302.5 252 L 303.5 253 L 349.5 253 L 353.5 252 L 356.5 253 L 358.5 253 L 360 253.5 L 360 393.5 L 359 393.5 L 357 389 L 354 390.5 L 355.5 396 L 357.5 395 L 357.5 396 Q 354.9 395.2 356 398.5 L 360 401 Q 361.1 404.3 357 403 Q 358.5 398.5 354 400 Q 353.3 403.4 356 404.5 L 355 406.5 Q 357.8 408.3 356 414.5 L 357.5 417 L 361 416 L 361 406.5 L 363 406 Q 361.1 408.7 362 415.5 L 364.5 419 L 367 419 L 367 425 L 370.5 425 L 372 428 Q 375 426.8 374 430.5 Q 370.2 432.3 373.5 434 L 379.5 432 L 387 434 Q 388.3 431 384.5 432 L 383.5 430 L 385.5 431 L 388.5 430 L 392.5 437 Q 395.1 436.3 394 439 L 396 439 L 397 433 L 402 434 L 403.5 437 L 406.5 438 L 407 436.5 L 406 433.5 L 407 433.5 Q 406 437.3 409 436 L 410.5 433 L 414 433.5 L 413 435.5 L 415.5 437 L 419.5 432 L 420 434 L 424 435.5 Q 422.8 438.3 421.5 436 Q 417.1 434.5 418 437.5 Q 414.3 439.2 417.5 441 Q 418.9 437.4 424.5 438 L 427.5 439 L 429 436.5 L 428 434.5 L 430.5 432 L 441 431 L 440 426 L 449 423.5 L 445 421.5 Q 443.9 418.2 446.5 419 L 450 414.5 L 450 411.5 L 446 408.5 L 448.5 405 Q 452.7 403.9 451 408 L 454 408 L 452 402 L 448 401.5 L 454 399 Q 455.1 401.7 452.5 401 L 453.5 403 L 457.5 405 L 461 403 L 459.5 400 L 457.5 403 L 456 401.5 L 456 394 Q 453.3 395.1 454 392.5 L 452 390.5 L 452 384.5 L 450 378.5 L 451 377.5 L 451 334.5 L 454 330.5 L 452 324.5 L 452 319.5 L 454 317.5 L 454 308.5 Q 451.5 307 453 301.5 L 454 300.5 L 454 285.5 L 455 284.5 L 455 255.5 L 454 255.5 L 453.5 274 L 452 255.5 L 452.5 253 L 459.5 252 L 460.5 253 L 475.5 253 L 477.5 252 L 478.5 253 L 487 253 L 488.5 257 L 492 255.5 Q 490.9 252.2 493.5 253 L 495 252.5 L 495 307.5 Q 497.8 306.9 497 310 Q 494 309 495 312 L 498 313.5 L 495 314 L 495 317 L 499 317 L 499 318.5 L 499.5 320 L 496.5 319 L 495 323 L 500 324.5 L 495 325 Q 493.3 329.1 497.5 328 L 500 331.5 Q 497.3 332.3 498 336.5 Q 500.7 339.8 500 346.5 L 504.5 354 L 507 352.5 L 508.5 350 L 513 351 Q 511.3 355.1 515.5 354 L 519.5 351 L 520 355 Q 523.8 356.5 523 353.5 L 524 353.5 L 525.5 357 Q 528.1 356.2 527 359.5 L 525 363.5 L 527.5 366 L 536 369.5 L 537.5 372 Q 538.6 369.3 542 370 L 543.5 373 L 546.5 371 L 555.5 370 L 560 371 L 560 378.5 L 561.5 379 L 563.5 381 L 569.5 382 L 571 383.5 L 569 386.5 L 573 387 L 573 385 L 582.5 385 L 583 383 L 579 381.5 L 584.5 381 L 589 384.5 L 586 386.5 L 587.5 389 Q 590.1 389.8 589 386.5 L 598.5 382 L 604 384 Q 602.1 389.6 607 388 L 607 384 L 608.5 384 L 608 385.5 L 609 390 Q 613.7 389 615 392.5 Q 614.5 397.5 618.5 398 L 624 399 Q 623 402.8 625.5 404 Q 627.8 403.3 627 399.5 L 625 396.5 L 626.5 397 Q 629.1 396.2 628 399.5 Q 629.2 402 633 401 Q 631.9 403.7 634.5 403 L 637 404.5 L 633 406.5 L 633 408 L 638 408 L 638.5 406 L 641 414 Q 637.3 412.6 639 418.5 L 642 420 L 643.5 417 L 645.5 420 L 643 421.5 L 640.5 425 Q 637.9 424.2 639 427.5 Q 636.3 432.6 629 432 L 627 442 L 622 445.5 Q 623.3 450.3 620 449 L 618.5 445 L 607 448.5 L 608.5 451 L 603 451 L 603 449 Q 600.3 450.1 601 447.5 L 598.5 446 L 594 447 L 592.5 444 L 589 446.5 L 590.5 449 L 587.5 447 L 587.5 446 Q 590.5 446.7 589 443 L 586 443 Q 587.1 445.7 584.5 445 L 579 443 L 581 439.5 L 581 433.5 L 578.5 430 L 573.5 429 Q 571.5 431.8 567 431 Q 568.2 427.3 563 429 L 563 425.5 L 564 425.5 L 565.5 428 Q 569.7 429.1 568 425 L 565 424.5 Q 567.8 423.4 567 420 L 563 418 L 563 414 L 567 412.5 L 565.5 410 L 563 411.5 L 565 408.5 L 562 407 Q 563.2 410.7 558 409 Q 559.1 405.7 555 407 L 554.5 409 L 552 408.5 L 547 400 L 545 399.5 Q 549 397.5 545 395.5 L 543.5 392 Q 540.2 393.1 541 390.5 L 534.5 387 L 518.5 385 L 514.5 386 L 510.5 384 L 505.5 385 L 501.5 383 Q 497.3 384.3 498 389 L 495 390.5 L 495 394.5 L 489.5 400 L 483 403 L 483 409 L 480.5 409 L 479 412 L 481.5 413 L 484 412 L 485.5 409 L 486 413 L 482 414 Q 483 417 480 416 L 480 419 L 485 419.5 L 481.5 421 L 479.5 420 L 478 423 Q 481 422 480 425 Q 477 424 478 427 L 481.5 426 L 479.5 429 L 472.5 430 L 469 432.5 Q 469.8 434.8 467.5 434 Q 465 435 466 439.5 L 467 444 L 462 443 L 461.5 445 L 460 444.5 Q 461 448.3 458 447 L 457.5 445 L 451 445 Q 452.1 447.7 449.5 447 L 447 451 L 441 452 L 441 450 L 436 450 Q 434.8 454.6 437.5 456 Q 439.8 455.3 439 457.5 L 442 456.5 L 442 460 L 436.5 460 Q 437.5 463 432.5 462 Q 431 458.5 429.5 461 L 427 462.5 Q 427.8 464.8 425.5 464 L 418.5 462 L 412.5 465 L 408 465 L 409 467.5 L 407.5 467 Q 403.8 467.8 403 465.5 L 400.5 462 L 390.5 463 L 388.5 463 L 383 464 Q 384.5 460.2 381.5 461 L 375.5 464 L 372 462 Q 373.2 458.3 368 460 L 368 453.5 Q 366.8 451 363 452 L 362.5 458 Q 359.8 456.6 361 452 Q 364.3 453.3 363 448.5 L 361.5 447 L 355 446 L 353.5 443 L 350 444 Q 351.2 440.3 346 442 L 344.5 445 L 340.5 442 L 335 441 Q 334 438 337 439 L 337.5 441 Q 342.8 439.3 341 430.5 L 337.5 427 L 330 423.5 L 330 421.5 L 324.5 416 Q 321.5 415.1 323 419.5 L 322 419.5 L 321 415.5 L 322 413 L 320 413 L 320 405.5 Q 317 406.5 318 401.5 L 319 398.5 L 317 394.5 L 319 394.5 L 319 392 L 317 391.5 L 317 383.5 L 317 381.5 L 316 375.5 L 317 374.5 L 317 313.5 Q 314.5 312 316 306.5 L 317.5 304 L 321 305 L 323 299.5 L 323 295.5 L 318 292 L 319 289.5 Q 318.3 287.3 314.5 288 L 313 288.5 L 314 286.5 L 312.5 287 L 305.5 287 L 305 289 L 303.5 289 L 301.5 288 L 300.5 289 L 249.5 289 Q 248.1 285.7 243 287 L 242.5 289 L 242 287.5 L 244 284.5 L 240.5 283 L 239 286 L 241 286.5 L 239.5 287 L 237.5 287 L 235 287 L 235 283 L 233.5 283 Q 231 284.2 232 288 Q 228.2 287 227 289.5 L 225 300.5 Q 227.8 302.3 226 308.5 L 228 311.5 L 228 318 Q 232 316.6 230 323.5 L 231 324.5 L 231 441.5 Q 228.8 442.8 230 447.5 L 231 448.5 L 231 459.5 L 228.5 462 L 193 462 Q 194.1 459.3 191.5 460 Q 188.8 458.6 190 454 Q 186 452.6 188 459.5 L 189.5 462 L 187 461.5 L 187 329.5 L 188 328.5 L 188 320.5 L 187 319.5 L 187 290.5 Q 189.3 289.2 188 284.5 L 187 283.5 L 187 226 Q 189.7 227.1 189 224.5 L 187.5 222 L 195 218.5 L 193 215.5 L 190.5 214 L 189 214.5 Q 192.2 212 191 206 L 195 204.5 L 195 201 L 191 201 L 191 199.5 L 192.5 200 L 196 198.5 L 195 195.5 L 198 187.5 L 197 182.5 L 202 176.5 L 202 174 L 205 175.5 L 206.5 178 L 213 175 L 211.5 172 L 207.5 174 L 208 172.5 Q 207.2 169.9 210.5 171 L 212 168 L 209 167.5 L 221.5 160 L 229.5 160 L 233 158 Q 231.9 155.3 234.5 156 L 237 157 L 237.5 154 L 238 156.5 L 237 159 L 242 156.5 L 241 153.5 Q 242.8 150.3 244.5 154 L 246.5 153 Q 248 156.3 253 155 L 253 153 L 249 153 L 249 151.5 L 244 149.5 L 248.5 147 Q 255.5 148 258.5 145 Z M 283 151 Q 282 155 285 154 Q 286 150 283 151 Z M 278 152 L 273 154 L 277 156 L 279 155 Q 282 156 281 153 L 278 152 Z M 285 154 L 285 158 Q 289 160 288 156 L 285 154 Z M 281 157 L 280 159 L 285 159 L 281 157 Z M 192 208 Q 191 213 195 211 Q 197 207 192 208 Z M 194 213 L 194 214 L 196 214 L 194 213 Z M 194 221 L 194 224 Q 197 223 194 221 Z M 193 226 L 193 228 L 195 227 L 193 226 Z M 190 227 L 189 231 L 190 231 L 190 227 Z M 190 235 Q 187 239 188 247 L 190 248 L 190 235 Z M 356 261 Q 353 263 356 264 Q 359 263 356 261 Z M 247 283 Q 244 285 247 286 L 249 285 L 247 283 Z M 356 290 L 355 301 L 356 301 L 356 290 Z M 192 301 L 190 303 Q 188 313 191 319 L 192 319 L 192 301 Z M 356 328 L 355 336 L 356 336 L 356 328 Z M 454 328 L 454 330 L 456 329 L 454 328 Z M 190 373 L 190 389 L 192 390 L 192 374 L 190 373 Z M 560 396 L 557 397 L 556 403 Q 557 405 561 404 L 562 402 L 562 396 L 560 396 Z M 620 402 Q 619 406 622 405 Q 623 401 620 402 Z M 628 403 L 628 405 L 627 407 Q 630 408 631 406 Q 632 401 628 403 Z M 190 414 L 189 442 L 190 442 L 190 414 Z M 566 416 Q 564 419 567 418 L 566 416 Z M 639 420 Q 636 421 638 423 Q 637 425 640 424 L 640 420 L 639 420 Z M 398 436 L 398 438 L 403 441 L 403 438 Q 400 439 401 436 L 398 436 Z M 407 438 L 409 441 Q 411 442 410 440 L 407 438 Z M 389 440 Q 386 442 389 443 Q 392 442 389 440 Z M 410 441 L 410 443 L 412 442 L 410 441 Z M 447 444 L 445 446 Q 444 448 447 447 L 447 444 Z M 444 447 L 442 449 Q 444 452 445 449 Q 446 446 444 447 Z M 408 461 Q 408 465 410 462 L 408 461 Z " /><path fill="rgb(1,1,1)" stroke="rgb(1,1,1)" stroke-width="1" opacity="1" d="M 288.5 147 L 292 148.5 L 292 151 L 294 151 L 296 155 Q 291.9 156.7 293 152.5 L 290 148 L 288.5 147 Z " /><path fill="rgb(1,1,1)" stroke="rgb(1,1,1)" stroke-width="1" opacity="1" d="M 295.5 149 Q 299.3 148 298 151 L 301.5 151 L 301.5 152 Q 295.6 152.6 295.5 149 Z " /><path fill="rgb(1,1,1)" stroke="rgb(1,1,1)" stroke-width="1" opacity="1" d="M 222.5 156 L 225 156.5 L 222.5 157 L 222.5 156 Z " /><path fill="rgb(1,1,1)" stroke="rgb(1,1,1)" stroke-width="1" opacity="1" d="M 240.5 188 Q 244.3 187 243 190 L 239 189.5 L 240.5 188 Z " /><path fill="rgb(1,1,1)" stroke="rgb(1,1,1)" stroke-width="1" opacity="1" d="M 189.5 202 L 190 204.5 L 189 204.5 L 189.5 202 Z " /><path fill="rgb(1,1,1)" stroke="rgb(1,1,1)" stroke-width="1" opacity="1" d="M 191.5 217 L 192 219 L 190 218.5 L 191.5 217 Z " /><path fill="rgb(1,1,1)" stroke="rgb(1,1,1)" stroke-width="1" opacity="1" d="M 798.5 247 L 804.5 250 L 805.5 249 Q 813 250.5 816.5 248 L 821.5 251 L 823.5 251 L 832 252 L 833.5 255 Q 840.8 253.2 842.5 257 L 843 253 L 845 253 Q 843.9 255.7 846.5 255 L 849.5 259 L 846 259 Q 847.3 256 843.5 257 L 846.5 261 L 852 262.5 L 848 264.5 L 848 272 L 851.5 272 Q 853.3 268.3 860.5 270 L 867 276.5 L 868 281.5 L 867 284.5 L 869.5 290 L 877.5 289 L 883 290 L 883 297.5 Q 886.3 298.9 885 304 Q 887.7 302.9 887 305.5 L 890.5 315 L 893 315.5 L 888 317 Q 886.9 319.7 889.5 319 Q 890.6 321.8 894 321 L 894 338.5 L 895.5 341 L 897.5 333 L 898 350 Q 894.3 348.5 895 351.5 L 896 355.5 L 892 358 Q 893.1 360.7 890.5 360 L 889 363 Q 885.6 362.3 884.5 365 L 880.5 365 L 874.5 363 L 868.5 363 L 866.5 365 L 836 365 L 837 362.5 L 833.5 362 L 831.5 364 L 801.5 364 L 797.5 365 L 796.5 364 L 761 364 Q 762 367 759 366 Q 760.8 360.8 753.5 363 L 751 364 Q 752.3 369.5 748.5 371 Q 744.1 372.5 745 369.5 Q 742.8 368.3 745.5 367 Q 749.3 368 748 365 L 744 364 L 743 368 Q 739.2 367.3 738 370.5 L 739 379.5 L 740.5 381 L 743 381 Q 741.9 383.7 744.5 383 L 745.5 385 Q 742.9 384.3 744 387 L 752 385 Q 753.8 389.5 748.5 388 L 748.5 389 L 751 390.5 L 750 396 L 745 396 L 745 397.5 Q 745.8 399.8 749.5 399 Q 751.8 394.8 754 399.5 Q 753.3 401.8 755.5 401 L 755.5 402 Q 751.8 403 753 400 L 750 400 L 751.5 404 Q 754.1 403.2 753 406.5 L 756 408 L 756 412 L 757.5 412 L 761 413 L 762 420 Q 764.7 418.9 764 421.5 L 766 422.5 L 766 419 Q 763 420 764 417 Q 767 416 766 419 L 769.5 419 L 768 421.5 L 767 423.5 L 772 424.5 L 770 425.5 Q 772.2 426.7 771 431.5 L 773.5 434 L 777 432.5 Q 776.3 428.8 778.5 428 L 781.5 435 L 788 432 L 788 436 L 784 436 L 784 437.5 L 788 439 L 791 433 L 793 433.5 L 792 435.5 L 795 437 L 795.5 433 L 802.5 438 L 804 435 L 808 437.5 L 803 438 L 802.5 441 L 801 438 L 797 437 L 797 440 Q 793.7 438.9 795 443 L 804.5 443 L 807.5 440 L 816.5 445 L 820.5 445 L 822.5 441 L 823 444 Q 826.8 445.5 826 442.5 Q 826.5 438.5 831.5 439 L 830 441.5 Q 829.2 444.1 832.5 443 L 834.5 443 L 838 444.5 Q 837.3 446.8 839.5 446 L 842.5 447 L 850 441.5 L 840 440 Q 838.8 437 842.5 438 L 843.5 439 L 850 439 Q 848.8 442.7 854 441 L 854 443.5 L 855 448 L 859 448 L 859 449.5 L 860 450.5 L 860 459.5 L 859 462 L 856 463.5 L 855.5 465 L 851.5 462 L 848.5 465 Q 842.3 463.3 840.5 466 L 841 464.5 Q 841.8 461.9 838.5 463 L 835.5 467 L 833.5 464 L 828 465 L 826.5 468 L 822.5 469 L 819 467 Q 820.4 470.7 814.5 469 L 812.5 469 L 811 468.5 L 813 465.5 L 812 463 L 803 462 L 802.5 464 L 802 462 L 799 462 Q 800.1 464.7 797.5 464 Q 794.5 460.1 788 461 L 788 463 Q 793.2 461.3 792 465 L 789.5 466 L 788 463 L 782.5 460 L 778.5 462 L 771 458 L 769 451.5 L 770 445 L 762 447 Q 763.1 444.3 760.5 445 L 757.5 443 L 755.5 444 L 757 441.5 Q 757.5 437 754 436.5 L 754 433.5 L 751.5 431 L 746.5 430 L 744.5 431 Q 743.4 428.3 740 429 L 739 425 L 733 424 Q 734.3 421 730.5 422 L 728.5 422 L 725 421.5 Q 733 422.5 735 417.5 L 729.5 413 L 726 414 L 725.5 416 Q 725.6 410.9 722 409.5 L 722 406.5 Q 725 405.5 724 400.5 L 723.5 399 L 727 397.5 L 724.5 396 Q 722.3 400.3 720 395.5 L 719 392.5 L 721 392 L 722.5 395 L 725 393.5 L 725 391 L 722 391 Q 723 388 720 389 L 720 384.5 Q 718.3 381.3 716.5 385 L 713.5 385 L 709 382 L 709 378 Q 705.7 379.1 707 375 L 711 373.5 L 706.5 368 L 701.5 367 L 698.5 369 L 698 367 Q 695.3 368.1 696 365.5 L 694 363.5 Q 695.3 356.3 691.5 354 L 689.5 354 L 685.5 350 Q 678.4 350.7 675 349 L 675 337.5 L 672.5 335 L 667.5 338 L 664 338 L 664 334 L 662.5 334 Q 660.8 330.3 659 333.5 Q 659.8 335.8 657.5 335 Q 656 337.5 654.5 334 L 646 333 L 645.5 335 L 645 333 L 643 332.5 L 644 327.5 L 638.5 319 L 638 321 Q 633.7 321.8 632.5 318 L 629.5 318 L 626.5 322 Q 623.9 322.8 625 319.5 Q 623 316 621 320.5 L 618.5 325 L 616.5 321 Q 613.2 322.1 614 319.5 L 611 318 Q 612.1 320.7 609.5 320 Q 607.5 316 599.5 318 L 596.5 319 Q 595 315.5 593.5 318 L 589 318 Q 590 321 587 320 L 587 318 L 581.5 318 L 581 316 L 578.5 316 L 579 314.5 L 582 308 L 578.5 309 L 578.5 308 Q 581.1 308.8 580 305.5 Q 577.8 304.3 580.5 303 Q 583.1 303.7 582 301 L 575.5 302 L 573.5 301 L 570.5 303 L 565 295.5 L 565 287 L 570.5 287 L 571 285.5 Q 573.3 284.3 570.5 283 Q 567.5 283.9 569 279.5 L 570 277 L 578 280 L 579 277.5 L 576.5 274 Q 573.5 274.7 575 271 L 579 271 Q 577.9 273.7 580.5 273 L 583.5 271 Q 585 274.5 586.5 272 L 592.5 271 L 597 267.5 Q 597.9 264.5 593.5 266 L 592.5 264 Q 598.2 265.8 596 259.5 L 598 260.5 Q 595.8 266.8 601.5 265 L 601.5 264 Q 598.9 264.8 600 261.5 L 601 258 L 605.5 259 L 610.5 258 L 610.5 259 L 608 260.5 L 611 262.5 L 613 267.5 L 612 270 L 617 270 L 617 268.5 L 614 264 Q 617.7 262.5 617 265.5 Q 618.3 268.3 619.5 266 Q 624.3 264.7 623 268 L 619 269.5 Q 618.5 273.5 621.5 274 L 625.5 271 L 630.5 271 L 632.5 272 L 636.5 270 L 639 271 L 638 273.5 L 639 277 Q 642.8 276 644 278.5 L 642.5 279 L 639.5 278 L 638 280.5 L 642 284.5 Q 640.7 291.3 643 294.5 L 649.5 301 L 653.5 299 L 656.5 303 L 658.5 300 L 659 305.5 L 657 308.5 L 662 311.5 L 660 315.5 L 666.5 320 L 671.5 320 L 673 317 Q 676.8 315.5 676 318.5 L 677 318.5 L 676 313.5 L 677 313.5 L 677.5 315 L 686.5 315 Q 688 318.1 693 317.5 L 691 320.5 L 695 321 L 696 316 L 700 317 Q 698.9 319.7 701.5 319 Q 702.8 321.3 704 318.5 Q 703.3 316.3 705.5 317 L 707 313 Q 710.8 314.5 710 311.5 L 718 308.5 L 717 306.5 L 724 304 L 726 299.5 L 725 295 Q 727.7 296.1 727 293.5 L 733.5 289 L 735.5 290 L 739.5 284 L 745 280.5 L 743 273 Q 746.3 270.9 754.5 272 L 756.5 273 L 759 272 L 758 267.5 L 760.5 264 L 762 270 L 770 270 L 770 266 L 771.5 266 Q 774.5 264.5 771.5 263 L 768.5 265 L 769 263.5 L 767 260.5 L 769.5 259 L 771.5 262 L 777 257.5 Q 776.3 260.1 779 259 L 779 256 L 784 256 L 784 254.5 L 787.5 249 Q 786.9 253.6 789.5 255 Q 794 256 795 253.5 Q 794.3 247.8 798.5 247 Z M 799 252 L 796 254 L 797 256 L 802 256 L 802 254 L 799 252 Z M 832 257 Q 831 260 834 259 Q 835 256 832 257 Z M 837 257 L 839 261 Q 838 263 841 262 Q 842 266 844 263 L 841 259 L 837 257 Z M 776 260 L 774 264 Q 779 266 778 262 L 776 260 Z M 837 264 Q 836 267 839 266 Q 840 263 837 264 Z M 793 271 L 788 272 Q 784 273 786 280 L 783 281 L 781 279 L 777 283 L 769 283 L 768 285 L 767 285 L 763 291 L 761 292 Q 756 293 755 290 L 752 294 L 752 296 L 757 302 Q 758 304 754 303 L 752 306 L 757 307 L 755 308 L 752 306 L 750 307 L 754 313 Q 755 315 753 314 Q 749 316 753 318 Q 751 321 750 317 L 748 320 L 746 319 L 739 320 L 739 335 L 741 336 L 745 335 Q 747 334 746 337 Q 751 339 749 334 L 747 334 L 749 333 L 750 337 L 755 338 L 759 337 L 762 338 L 775 338 L 776 337 L 781 338 L 834 338 L 835 337 L 849 337 L 850 343 L 857 343 Q 856 340 859 341 L 859 338 Q 862 337 864 340 L 864 338 L 867 339 L 866 336 L 869 329 L 866 327 L 869 326 Q 870 322 867 323 L 867 321 Q 870 322 869 320 L 868 317 Q 870 318 869 316 L 864 314 L 866 313 L 868 309 Q 865 306 866 301 L 863 301 Q 864 304 862 303 L 860 304 L 861 300 L 856 296 L 850 285 L 847 287 L 845 287 L 846 283 L 843 281 L 842 283 Q 844 282 843 285 Q 840 286 841 283 L 837 283 L 837 278 L 832 273 L 822 273 L 821 272 L 817 274 L 821 279 L 819 279 L 815 278 Q 816 273 814 272 Q 805 270 803 275 Q 794 277 793 271 Z M 774 272 L 773 277 L 775 276 L 774 272 Z M 576 284 L 577 296 L 579 290 L 578 287 Q 579 283 576 284 Z M 744 284 Q 743 288 746 287 Q 747 283 744 284 Z M 730 294 L 728 296 Q 727 298 730 297 Q 733 296 730 294 Z M 571 297 L 570 300 L 571 300 L 571 297 Z M 886 308 Q 886 312 888 309 L 886 308 Z M 886 312 L 885 316 L 888 317 L 888 312 L 886 312 Z M 684 316 L 682 319 Q 687 321 686 317 L 684 316 Z M 890 348 Q 887 354 890 356 Q 887 360 880 360 L 886 361 Q 889 362 888 359 L 892 357 L 890 348 Z M 774 359 L 774 360 L 779 360 L 774 359 Z M 747 391 L 744 392 Q 743 396 748 394 Q 749 390 747 391 Z M 745 401 L 746 404 Q 745 407 748 406 L 749 403 L 745 401 Z M 725 407 Q 722 409 725 410 L 727 409 L 725 407 Z M 790 438 Q 789 443 793 441 Q 795 437 790 438 Z M 782 441 Q 782 445 784 442 L 782 441 Z M 836 460 L 834 462 L 837 463 L 836 460 Z M 813 461 Q 812 464 815 463 Q 816 460 813 461 Z M 821 461 Q 820 464 816 463 L 817 466 Q 816 468 819 467 L 821 464 L 821 461 Z M 825 461 L 824 464 L 826 464 L 825 461 Z M 831 461 L 832 463 Q 833 460 831 461 Z M 845 461 L 845 462 L 847 462 L 845 461 Z " /><path fill="rgb(1,1,1)" stroke="rgb(1,1,1)" stroke-width="1" opacity="1" d="M 834.5 251 L 838 251.5 L 834.5 252 L 834.5 251 Z " /><path fill="rgb(1,1,1)" stroke="rgb(1,1,1)" stroke-width="1" opacity="1" d="M 771.5 255 L 772 258.5 L 771 258.5 L 771.5 255 Z " /><path fill="rgb(1,1,1)" stroke="rgb(1,1,1)" stroke-width="1" opacity="1" d="M 612.5 259 L 617 260.5 L 612 261 L 612.5 259 Z " /><path fill="rgb(1,1,1)" stroke="rgb(1,1,1)" stroke-width="1" opacity="1" d="M 764.5 264 L 767 264.5 L 764.5 265 L 764.5 264 Z " /><path fill="rgb(1,1,1)" stroke="rgb(1,1,1)" stroke-width="1" opacity="1" d="M 806.5 275 L 812 275.5 L 806.5 276 L 806.5 275 Z " /><path fill="rgb(1,1,1)" stroke="rgb(1,1,1)" stroke-width="1" opacity="1" d="M 738 277 Q 742.1 275.3 741 279.5 Q 739 284 737 280.5 L 738 277 Z " /><path fill="rgb(1,1,1)" stroke="rgb(1,1,1)" stroke-width="1" opacity="1" d="M 826 277 L 829 278.5 Q 830.1 281.8 827.5 281 L 825 279.5 L 826 277 Z " /><path fill="rgb(1,1,1)" stroke="rgb(1,1,1)" stroke-width="1" opacity="1" d="M 771.5 285 L 772 287 L 769.5 288 L 769 286 L 771.5 285 Z " /><path fill="rgb(1,1,1)" stroke="rgb(1,1,1)" stroke-width="1" opacity="1" d="M 886.5 295 L 887 298.5 L 886 298.5 L 886.5 295 Z " /><path fill="rgb(1,1,1)" stroke="rgb(1,1,1)" stroke-width="1" opacity="1" d="M 714.5 304 L 717 304.5 L 714.5 305 L 714.5 304 Z " /><path fill="rgb(1,1,1)" stroke="rgb(1,1,1)" stroke-width="1" opacity="1" d="M 629.5 322 L 632 322.5 L 629.5 323 L 629.5 322 Z " /><path fill="rgb(1,1,1)" stroke="rgb(1,1,1)" stroke-width="1" opacity="1" d="M 636.5 323 L 637 325 Q 634.3 323.9 635 326.5 L 634 326.5 L 636.5 323 Z " /><path fill="rgb(1,1,1)" stroke="rgb(1,1,1)" stroke-width="1" opacity="1" d="M 614.5 326 L 617 326.5 L 614.5 327 L 614.5 326 Z " /><path fill="rgb(1,1,1)" stroke="rgb(1,1,1)" stroke-width="1" opacity="1" d="M 636 328 L 638 328.5 L 636 329.5 L 636 328 Z " /><path fill="rgb(1,1,1)" stroke="rgb(1,1,1)" stroke-width="1" opacity="1" d="M 669.5 339 Q 674.3 337.7 673 341 Q 668.8 341 669.5 339 Z " /><path fill="rgb(1,1,1)" stroke="rgb(1,1,1)" stroke-width="1" opacity="1" d="M 895 359 L 898 359.5 L 894.5 364 Q 892.3 364.8 893 362.5 L 895 359 Z " /><path fill="rgb(1,1,1)" stroke="rgb(1,1,1)" stroke-width="1" opacity="1" d="M 543 366 L 545.5 367 L 547.5 366 L 547.5 367 L 546 367 Q 547.5 370.7 544.5 370 L 543 366 Z " /><path fill="rgb(1,1,1)" stroke="rgb(1,1,1)" stroke-width="1" opacity="1" d="M 572.5 375 L 575 375.5 L 572.5 376 L 572.5 375 Z " /><path fill="rgb(1,1,1)" stroke="rgb(1,1,1)" stroke-width="1" opacity="1" d="M 749.5 379 L 752 382.5 L 750.5 383 Q 748 382 749.5 379 Z " /><path fill="rgb(1,1,1)" stroke="rgb(1,1,1)" stroke-width="1" opacity="1" d="M 589.5 382 L 593 382.5 L 589.5 383 L 589.5 382 Z " /><path fill="rgb(1,1,1)" stroke="rgb(1,1,1)" stroke-width="1" opacity="1" d="M 612 386 L 617 386.5 L 612.5 389 L 612 386 Z " /><path fill="rgb(1,1,1)" stroke="rgb(1,1,1)" stroke-width="1" opacity="1" d="M 618.5 388 Q 621.8 386.9 621 389.5 L 619.5 389 L 618.5 388 Z " /><path fill="rgb(1,1,1)" stroke="rgb(1,1,1)" stroke-width="1" opacity="1" d="M 753.5 388 L 754 392.5 L 753 392.5 L 753.5 388 Z " /><path fill="rgb(1,1,1)" stroke="rgb(1,1,1)" stroke-width="1" opacity="1" d="M 498.5 390 Q 500.8 389.3 500 391.5 L 498.5 390 Z " /><path fill="rgb(1,1,1)" stroke="rgb(1,1,1)" stroke-width="1" opacity="1" d="M 532.5 390 L 534 392.5 L 530.5 393 L 532.5 390 Z " /><path fill="rgb(1,1,1)" stroke="rgb(1,1,1)" stroke-width="1" opacity="1" d="M 361.5 395 L 362 398 L 359 397.5 L 361.5 395 Z " /><path fill="rgb(1,1,1)" stroke="rgb(1,1,1)" stroke-width="1" opacity="1" d="M 450.5 395 L 454 395.5 L 450.5 396 L 450.5 395 Z " /><path fill="rgb(1,1,1)" stroke="rgb(1,1,1)" stroke-width="1" opacity="1" d="M 716.5 396 L 719 397 L 718.5 400 L 718 398 Q 714.8 399 716.5 396 Z " /><path fill="rgb(1,1,1)" stroke="rgb(1,1,1)" stroke-width="1" opacity="1" d="M 324.5 420 L 327 423.5 Q 325.5 426.5 324 423.5 L 324.5 420 Z " /><path fill="rgb(1,1,1)" stroke="rgb(1,1,1)" stroke-width="1" opacity="1" d="M 561.5 421 Q 565.3 420 564 423 L 561.5 421 Z " /><path fill="rgb(1,1,1)" stroke="rgb(1,1,1)" stroke-width="1" opacity="1" d="M 643.5 427 L 644 429 Q 641.3 427.9 642 430.5 L 640 429.5 Q 639.2 426.9 642.5 428 L 643.5 427 Z " /><path fill="rgb(1,1,1)" stroke="rgb(1,1,1)" stroke-width="1" opacity="1" d="M 379.5 428 L 383 428.5 Q 381.8 431.3 380.5 429 L 379.5 428 Z " /><path fill="rgb(1,1,1)" stroke="rgb(1,1,1)" stroke-width="1" opacity="1" d="M 422.5 430 L 425 430.5 L 422.5 431 L 422.5 430 Z " /><path fill="rgb(1,1,1)" stroke="rgb(1,1,1)" stroke-width="1" opacity="1" d="M 843.5 435 L 852.5 435 L 854 436.5 L 853.5 438 Q 851.5 434 843.5 436 L 843.5 435 Z " /><path fill="rgb(1,1,1)" stroke="rgb(1,1,1)" stroke-width="1" opacity="1" d="M 824.5 437 L 827 437.5 L 824.5 438 L 824.5 437 Z " /><path fill="rgb(1,1,1)" stroke="rgb(1,1,1)" stroke-width="1" opacity="1" d="M 833.5 437 L 839 437.5 L 833.5 438 L 833.5 437 Z " /><path fill="rgb(1,1,1)" stroke="rgb(1,1,1)" stroke-width="1" opacity="1" d="M 813 439 L 815 439.5 L 813 440.5 L 813 439 Z " /><path fill="rgb(1,1,1)" stroke="rgb(1,1,1)" stroke-width="1" opacity="1" d="M 855.5 439 Q 858.8 437.9 858 440.5 L 856.5 440 L 855.5 439 Z " /><path fill="rgb(1,1,1)" stroke="rgb(1,1,1)" stroke-width="1" opacity="1" d="M 455.5 447 L 458 448.5 L 454.5 449 L 455.5 447 Z " /><path fill="rgb(1,1,1)" stroke="rgb(1,1,1)" stroke-width="1" opacity="1" d="M 450.5 451 L 451 453.5 L 450 453.5 L 450.5 451 Z " /><path fill="rgb(1,1,1)" stroke="rgb(1,1,1)" stroke-width="1" opacity="1" d="M 443.5 453 L 447 455.5 L 443.5 456 Q 440.5 454.5 443.5 453 Z " /><path fill="rgb(1,1,1)" stroke="rgb(1,1,1)" stroke-width="1" opacity="1" d="M 388.5 465 L 389.5 467 Q 386.7 467.7 388.5 465 Z " /><path fill="rgb(1,1,1)" stroke="rgb(1,1,1)" stroke-width="1" opacity="1" d="M 420.5 465 L 424 465.5 L 416.5 468 L 416.5 467 L 420.5 465 Z " /></svg>