<svg width="1051" height="625" version="1.1" xmlns="http://www.w3.org/2000/svg" desc="Created with imagetracer.js version 1.2.6" ><path fill="rgb(22,140,135)" stroke="rgb(22,140,135)" stroke-width="1" opacity="0.9215686274509803" d="M 510.5 118 L 527 118.5 L 510.5 119 L 510.5 118 Z " /><path fill="rgb(22,140,135)" stroke="rgb(22,140,135)" stroke-width="1" opacity="0.9215686274509803" d="M 229.5 119 L 254.5 119 L 255.5 120 L 266.5 121 L 270.5 123 L 275.5 123 L 303.5 135 L 326 150 L 326 152 L 328 152 Q 326.9 154.7 329.5 154 L 334 160 Q 336.7 158.9 336 161.5 L 351 180.5 L 359 196.5 L 365 211.5 L 371 242.5 L 370 244.5 L 371 245.5 L 371 257.5 L 368 261.5 L 368 266.5 L 363 285.5 L 355 305.5 Q 344.4 325.4 328.5 340 Q 315.5 352.5 298.5 361 L 284.5 367 L 276.5 368 L 275 366.5 L 275 348.5 L 276 346 L 279.5 346 L 296.5 338 L 314 325 Q 312.9 322.3 315.5 323 Q 329.1 310.1 338 292.5 L 346 270.5 L 346 264.5 L 345 261.5 L 346 260.5 L 347 231.5 Q 339.3 189.7 312.5 167 Q 299 154.5 280.5 147 L 263.5 142 L 258.5 142 L 251.5 140 L 237.5 140 L 236.5 141 L 218.5 142 L 205.5 146 Q 186.1 153.4 172 165 Q 173.1 167.7 170.5 167 Q 153.7 181.2 144 202.5 L 136 228.5 L 135 250.5 L 136 251.5 L 136 265.5 L 138 269.5 L 140 280.5 Q 148 301.7 161 317 L 163 317 L 163 319 L 165 319 L 165 321 Q 167.7 319.9 167 322.5 L 180.5 334 L 202.5 346 L 225.5 352 L 241.5 352 L 246.5 353 L 253 352 L 253 372.5 L 251.5 373 L 250.5 374 L 234.5 374 L 225.5 372 L 217.5 372 L 201.5 368 L 189.5 363 L 165.5 349 L 150 335.5 L 148 332.5 Q 130.7 314.8 121 289.5 L 117 275.5 L 115 258.5 L 114 257.5 L 114 236.5 L 119 210.5 L 127 189.5 Q 138.5 168 155.5 152 Q 171.2 138.7 190.5 129 L 206.5 123 L 229.5 119 Z " /><path fill="rgb(22,140,135)" stroke="rgb(22,140,135)" stroke-width="1" opacity="0.9215686274509803" d="M 502.5 119 L 505 119.5 L 502.5 120 L 502.5 119 Z " /><path fill="rgb(22,140,135)" stroke="rgb(22,140,135)" stroke-width="1" opacity="0.9215686274509803" d="M 486.5 122 L 489 122.5 L 486.5 123 L 486.5 122 Z " /><path fill="rgb(22,140,135)" stroke="rgb(22,140,135)" stroke-width="1" opacity="0.9215686274509803" d="M 550.5 122 L 553 122.5 L 550.5 123 L 550.5 122 Z " /><path fill="rgb(22,140,135)" stroke="rgb(22,140,135)" stroke-width="1" opacity="0.9215686274509803" d="M 476.5 125 L 475.5 127 L 476.5 125 Z " /><path fill="rgb(22,140,135)" stroke="rgb(22,140,135)" stroke-width="1" opacity="0.9215686274509803" d="M 504.5 141 L 507 141.5 L 504.5 142 L 504.5 141 Z " /><path fill="rgb(22,140,135)" stroke="rgb(22,140,135)" stroke-width="1" opacity="0.9215686274509803" d="M 529.5 141 L 533 141.5 L 529.5 142 L 529.5 141 Z " /><path fill="rgb(22,140,135)" stroke="rgb(22,140,135)" stroke-width="1" opacity="0.9215686274509803" d="M 538.5 142 L 541 142.5 L 538.5 143 L 538.5 142 Z " /><path fill="rgb(22,140,135)" stroke="rgb(22,140,135)" stroke-width="1" opacity="0.9215686274509803" d="M 542.5 143 L 545 143.5 L 542.5 144 L 542.5 143 Z " /><path fill="rgb(22,140,135)" stroke="rgb(22,140,135)" stroke-width="1" opacity="0.9215686274509803" d="M 579.5 159 L 580.5 161 L 579.5 159 Z " /><path fill="rgb(22,140,135)" stroke="rgb(22,140,135)" stroke-width="1" opacity="0.9215686274509803" d="M 582.5 161 L 583.5 163 L 582.5 161 Z " /><path fill="rgb(22,140,135)" stroke="rgb(22,140,135)" stroke-width="1" opacity="0.9215686274509803" d="M 587.5 165 L 588.5 167 L 587.5 165 Z " /><path fill="rgb(22,140,135)" stroke="rgb(22,140,135)" stroke-width="1" opacity="0.9215686274509803" d="M 602.5 181 L 603.5 183 L 602.5 181 Z " /><path fill="rgb(22,140,135)" stroke="rgb(22,140,135)" stroke-width="1" opacity="0.9215686274509803" d="M 609.5 191 L 610.5 193 L 609.5 191 Z " /><path fill="rgb(22,140,135)" stroke="rgb(22,140,135)" stroke-width="1" opacity="0.9215686274509803" d="M 611.5 194 L 613 196.5 L 612 196.5 L 611.5 194 Z " /><path fill="rgb(22,140,135)" stroke="rgb(22,140,135)" stroke-width="1" opacity="0.9215686274509803" d="M 613.5 198 L 614.5 200 L 613.5 198 Z " /><path fill="rgb(22,140,135)" stroke="rgb(22,140,135)" stroke-width="1" opacity="0.9215686274509803" d="M 423.5 201 L 423 202.5 L 422.5 204 L 422 202.5 L 423.5 201 Z " /><path fill="rgb(22,140,135)" stroke="rgb(22,140,135)" stroke-width="1" opacity="0.9215686274509803" d="M 615.5 202 L 617 204.5 L 616 204.5 L 615.5 202 Z " /><path fill="rgb(22,140,135)" stroke="rgb(22,140,135)" stroke-width="1" opacity="0.9215686274509803" d="M 617.5 206 L 619 209.5 L 618 209.5 L 617.5 206 Z " /><path fill="rgb(22,140,135)" stroke="rgb(22,140,135)" stroke-width="1" opacity="0.9215686274509803" d="M 641.5 208 L 643 211.5 L 641 210.5 L 641.5 208 Z " /><path fill="rgb(22,140,135)" stroke="rgb(22,140,135)" stroke-width="1" opacity="0.9215686274509803" d="M 619.5 212 L 621 215.5 L 620 215.5 L 619.5 212 Z " /><path fill="rgb(22,140,135)" stroke="rgb(22,140,135)" stroke-width="1" opacity="0.9215686274509803" d="M 395.5 214 L 396 215.5 L 394.5 219 L 394 216.5 L 395.5 214 Z " /><path fill="rgb(22,140,135)" stroke="rgb(22,140,135)" stroke-width="1" opacity="0.9215686274509803" d="M 417.5 216 L 418 218.5 L 416.5 222 L 416 219.5 L 417.5 216 Z " /><path fill="rgb(22,140,135)" stroke="rgb(22,140,135)" stroke-width="1" opacity="0.9215686274509803" d="M 643.5 216 L 645 220.5 L 644 220.5 L 643.5 216 Z " /><path fill="rgb(22,140,135)" stroke="rgb(22,140,135)" stroke-width="1" opacity="0.9215686274509803" d="M 621.5 219 L 623 223.5 L 622 223.5 L 621.5 219 Z " /><path fill="rgb(22,140,135)" stroke="rgb(22,140,135)" stroke-width="1" opacity="0.9215686274509803" d="M 393.5 222 L 394 226.5 L 392.5 230 L 392 226.5 L 393.5 222 Z " /><path fill="rgb(22,140,135)" stroke="rgb(22,140,135)" stroke-width="1" opacity="0.9215686274509803" d="M 415.5 223 L 416 228.5 L 414.5 235 L 414 229.5 L 415.5 223 Z " /><path fill="rgb(22,140,135)" stroke="rgb(22,140,135)" stroke-width="1" opacity="0.9215686274509803" d="M 645.5 225 Q 647.8 228.8 647 235.5 L 648.5 237 L 668.5 237 L 669.5 236 L 671.5 240 L 676.5 241 Q 677.7 238.7 682.5 240 Q 684 242.5 689.5 241 Q 691 238.5 692.5 242 Q 733 254.5 757 283.5 L 774 310.5 L 783 335.5 L 785 349.5 L 783.5 349 L 777.5 349 Q 772.1 345.4 763.5 345 L 762 343.5 L 761 336.5 L 759 334.5 L 757 326.5 L 751 313.5 L 734 290 L 732 290 Q 733.1 287.3 730.5 288 Q 716.8 272.7 694.5 266 L 693 266.5 L 692 263 L 673.5 260 L 669.5 261 L 667.5 259 L 649.5 259 Q 645.8 261.3 645.5 267 L 645 263.5 L 648 254.5 L 648 252.5 L 648 242.5 L 646 236.5 L 645.5 225 Z " /><path fill="rgb(22,140,135)" stroke="rgb(22,140,135)" stroke-width="1" opacity="0.9215686274509803" d="M 623.5 227 Q 625.8 229.8 625 235.5 L 624 235.5 L 623.5 227 Z " /><path fill="rgb(22,140,135)" stroke="rgb(22,140,135)" stroke-width="1" opacity="0.9215686274509803" d="M 624.5 238 L 625 242.5 L 624 245.5 L 625 247.5 L 624 248.5 L 624 260.5 L 622.5 268 L 618.5 266 Q 595.3 275.3 580 292.5 L 565 312.5 L 557 330.5 L 554 343.5 L 556.5 345 L 558.5 344 L 557.5 346 Q 553.5 345.5 553 348.5 L 552 367.5 L 553.5 370 L 552 370.5 L 552 377.5 L 555 393.5 L 560 407.5 Q 569 426 582.5 440 L 585.5 442 L 591 446 Q 589.9 448.7 592.5 448 Q 606.9 460.1 626.5 467 L 646.5 471 L 670.5 471 L 675.5 469 L 681.5 469 L 688.5 467 L 704.5 461 L 719.5 452 L 732 442 L 732 440 Q 734.7 441.1 734 438.5 L 745 426.5 L 755 409.5 L 761 393.5 L 764.5 371 L 767.5 373 L 783.5 376 L 785 375.5 L 785 383.5 Q 782.3 386.8 783 393.5 L 777 411.5 L 766 433.5 L 753 451 Q 750.3 449.9 751 452.5 Q 730.5 474.5 699.5 486 L 679.5 491 L 645.5 492 L 623.5 488 L 606.5 482 L 585.5 470 L 569 457 L 569 455 Q 566.3 456.1 567 453.5 L 555 440.5 L 540 413.5 L 532 386.5 L 532 376.5 L 529 373.5 L 530 372.5 L 531 353 L 528 351.5 L 531 349.5 L 536 327.5 L 544 307.5 Q 556.6 283.6 576.5 267 Q 595.3 250 623 243 L 624.5 238 Z " /><path fill="rgb(22,140,135)" stroke="rgb(22,140,135)" stroke-width="1" opacity="0.9215686274509803" d="M 622.5 269 L 623 271.5 L 622 271.5 L 622.5 269 Z " /><path fill="rgb(22,140,135)" stroke="rgb(22,140,135)" stroke-width="1" opacity="0.9215686274509803" d="M 413.5 318 L 414.5 320 L 413.5 318 Z " /><path fill="rgb(22,140,135)" stroke="rgb(22,140,135)" stroke-width="1" opacity="0.9215686274509803" d="M 419.5 326 L 421.5 329 L 419.5 326 Z " /><path fill="rgb(0,0,0)" stroke="rgb(0,0,0)" stroke-width="1" opacity="0" d="M 0 0 L 1051 0 L 1051 625 L 0 625 L 0 0 Z M 223 116 L 223 118 L 211 118 L 210 120 Q 204 119 203 122 L 198 122 L 197 124 L 191 124 Q 192 128 187 126 L 187 128 L 183 128 L 183 130 Q 179 129 178 133 Q 175 132 176 135 L 172 135 L 172 137 L 168 137 L 166 141 L 164 141 L 164 143 L 160 143 L 158 147 L 153 151 Q 150 150 151 153 L 149 153 L 149 155 L 145 158 L 145 160 L 141 162 L 141 164 L 139 164 L 139 166 L 137 166 Q 138 169 135 171 Q 136 173 133 172 Q 132 177 128 180 Q 129 184 126 183 L 126 186 L 122 192 Q 123 196 120 195 Q 121 199 118 201 Q 120 207 116 207 L 116 214 L 114 215 L 114 222 L 112 222 L 112 242 L 111 243 L 112 247 L 111 251 L 112 253 L 112 272 L 114 273 L 114 280 L 116 280 L 116 288 L 118 290 Q 117 295 120 294 L 120 299 Q 124 298 122 303 L 124 303 L 124 307 L 126 307 L 131 317 Q 130 319 133 318 L 133 320 L 135 320 L 135 324 L 139 326 L 141 330 Q 140 333 143 332 L 145 336 Q 144 338 147 337 L 147 339 L 149 339 L 149 341 L 151 341 L 151 343 L 155 345 Q 157 344 156 347 L 158 347 L 158 349 L 162 349 L 164 353 L 167 354 Q 169 353 168 356 L 180 362 L 183 362 Q 182 365 187 364 L 187 366 L 191 366 L 191 368 L 197 368 L 197 370 Q 201 369 203 372 L 210 372 L 210 374 L 222 374 L 224 376 L 245 376 L 249 378 L 254 398 Q 253 403 256 402 L 256 410 Q 260 409 258 414 L 260 414 L 260 420 L 262 420 Q 261 423 264 425 L 264 428 Q 267 427 266 431 L 268 431 L 268 434 L 272 439 L 272 441 L 276 443 L 276 445 L 279 445 Q 277 450 281 449 L 283 453 Q 282 455 285 454 L 285 456 L 287 456 L 287 458 L 289 458 L 289 460 L 291 460 L 291 462 L 293 462 L 293 464 L 297 466 Q 299 465 298 468 Q 301 467 303 470 Q 305 469 304 472 L 306 472 L 306 474 Q 310 473 312 477 Q 315 476 314 479 L 318 479 L 324 483 Q 328 482 327 485 Q 331 484 333 487 Q 338 486 338 489 L 343 489 L 344 491 L 350 491 L 350 493 L 365 493 L 367 495 L 397 495 L 397 493 L 409 493 L 411 491 L 418 491 L 418 489 L 424 489 L 424 487 L 429 487 L 436 483 Q 440 484 439 481 Q 443 482 446 479 Q 448 480 447 477 Q 451 478 453 474 Q 455 475 454 472 L 458 472 L 460 468 L 462 468 L 462 466 Q 465 467 467 464 Q 469 465 468 462 L 470 462 L 470 460 L 472 460 L 472 458 L 474 458 L 474 456 L 479 453 Q 478 450 481 451 L 483 448 L 483 445 L 487 443 L 487 441 L 489 441 L 489 437 L 491 437 L 493 434 L 493 431 L 495 431 L 495 426 L 497 426 L 497 422 L 499 422 L 502 416 L 502 413 L 504 411 L 504 407 L 506 405 L 506 398 L 508 397 L 508 390 L 510 388 L 510 379 Q 513 379 512 376 L 529 376 L 529 391 L 531 392 L 531 399 L 533 400 L 533 407 L 535 407 L 535 412 L 537 412 Q 536 417 539 419 Q 538 423 541 422 L 541 425 L 546 432 Q 545 434 548 433 L 548 437 L 550 437 Q 549 440 552 442 Q 551 444 554 443 L 554 445 L 556 445 L 556 449 L 560 451 L 568 460 Q 570 459 569 462 L 571 462 L 571 464 L 573 464 L 573 466 L 575 466 L 575 468 L 579 468 L 581 472 L 585 472 L 587 476 L 593 479 Q 597 478 596 481 L 605 485 Q 610 484 609 487 L 614 487 L 615 489 L 621 489 L 621 491 Q 628 489 630 493 L 640 493 L 640 495 L 673 495 L 675 493 L 687 493 Q 686 490 695 491 L 696 489 L 702 489 L 702 487 L 708 487 Q 707 483 712 485 L 712 483 L 716 483 L 716 481 Q 725 480 730 474 Q 732 475 731 472 L 735 472 L 737 468 Q 745 467 749 460 Q 751 461 750 458 L 752 458 L 752 456 L 754 456 L 758 451 Q 757 448 760 449 L 762 446 L 762 443 L 766 441 L 771 433 Q 770 429 773 430 L 773 426 L 775 426 L 775 422 L 777 422 L 777 418 L 779 418 L 779 413 Q 783 413 781 407 L 783 407 Q 782 401 785 400 L 785 394 L 787 392 L 787 382 L 789 378 L 791 376 L 818 376 L 820 374 L 827 374 L 828 372 L 835 372 L 835 370 L 841 370 L 849 366 L 852 366 Q 851 363 856 364 L 856 362 L 860 362 L 860 360 L 864 360 L 864 358 L 871 355 Q 870 352 873 353 L 873 351 L 877 351 L 879 347 L 881 347 L 881 345 L 883 345 L 883 343 L 885 343 L 885 341 L 895 335 L 898 331 L 898 328 L 902 326 L 902 322 L 906 320 L 906 316 L 910 314 Q 909 310 913 309 Q 912 306 915 307 L 915 303 L 917 303 Q 916 299 919 298 Q 917 292 921 293 Q 920 287 923 286 Q 921 279 925 280 L 925 271 L 927 270 L 927 252 L 929 251 L 929 237 L 927 235 L 927 226 L 925 224 Q 926 216 923 214 Q 925 207 921 208 Q 922 202 919 201 Q 920 196 917 197 Q 917 189 912 185 Q 913 182 910 183 Q 911 180 908 179 L 908 176 L 904 174 L 904 170 L 900 168 L 900 164 L 896 162 L 896 160 L 894 160 L 894 158 L 892 158 L 892 156 L 890 156 L 889 153 Q 886 154 887 151 L 885 151 L 885 149 L 883 149 L 883 147 L 881 147 L 881 145 L 877 145 L 875 141 L 873 141 L 873 139 L 869 139 L 869 137 L 866 135 Q 861 136 862 133 L 860 133 L 854 128 L 846 126 L 844 124 Q 838 125 839 122 L 833 122 L 833 120 Q 826 122 825 118 L 817 118 L 816 116 L 780 116 L 779 118 L 767 118 L 767 120 L 761 120 L 761 122 L 756 122 Q 755 125 750 124 L 748 126 L 740 128 L 733 133 Q 730 132 731 135 L 727 135 L 727 137 L 724 139 L 721 139 L 719 143 L 715 143 L 715 145 L 712 147 Q 709 146 710 149 L 709 149 L 700 158 L 700 160 L 696 162 L 696 164 L 694 164 L 694 166 L 692 166 L 683 181 Q 684 184 681 183 L 681 187 L 679 187 L 679 191 L 677 191 Q 678 195 675 197 Q 676 202 673 201 L 673 208 L 671 208 Q 672 214 669 216 L 669 225 L 667 226 L 667 233 L 659 233 Q 658 236 653 235 L 650 233 L 650 226 L 648 223 L 648 217 Q 645 215 646 210 L 643 208 Q 645 201 641 200 L 641 195 Q 637 196 639 191 L 637 191 L 637 187 L 635 187 L 635 183 L 633 183 L 633 179 Q 630 180 631 176 L 629 176 Q 630 173 627 172 Q 628 169 625 170 Q 624 165 620 162 Q 617 163 618 160 L 616 160 L 616 158 L 614 158 L 612 155 Q 613 152 610 153 L 610 151 L 608 151 L 608 149 L 606 149 L 606 147 L 604 147 L 604 145 L 597 141 Q 594 142 595 139 L 593 139 L 593 137 Q 588 138 589 135 L 585 135 L 583 131 L 581 131 L 574 126 Q 569 127 568 124 Q 563 125 564 122 L 558 122 L 558 120 L 551 120 L 549 118 L 540 118 L 538 116 L 501 116 L 500 118 L 490 118 L 489 120 L 481 120 L 481 122 L 475 122 L 475 124 L 467 126 L 458 132 Q 457 134 460 133 L 459 135 L 458 133 Q 453 131 454 135 L 457 136 L 455 137 L 454 135 Q 449 134 450 137 L 446 137 L 446 139 L 443 139 Q 444 142 441 141 L 441 143 Q 438 142 437 145 Q 434 144 435 147 L 433 147 L 433 149 L 431 149 L 431 151 L 429 151 L 429 153 L 427 153 L 425 158 L 427 158 L 427 156 L 429 156 Q 428 153 431 154 L 435 151 L 423 162 L 425 158 L 422 160 Q 419 159 420 162 L 418 162 L 418 164 L 416 164 L 415 169 L 412 170 L 410 174 Q 411 177 408 176 L 408 179 L 406 179 L 406 183 L 404 183 L 404 187 L 402 187 L 402 191 L 400 191 L 400 195 L 398 195 L 397 199 L 398 201 L 395 203 L 395 208 L 393 208 L 393 214 L 391 214 L 391 223 L 389 225 L 389 235 Q 382 237 381 233 L 372 233 L 372 226 L 370 224 L 370 214 L 366 207 L 366 203 L 364 201 Q 365 196 362 197 L 362 193 L 353 178 Q 354 175 351 176 Q 352 173 349 172 Q 350 169 347 170 L 347 168 L 345 168 Q 346 165 343 164 Q 344 161 341 162 L 341 160 L 339 160 L 339 158 L 337 158 L 330 149 Q 327 150 328 147 L 326 147 L 326 145 L 324 145 L 324 143 L 320 143 L 318 139 L 314 139 L 312 135 L 309 135 L 302 130 Q 298 131 299 128 L 295 128 L 295 126 L 289 126 L 289 124 Q 285 125 284 122 Q 277 124 278 120 L 271 120 L 270 118 L 261 118 L 259 116 L 223 116 Z " /><path fill="rgb(0,0,0)" stroke="rgb(0,0,0)" stroke-width="1" opacity="0" d="M 541.5 120 L 544 120.5 L 541.5 121 L 541.5 120 Z " /><path fill="rgb(0,0,0)" stroke="rgb(0,0,0)" stroke-width="1" opacity="0" d="M 466.5 129 L 468 129.5 L 465.5 131 L 466.5 129 Z " /><path fill="rgb(0,0,0)" stroke="rgb(0,0,0)" stroke-width="1" opacity="0" d="M 462.5 131 L 464 131.5 L 461.5 133 L 462.5 131 Z " /><path fill="rgb(0,0,0)" stroke="rgb(0,0,0)" stroke-width="1" opacity="0" d="M 579.5 133 Q 581.8 132.3 581 134.5 L 579.5 133 Z " /><path fill="rgb(0,0,0)" stroke="rgb(0,0,0)" stroke-width="1" opacity="0" d="M 582.5 135 L 585 136.5 L 583.5 136 L 582.5 135 Z " /><path fill="rgb(0,0,0)" stroke="rgb(0,0,0)" stroke-width="1" opacity="0" d="M 452.5 137 L 451.5 139 L 448.5 141 L 448 139 L 452.5 137 Z " /><path fill="rgb(0,0,0)" stroke="rgb(0,0,0)" stroke-width="1" opacity="0" d="M 589.5 139 L 590.5 141 L 589.5 139 Z " /><path fill="rgb(0,0,0)" stroke="rgb(0,0,0)" stroke-width="1" opacity="0" d="M 512.5 140 L 521 140.5 L 512.5 141 L 512.5 140 Z " /><path fill="rgb(0,0,0)" stroke="rgb(0,0,0)" stroke-width="1" opacity="0" d="M 446.5 141 L 445.5 143 L 436.5 150 L 440.5 145 L 446.5 141 Z " /><path fill="rgb(0,0,0)" stroke="rgb(0,0,0)" stroke-width="1" opacity="0" d="M 242.5 143 Q 249 141.5 250.5 145 L 261.5 145 L 263.5 147 L 272 147 Q 270.6 150.7 276.5 149 Q 277.9 152.3 283 151 L 283 153 L 287 153 L 287 155 L 291 155 L 291 157 L 295 157 L 295 158.5 Q 298.1 163.1 304 164 L 304 166 L 306 166 L 306 168 L 308 168 Q 306.9 170.7 309.5 170 L 312 174 L 316 176.5 L 322 183.5 L 325 189 L 329 191 L 329 195 Q 332 193.8 331 197.5 Q 334 198.8 333 203 L 335 203 Q 333.8 208.3 337 207.5 L 337 210.5 L 341 218.5 L 341 226 L 343 226.5 L 343 239 Q 340 238 341 241 L 335 241 L 335 243 L 329 243 L 329 245 Q 323.7 243.7 324.5 247 L 321.5 247 L 312 252.5 Q 312.8 255.1 309.5 254 L 306 256 L 304 260 L 301.5 260 L 295 264 L 295 266 L 293 266 L 293 268 L 291 268 L 291 270 L 289 270 Q 290.1 272.7 287.5 272 L 285 276 L 283 276 L 283 279 L 281 279 L 281 281 L 279 281 L 279 283 Q 276.3 281.9 277 284.5 L 276 287 Q 273.3 285.9 274 288.5 Q 271.2 289.6 272 293 Q 269.3 291.9 270 294.5 Q 267.3 295.6 268 299 L 266 299 Q 267.3 303.1 264 302 L 264 306 L 262 306 Q 263.7 311.2 260 310 L 260 314.5 Q 257 315.8 258 320 L 256 320 L 256 326.5 Q 252.8 325.5 254 331.5 L 253 336.5 L 251 338.5 L 251 344.5 Q 248.3 345.6 249 349 L 230.5 349 L 227.5 347 L 218.5 347 L 216.5 345 L 210.5 345 Q 208.8 341.5 203 343 L 203 341 L 199 341 L 199 339 L 195 339 L 195 337 L 191 337 L 191 335 L 188 335 Q 189.3 332 185.5 333 L 182 331 L 182 329 L 178 329 L 178 327.5 L 176 324 L 174 324 L 174 322 L 172 322 L 172 320 L 170 320 L 170 318 L 168 318 L 168 316 L 166 316 L 166 314 L 164 314 L 164 312 L 162 312 L 162 310 Q 159.3 311.1 160 308.5 L 159 306 L 155 304 L 155 300.5 L 153 297 L 151 297 L 151 293 L 149 293 Q 150.7 287.8 147 289 L 147 283 L 145 283 Q 146.7 277.8 143 279 L 143 271.5 L 141 269.5 Q 143 261.5 139 259.5 L 139 234.5 L 141 231.5 L 141 224.5 Q 144.2 222.2 143 215.5 L 147 208.5 L 147 205 L 149 205 L 149 201 L 151 201 L 151 197 L 153 197 L 153 193 Q 155.7 194.1 155 191.5 Q 157.8 190.4 157 187 Q 159.7 188.1 159 185.5 L 162 184 L 162 182 Q 164.7 183.1 164 180.5 L 166 176 L 168 176 L 168 174 L 170 174 L 170 172 L 172 172 Q 170.9 169.3 173.5 170 L 180 166 L 180 164 L 182 164 Q 180.9 161.3 183.5 162 L 189 159 L 189 157 L 193 157 L 193 155 L 197 155 Q 195.8 152 199.5 153 Q 200.8 150 205 151 Q 203.6 147 210.5 149 L 212.5 147 L 220 147 L 220.5 145 L 240.5 145 L 242.5 143 Z " /><path fill="rgb(0,0,0)" stroke="rgb(0,0,0)" stroke-width="1" opacity="0" d="M 513.5 143 Q 518.8 142.2 520.5 145 L 537.5 145 L 539.5 147 L 548 147 L 548 149 L 553.5 149 Q 552.5 152 557.5 151 Q 558.9 154.3 564 153 Q 562.7 156.3 567.5 155 L 571 157 Q 569.8 160 573.5 159 Q 575.9 163.5 581 164 L 581 166 L 583 166 Q 581.9 168.7 584.5 168 Q 585.6 170.8 589 170 Q 587.9 172.7 590.5 172 L 594 174 L 594 176 L 598 178 L 598 182 Q 600.7 180.9 600 183.5 L 602 187 Q 605 185.8 604 189.5 L 606 193 L 608 193 L 608 197 L 610 197 L 610 201 L 612 201 Q 610.3 206.2 614 205 L 614 209.5 L 616 211.5 L 617 218 L 619 218 L 619 225.5 L 621 226.5 L 621 241 L 608 243 L 608 245 Q 602.7 243.7 603.5 247 L 600.5 247 L 596 249 Q 597.3 252.3 592.5 251 Q 591.3 254.8 587 254 L 587 256 L 585 256 Q 586.1 258.7 583.5 258 Q 582.4 260.8 579 260 L 579 262 L 577 262 L 577 264 L 575 264 Q 576.1 266.7 573.5 266 L 569 268 L 569 269.5 L 559 279.5 L 558 283 L 556 283 L 556 285 L 552 287 L 552 290 L 550 290 L 550 293 L 548 293 L 548 297 Q 545.3 295.9 546 298.5 L 537 313.5 L 537 318 L 535 318 Q 536.5 324.3 533 323.5 L 533 330.5 Q 529.8 329.6 531 337.5 Q 527.3 339.3 529 346.5 L 526.5 349 L 523.5 350 L 519.5 349 L 516.5 350 L 510 348 Q 511.3 343 508 341.5 L 508 332.5 L 506 330.5 L 506 325.5 L 504 323.5 L 504 319.5 L 502 317.5 L 502 314.5 L 499 308 L 497 308 Q 498.3 302.7 495 303.5 L 495 299 L 493 299 L 493 295 L 491 295 L 491 292 Q 487.7 293.1 489 289 L 487 289 L 487 287 L 483 285 L 483 281 L 481 281 L 481 279 L 479 279 L 479 277 Q 476.3 278.1 477 275.5 L 474 274 L 474 272 L 472 272 L 472 270 L 470 270 L 470 268 L 468 268 Q 469.1 265.3 466.5 266 L 463 264 L 463 262 L 460 262 L 460 260 L 458 260 L 456 256 L 452.5 256 L 449 254 Q 450.1 251.3 447.5 252 L 439.5 247 L 436.5 247 L 429.5 243 L 426 243 L 426 241 L 420.5 241 Q 421.1 238.3 418 239 L 418 224 L 420 223.5 L 420 216.5 Q 423.5 217.5 422 210.5 Q 425 209.3 424 205 Q 426.7 206.1 426 203.5 L 431 195.5 L 431 193 L 433 193 L 433 189 Q 435.7 190.1 435 187.5 L 437 184 L 439 184 L 439 180 L 441 180 L 441 178 L 443 178 L 443 176 L 445 176 L 445 174 L 447 174 L 447 172 L 449 172 Q 447.9 169.3 450.5 170 Q 451.6 167.2 455 168 Q 453.9 165.3 456.5 166 L 460 164 Q 458.9 161.3 461.5 162 L 466 158.5 L 466 157 L 470 157 L 470 155 L 474 155 L 474 153 Q 480.3 154.5 479.5 151 L 485 151 L 485.5 149 L 491 149 L 491.5 147 Q 500.3 148.4 499.5 145 L 511.5 145 L 513.5 143 Z " /><path fill="rgb(0,0,0)" stroke="rgb(0,0,0)" stroke-width="1" opacity="0" d="M 792.5 143 L 804.5 143 L 806.5 145 L 816.5 145 L 818.5 147 L 826.5 147 L 828.5 149 L 832.5 149 Q 833.8 152 838 151 L 838 153 Q 843.3 151.8 842.5 155 L 848 155 L 850 159 L 852.5 159 L 858.5 164 L 861 164 L 861 166 L 863 166 L 863 168 L 865 168 L 865 170 L 867 170 L 867 172 L 869 172 L 869 174 L 871 174 L 871 176 L 873 176 L 873 178 L 875 178 L 875 180 L 879 182 L 879 184.5 L 884 190.5 L 884 193 Q 887 191.8 886 195.5 L 894 210.5 Q 893 215.5 896 216.5 L 896 222.5 L 898 224.5 Q 897 230.5 900 232.5 L 900 256.5 L 898 258.5 L 898 270 L 896 270.5 L 896 277.5 L 894 279.5 L 894 283.5 Q 891 284.8 892 289 L 890 289 L 890 293 L 888 293 L 888 297 Q 885.3 295.9 886 298.5 L 883 304 L 881 304 L 881 306 Q 878.3 304.9 879 307.5 Q 876.2 308.6 877 312 L 875 312 L 875 314 L 873 314 L 873 316 L 871 316 L 871 318 L 869 318 L 869 320 L 867 320 L 867 322 L 865 322 L 865 324 Q 862.3 322.9 863 325.5 L 859 327 Q 860.1 329.7 857.5 329 L 854 331 L 854 333 L 850 333 L 850 335 L 847 335 L 847 337 Q 842.9 335.7 844 339 L 839.5 339 Q 838.3 342 834 341 Q 835.4 345 828.5 343 L 826.5 345 Q 821.2 344.2 819.5 347 L 808.5 347 Q 803.4 350.4 793.5 349 L 789 347 Q 789.8 343.9 787 344.5 L 787 335.5 L 785 335 L 785 329 L 783 328.5 L 783 323.5 Q 779.5 321.8 781 316 L 779 316 L 779 310 L 777 310 L 777 306 L 775 306 L 775 302 Q 772.3 303.1 773 300.5 L 765.5 289 Q 762.9 289.7 764 287 L 762 287 L 762 283 L 760 283 L 760 281 L 758 281 L 758 279 Q 755.3 280.1 756 277.5 L 754 274 L 752 274 L 752 272 L 750 272 L 750 270 L 748 270 L 748 268 L 746 268 Q 747.1 265.3 744.5 266 L 741 264 L 741 262 L 737 262 L 737 260 L 735 260 Q 736.1 257.3 733.5 258 Q 732.4 255.3 729 256 Q 730.3 253 726.5 254 L 715.5 247 L 712 247 L 712 245 Q 706.7 246.3 707.5 243 L 704.5 243 Q 703.5 240 698.5 241 L 696 238.5 L 696 226.5 L 698 224.5 L 698 218.5 Q 701.5 216.8 700 211 L 702 211 L 702 205 L 704 205 L 704 201 L 706 201 L 706 197 L 708 197 L 708 193 Q 711 194.3 710 190.5 L 712 187 L 714 187 L 714 184 Q 716.7 185.1 716 182.5 L 719 178 L 721 178 L 721 176 L 723 176 L 723 174 L 725 174 L 725 172 L 727 172 L 727 170 L 729 170 L 729 168 L 731 168 Q 729.9 165.3 732.5 166 L 737 164 Q 735.9 161.3 738.5 162 L 744.5 157 L 747 157 L 747 155 Q 752.3 156.3 751.5 153 L 756 153 L 756 151 Q 761.2 152.7 760 149 L 766 149 L 766.5 147 L 773.5 147 L 775.5 145 L 790.5 145 L 792.5 143 Z " /><path fill="rgb(0,0,0)" stroke="rgb(0,0,0)" stroke-width="1" opacity="0" d="M 596.5 144 L 597.5 146 L 596.5 144 Z " /><path fill="rgb(0,0,0)" stroke="rgb(0,0,0)" stroke-width="1" opacity="0" d="M 602.5 149 L 603.5 151 L 602.5 149 Z " /><path fill="rgb(0,0,0)" stroke="rgb(0,0,0)" stroke-width="1" opacity="0" d="M 608.5 154 L 610.5 157 L 608.5 154 Z " /><path fill="rgb(0,0,0)" stroke="rgb(0,0,0)" stroke-width="1" opacity="0" d="M 418.5 168 L 417.5 170 L 418.5 168 Z " /><path fill="rgb(0,0,0)" stroke="rgb(0,0,0)" stroke-width="1" opacity="0" d="M 414.5 173 L 413.5 175 L 414.5 173 Z " /><path fill="rgb(0,0,0)" stroke="rgb(0,0,0)" stroke-width="1" opacity="0" d="M 442.5 173 L 439 177.5 L 437 182 Q 434.3 180.9 435 183.5 L 432 185.5 L 442.5 173 Z " /><path fill="rgb(0,0,0)" stroke="rgb(0,0,0)" stroke-width="1" opacity="0" d="M 412.5 176 L 411.5 178 L 412.5 176 Z " /><path fill="rgb(0,0,0)" stroke="rgb(0,0,0)" stroke-width="1" opacity="0" d="M 628.5 179 L 630 181.5 L 628 180.5 L 628.5 179 Z " /><path fill="rgb(0,0,0)" stroke="rgb(0,0,0)" stroke-width="1" opacity="0" d="M 408 181 L 410 181.5 L 408 182.5 L 408 181 Z " /><path fill="rgb(0,0,0)" stroke="rgb(0,0,0)" stroke-width="1" opacity="0" d="M 605.5 185 L 606.5 187 L 605.5 185 Z " /><path fill="rgb(0,0,0)" stroke="rgb(0,0,0)" stroke-width="1" opacity="0" d="M 431.5 187 L 430.5 189 L 431.5 187 Z " /><path fill="rgb(0,0,0)" stroke="rgb(0,0,0)" stroke-width="1" opacity="0" d="M 429.5 190 L 428.5 192 L 429.5 190 Z " /><path fill="rgb(0,0,0)" stroke="rgb(0,0,0)" stroke-width="1" opacity="0" d="M 374 262 L 386.5 262 L 389 263 Q 387.3 267.1 391.5 266 L 391 267.5 L 391 276 L 394 276 L 394.5 274 L 395 275.5 Q 391.5 277 393 283.5 L 396 285.5 L 395 289.5 L 398 291.5 L 397 294.5 L 398 297 L 400 297 Q 398.8 302.3 402 301.5 L 402 304.5 Q 405 305.8 404 310 L 406 310 L 406 314 Q 409 312.8 408 316.5 L 410 320 L 412 320 L 412 324 L 414 324 L 414 326 L 416 326 L 416 328 Q 418.7 326.9 418 329.5 L 421 334 L 423 334 Q 421.9 336.7 424.5 336 L 429 339 L 427 335.5 L 434.5 342 L 443 348.5 L 440.5 347 L 429 339 L 429 341 L 431 341 L 431 343 L 433 343 L 433 345 L 435 345 L 435 347 L 437 347 L 439 351 L 443 351 Q 441.9 353.7 444.5 353 L 448.5 356 L 450.5 353 L 451.5 355 Q 448.5 354.2 450 358 L 460 362 Q 461.1 359.3 458.5 360 L 454 358 L 453 355.5 L 454.5 356 L 467.5 363 L 480 367.5 L 477 368 Q 475.8 371.7 481 370 Q 479.9 367.3 482.5 368 L 485 369.5 L 481 370 Q 480.3 373.1 483 372.5 L 483 380.5 Q 479.3 382.4 481 389 L 479 389 L 479 395.5 L 477 396.5 L 477 404 L 475 404 L 475 408 L 473 408 L 473 412 Q 470.3 410.9 471 413.5 L 466 423 Q 463.3 421.9 464 424.5 Q 461.3 425.6 462 429 L 460 429 L 460 431 L 458 431 L 458 433 L 456 433 L 456 435 L 454 435 L 454 437 L 452 437 L 452 439 L 450 439 L 450 441 L 448 441 Q 449.1 443.7 446.5 443 L 441.5 448 L 439 448 L 437 452 L 433 452 Q 434.1 454.7 431.5 454 Q 430.4 456.8 427 456 L 427 458 Q 420.7 456.5 421.5 460 L 417.5 460 L 415.5 462 Q 410.9 461.4 409.5 464 L 403.5 464 L 401.5 466 L 390.5 466 L 388.5 468 L 372.5 468 L 369.5 466 L 361.5 466 L 359.5 464 L 351.5 464 Q 350.1 460.7 345 462 L 345 460 L 339 460 L 339 458 L 335 458 L 335 456 Q 329.8 457.7 331 454 L 326 454 L 324 450 L 320 450 L 320 448.5 Q 316.8 442.1 310 441 L 310 439 L 308 439 Q 309.1 436.3 306.5 437 L 303 435 L 303 431 L 301 431 L 301 429 L 297 427 L 297 424.5 L 293 419.5 L 293 417 L 291 417 Q 292.3 412.9 289 414 L 289 410 L 287 410 L 287 406 L 285 406 L 285 400 L 283 399.5 L 283 393.5 L 281 390.5 L 280 383 L 278 382.5 L 278 372 Q 281.1 372.8 280.5 370 L 286.5 370 L 287 368 L 293 368 L 293 366 L 297 366 L 297 364 Q 302.3 365.3 301.5 362 L 304.5 362 L 312.5 358 L 317.5 353 L 320 353 L 322 349 L 326 349 L 326 347 L 328 347 L 328 345 L 330 345 Q 328.9 342.3 331.5 343 L 341 333.5 L 343 328 L 345 328 L 345 326 L 349 324 L 349 320 L 351 320 L 351 316 L 352.5 316 L 356 312.5 L 358 305 L 360 305 L 360 301 L 362 301 Q 360.3 295.8 364 297 L 364 291.5 Q 367.7 289.6 366 283 L 368 282.5 L 368 274.5 L 370 273.5 L 370 266 L 372 266 L 374 262 Z M 461 362 L 462 364 L 465 364 Q 464 361 461 362 Z M 467 364 Q 466 367 469 366 Q 470 363 467 364 Z M 471 366 L 472 368 L 475 367 L 471 366 Z " /><path fill="rgb(0,0,0)" stroke="rgb(0,0,0)" stroke-width="1" opacity="0" d="M 657.5 263 L 667 264 Q 666.3 267.1 669 266.5 L 669 277.5 L 671 278.5 L 671 285 L 673 285 L 673 290.5 L 675 291 L 675 297 L 677 297 L 677 301 L 679 301 Q 677.8 306.3 681 305.5 L 681 308.5 L 683 312 Q 686 310.8 685 314.5 L 690.5 322 L 692 322 L 692 326 L 694 326 L 694 328 Q 696.7 326.9 696 329.5 L 698 333 L 700 333 L 700 335 Q 702.7 333.9 702 336.5 L 707.5 343 L 710 343 Q 708.9 345.7 711.5 345 L 715 347 L 717 351 L 721 351 L 721 352.5 Q 722.3 356.8 727 356 Q 725.9 358.7 728.5 358 L 741.5 366 L 746 366 L 746 368 L 752 368 L 752 370 L 756.5 370 Q 755.8 373 760 372 L 760 382.5 L 758 384.5 L 758 390.5 L 756 392.5 L 756 397.5 Q 753.2 399.5 754 404 L 752 404 L 752 408 L 750 408 L 750 412 L 748 412 L 748 416 L 746 416 L 746 420 Q 743.3 418.9 744 421.5 L 742 425 L 740 425 L 740 429 L 738.5 429 L 735 431 L 735 433 L 733 433 L 733 435 L 731 435 L 731 437 L 729 437 L 729 439 L 727 439 L 727 441 L 725 441 L 725 443 L 723 443 Q 724.1 445.7 721.5 445 L 717 448 L 715 452 L 710 452 L 710 454 L 707 454 L 707 456 Q 702.9 454.7 704 458 L 700 458 L 700 460 L 694 460 L 693.5 462 L 687.5 462 L 685.5 464 Q 679.8 462.8 678.5 466 L 667.5 466 Q 662.5 469 653.5 468 L 650.5 466 L 635.5 466 Q 633.6 462.3 627 464 Q 628.4 460.3 622.5 462 Q 621 458.8 616 460 L 616 458 L 612 458 L 612 456 L 608 456 Q 609.1 453.3 606.5 454 Q 605.4 451.3 602 452 L 600 448 L 597.5 448 L 593 445 L 593 443 L 591 443 L 591 441 L 589 441 L 589 439 L 587 439 L 587 437 L 585 437 L 585 435 L 583 435 L 583 433 L 581 433 L 581 431 L 579 431 L 579 429 Q 576.3 430.1 577 427.5 L 575 423 Q 572.3 424.1 573 421.5 Q 569.3 420.2 570 416 L 568 416 L 568 412 L 566 412 L 566 408 L 564 408 Q 565.7 402.8 562 404 L 562 399.5 Q 558.8 398.1 560 393 Q 556.5 394.1 558 386.5 L 556 384.5 L 556 372 Q 559 373 558 370 L 554 369.5 L 571.5 363 L 585.5 355 L 584.5 357 L 572.5 364 L 569 364 L 569 366 L 574 366 Q 572.7 362.7 577.5 364 L 583 360.5 L 583.5 359 L 585.5 360 L 589 358 Q 587.8 355 591.5 356 L 595 351 L 598.5 351 L 602 349 L 602 347 L 604 347 L 604 345 L 606 345 Q 604.9 342.3 607.5 343 L 614 337.5 L 614 335 L 616 335 L 616 333 Q 618.7 334.1 618 331.5 L 625.5 322 Q 628.1 322.7 627 320 L 629 320 L 629 316 Q 631.7 317.1 631 314.5 L 635 308.5 L 635 305 L 637 305 Q 635.3 299.8 639 301 L 639 295 L 637 294.5 L 638.5 292 L 639 295 L 641 295 Q 639.3 289.8 643 291 L 643 285.5 L 646 279.5 L 645 276 L 648 274.5 L 648 268.5 Q 650.8 267.4 650 264 L 656.5 264 L 657.5 263 Z M 564 366 Q 563 370 568 368 Q 569 364 564 366 Z M 558 368 Q 557 372 562 370 Q 563 366 558 368 Z " /><path fill="rgb(0,0,0)" stroke="rgb(0,0,0)" stroke-width="1" opacity="0" d="M 393.5 266 L 394 269.5 L 393 269.5 L 393.5 266 Z " /><path fill="rgb(0,0,0)" stroke="rgb(0,0,0)" stroke-width="1" opacity="0" d="M 340.5 270 L 341 277 L 339 277 L 339 283 L 337 283 L 337 287 L 335 287 Q 336.3 292.3 333 291.5 L 333 294.5 Q 330.3 295.6 331 299 L 329 299 L 329 302 Q 326 300.8 327 304.5 L 324 306 L 324 308 L 320 310 L 320 312.5 L 318 316 L 316 316 L 316 318 L 314 318 L 314 320 L 312 320 Q 313.1 322.7 310.5 322 L 308 323 L 308 325 L 306 325 L 306 327 L 304 327 Q 305.1 329.7 302.5 329 L 299 331 Q 300.3 334 296.5 333 L 293 335 L 293 337 Q 287.8 335.3 289 339 L 283 339 L 283 331.5 Q 286 330.3 285 326 Q 288.3 327.3 287 322.5 L 293 312.5 L 293 310 Q 295.7 311.1 295 308.5 Q 298 307.3 297 303 L 299 303 L 299 301 L 303 299 L 303 295 L 306 295 L 306 293 L 308 293 L 308 291 L 310 291 L 310 289 L 312 289 L 314 285 L 316.5 285 L 322 278 Q 327.3 279.3 326.5 276 L 329.5 276 L 340.5 270 Z " /><path fill="rgb(0,0,0)" stroke="rgb(0,0,0)" stroke-width="1" opacity="0" d="M 420 270 Q 424.1 268.7 423 272 L 427 272 L 427 274 L 431 274 L 431 276 L 435 276 L 435 278 L 437 278 Q 435.9 280.7 438.5 280 L 448 287 Q 446.9 289.7 449.5 289 L 452 293 L 454 293 L 454 295 L 456 295 L 456 297 L 458 297 L 458 299 L 462 301 L 462 303.5 L 473 322 L 475 322 Q 473.8 327.3 477 326.5 L 477 329.5 L 479 331.5 L 479 340.5 L 478 340.5 L 478 339 L 472.5 339 Q 473.3 335.8 468 337 Q 466.9 339.7 469.5 339 L 469.5 340 L 465 337.5 L 468 337 L 466 333 L 462 333 L 460 329 L 456.5 329 L 452.5 324 Q 449.9 324.7 451 322 L 449 322 L 449 320 L 447 320 L 447 318 L 445 318 L 445 316 L 443 316 L 443 314 L 441 314 L 441 312 L 439 312 L 439 310 L 437 310 L 437 306 L 435 306 L 435 304 Q 432.3 305.1 433 302.5 L 422 283.5 L 422 277 L 420 276.5 L 420 270 Z " /><path fill="rgb(0,0,0)" stroke="rgb(0,0,0)" stroke-width="1" opacity="0" d="M 616 270 L 619 270 L 619 277 Q 616.3 275.9 617 278.5 L 612 291.5 L 608 296.5 L 604 306 L 600 308 L 600 312 L 598 312 L 598 314 L 596 314 L 596 316 L 594 316 Q 595.1 318.7 592.5 318 L 585 327 L 579 329 L 577 333 L 573 333 L 573 335 L 569 335 L 569 337 L 565 337 Q 566.3 340 562.5 339 Q 561.4 341.8 558 341 Q 556.8 335.7 560 336.5 L 560 331.5 Q 563.5 329.8 562 324 L 564 324 L 564 320.5 Q 567.3 321.3 566 316 L 570 314 L 570 310 L 571.5 310 L 575 305.5 L 575 303 L 577 303 L 577 301 L 579 301 L 579 299 L 581 299 L 581 297 Q 583.7 298.1 583 295.5 L 587 293 L 587 291 Q 589.7 292.1 589 289.5 L 595 285 Q 593.9 282.3 596.5 283 L 601 280 L 601 278 Q 605.1 279.3 604 276 L 608 276 L 608 274 L 612 274 L 612 272 Q 617.2 273.7 616 270 Z " /><path fill="rgb(0,0,0)" stroke="rgb(0,0,0)" stroke-width="1" opacity="0" d="M 644.5 271 L 645 274.5 L 644 274.5 L 644.5 271 Z " /><path fill="rgb(0,0,0)" stroke="rgb(0,0,0)" stroke-width="1" opacity="0" d="M 621.5 272 L 622 275.5 L 621 275.5 L 621.5 272 Z " /><path fill="rgb(0,0,0)" stroke="rgb(0,0,0)" stroke-width="1" opacity="0" d="M 698 272 L 704 272 L 704 274 L 708 274 Q 706.9 276.7 709.5 276 Q 710.8 279 715 278 L 717.5 282 L 721 283 L 721 285 L 723 285 L 723 287 L 725 287 L 725 289 L 727 289 L 727 291 L 729 291 L 729 293 L 731 293 L 731 295 L 733 295 L 733 297 L 735 297 L 737 301 L 740 301 L 740 304.5 Q 742.8 305.6 742 309 L 744 309 L 744 312 Q 747 310.8 746 314.5 L 748 318 L 750 318 L 750 324 L 752 324 Q 750.3 329.2 754 328 L 754 333.5 Q 757 334.8 756 339 L 752 339 L 752 337 L 748 337 L 748 335 L 744 335 L 744 333 L 741 333 L 741 331 L 737 331 Q 738.1 328.3 735.5 329 Q 734.4 326.3 731 327 L 729 322 L 727 322 L 727 320 L 725 320 L 725 318 L 723 318 L 723 316 L 721 316 L 721 314 Q 718.3 315.1 719 312.5 L 716 308 L 712 306 L 712 303.5 L 708 298.5 L 708 295 L 706 295 L 706 291 Q 703 292.3 704 288.5 Q 701 287.3 702 283 Q 698.5 284.1 700 276.5 Q 697.3 275.4 698 272 Z " /><path fill="rgb(0,0,0)" stroke="rgb(0,0,0)" stroke-width="1" opacity="0" d="M 417.5 273 L 418 276.5 L 417 276.5 L 417.5 273 Z " /><path fill="rgb(0,0,0)" stroke="rgb(0,0,0)" stroke-width="1" opacity="0" d="M 642.5 280 L 643 282.5 L 641 283.5 L 642.5 280 Z " /><path fill="rgb(0,0,0)" stroke="rgb(0,0,0)" stroke-width="1" opacity="0" d="M 396.5 281 L 398 284.5 L 396 283.5 L 396.5 281 Z " /><path fill="rgb(0,0,0)" stroke="rgb(0,0,0)" stroke-width="1" opacity="0" d="M 420.5 285 Q 423.1 284.2 422 287.5 L 421 287.5 L 420.5 285 Z " /><path fill="rgb(0,0,0)" stroke="rgb(0,0,0)" stroke-width="1" opacity="0" d="M 640.5 286 L 641 288.5 L 640 288.5 L 640.5 286 Z " /><path fill="rgb(0,0,0)" stroke="rgb(0,0,0)" stroke-width="1" opacity="0" d="M 398.5 287 L 400 290.5 L 398 289.5 L 398.5 287 Z " /><path fill="rgb(0,0,0)" stroke="rgb(0,0,0)" stroke-width="1" opacity="0" d="M 400.5 293 L 401 295.5 L 400 295.5 L 400.5 293 Z " /><path fill="rgb(0,0,0)" stroke="rgb(0,0,0)" stroke-width="1" opacity="0" d="M 636.5 296 L 637 298.5 L 635 299.5 L 636.5 296 Z " /><path fill="rgb(0,0,0)" stroke="rgb(0,0,0)" stroke-width="1" opacity="0" d="M 610.5 300 L 609.5 302 L 610.5 300 Z " /><path fill="rgb(0,0,0)" stroke="rgb(0,0,0)" stroke-width="1" opacity="0" d="M 428.5 301 L 429.5 303 L 428.5 301 Z " /><path fill="rgb(0,0,0)" stroke="rgb(0,0,0)" stroke-width="1" opacity="0" d="M 634.5 301 L 635 302.5 L 628.5 313 L 629 311.5 L 634.5 301 Z " /><path fill="rgb(0,0,0)" stroke="rgb(0,0,0)" stroke-width="1" opacity="0" d="M 404.5 302 L 406 304.5 L 404 305 L 404.5 302 Z " /><path fill="rgb(0,0,0)" stroke="rgb(0,0,0)" stroke-width="1" opacity="0" d="M 608.5 303 L 607.5 305 L 608.5 303 Z " /><path fill="rgb(0,0,0)" stroke="rgb(0,0,0)" stroke-width="1" opacity="0" d="M 430.5 304 L 436 310.5 L 432 307.5 L 430.5 304 Z " /><path fill="rgb(0,0,0)" stroke="rgb(0,0,0)" stroke-width="1" opacity="0" d="M 603.5 310 L 602.5 312 L 603.5 310 Z " /><path fill="rgb(0,0,0)" stroke="rgb(0,0,0)" stroke-width="1" opacity="0" d="M 436.5 312 L 438.5 315 L 436.5 312 Z " /><path fill="rgb(0,0,0)" stroke="rgb(0,0,0)" stroke-width="1" opacity="0" d="M 627.5 314 L 627 315.5 L 624.5 319 L 626 316.5 L 627.5 314 Z " /><path fill="rgb(0,0,0)" stroke="rgb(0,0,0)" stroke-width="1" opacity="0" d="M 439.5 316 L 444.5 322 L 439.5 316 Z " /><path fill="rgb(0,0,0)" stroke="rgb(0,0,0)" stroke-width="1" opacity="0" d="M 623.5 320 L 622 322.5 Q 622.8 324.8 620.5 324 L 623.5 320 Z " /><path fill="rgb(0,0,0)" stroke="rgb(0,0,0)" stroke-width="1" opacity="0" d="M 448.5 325 L 449.5 327 L 448.5 325 Z " /><path fill="rgb(0,0,0)" stroke="rgb(0,0,0)" stroke-width="1" opacity="0" d="M 589.5 325 L 586.5 329 L 589.5 325 Z " /><path fill="rgb(0,0,0)" stroke="rgb(0,0,0)" stroke-width="1" opacity="0" d="M 451.5 327 L 455 329.5 L 453.5 330 L 451.5 327 Z " /><path fill="rgb(0,0,0)" stroke="rgb(0,0,0)" stroke-width="1" opacity="0" d="M 617.5 327 L 616.5 329 L 617.5 327 Z " /><path fill="rgb(0,0,0)" stroke="rgb(0,0,0)" stroke-width="1" opacity="0" d="M 615.5 330 L 614 332.5 L 612 335.5 L 611 335.5 L 615.5 330 Z " /><path fill="rgb(0,0,0)" stroke="rgb(0,0,0)" stroke-width="1" opacity="0" d="M 456.5 331 Q 458.8 330.3 458 332.5 L 456.5 331 Z " /><path fill="rgb(0,0,0)" stroke="rgb(0,0,0)" stroke-width="1" opacity="0" d="M 459.5 333 L 464 335 L 463.5 337 L 459.5 333 Z " /><path fill="rgb(0,0,0)" stroke="rgb(0,0,0)" stroke-width="1" opacity="0" d="M 578.5 333 L 580 333.5 L 571.5 339 L 571 337 L 573.5 337 L 578.5 333 Z " /><path fill="rgb(0,0,0)" stroke="rgb(0,0,0)" stroke-width="1" opacity="0" d="M 609.5 337 L 606.5 341 L 603.5 343 L 601 344.5 L 607 340 Q 605.9 337.3 608.5 338 L 609.5 337 Z " /><path fill="rgb(0,0,0)" stroke="rgb(0,0,0)" stroke-width="1" opacity="0" d="M 471.5 340 L 474 341.5 L 472.5 342 L 471.5 340 Z " /><path fill="rgb(0,0,0)" stroke="rgb(0,0,0)" stroke-width="1" opacity="0" d="M 562.5 342 L 564 342.5 L 561.5 344 L 562.5 342 Z " /><path fill="rgb(0,0,0)" stroke="rgb(0,0,0)" stroke-width="1" opacity="0" d="M 599.5 345 L 598.5 347 L 599.5 345 Z " /><path fill="rgb(0,0,0)" stroke="rgb(0,0,0)" stroke-width="1" opacity="0" d="M 444.5 349 L 445.5 351 Q 442.7 351.7 444.5 349 Z " /><path fill="rgb(0,0,0)" stroke="rgb(0,0,0)" stroke-width="1" opacity="0" d="M 447.5 351 L 448.5 353 Q 445.7 353.7 447.5 351 Z " /><path fill="rgb(0,0,0)" stroke="rgb(0,0,0)" stroke-width="1" opacity="0" d="M 591.5 351 L 590.5 353 L 591.5 351 Z " /><path fill="rgb(0,0,0)" stroke="rgb(0,0,0)" stroke-width="1" opacity="0" d="M 588.5 353 L 587.5 355 L 588.5 353 Z " /><path fill="rgb(177,178,167)" stroke="rgb(177,178,167)" stroke-width="1" opacity="0.14901960784313725" d="M 223 116 L 258.5 116 L 260.5 118 L 270 118 L 270.5 120 L 277.5 120 Q 276.5 123.5 283.5 122 Q 284.8 125 289 124 L 289 126 L 295 126 L 295 128 L 299 128 Q 297.8 131 301.5 130 L 308.5 135 L 312 135 L 314 139 L 318 139 L 320 143 L 324 143 L 324 145 L 326 145 L 326 147 L 328 147 Q 326.9 149.7 329.5 149 L 337 158 L 339 158 L 339 160 L 341 160 L 341 162 Q 343.7 160.9 343 163.5 Q 345.7 164.6 345 168 L 347 168 L 347 170 Q 349.7 168.9 349 171.5 Q 351.8 172.6 351 176 Q 353.7 174.9 353 177.5 L 362 192.5 L 362 197 Q 365.3 195.7 364 200.5 L 366 202.5 L 366 206.5 L 370 213.5 L 370 223.5 L 372 225.5 L 372 233 L 380.5 233 Q 382.4 236.8 389 235 L 389 224.5 L 391 222.5 L 391 214 L 393 214 L 393 208 L 395 207.5 L 395 202.5 L 398 200.5 L 397 198.5 L 398 195 L 400 195 L 400 191 L 402 191 L 402 187 L 404 187 L 404 183 L 406 183 L 406 179 L 408 179 L 408 176 Q 411 177.3 410 173.5 L 412 170 L 415 168.5 L 416 164 L 418 164 L 418 162 L 420 162 Q 418.9 159.3 421.5 160 L 425 158 L 427 153 L 429 153 L 429 151 L 431 151 L 431 149 L 433 149 L 433 147 L 435 147 Q 433.9 144.3 436.5 145 Q 437.6 142.2 441 143 L 441 141 Q 444 142 443 139 L 446 139 L 446 137 L 450 137 L 450 135 L 454 135 L 454 133 L 458 133 L 458 131.5 L 466.5 126 L 475 124 L 475 122 L 481 122 L 481 120 L 488.5 120 L 489.5 118 L 499.5 118 L 500.5 116 L 537.5 116 L 539.5 118 L 548.5 118 L 550.5 120 L 558 120 L 558 122 L 563.5 122 Q 562.5 125 567.5 124 Q 568.9 126.6 573.5 126 L 580.5 131 L 583 131 L 585 135 L 588.5 135 Q 587.7 138.2 593 137 L 593 139 L 595 139 Q 593.9 141.7 596.5 141 L 604 145 L 604 147 L 606 147 L 606 149 L 608 149 L 608 151 L 610 151 L 610 153 Q 612.7 151.9 612 154.5 L 614 158 L 616 158 L 616 160 L 618 160 Q 616.9 162.7 619.5 162 Q 624.4 164.6 625 170 Q 627.7 168.9 627 171.5 Q 629.8 172.6 629 176 L 631 176 Q 629.7 180.1 633 179 L 633 183 L 635 183 L 635 187 L 637 187 L 637 191 L 639 191 Q 637.3 196.2 641 195 L 641 199.5 Q 644.8 201.4 643 208 L 646 209.5 Q 645.2 214.8 648 216.5 L 648 222.5 L 650 225.5 L 650 232.5 L 652.5 235 Q 657.5 236 658.5 233 L 667 233 L 667 225.5 L 669 224.5 L 669 215.5 Q 672.5 213.8 671 208 L 673 208 L 673 200.5 Q 676 201.5 675 196.5 Q 678 195.3 677 191 L 679 191 L 679 187 L 681 187 L 681 183 Q 684 184.3 683 180.5 L 692 166 L 694 166 L 694 164 L 696 164 L 696 162 L 700 160 L 700 157.5 L 708.5 149 L 710 149 Q 708.9 146.3 711.5 147 L 715 145 L 715 143 L 719 143 L 721 139 L 723.5 139 L 727 137 L 727 135 L 731 135 Q 729.9 132.3 732.5 133 L 739.5 128 L 747.5 126 L 749.5 124 Q 754.5 125 755.5 122 L 761 122 L 761 120 L 767 120 L 767 118 L 778.5 118 L 779.5 116 L 816 116 L 816.5 118 L 824.5 118 Q 826.4 121.8 833 120 L 833 122 L 838.5 122 Q 837.5 125.3 843.5 124 L 845.5 126 L 853.5 128 L 859.5 133 L 862 133 Q 860.7 136.3 865.5 135 L 869 137 L 869 139 L 873 139 L 873 141 L 875 141 L 877 145 L 881 145 L 881 147 L 883 147 L 883 149 L 885 149 L 885 151 L 887 151 Q 885.9 153.7 888.5 153 L 890 156 L 892 156 L 892 158 L 894 158 L 894 160 L 896 160 L 896 162 L 900 164 L 900 168 L 904 170 L 904 174 L 908 176 L 908 178.5 Q 910.8 179.6 910 183 Q 912.7 181.9 912 184.5 Q 916.7 188.9 917 197 Q 920.3 195.7 919 200.5 Q 922.5 202.2 921 208 Q 925 206.6 923 213.5 Q 926.4 216.1 925 223.5 L 927 225.5 L 927 234.5 L 929 236.5 L 929 251 L 927 251.5 L 927 269.5 L 925 270.5 L 925 279.5 Q 921.5 278.5 923 285.5 Q 919.5 287.2 921 293 Q 917.3 291.6 919 297.5 Q 916 298.8 917 303 L 915 303 L 915 307 Q 912.3 305.9 913 308.5 Q 909.3 309.8 910 314 L 906 316 L 906 320 L 902 322 L 902 326 L 898 328 L 898 330.5 L 894.5 335 L 885 341 L 885 343 L 883 343 L 883 345 L 881 345 L 881 347 L 879 347 L 877 351 L 873 351 L 873 353 Q 870.3 351.9 871 354.5 L 864 358 L 864 360 L 860 360 L 860 362 L 856 362 L 856 364 Q 850.7 362.8 851.5 366 L 848.5 366 L 840.5 370 L 835 370 L 835 372 L 827.5 372 L 826.5 374 L 819.5 374 L 817.5 376 L 790.5 376 L 789 377.5 L 787 381.5 L 787 391.5 L 785 393.5 L 785 399.5 Q 781.5 401.2 783 407 L 781 407 Q 782.5 413.3 779 412.5 L 779 418 L 777 418 L 777 422 L 775 422 L 775 426 L 773 426 L 773 430 Q 770 428.8 771 432.5 L 766 441 L 762 443 L 762 445.5 L 760 449 Q 757.3 447.9 758 450.5 L 754 456 L 752 456 L 752 458 L 750 458 Q 751.1 460.7 748.5 460 Q 744.6 466.5 737 468 L 735 472 L 731 472 Q 732.1 474.7 729.5 474 Q 724.9 480.2 716 481 L 716 483 L 712 483 L 712 485 Q 706.8 483.3 708 487 L 702 487 L 701.5 489 L 695.5 489 L 694.5 491 Q 685.7 489.6 686.5 493 L 674.5 493 L 672.5 495 L 640 495 L 639.5 493 L 629.5 493 Q 627.6 489.3 621 491 L 621 489 L 614.5 489 L 614 487 L 608.5 487 Q 609.5 484 604.5 485 L 596 481 Q 597.3 477.7 592.5 479 L 587 476 L 585 472 L 581 472 L 579 468 L 575 468 L 575 466 L 573 466 L 573 464 L 571 464 L 571 462 L 569 462 Q 570.1 459.3 567.5 460 L 560 451 L 556 449 L 556 445 L 554 445 L 554 443 Q 551.3 444.1 552 441.5 Q 549.3 440.4 550 437 L 548 437 L 548 433 Q 545.3 434.1 546 431.5 L 541 424.5 L 541 422 Q 537.7 423.3 539 418.5 Q 535.8 417.1 537 412 L 535 412 L 535 407 L 533 407 L 533 399.5 L 531 398.5 L 531 391.5 L 529 390.5 L 529 376 L 512 376 Q 512.8 379.1 510 378.5 L 510 387.5 L 508 389.5 L 508 397 L 506 397.5 L 506 404.5 L 504 406.5 L 504 410.5 L 502 412.5 L 502 415.5 L 499 422 L 497 422 L 497 426 L 495 426 L 495 430.5 L 493 431 L 493 433.5 L 491 437 L 489 437 L 489 441 L 487 441 L 487 443 L 483 445 L 483 447.5 L 481 451 Q 478.3 449.9 479 452.5 L 474 456 L 474 458 L 472 458 L 472 460 L 470 460 L 470 462 L 468 462 Q 469.1 464.7 466.5 464 Q 465.4 466.7 462 466 L 462 468 L 460 468 L 458 472 L 454 472 Q 455.1 474.7 452.5 474 Q 451.2 477.7 447 477 Q 448.1 479.7 445.5 479 Q 443.5 481.8 439 481 Q 440.3 484.3 435.5 483 L 428.5 487 L 424 487 L 424 489 L 418 489 L 417.5 491 L 410.5 491 L 408.5 493 L 397 493 L 396.5 495 L 366.5 495 L 364.5 493 L 350 493 L 350 491 L 343.5 491 L 343 489 L 337.5 489 Q 338.5 485.7 332.5 487 Q 331.3 484 327 485 Q 328.3 481.7 323.5 483 L 317.5 479 L 314 479 Q 315.3 476 311.5 477 Q 310.2 473.2 306 474 L 306 472 L 304 472 Q 305.1 469.3 302.5 470 Q 301.4 467.3 298 468 Q 299.1 465.3 296.5 466 L 293 464 L 293 462 L 291 462 L 291 460 L 289 460 L 289 458 L 287 458 L 287 456 L 285 456 L 285 454 Q 282.3 455.1 283 452.5 L 281 449 Q 277.3 450.2 279 445 L 276 445 L 276 443 L 272 441 L 272 438.5 L 268 433.5 L 268 431 L 266 431 Q 267.3 426.9 264 428 L 264 424.5 Q 261.3 423.4 262 420 L 260 420 L 260 414 L 258 414 Q 259.7 408.8 256 410 L 256 401.5 Q 253 402.5 254 397.5 L 249 378 L 244.5 376 L 223.5 376 L 221.5 374 L 210 374 L 209.5 372 L 202.5 372 Q 201.3 369 197 370 L 197 368 L 191 368 L 191 366 L 187 366 L 187 364 Q 181.7 365.3 182.5 362 L 179.5 362 L 168 356 Q 169.1 353.3 166.5 354 L 164 353 L 162 349 L 158 349 L 158 347 L 156 347 Q 157.1 344.3 154.5 345 L 151 343 L 151 341 L 149 341 L 149 339 L 147 339 L 147 337 Q 144.3 338.1 145 335.5 L 143 332 Q 140 333.3 141 329.5 L 139 326 L 135 324 L 135 320 L 133 320 L 133 318 Q 130.3 319.1 131 316.5 L 126 307 L 124 307 L 124 303 L 122 303 Q 123.7 297.8 120 299 L 120 293.5 Q 117 294.5 118 289.5 L 116 287.5 L 116 280 L 114 280 L 114 272.5 L 112 271.5 L 112 252.5 L 111 250.5 L 112 246.5 L 111 242.5 L 112 241.5 L 112 222 L 114 221.5 L 114 214.5 L 116 213.5 L 116 206.5 Q 119.5 207.5 118 200.5 Q 121 199.3 120 195 Q 123.3 196.3 122 191.5 L 126 185.5 L 126 183 Q 129.3 184.3 128 179.5 Q 132.5 177 133 172 Q 135.7 173.1 135 170.5 Q 137.8 169.4 137 166 L 139 166 L 139 164 L 141 164 L 141 162 L 145 160 L 145 157.5 L 149 155 L 149 153 L 151 153 Q 149.9 150.3 152.5 151 L 158 147 L 160 143 L 164 143 L 164 141 L 166 141 L 168 137 L 172 137 L 172 135 L 176 135 Q 174.9 132.3 177.5 133 Q 178.7 129.3 183 130 L 183 128 L 187 128 L 187 126 Q 192.2 127.7 191 124 L 197 124 L 197.5 122 L 202.5 122 Q 204.2 118.5 210 120 L 210.5 118 L 222.5 118 L 223 116 Z M 511 118 L 483 123 L 475 127 L 472 127 L 470 129 L 467 129 L 461 133 Q 457 132 458 135 L 454 135 L 454 137 L 450 139 Q 447 138 448 141 L 445 142 L 431 154 Q 428 153 429 156 L 427 156 L 427 158 L 425 158 L 423 162 Q 424 164 421 163 L 410 180 Q 411 182 408 181 L 408 184 L 400 199 L 400 202 L 398 204 L 398 208 L 396 210 L 396 214 L 394 217 Q 395 223 392 227 Q 393 234 391 238 L 383 238 L 382 237 Q 374 236 370 238 L 365 212 L 355 188 L 347 175 L 336 162 Q 337 159 334 160 L 330 154 Q 327 155 328 152 L 326 152 L 326 150 L 311 139 L 292 129 L 276 123 L 271 123 L 267 121 L 256 120 L 255 119 L 230 119 L 223 121 L 216 121 L 201 125 L 183 133 L 156 152 Q 138 168 127 190 L 119 211 L 114 237 L 114 258 L 115 259 L 117 276 L 121 290 Q 131 315 148 333 L 150 336 L 166 349 L 190 363 L 202 368 L 218 372 L 226 372 L 235 374 L 251 374 L 254 373 L 254 384 L 256 388 L 256 393 L 259 405 L 263 416 Q 272 435 286 451 L 292 455 L 294 459 L 315 474 L 337 484 L 357 490 L 380 491 L 381 492 L 404 490 L 425 484 L 445 475 L 466 460 L 481 444 L 490 431 L 497 417 L 505 392 L 506 377 L 509 374 L 530 374 L 532 377 L 532 387 L 540 414 L 555 441 L 567 454 Q 566 456 569 455 L 569 457 L 586 470 L 607 482 L 624 488 L 646 492 L 680 491 L 700 486 Q 731 475 751 453 Q 750 450 753 451 L 766 434 L 777 412 L 783 394 Q 782 387 785 384 L 785 374 L 811 374 L 840 367 L 865 355 L 874 349 L 892 332 L 893 332 L 908 311 L 916 296 L 916 293 L 922 277 L 924 258 L 925 257 L 925 234 L 918 204 L 904 177 Q 895 163 883 152 Q 880 153 881 150 L 868 140 L 852 131 L 832 123 L 813 119 L 782 119 L 764 123 L 747 129 L 735 135 L 712 151 L 696 168 L 682 190 Q 681 197 677 201 L 673 215 L 670 229 L 670 236 L 669 237 L 649 237 L 647 236 L 645 219 L 643 216 L 641 205 L 635 190 L 620 168 Q 621 165 618 166 L 609 154 Q 606 155 607 152 L 584 135 Q 580 136 581 133 L 577 133 L 577 131 L 570 129 L 568 127 L 565 127 L 563 125 L 559 125 L 553 122 Q 546 123 544 120 L 528 119 L 527 118 L 511 118 Z " /><path fill="rgb(177,178,167)" stroke="rgb(177,178,167)" stroke-width="1" opacity="0.14901960784313725" d="M 237.5 140 L 251.5 140 L 252.5 141 L 263.5 142 L 280.5 147 Q 303.7 156.3 319 173.5 L 331 188.5 L 340 205.5 L 344 216.5 L 344 220.5 L 346 223.5 L 347 242.5 L 346 245 L 340.5 244 L 333.5 246 L 315.5 255 Q 298.4 265.9 285 280.5 L 270 301.5 L 263 315.5 L 258 327.5 L 258 331.5 L 254 345.5 L 254 352 L 242.5 353 L 241.5 352 L 225.5 352 L 202.5 346 L 180.5 334 L 167 322.5 L 161 315.5 Q 147.2 301.3 140 280.5 L 138 269.5 L 136 265.5 L 135 240.5 L 136 239.5 L 136 228.5 Q 138.8 225.8 138 219.5 L 144 202.5 Q 153.7 181.2 170.5 167 L 173.5 165 Q 186.6 152.6 205.5 146 L 218.5 142 L 236.5 141 L 237.5 140 Z M 243 143 L 241 145 L 221 145 L 220 147 L 213 147 L 211 149 Q 204 147 205 151 Q 201 150 200 153 Q 196 152 197 155 L 193 155 L 193 157 L 189 157 L 189 159 L 184 162 Q 181 161 182 164 L 180 164 L 180 166 L 174 170 Q 171 169 172 172 L 170 172 L 170 174 L 168 174 L 168 176 L 166 176 L 164 181 Q 165 183 162 182 L 162 184 L 159 186 Q 160 188 157 187 Q 158 190 155 192 Q 156 194 153 193 L 153 197 L 151 197 L 151 201 L 149 201 L 149 205 L 147 205 L 147 209 L 143 216 Q 144 222 141 225 L 141 232 L 139 235 L 139 260 Q 143 262 141 270 L 143 272 L 143 279 Q 147 278 145 283 L 147 283 L 147 289 Q 151 288 149 293 L 151 293 L 151 297 L 153 297 L 155 301 L 155 304 L 159 306 L 160 309 Q 159 311 162 310 L 162 312 L 164 312 L 164 314 L 166 314 L 166 316 L 168 316 L 168 318 L 170 318 L 170 320 L 172 320 L 172 322 L 174 322 L 174 324 L 176 324 L 178 328 L 178 329 L 182 329 L 182 331 L 186 333 Q 189 332 188 335 L 191 335 L 191 337 L 195 337 L 195 339 L 199 339 L 199 341 L 203 341 L 203 343 Q 209 342 211 345 L 217 345 L 219 347 L 228 347 L 231 349 L 249 349 Q 248 346 251 345 L 251 339 L 253 337 L 254 332 Q 253 326 256 327 L 256 320 L 258 320 Q 257 316 260 315 L 260 310 Q 264 311 262 306 L 264 306 L 264 302 Q 267 303 266 299 L 268 299 Q 267 296 270 295 Q 269 292 272 293 Q 271 290 274 289 Q 273 286 276 287 L 277 285 Q 276 282 279 283 L 279 281 L 281 281 L 281 279 L 283 279 L 283 276 L 285 276 L 288 272 Q 290 273 289 270 L 291 270 L 291 268 L 293 268 L 293 266 L 295 266 L 295 264 L 302 260 L 304 260 L 306 256 L 310 254 Q 313 255 312 253 L 322 247 L 325 247 Q 324 244 329 245 L 329 243 L 335 243 L 335 241 L 341 241 Q 340 238 343 239 L 343 227 L 341 226 L 341 219 L 337 211 L 337 208 Q 334 208 335 203 L 333 203 Q 334 199 331 198 Q 332 194 329 195 L 329 191 L 325 189 L 322 184 L 316 177 L 312 174 L 310 170 Q 307 171 308 168 L 306 168 L 306 166 L 304 166 L 304 164 Q 298 163 295 159 L 295 157 L 291 157 L 291 155 L 287 155 L 287 153 L 283 153 L 283 151 Q 278 152 277 149 Q 271 151 272 147 L 264 147 L 262 145 L 251 145 Q 249 142 243 143 Z " /><path fill="rgb(177,178,167)" stroke="rgb(177,178,167)" stroke-width="1" opacity="0.14901960784313725" d="M 507.5 141 L 537.5 142 L 555.5 147 L 574.5 157 L 577 157 Q 575.9 159.7 578.5 159 Q 590.8 166.7 600 177.5 L 615 200.5 L 621 216.5 L 625 237.5 L 623 243 L 606.5 248 L 588.5 258 Q 572.3 268.8 560 283.5 L 542 311.5 L 534 334.5 L 532 347.5 L 529.5 351 L 527.5 352 L 510.5 352 Q 509.4 349.3 506 350 L 505 347.5 L 505 337.5 Q 502.4 334.6 503 328.5 L 490 298.5 L 466.5 271 L 450.5 258 L 436.5 250 L 433.5 250 Q 427.7 245.3 418.5 244 L 414 240.5 L 416 222.5 L 424 199 Q 427 200.3 426 196.5 L 435 182 Q 437.7 183.1 437 180.5 L 449.5 167 L 452.5 165 Q 453.9 160.3 459 161 Q 457.9 158.3 460.5 159 L 469.5 153 L 485.5 146 L 507.5 141 Z M 514 143 L 512 145 L 500 145 Q 500 148 492 147 L 491 149 L 486 149 L 485 151 L 480 151 Q 480 155 474 153 L 474 155 L 470 155 L 470 157 L 466 157 L 466 159 L 462 162 Q 459 161 460 164 L 457 166 Q 454 165 455 168 Q 452 167 451 170 Q 448 169 449 172 L 447 172 L 447 174 L 445 174 L 445 176 L 443 176 L 443 178 L 441 178 L 441 180 L 439 180 L 439 184 L 437 184 L 435 188 Q 436 190 433 189 L 433 193 L 431 193 L 431 196 L 426 204 Q 427 206 424 205 Q 425 209 422 211 Q 424 217 420 217 L 420 224 L 418 224 L 418 239 Q 421 238 421 241 L 426 241 L 426 243 L 430 243 L 437 247 L 440 247 L 448 252 Q 450 251 449 254 L 453 256 L 456 256 L 458 260 L 460 260 L 460 262 L 463 262 L 463 264 L 467 266 Q 469 265 468 268 L 470 268 L 470 270 L 472 270 L 472 272 L 474 272 L 474 274 L 477 276 Q 476 278 479 277 L 479 279 L 481 279 L 481 281 L 483 281 L 483 285 L 487 287 L 487 289 L 489 289 Q 488 293 491 292 L 491 295 L 493 295 L 493 299 L 495 299 L 495 304 Q 498 303 497 308 L 499 308 L 502 315 L 502 318 L 504 320 L 504 324 L 506 326 L 506 331 L 508 333 L 508 342 Q 511 343 510 348 L 517 350 L 520 349 L 524 350 L 527 349 L 529 347 Q 527 339 531 338 Q 530 330 533 331 L 533 324 Q 537 324 535 318 L 537 318 L 537 314 L 546 299 Q 545 296 548 297 L 548 293 L 550 293 L 550 290 L 552 290 L 552 287 L 556 285 L 556 283 L 558 283 L 559 280 L 569 270 L 569 268 L 574 266 Q 576 267 575 264 L 577 264 L 577 262 L 579 262 L 579 260 Q 582 261 584 258 Q 586 259 585 256 L 587 256 L 587 254 Q 591 255 593 251 Q 597 252 596 249 L 601 247 L 604 247 Q 603 244 608 245 L 608 243 L 621 241 L 621 227 L 619 226 L 619 218 L 617 218 L 616 212 L 614 210 L 614 205 Q 610 206 612 201 L 610 201 L 610 197 L 608 197 L 608 193 L 606 193 L 604 190 Q 605 186 602 187 L 600 184 Q 601 181 598 182 L 598 178 L 594 176 L 594 174 L 591 172 Q 588 173 589 170 Q 586 171 585 168 Q 582 169 583 166 L 581 166 L 581 164 Q 576 163 574 159 Q 570 160 571 157 L 568 155 Q 563 156 564 153 Q 559 154 558 151 Q 553 152 554 149 L 548 149 L 548 147 L 540 147 L 538 145 L 521 145 Q 519 142 514 143 Z " /><path fill="rgb(177,178,167)" stroke="rgb(177,178,167)" stroke-width="1" opacity="0.14901960784313725" d="M 782.5 141 L 810.5 141 L 833.5 146 Q 850.1 152.9 863.5 163 L 879 178.5 L 886 187.5 L 897 209.5 L 903 232.5 L 903 256.5 Q 900.1 261.1 901 269.5 L 897 283.5 Q 890.8 299.1 882 311 Q 879.3 309.9 880 312.5 L 870.5 323 L 867.5 325 Q 854 338.5 834.5 346 L 820.5 350 L 814.5 350 L 810.5 352 L 787.5 352 L 785 349.5 L 783 335.5 L 772 306.5 L 757 283.5 L 740.5 267 L 710.5 248 L 707.5 248 L 705.5 246 L 694.5 243 L 691 240.5 Q 690.4 234.4 693 231.5 L 693 223.5 L 697 213.5 L 697 209.5 L 706 190.5 Q 716.4 174.9 730.5 163 L 749.5 151 L 767.5 144 L 782.5 141 Z M 793 143 L 791 145 L 776 145 L 774 147 L 767 147 L 766 149 L 760 149 Q 761 153 756 151 L 756 153 L 752 153 Q 752 156 747 155 L 747 157 L 745 157 L 739 162 Q 736 161 737 164 L 733 166 Q 730 165 731 168 L 729 168 L 729 170 L 727 170 L 727 172 L 725 172 L 725 174 L 723 174 L 723 176 L 721 176 L 721 178 L 719 178 L 716 183 Q 717 185 714 184 L 714 187 L 712 187 L 710 191 Q 711 194 708 193 L 708 197 L 706 197 L 706 201 L 704 201 L 704 205 L 702 205 L 702 211 L 700 211 Q 702 217 698 219 L 698 225 L 696 227 L 696 239 L 699 241 Q 704 240 705 243 L 708 243 Q 707 246 712 245 L 712 247 L 716 247 L 727 254 Q 730 253 729 256 Q 732 255 734 258 Q 736 257 735 260 L 737 260 L 737 262 L 741 262 L 741 264 L 745 266 Q 747 265 746 268 L 748 268 L 748 270 L 750 270 L 750 272 L 752 272 L 752 274 L 754 274 L 756 278 Q 755 280 758 279 L 758 281 L 760 281 L 760 283 L 762 283 L 762 287 L 764 287 Q 763 290 766 289 L 773 301 Q 772 303 775 302 L 775 306 L 777 306 L 777 310 L 779 310 L 779 316 L 781 316 Q 780 322 783 324 L 783 329 L 785 329 L 785 335 L 787 336 L 787 345 Q 790 344 789 347 L 794 349 Q 803 350 809 347 L 820 347 Q 821 344 827 345 L 829 343 Q 835 345 834 341 Q 838 342 840 339 L 844 339 Q 843 336 847 337 L 847 335 L 850 335 L 850 333 L 854 333 L 854 331 L 858 329 Q 860 330 859 327 L 863 326 Q 862 323 865 324 L 865 322 L 867 322 L 867 320 L 869 320 L 869 318 L 871 318 L 871 316 L 873 316 L 873 314 L 875 314 L 875 312 L 877 312 Q 876 309 879 308 Q 878 305 881 306 L 881 304 L 883 304 L 886 299 Q 885 296 888 297 L 888 293 L 890 293 L 890 289 L 892 289 Q 891 285 894 284 L 894 280 L 896 278 L 896 271 L 898 270 L 898 259 L 900 257 L 900 233 Q 897 231 898 225 L 896 223 L 896 217 Q 893 216 894 211 L 886 196 Q 887 192 884 193 L 884 191 L 879 185 L 879 182 L 875 180 L 875 178 L 873 178 L 873 176 L 871 176 L 871 174 L 869 174 L 869 172 L 867 172 L 867 170 L 865 170 L 865 168 L 863 168 L 863 166 L 861 166 L 861 164 L 859 164 L 853 159 L 850 159 L 848 155 L 843 155 Q 843 152 838 153 L 838 151 Q 834 152 833 149 L 829 149 L 827 147 L 819 147 L 817 145 L 807 145 L 805 143 L 793 143 Z " /><path fill="rgb(177,178,167)" stroke="rgb(177,178,167)" stroke-width="1" opacity="0.14901960784313725" d="M 370.5 258 Q 378.4 260.6 390.5 259 L 392 260.5 L 394 275.5 L 396 278.5 L 396 283.5 Q 399 284.5 398 289.5 L 400 291.5 L 400 296 Q 403.3 294.7 402 299.5 Q 405 300.8 404 305 Q 406.7 303.9 406 306.5 L 421 330 L 423 330 L 423 332 L 425 332 L 425 334 Q 427.7 332.9 427 335.5 L 429 339 L 444 349 L 444 351 L 447 351 L 447 353 L 450 353 Q 448.8 356 452.5 355 L 454 358 L 460 360 Q 458.7 363.3 463.5 362 L 464.5 364 L 461.5 364 L 452.5 358 L 450 358 L 449.5 355 L 447.5 356 L 443 353 L 443 351 L 439 351 L 439 349 L 437 349 L 437 347 L 435 347 L 435 345 L 433 345 L 433 343 L 431 343 L 431 341 L 429 341 Q 430.1 338.3 427.5 339 L 423 336 L 423 334 Q 420.3 335.1 421 332.5 L 418 328 L 416 328 L 416 326 L 412 324 L 412 320 Q 409.3 321.1 410 318.5 Q 407.3 317.4 408 314 L 406 314 Q 407.2 308.7 404 309.5 L 404 306.5 Q 401 305.3 402 301 L 400 301 L 400 297 Q 397.3 298.1 398 295.5 L 397 292.5 L 397.5 291 L 395 289.5 L 396 285.5 L 393 283.5 Q 391.5 278 394 276.5 L 391 276 L 391 267.5 L 392 266.5 L 389 266 Q 390.5 262.2 387.5 263 L 386.5 262 L 374 262 L 374 264 L 372 264 Q 372.8 267.1 370 266.5 L 370 273.5 L 368 274.5 L 368 282.5 Q 364.8 281.6 366 289.5 Q 362.5 291.2 364 297 L 362 297 L 362 301 L 360 301 Q 361.2 306.3 358 305.5 L 358 308.5 L 352.5 316 L 351 316 L 351 320 L 349 320 L 349 324 L 347 324 L 347 326 L 345 326 L 345 328 Q 342.3 326.9 343 329.5 L 341 333.5 L 331.5 343 Q 328.9 342.3 330 345 L 328 345 L 328 347 L 326 347 L 326 349 L 322 349 L 320 353 L 317.5 353 L 312.5 358 L 304.5 362 L 301 362 L 301 364 L 297 364 L 297 366 Q 291.8 364.3 293 368 L 287 368 L 286.5 370 L 280 370 Q 280.8 373.1 278 372.5 L 278 383 Q 281.3 381.7 280 386.5 L 283 393.5 L 283 400 L 285 400 L 285 406 L 287 406 L 287 410 L 289 410 L 289 414 L 291 414 L 291 417 Q 294 415.8 293 419.5 L 297 424.5 L 297 427 L 299 427 L 299 429 L 303 431 L 303 435 L 304.5 435 L 308 437 L 308 439 L 310 439 Q 308.9 441.7 311.5 441 L 320 448.5 L 320 450 L 324 450 L 326 454 L 331 454 L 331 456 L 334.5 456 Q 333.7 459.3 339 458 L 339 460 L 344.5 460 Q 343.5 463.3 349.5 462 L 351.5 464 L 359.5 464 L 361.5 466 Q 369.6 464.4 372.5 468 L 388.5 468 L 390.5 466 L 401.5 466 L 403.5 464 L 409.5 464 L 417.5 460 L 422 460 L 422 458 L 426.5 458 L 427 456 L 429.5 456 L 433 454 L 433 452 L 437 452 L 439 448 L 441.5 448 L 448 443 L 448 441 L 450 441 L 450 439 L 452 439 L 452 437 L 454 437 L 454 435 L 456 435 L 456 433 L 458 433 L 458 431 L 462 429 L 462 426.5 L 464 423 Q 466.7 424.1 466 421.5 L 471 412 L 473 412 L 473 408 L 475 408 Q 473.3 402.8 477 404 L 477 396.5 L 479 395.5 L 479 389.5 Q 482.2 390.4 481 382.5 L 483 380.5 L 483 372 Q 480 373 481 370 L 477 370 L 477 368 Q 482.3 366.7 481.5 370 L 485.5 370 Q 488.5 370.5 488 374.5 L 486 378.5 L 486 383.5 L 482 397.5 L 474 417.5 Q 465 432.5 452.5 444 Q 436.6 459.1 413.5 467 L 392.5 471 L 367.5 471 L 362.5 469 L 348.5 467 L 337.5 463 L 322.5 455 L 309 444.5 Q 309.8 442.3 307.5 443 Q 290.9 427.6 281 405.5 L 275 382.5 L 275 369.5 L 279.5 367 L 284.5 367 L 289.5 365 L 310.5 354 Q 325.5 344.5 337 331.5 L 355 305.5 L 363 285.5 L 368 266.5 L 368 261.5 L 370.5 258 Z " /><path fill="rgb(177,178,167)" stroke="rgb(177,178,167)" stroke-width="1" opacity="0.14901960784313725" d="M 649.5 259 L 667.5 259 L 671 261 L 672 275.5 L 680 298.5 L 689 314.5 L 703 334 L 704.5 334 L 720.5 349 L 732.5 357 L 743.5 363 L 764 370 L 764 377.5 L 761 393.5 L 755 409.5 L 745 426.5 L 734 440 L 732 440 Q 733.1 442.7 730.5 442 L 716.5 454 L 694.5 465 L 670.5 471 L 646.5 471 L 639.5 469 L 633.5 469 L 616.5 463 L 591 448 Q 592.1 445.3 589.5 446 L 584 442 Q 585.1 439.3 582.5 440 Q 569 426 560 407.5 L 553 385.5 L 552 370 L 557.5 370 Q 556.7 366.7 562 368 L 562 370 L 558 370 Q 559 373 556 372 L 556 384.5 Q 559.8 386.4 558 393 Q 561.7 391.6 560 397.5 Q 563.3 398.9 562 404 L 564 404 L 564 408 L 566 408 L 566 412 L 568 412 L 568 416 Q 571 414.8 570 418.5 L 573 423 Q 575.7 421.9 575 424.5 L 577 429 L 579 429 L 579 431 L 581 431 L 581 433 L 583 433 L 583 435 L 585 435 L 585 437 L 587 437 L 587 439 L 589 439 L 589 441 L 591 441 L 591 443 L 593 443 Q 591.9 445.7 594.5 445 Q 595.8 448.8 600 448 L 602 452 L 604.5 452 L 608 454 L 608 456 L 612 456 L 612 458 Q 617.2 456.3 616 460 L 620.5 460 Q 622 463.3 627 462 Q 625.9 465.5 633.5 464 L 635.5 466 L 650.5 466 Q 653.4 469.6 661.5 468 Q 667.6 464.6 678.5 466 L 680.5 464 Q 686.3 465.3 687.5 462 L 694 462 L 694 460 L 699.5 460 Q 698.7 456.8 704 458 L 704 456 L 707 456 L 707 454 Q 711.1 455.3 710 452 L 715 452 L 715 450 L 717 450 Q 715.9 447.3 718.5 448 L 723 445 L 723 443 L 725 443 L 725 441 L 727 441 L 727 439 L 729 439 L 729 437 L 731 437 L 731 435 L 733 435 L 733 433 L 735 433 Q 733.9 430.3 736.5 431 L 740 429 L 740 425 Q 742.7 426.1 742 423.5 L 744 420 L 746 420 L 746 416 L 748 416 L 748 412 L 750 412 L 750 408 L 752 408 Q 750.8 402.7 754 403.5 L 754 400.5 Q 757 398.5 756 392.5 L 758 390.5 L 758 384.5 L 760 382.5 L 760 372 Q 755.8 373 756.5 370 L 752 370 L 752 368 L 746 368 L 746 366 L 741.5 366 L 727 358 Q 728.3 355 724.5 356 L 721 351 L 717 351 L 717 349 L 715 349 Q 716.1 346.3 713.5 347 L 710 345 Q 711.3 342 707.5 343 L 702 335 L 700 335 L 700 333 Q 697.3 334.1 698 331.5 L 696 328 L 692 326 L 692 322 L 690.5 322 L 685 314.5 L 685 312 Q 682.3 313.1 683 310.5 Q 680 309.3 681 305 L 679 305 L 679 301 L 677 301 Q 678.7 295.8 675 297 L 675 291 L 673 291 L 673 285 L 671 284.5 Q 672.2 276.6 669 277.5 L 669 266 Q 665.9 266.8 666.5 264 L 661.5 264 L 657.5 263 L 656.5 264 L 650 264 Q 650.8 267.4 648 268.5 L 648 274.5 L 646.5 276 Q 643.9 275.2 645 278.5 L 646 281.5 Q 641.7 284 643 291 L 641 291 Q 642.7 296.2 639 295 L 639 301 L 637 301 Q 638.3 306.3 635 305.5 L 635 308.5 L 631 316 L 629 316 L 629 320 L 627 320 Q 628.1 322.7 625.5 322 L 618 333 L 614 335 L 614 337.5 L 606 343 L 606 345 L 604 345 L 604 347 L 602 347 Q 603.1 349.7 600.5 349 Q 599.3 352 595 351 L 591.5 356 L 589 356 Q 590.1 358.7 587.5 358 L 584.5 360 L 583 359.5 L 581.5 362 L 574 364 L 574 366 L 569 366 Q 567.7 362.7 572.5 364 L 590.5 353 L 594.5 349 L 597 349 Q 595.9 346.3 598.5 347 L 605 343 Q 603.9 340.3 606.5 341 L 610 336 L 612 336 L 612 334 Q 614.7 335.1 614 332.5 L 618 326 L 620 326 L 620 324 Q 622.7 325.1 622 322.5 L 631 310.5 L 637 298.5 L 637 295 L 639 295 L 639 289.5 Q 642.3 290.5 641 284.5 L 643 282.5 Q 641.5 276 645 274.5 L 645 267.5 L 647 261.5 L 649.5 259 Z " /><path fill="rgb(177,178,167)" stroke="rgb(177,178,167)" stroke-width="1" opacity="0.14901960784313725" d="M 343.5 263 L 346 264.5 L 346 270.5 L 338 292.5 Q 329.1 310.1 315.5 323 L 312.5 325 Q 298.8 340.5 276 346 L 280 328.5 L 289 309.5 L 298 296.5 L 311.5 283 L 321.5 275 L 340.5 266 L 343.5 263 Z M 341 270 L 330 276 L 327 276 Q 327 279 322 278 L 317 285 L 314 285 L 312 289 L 310 289 L 310 291 L 308 291 L 308 293 L 306 293 L 306 295 L 303 295 L 303 299 L 299 301 L 299 303 L 297 303 Q 298 307 295 309 Q 296 311 293 310 L 293 313 L 287 323 Q 288 327 285 326 Q 286 330 283 332 L 283 339 L 289 339 Q 288 335 293 337 L 293 335 L 297 333 Q 300 334 299 331 L 303 329 Q 305 330 304 327 L 306 327 L 306 325 L 308 325 L 308 323 L 311 322 Q 313 323 312 320 L 314 320 L 314 318 L 316 318 L 316 316 L 318 316 L 320 313 L 320 310 L 324 308 L 324 306 L 327 305 Q 326 301 329 302 L 329 299 L 331 299 Q 330 296 333 295 L 333 292 Q 336 292 335 287 L 337 287 L 337 283 L 339 283 L 339 277 L 341 277 L 341 270 Z " /><path fill="rgb(177,178,167)" stroke="rgb(177,178,167)" stroke-width="1" opacity="0.14901960784313725" d="M 417.5 265 L 433.5 272 L 444.5 279 L 460 293.5 L 467 301.5 L 482 329.5 L 485 344 L 478.5 344 L 468 339 L 468 337 L 464 337 Q 465.1 334.3 462.5 335 Q 461.4 332.3 458 333 L 458 331 L 455 331 Q 456.1 328.3 453.5 329 L 445 323 L 430 303.5 L 428 298 L 426 298 Q 427.3 292.7 424 293.5 L 424 290.5 Q 421 289.3 422 285 Q 418.7 286.3 420 281.5 L 418 278.5 L 418 273.5 Q 415.2 271.8 416 266.5 L 417.5 265 Z M 420 270 L 420 277 L 422 277 L 422 284 L 433 303 Q 432 305 435 304 L 435 306 L 437 306 L 437 310 L 439 310 L 439 312 L 441 312 L 441 314 L 443 314 L 443 316 L 445 316 L 445 318 L 447 318 L 447 320 L 449 320 L 449 322 L 451 322 Q 450 325 453 324 L 457 329 L 460 329 L 462 333 L 466 333 L 468 337 Q 473 336 473 339 L 478 339 L 478 341 L 479 341 L 479 332 L 477 330 L 477 327 Q 474 327 475 322 L 473 322 L 462 304 L 462 301 L 458 299 L 458 297 L 456 297 L 456 295 L 454 295 L 454 293 L 452 293 L 450 289 Q 447 290 448 287 L 439 280 Q 436 281 437 278 L 435 278 L 435 276 L 431 276 L 431 274 L 427 274 L 427 272 L 423 272 Q 424 269 420 270 Z " /><path fill="rgb(177,178,167)" stroke="rgb(177,178,167)" stroke-width="1" opacity="0.14901960784313725" d="M 618.5 266 Q 622.5 265.5 623 268.5 Q 620 271.5 621 278.5 L 619 280.5 L 619 283.5 L 617 285.5 L 615 292.5 L 596 320 L 594 320 L 594 322 Q 591.3 320.9 592 323.5 L 584 329 L 584 331 L 581 331 Q 582.3 334 578.5 333 L 573.5 337 L 571 337 Q 572.1 339.7 569.5 339 L 560.5 344 L 555.5 345 Q 553.3 344.3 554 340.5 L 560 322.5 L 568 307.5 L 588.5 284 Q 601.5 273 618.5 266 Z M 616 270 Q 617 274 612 272 L 612 274 L 608 274 L 608 276 L 604 276 Q 605 279 601 278 L 601 280 L 597 283 Q 594 282 595 285 L 589 290 Q 590 292 587 291 L 587 293 L 583 296 Q 584 298 581 297 L 581 299 L 579 299 L 579 301 L 577 301 L 577 303 L 575 303 L 575 306 L 572 310 L 570 310 L 570 314 L 566 316 Q 567 321 564 321 L 564 324 L 562 324 Q 564 330 560 332 L 560 337 Q 557 336 558 341 Q 561 342 563 339 Q 566 340 565 337 L 569 337 L 569 335 L 573 335 L 573 333 L 577 333 L 579 329 L 585 327 L 593 318 Q 595 319 594 316 L 596 316 L 596 314 L 598 314 L 598 312 L 600 312 L 600 308 L 604 306 L 608 297 L 612 292 L 617 279 Q 616 276 619 277 L 619 270 L 616 270 Z " /><path fill="rgb(177,178,167)" stroke="rgb(177,178,167)" stroke-width="1" opacity="0.14901960784313725" d="M 694.5 266 L 703.5 269 L 716.5 276 L 732 288 L 732 290 Q 734.7 288.9 734 291.5 Q 755.4 311.3 762 345 L 751.5 342 L 738.5 335 L 720 319.5 L 716 313 Q 713.3 314.1 714 311.5 L 708 304.5 L 699 288.5 L 693 267.5 L 694.5 266 Z M 698 272 Q 697 275 700 277 Q 699 284 702 283 Q 701 287 704 289 Q 703 292 706 291 L 706 295 L 708 295 L 708 299 L 712 304 L 712 306 L 716 308 L 719 313 Q 718 315 721 314 L 721 316 L 723 316 L 723 318 L 725 318 L 725 320 L 727 320 L 727 322 L 729 322 L 731 327 Q 734 326 736 329 Q 738 328 737 331 L 741 331 L 741 333 L 744 333 L 744 335 L 748 335 L 748 337 L 752 337 L 752 339 L 756 339 Q 757 335 754 334 L 754 328 Q 750 329 752 324 L 750 324 L 750 318 L 748 318 L 746 315 Q 747 311 744 312 L 744 309 L 742 309 Q 743 306 740 305 L 740 301 L 737 301 L 735 297 L 733 297 L 733 295 L 731 295 L 731 293 L 729 293 L 729 291 L 727 291 L 727 289 L 725 289 L 725 287 L 723 287 L 723 285 L 721 285 L 721 283 L 718 282 L 715 278 Q 711 279 710 276 Q 707 277 708 274 L 704 274 L 704 272 L 698 272 Z " /><path fill="rgb(177,178,167)" stroke="rgb(177,178,167)" stroke-width="1" opacity="0.14901960784313725" d="M 467 364 Q 470 363 469 366 Q 466 367 467 364 Z " /><path fill="rgb(177,178,167)" stroke="rgb(177,178,167)" stroke-width="1" opacity="0.14901960784313725" d="M 470.5 366 L 475 366.5 L 471.5 368 L 470.5 366 Z " /><path fill="rgb(177,178,167)" stroke="rgb(177,178,167)" stroke-width="1" opacity="0.14901960784313725" d="M 564 366 Q 569.2 364.3 568 368 Q 562.8 369.7 564 366 Z " /><path fill="rgb(226,111,71)" stroke="rgb(226,111,71)" stroke-width="1" opacity="0.9372549019607843" d="M 781.5 119 L 812.5 119 L 831.5 123 L 855.5 133 L 881 150 Q 879.9 152.7 882.5 152 Q 894.9 162.6 904 176.5 L 918 203.5 L 925 233.5 L 925 256.5 L 924 257.5 L 922 276.5 L 916 292.5 L 916 295.5 L 908 310.5 L 893 332 L 891.5 332 L 873.5 349 L 849.5 363 L 832.5 369 L 810.5 374 L 785.5 374 L 783.5 376 L 767.5 373 L 759.5 368 L 739.5 361 L 720.5 349 L 704.5 334 L 703 334 L 689 314.5 L 680 298.5 L 672 275.5 L 671 261 L 677.5 260 L 682.5 262 L 692 263 L 699 288.5 L 714 313 Q 716.7 311.9 716 314.5 L 721.5 321 Q 736.7 337.8 761.5 345 L 763.5 345 Q 772.1 345.4 777.5 349 L 783.5 349 L 787.5 352 L 810.5 352 L 839.5 344 L 852.5 337 L 869 325 Q 867.9 322.3 870.5 323 L 880 311 Q 882.7 312.1 882 309.5 Q 893.5 296.5 899 277.5 Q 898.3 271.8 901 269.5 L 901 262.5 L 903 256.5 L 903 232.5 L 897 209.5 L 890 194.5 Q 879.4 176.1 863.5 163 Q 850.1 152.9 833.5 146 L 810.5 141 L 782.5 141 L 767.5 144 L 745.5 153 Q 727.4 162.9 715 178.5 Q 705 189.5 699 204.5 L 693 223.5 L 693 231.5 L 691 239.5 L 689.5 241 L 677.5 240 L 675.5 241 L 670 238.5 L 671 222.5 L 676 203.5 L 682 189.5 L 696 167.5 L 711.5 151 Q 726.9 137.9 746.5 129 L 763.5 123 L 781.5 119 Z " /><path fill="rgb(226,111,71)" stroke="rgb(226,111,71)" stroke-width="1" opacity="0.9372549019607843" d="M 391.5 235 L 395.5 238 L 411.5 240 L 413.5 236 Q 413 241.5 416.5 243 Q 426.6 244.9 433.5 250 L 436.5 250 L 450.5 258 L 474 278.5 L 490 298.5 L 493 304.5 L 503 328.5 Q 502.4 334.6 505 337.5 L 505 347.5 L 506 350 L 510 351.5 L 507.5 352 L 492.5 349 L 480 344.5 L 485 344 L 482 329.5 L 475 315.5 L 467 303.5 L 467 301.5 L 452.5 286 L 433.5 272 L 417.5 265 L 415.5 269 L 413.5 265 L 400.5 261 L 393 261 L 392.5 264 L 390.5 259 L 374.5 259 L 371 258 L 371 245.5 L 370 243.5 L 371 238 Q 374 236 381.5 237 L 382.5 238 L 391 238 L 391.5 235 Z " /><path fill="rgb(226,111,71)" stroke="rgb(226,111,71)" stroke-width="1" opacity="0.9372549019607843" d="M 340.5 244 L 346 245 L 346 260.5 L 345 263 L 321.5 275 L 298 296.5 L 289 309.5 L 279 331.5 L 275 348.5 L 275 366.5 L 276 368.5 L 275 369.5 L 275 382.5 L 280 402.5 L 284 411.5 Q 293.2 429.8 307.5 443 Q 309.8 442.3 309 444.5 L 322.5 455 L 337.5 463 L 348.5 467 L 362.5 469 L 367.5 471 L 392.5 471 L 413.5 467 L 431.5 459 Q 447.4 450.4 459 437.5 Q 470.4 425.4 478 409.5 L 485 387.5 L 488 372.5 L 486.5 370 L 505.5 373 L 508 374.5 L 506 376.5 L 506 385.5 L 503 399.5 L 497 416.5 L 490 430.5 L 481 443.5 L 465.5 460 L 444.5 475 L 424.5 484 L 403.5 490 L 380.5 492 L 379.5 491 L 356.5 490 L 336.5 484 L 314.5 474 L 294 459 L 291.5 455 L 286 450.5 Q 270.6 433.4 261 410.5 L 256 392.5 L 256 387.5 L 254 383.5 L 253 352.5 L 258 327.5 L 270 301.5 L 285 280.5 L 294.5 271 L 315.5 255 L 333.5 246 L 340.5 244 Z " /><path fill="rgb(9,9,9)" stroke="rgb(9,9,9)" stroke-width="1" opacity="0.9372549019607843" d="M 505.5 119 L 533.5 119 L 534.5 120 L 546.5 121 L 566.5 127 L 594.5 143 L 614 160.5 Q 629.4 177.6 639 200.5 L 645 221.5 L 645 229.5 L 648 242.5 L 648 252.5 L 648 254.5 L 645 263.5 L 645 270.5 Q 642.4 273.4 643 279.5 L 636 298.5 Q 625.3 321.3 608.5 338 L 605.5 340 Q 585.4 360.4 553.5 369 L 552 367.5 L 552 357.5 L 553 356.5 L 553 348.5 L 555.5 346 Q 583.8 335.8 601 314.5 Q 612 301.5 619 284.5 L 623 271.5 L 624 248.5 L 625 246.5 L 624 243.5 L 625 242.5 L 625 230.5 L 623 226.5 L 623 221.5 Q 620.2 219.8 621 214.5 L 619 211.5 L 619 207.5 L 613 195.5 L 598 174 L 596 174 L 596 172 L 594 172 L 594 170 L 592 170 Q 593.1 167.3 590.5 168 L 586 165 Q 587.1 162.3 584.5 163 L 573.5 155 Q 560.7 147.3 544.5 143 L 533.5 142 L 532.5 141 L 512.5 140 L 490.5 144 L 470.5 152 Q 451.6 162.1 438 177.5 L 422 202.5 L 422 205.5 L 420 207.5 L 420 210.5 L 416 219.5 L 414 235.5 L 411.5 240 L 395.5 238 L 392 235.5 L 396 210.5 L 398 208.5 L 398 205.5 L 408 183.5 Q 419.1 164.1 435.5 150 L 453.5 137 L 472.5 127 L 475.5 127 L 483.5 123 L 488.5 123 L 492.5 121 L 504.5 120 L 505.5 119 Z " /><path fill="rgb(9,9,9)" stroke="rgb(9,9,9)" stroke-width="1" opacity="0.9372549019607843" d="M 393 261 L 400.5 261 Q 402.8 263.7 408.5 263 L 415 266.5 Q 417.4 282.6 424 294.5 Q 434 313.5 449.5 327 L 468.5 340 L 482.5 346 L 507.5 352 L 528.5 352 L 531 353 L 530 372.5 L 528.5 374 L 506.5 374 L 505.5 373 L 494.5 372 L 485.5 370 L 467.5 363 L 443.5 349 L 422 329.5 Q 409.8 315.7 402 297.5 L 396 280.5 L 396 276.5 L 394 273.5 L 393 261 Z " /></svg>