<svg width="1061" height="619" version="1.1" xmlns="http://www.w3.org/2000/svg" desc="Created with imagetracer.js version 1.2.6" ><path fill="rgb(29,100,131)" stroke="rgb(29,100,131)" stroke-width="1" opacity="0.6549019607843137" d="M 327 149 L 351.5 149 L 353.5 151 Q 360.3 149.3 362 152.5 L 362.5 154 L 369 154 L 369 156 L 374 156 L 374 157.5 L 377 159 Q 375.8 162 379.5 161 L 387 167.5 Q 386.2 170.5 390 169 L 390 172 L 392 172 Q 390.9 174.7 393.5 174 Q 396 175.2 395 179 L 397 179 L 397 182 Q 399.7 180.9 399 183.5 L 403 191.5 L 403 196.5 L 405 198.5 L 405 210 L 407 210.5 L 407 218.5 L 405 221.5 L 405 227.5 Q 401.5 229.7 402 235 Q 399 234 400 237 L 395 237 Q 396 234 393 235 L 393 232.5 Q 390.2 230.7 392 224.5 L 390 222.5 L 390 214 Q 387.3 215.1 388 212.5 L 387 207 L 385 207 L 385 202 L 383.5 202 Q 381 200.8 382 197 L 380 197 Q 381.5 193.2 378.5 194 L 375 187 L 372 187 L 372 184 L 370 184 Q 371.1 181.3 368.5 182 L 365 181 Q 366.1 177.7 362 179 L 362 176 Q 355.7 177.5 356.5 174 L 352.5 174 L 351 171 L 329.5 171 L 329 172.5 L 319 176 L 317.5 179 L 311 182 L 311 184 L 308 184 Q 309.1 186.7 306.5 186 L 306.5 187 Q 308.8 186.3 308 188.5 L 309 193.5 L 306 199 L 302 200.5 Q 302.7 203.1 300 202 L 300 204 L 295.5 204 L 295.5 206 L 279.5 212 L 251.5 212 L 247.5 210 L 240.5 209 L 234.5 206 L 232.5 207 L 229.5 206 L 227.5 207 L 225 205.5 L 225.5 204 Q 220.8 205.3 219.5 203 Q 218 205.5 216.5 202 L 210.5 201 L 209 201.5 L 208.5 200 L 207.5 202 L 206.5 199 L 205.5 201 L 205 199 L 200.5 198 L 198.5 199 L 193 197.5 L 193.5 196 L 185 197 L 184.5 195 Q 183.5 198 178.5 197 L 178.5 196 L 182 195.5 L 174.5 194 Q 173.8 197.7 168.5 197 L 168.5 196 Q 172.3 197 171 194 Q 165.5 193.2 162.5 196 L 156.5 196 L 143 205.5 L 143 207 L 141 207 Q 142.1 209.7 139.5 209 L 135 216.5 L 135.5 218 L 133 217 L 132 220.5 Q 134.3 221.8 131.5 223 L 130 223.5 L 131 225.5 L 130 225.5 L 129.5 224 Q 126.9 225.4 127.5 230 L 126 229.5 L 125 235.5 L 125.5 237 Q 124.3 234.8 123 237.5 L 122 242.5 L 122.5 244 L 121 244.5 L 122 246.5 Q 119.5 248 123 249.5 L 122.5 251 L 121 250.5 L 122 252.5 L 120 256.5 L 121 257.5 L 121 270.5 L 120 274.5 L 121 276.5 L 120.5 280 L 122.5 279 L 122 280.5 L 121 282.5 Q 124.5 284 122 285.5 L 124 291.5 L 123 297 L 125 297 L 125 304 Q 129.1 302.3 128 306.5 L 131 310.5 L 131 312.5 L 133 315.5 L 131 316 L 134.5 324 L 136 324.5 L 135 326.5 L 136.5 329 L 138 328.5 Q 136.5 332.9 139.5 332 Q 142.3 333.3 141 338.5 L 148.5 351 Q 151.1 350.2 150 353.5 L 158.5 368 L 160 367.5 L 161 369.5 L 160.5 371 L 163 372.5 L 164.5 376 L 166 375.5 L 166 377.5 L 167.5 381 L 169 380.5 L 169 382.5 L 169.5 384 L 171 383.5 L 171 385.5 L 173 390 L 176 391.5 L 176 394.5 L 179 398.5 Q 176.8 399.8 179.5 401 L 182 402.5 L 181 406 L 186 408 L 189 412.5 L 186 411.5 L 188.5 415 L 192 417.5 L 192 419 Q 188.2 417.5 189 420.5 L 187.5 422 L 185 421.5 L 188 420.5 Q 188.8 417.9 185.5 419 L 176 410.5 L 174.5 408 L 167 405 Q 168.1 402.3 165.5 403 L 162.5 399 L 161 399.5 L 159 395 L 156 393.5 Q 156.7 390.9 154 392 L 154 389.5 L 151 388.5 L 149 385.5 L 147.5 383 L 146 383.5 Q 148.3 382.3 145.5 381 L 144 380.5 Q 146.3 379.3 143.5 378 Q 141.3 378.8 142 376.5 L 141.5 374 L 139 374 Q 140.1 371.3 137.5 372 L 134 367.5 L 134.5 366 L 133 365.5 L 134 362.5 L 132.5 363 L 131 362.5 Q 133.3 361.2 130.5 360 L 129 360.5 L 122 348.5 L 123 346.5 L 121 346.5 L 120.5 343 L 119 343.5 L 118 340.5 L 118.5 339 Q 113.9 340.4 116 334.5 L 108 318.5 L 108 316.5 Q 105.2 313.8 106 307.5 L 104.5 306 L 103 306.5 L 104 303.5 L 102.5 301 L 101 301.5 L 102 299.5 L 100 299.5 Q 102.2 298.2 101 293.5 L 98 292 L 99 287.5 L 95 279.5 L 97 278.5 Q 93.5 277 96 275.5 Q 96.6 270.9 94 269.5 L 95 265 L 93 264.5 L 94 261.5 L 93 259.5 L 93 257.5 L 94 251.5 L 92 246.5 L 94 246 L 94 238.5 L 93 237.5 L 95 235.5 L 96 226 L 94 225.5 L 96 224.5 L 96 222.5 L 98 216 L 96 215.5 L 99 215 Q 98.3 211.6 101 210.5 L 101 206.5 L 100.5 205 L 103 206 L 107 196.5 L 106.5 195 Q 107.8 197.3 109 194.5 L 110 191.5 L 109.5 190 L 111.5 191 L 112.5 188 L 114 188.5 L 116.5 185 L 120 182.5 L 118 181.5 L 121 179.5 L 121.5 181 L 124 180 L 124.5 178 L 126.5 178 L 131 175.5 L 133.5 172 Q 135.8 171.3 135 173.5 L 136 173.5 Q 135.1 170.1 140.5 172 L 142.5 172 L 144 171.5 L 143.5 170 Q 144.8 173.3 150.5 172 L 153.5 171 L 156.5 170 Q 158 172.5 159.5 169 L 161 170.5 L 158 171.5 L 161.5 172 L 163.5 171 L 164.5 172 L 172.5 172 L 174.5 174 Q 180 172.5 181.5 175 L 185 174.5 L 184.5 176 L 194 177 Q 192.9 179.7 195.5 179 L 197 178.5 Q 196.3 180.8 198.5 180 L 200.5 180 L 202.5 181 L 203.5 179 L 204.5 181 L 203 181.5 L 211.5 182 L 217.5 185 L 219 184.5 L 221.5 188 L 226.5 188 L 227 190 L 228.5 190 L 235.5 192 L 237 191.5 Q 236.3 193.8 238.5 193 L 240.5 192 L 242.5 193 L 244.5 192 L 249.5 193 L 251.5 193 L 253 193.5 L 252.5 195 L 265 193.5 Q 261.8 192 263 187 Q 267.5 188.5 266 184 L 271 184 L 271 182 L 277.5 182 L 279 179 L 283 179 Q 281.8 176 285.5 177 Q 286.8 173.3 291 174 Q 289.9 171.3 292.5 172 L 294 169 L 301 166 Q 299.9 162.7 304 164 L 304 161 Q 307 162 306 159 L 309 159 L 309 156 L 313.5 156 Q 312.7 152.5 319 154 L 319.5 151 L 327 151 L 327 149 Z " /><path fill="rgb(29,100,131)" stroke="rgb(29,100,131)" stroke-width="1" opacity="0.6549019607843137" d="M 539.5 259 L 548.5 259 L 557 265.5 L 558 273.5 L 557 278.5 L 553.5 282 L 543.5 285 L 533 280.5 Q 527.9 277.1 530 266.5 L 534.5 261 Q 538.8 261.8 539.5 259 Z " /><path fill="rgb(29,100,131)" stroke="rgb(29,100,131)" stroke-width="1" opacity="0.6549019607843137" d="M 214.5 263 L 223.5 264 L 228.5 263 L 230.5 264 L 231.5 263 L 259.5 263 L 261.5 264 L 263 263.5 L 262.5 265 L 265.5 266 Q 267 263.5 268.5 267 L 272.5 266 L 272.5 267 L 271 267.5 L 275.5 269 L 277 268.5 Q 274.8 269.8 277.5 271 L 278.5 270 L 282.5 274 Q 283.8 271.8 285 274.5 L 285.5 276 L 287 275.5 L 288.5 279 L 290 278.5 L 291 281.5 Q 288.8 282.8 291.5 284 L 293.5 285 L 295 284.5 L 294 286.5 L 296 286.5 L 295 290 L 297.5 289 L 297.5 292 L 296 291.5 Q 299.3 295.4 298 303 L 301 303.5 L 298 304 Q 296.5 307.7 299.5 307 L 299 308.5 L 298 328.5 L 298.5 330 L 297 329.5 L 295 334.5 L 295 338.5 L 283.5 354 L 280.5 356 L 279.5 359 L 278.5 358 L 273.5 361 L 271 361.5 L 272.5 364 L 270 362.5 Q 270.8 365.1 267.5 364 L 265 365.5 L 265.5 364 L 264 364 Q 265.5 367.7 262.5 367 L 261.5 366 L 251.5 366 L 247.5 368 L 245.5 367 L 244.5 368 L 227.5 368 L 226 367.5 Q 226.8 369.8 224.5 369 Q 222.5 365 220.5 369 L 217.5 368 L 214.5 369 L 209.5 368 L 207.5 369 L 208 367.5 L 206 364.5 L 207 362 Q 203.7 363.3 205 358.5 Q 207.8 357.8 207 353.5 L 207 351.5 L 206.5 346 L 205.5 351 L 205 346.5 L 207 337.5 L 207 335.5 L 207 329.5 L 205 323.5 Q 207.2 322.3 206 317.5 L 205 316.5 L 205 305.5 Q 208.5 304 207 297.5 L 205 285 Q 209 286.4 207 279.5 L 205 271.5 L 206 271.5 L 206.5 273 Q 206 266.5 209.5 264 L 214.5 263 Z M 235 285 L 235 297 L 234 298 L 235 302 L 235 320 L 234 321 Q 232 327 235 329 L 234 333 L 235 336 L 233 336 L 233 340 L 235 340 L 234 342 L 235 345 L 237 344 L 239 345 L 242 344 L 244 345 L 246 344 L 248 345 L 251 344 L 253 344 Q 255 345 254 342 L 258 342 L 261 339 Q 262 341 263 339 Q 262 336 266 337 L 271 328 L 271 320 L 272 319 L 271 317 L 272 312 Q 269 310 271 304 L 270 304 L 267 300 Q 268 297 266 298 L 266 297 L 263 294 L 263 292 Q 260 293 261 290 L 259 290 L 255 288 Q 250 289 251 286 Q 245 284 235 285 Z " /><path fill="rgb(29,100,131)" stroke="rgb(29,100,131)" stroke-width="1" opacity="0.6549019607843137" d="M 493.5 271 L 493.5 273 Q 498.1 273.6 499.5 271 L 505 274.5 L 508 290.5 Q 505.3 292.3 509.5 294 L 514.5 294 L 515 292 L 517.5 292 Q 523.8 295.7 522 307.5 L 521 310.5 L 522 312.5 L 520 313.5 L 520.5 312 Q 514.8 311.3 512.5 314 L 507 313 L 507.5 316 L 510 314.5 L 508 316.5 L 508 322.5 Q 505 323.5 506 328.5 L 508 330.5 L 508 338 L 506 338.5 L 507 341.5 L 506 342.5 L 509 345.5 Q 508.1 348.9 513.5 347 L 515.5 348 L 517.5 348 L 520.5 347 L 521 355.5 L 523 358.5 L 521 358.5 Q 522.5 364.5 519.5 366 L 514 368.5 L 514.5 370 L 513.5 369 L 502.5 369 L 501.5 368 L 499.5 368 L 487 365 L 486.5 363 L 485 363.5 L 485 361.5 L 482 356.5 L 482 351.5 L 479 347.5 L 480 346.5 L 480 315.5 Q 479 312 473.5 313 L 472 313.5 L 473 312.5 L 469 308.5 L 469 296.5 L 471.5 294 Q 477.7 294.6 480 292 L 479.5 290 L 478 290.5 L 480 288.5 L 481 280.5 L 483.5 277 L 493 273.5 Q 490.8 272.3 493.5 271 Z M 507 317 L 506 321 L 507 321 L 507 317 Z " /><path fill="rgb(29,100,131)" stroke="rgb(29,100,131)" stroke-width="1" opacity="0.6549019607843137" d="M 661.5 271 L 666 274.5 L 667 279.5 L 666 282.5 L 667 285.5 L 666 290.5 Q 668.8 293.8 674.5 294 L 677.5 293 L 682 295.5 Q 685.8 298.7 684 307.5 L 683.5 310 L 682 309.5 L 683 311.5 L 680 312.5 L 680.5 314 L 675.5 313 L 673.5 313 L 670.5 314 L 668.5 313 L 667 316.5 L 667 318.5 L 666 320.5 L 667 323.5 L 666 324.5 L 666 342.5 L 667 346 Q 670.7 344.5 670 347.5 Q 670.8 349.8 674.5 349 L 674.5 347 Q 681.1 347.9 684 352.5 L 682 355.5 L 683 359.5 L 682 362.5 L 683 364.5 L 675.5 370 L 674.5 369 L 657.5 369 L 656.5 370 L 653.5 367 L 651.5 368 L 651.5 366 L 644 360.5 Q 644.7 357.9 642 359 L 642 354.5 L 638 349.5 L 638 346.5 L 639 345.5 L 639 314 L 631.5 312 L 629 309.5 L 629 299.5 L 628 298.5 L 630 294 L 637.5 294 L 639 292.5 L 638 290.5 L 640 280.5 L 642 277 L 661.5 271 Z " /><path fill="rgb(29,100,131)" stroke="rgb(29,100,131)" stroke-width="1" opacity="0.6549019607843137" d="M 337.5 289 Q 338.3 292.8 343.5 292 L 343.5 290 Q 345.8 289.3 345 291.5 L 347.5 292 L 353.5 292 Q 354.5 295 359.5 294 L 361 293.5 L 363.5 297 L 366 297 L 366 299 Q 369.7 297.5 369 300.5 L 374 302.5 L 373 304.5 L 376 306.5 L 375 310.5 L 377 312.5 Q 376.3 318.3 378.5 321 L 380 320.5 L 379 324.5 L 380 326.5 L 379 329.5 L 380 331.5 L 375.5 338 L 338.5 338 L 338 340.5 L 337 340.5 Q 337.8 337.9 334.5 339 L 334.5 340 L 336 340.5 L 334 341.5 L 336 345.5 Q 335.2 348.1 338.5 347 L 342.5 349 L 342.5 347 L 344.5 349 L 354.5 349 L 355.5 350 Q 357 346.5 358.5 349 Q 362.9 350.5 362 347.5 Q 363.8 349.1 365.5 346 L 366.5 347 Q 370.3 346.3 371 348.5 L 372 359.5 L 369.5 364 L 368 364.5 L 368.5 366 L 366.5 366 Q 359.3 364.3 357.5 368 L 335.5 368 L 327.5 366 L 326.5 367 Q 324.8 363.9 323 365.5 L 323.5 364 L 320 363 Q 321.1 360.3 318.5 361 L 312.5 356 L 311 356.5 L 312 354.5 L 310.5 352 L 309 352.5 L 309 348.5 L 307.5 345 L 306 345.5 L 307 343.5 L 306 341.5 L 306 339.5 L 307 334.5 L 306 329.5 L 307 328.5 L 307 318.5 Q 309.8 317.8 309 313.5 L 307 313.5 L 311 310.5 L 312 306.5 L 311.5 305 L 313.5 306 L 314 304 Q 316.7 305.1 316 302.5 L 317 299 L 319.5 298 L 321.5 298 L 328 293.5 L 327.5 292 Q 328.6 294.8 332 294 L 332 292 Q 335.8 293.5 335 290.5 L 336.5 291 L 338 290.5 L 337.5 289 Z M 342 310 L 339 311 Q 334 313 337 315 L 337 316 L 334 315 L 334 319 Q 337 318 336 321 L 350 321 L 350 320 L 352 320 L 352 316 L 350 316 L 352 315 L 350 311 L 349 313 L 348 311 L 342 310 Z " /><path fill="rgb(29,100,131)" stroke="rgb(29,100,131)" stroke-width="1" opacity="0.6549019607843137" d="M 439.5 290 L 442.5 291 Q 443.8 288.8 445 291.5 L 446.5 294 L 455 298.5 L 456 302 Q 459.3 300.7 458 305.5 L 461 309.5 L 460 312.5 L 461.5 318 L 463 317.5 L 461 320.5 L 461 322.5 L 461 328.5 L 463 332.5 L 462 333.5 L 462 342.5 L 463 347.5 L 462 349.5 L 463 351.5 Q 459.8 353.8 461 360.5 L 461 362.5 L 461 366 Q 458 365 459 368 L 461 368.5 L 458.5 369 L 453.5 367 L 452.5 369 L 450.5 368 L 446.5 369 L 443.5 367 L 442.5 368 L 440 366.5 L 439.5 368 L 436 364.5 L 435 359.5 L 436 358.5 L 436 350.5 L 435 348.5 L 436 347.5 L 436 324.5 L 436 322.5 L 433 315 L 430.5 316 L 431 314.5 Q 431.8 312.3 429.5 313 L 425.5 311 L 419.5 313 L 417 315.5 L 414 323.5 L 415 324.5 L 415 333.5 L 414 335.5 L 415 336.5 L 415 347.5 L 413 354.5 L 415 361.5 L 414 365 Q 411.3 363.9 412 366.5 L 412.5 368 L 404.5 367 L 404.5 368 L 406 368.5 L 404.5 369 Q 403.5 366 398.5 367 L 395.5 368 L 389 364.5 L 387 359.5 L 388 354.5 L 387 351.5 L 386.5 341 L 385.5 352 L 385 341.5 L 387 339.5 Q 385.5 334 388 332.5 L 388 313.5 L 387 311.5 L 388 310.5 L 388 300.5 L 387 300.5 L 386.5 303 L 386 300.5 L 390.5 295 L 398.5 294 L 400.5 294 Q 408.7 292.9 412 295 L 414.5 299 L 416 296 L 421.5 294 L 425.5 294 L 429.5 291 L 432.5 291 L 434.5 291 L 439.5 290 Z " /><path fill="rgb(29,100,131)" stroke="rgb(29,100,131)" stroke-width="1" opacity="0.6549019607843137" d="M 605.5 290 L 620 294 L 622 303.5 L 618.5 312 L 616.5 313 L 615.5 312 L 613 313.5 Q 615.3 312.3 612.5 311 L 607.5 310 L 605.5 311 L 603.5 310 L 602 310.5 Q 602.6 307.8 596.5 309 L 593 311.5 L 593.5 314 L 595 313.5 L 597 319 L 606.5 322 L 608.5 322 L 610.5 321 L 610 322.5 Q 609.1 325.5 613.5 324 L 618.5 328 L 620 327.5 L 620 330.5 Q 623.8 331.8 623 336 Q 626.7 334.6 625 340.5 L 625 342.5 L 626 349.5 L 615.5 364 L 611.5 366 L 607 366 Q 608.1 368.7 605.5 368 L 603.5 368 L 597.5 369 Q 596.2 366.8 591.5 368 Q 590 370.5 584.5 369 L 581 368 Q 582.1 370.7 579.5 370 Q 576.7 366.3 570.5 366 L 567 362.5 L 566 359.5 L 567 355.5 L 565 351.5 L 568 349.5 L 571.5 344 L 571.5 346 L 577.5 347 Q 578.3 350.7 583.5 350 L 585 349.5 Q 584.1 352.5 588.5 351 L 593.5 349 L 597.5 350 L 600 346.5 L 598 345.5 L 598.5 344 L 596 342.5 Q 596.8 340.3 594.5 341 L 582.5 335 L 579 336 Q 580.1 333.3 577.5 334 Q 574.8 330.2 569 331 L 570 327.5 L 566.5 323 L 565 323.5 L 566 320.5 L 565 318.5 Q 568 314.5 568 307.5 L 567 305.5 L 568.5 302 L 570 302.5 Q 569.2 299.9 572.5 301 L 576 299 Q 574.8 296 578.5 297 L 587 292.5 L 585 291.5 L 586.5 291 L 589.5 292 L 591.5 291 L 602.5 291 Q 604 293.5 605.5 290 Z " /><path fill="rgb(29,100,131)" stroke="rgb(29,100,131)" stroke-width="1" opacity="0.6549019607843137" d="M 541 291 Q 543.7 289.9 543 292.5 L 545.5 294 L 549.5 293 L 554.5 294 L 556 293.5 L 557 297.5 L 557 299.5 L 557 310.5 L 559 314.5 L 558 314.5 L 557.5 312 L 557 355.5 L 556 357.5 L 557 359.5 L 554.5 366 L 537.5 368 L 531 366 L 530 362.5 L 530 360.5 L 530 356.5 Q 527 355.3 528 351 Q 531.3 352.1 530 348 L 528 347.5 L 530 347 L 530 335.5 L 529 334.5 Q 531.5 333 530 327.5 L 530 325.5 Q 531.7 319.6 528 321 L 529 332.5 L 527 333.5 L 527.5 318 L 528 320 L 530 319.5 L 530 317.5 Q 531.7 311.3 529 309.5 L 530 307 Q 526.7 308.3 528 303.5 L 530 299.5 L 532.5 294 L 541 293 L 541 291 Z " /><path fill="rgb(29,100,131)" stroke="rgb(29,100,131)" stroke-width="1" opacity="0.6549019607843137" d="M 734.5 291 L 740.5 294 L 742 293.5 L 741 295.5 Q 743.5 297 740 298.5 L 740 310.5 L 737.5 314 L 727.5 314 Q 726.3 317 722 316 L 721 319.5 L 721.5 321 Q 720.3 318.8 719 321.5 L 719.5 323 L 717 324.5 L 717 332.5 L 718 333.5 L 717 334.5 L 717 355.5 L 716 357.5 L 717 362.5 L 713.5 367 L 704.5 368 L 701.5 367 L 699.5 368 L 694.5 367 L 691 364.5 L 689 361.5 Q 692.5 360 690 358.5 Q 691.3 352.8 688 351.5 L 690 349.5 L 690 336.5 L 690 334.5 L 690 321.5 L 688.5 321 L 688.5 320 L 690 319.5 L 690 306.5 L 690 304.5 Q 691 299.5 688 298.5 L 692.5 294 L 714.5 294 L 717.5 299 L 718 297 L 726.5 292 Q 732.7 293.8 734.5 291 Z " /><path fill="rgb(29,100,131)" stroke="rgb(29,100,131)" stroke-width="1" opacity="0.6549019607843137" d="M 748.5 294 L 769.5 294 L 772 296.5 L 773 301.5 L 775 303.5 L 775 308.5 L 778 312.5 L 778 316.5 L 780 318.5 Q 779.7 325.3 783 328.5 L 783 333.5 L 785.5 337 L 789 331.5 L 789 328.5 L 786 329.5 L 787 327 Q 791.5 328.8 790 323.5 L 792 321.5 Q 791 316.5 794 315.5 L 794 310.5 L 797 305.5 L 800 295 L 802.5 294 L 821.5 294 Q 824.5 295.5 823 301.5 L 822 303.5 L 824 303.5 L 823 305.5 L 823.5 307 L 821.5 306 L 821 307.5 L 821.5 311 L 819 310 L 819 313 Q 822 312 821 315 L 816 316 L 816 319.5 L 813 323.5 L 813 326.5 L 804 350.5 L 803 358.5 L 803.5 360 Q 802.3 357.8 801 360.5 L 801 362.5 L 800 364.5 L 800.5 366 L 798 367.5 L 792 381.5 L 792.5 383 Q 791.2 380.8 790 383.5 L 790 385.5 L 786 390.5 L 786.5 392 L 784.5 392 L 781.5 394 L 774.5 399 Q 769.5 398 768.5 401 L 755.5 401 L 748.5 397 L 746.5 398 L 747.5 396 L 749 395.5 L 748 394.5 L 748 387 L 746 386.5 L 748 386 Q 748.8 382.6 746 381.5 L 751 379.5 L 750 377 L 753 377.5 L 751 378.5 L 752.5 380 L 761.5 380 L 764.5 379 Q 766.8 379.8 766 377.5 L 767 375.5 L 763 377.5 L 766.5 374 L 767.5 375 L 770 373.5 L 771 370.5 L 769.5 368 Q 771.3 370.8 773 366.5 Q 769.5 365 772 363.5 L 769 357.5 L 769 353.5 L 764.5 345 L 763 345.5 L 764 341.5 L 762 339.5 L 762 336.5 Q 757.5 330.5 756 321.5 L 754 319.5 L 754 316.5 L 751 313.5 L 751 309.5 L 749 307.5 L 746 296.5 L 748.5 294 Z " /><path fill="rgb(29,100,131)" stroke="rgb(29,100,131)" stroke-width="1" opacity="0.6549019607843137" d="M 774.5 296 L 776 299.5 L 774 298.5 L 774.5 296 Z " /><path fill="rgb(29,100,131)" stroke="rgb(29,100,131)" stroke-width="1" opacity="0.6549019607843137" d="M 558.5 298 L 559 301.5 L 558 301.5 L 558.5 298 Z " /><path fill="rgb(29,100,131)" stroke="rgb(29,100,131)" stroke-width="1" opacity="0.6549019607843137" d="M 300.5 299 L 300 300.5 L 299.5 302 L 299 300.5 L 300.5 299 Z " /><path fill="rgb(29,100,131)" stroke="rgb(29,100,131)" stroke-width="1" opacity="0.6549019607843137" d="M 385.5 308 L 386 321.5 L 385 321.5 L 385.5 308 Z " /><path fill="rgb(29,100,131)" stroke="rgb(29,100,131)" stroke-width="1" opacity="0.6549019607843137" d="M 622.5 311 L 621.5 313 L 622.5 311 Z " /><path fill="rgb(29,100,131)" stroke="rgb(29,100,131)" stroke-width="1" opacity="0.6549019607843137" d="M 688.5 313 L 689 316.5 L 688 316.5 L 688.5 313 Z " /><path fill="rgb(29,100,131)" stroke="rgb(29,100,131)" stroke-width="1" opacity="0.6549019607843137" d="M 668.5 325 L 669 337.5 L 668 337.5 L 668.5 325 Z " /><path fill="rgb(29,100,131)" stroke="rgb(29,100,131)" stroke-width="1" opacity="0.6549019607843137" d="M 386.5 328 L 387 331.5 L 386 331.5 L 386.5 328 Z " /><path fill="rgb(29,100,131)" stroke="rgb(29,100,131)" stroke-width="1" opacity="0.6549019607843137" d="M 784.5 330 L 785.5 332 L 784.5 330 Z " /><path fill="rgb(29,100,131)" stroke="rgb(29,100,131)" stroke-width="1" opacity="0.6549019607843137" d="M 858 332 L 870.5 332 L 872.5 334 Q 879.3 333.1 882 335 L 882 337 L 885 337 Q 883.9 340.3 888 339 L 888 342 L 890 342 Q 888.9 344.7 891.5 344 L 893 347 L 895 347 Q 893.9 349.7 896.5 349 Q 899.3 350.4 898 355 L 900 355.5 L 900 382 L 898 382 L 898 387 Q 893.5 385.5 895 390 L 888 390 L 885 382.5 L 885 367 Q 881.7 368.1 883 364 L 880 364 Q 881 361 878 362 L 878 358.5 L 873 355.5 L 873 354 L 868 354 L 867.5 352 L 849 352 L 849 354 L 844 354 L 844 355.5 L 842 355.5 Q 842.9 358.5 838.5 357 L 835 355.5 L 833 349 L 835 348.5 L 835 346.5 Q 834.3 343.9 837 345 L 837 342 Q 840.8 343.5 840 340.5 Q 841.2 338 845 339 L 845 337 L 848 337 Q 846.9 334.3 849.5 335 L 850.5 334 L 858 334 L 858 332 Z " /><path fill="rgb(29,100,131)" stroke="rgb(29,100,131)" stroke-width="1" opacity="0.6549019607843137" d="M 558.5 336 L 559 341.5 L 558 341.5 L 558.5 336 Z " /><path fill="rgb(29,100,131)" stroke="rgb(29,100,131)" stroke-width="1" opacity="0.6549019607843137" d="M 433.5 348 L 434 351.5 L 433 351.5 L 433.5 348 Z " /><path fill="rgb(29,100,131)" stroke="rgb(29,100,131)" stroke-width="1" opacity="0.6549019607843137" d="M 718.5 351 L 719 354.5 L 718 354.5 L 718.5 351 Z " /><path fill="rgb(29,100,131)" stroke="rgb(29,100,131)" stroke-width="1" opacity="0.6549019607843137" d="M 253.5 367 L 252.5 369 L 253.5 367 Z " /><path fill="rgb(29,100,131)" stroke="rgb(29,100,131)" stroke-width="1" opacity="0.6549019607843137" d="M 716.5 367 L 715.5 369 L 716.5 367 Z " /><path fill="rgb(29,100,131)" stroke="rgb(29,100,131)" stroke-width="1" opacity="0.6549019607843137" d="M 855 380 Q 860.4 378.5 862 381.5 L 862 386.5 Q 859 385.5 860 390.5 L 857 392 L 857 397 L 855.5 397 L 854 400 L 852 400 Q 853.1 402.7 850.5 402 L 849 405 Q 846.3 403.9 847 406.5 L 844 408 L 844 410 L 842 410 Q 843.1 412.7 840.5 412 L 839 415 L 834.5 418 L 832 418 Q 833.1 421.3 829 420 L 829 423 L 825.5 423 L 822 425 L 820.5 428 Q 817.9 427.3 819 430 L 814 430 L 814 431.5 Q 812.8 434 809 433 Q 810.1 435.7 807.5 435 L 804 436 Q 805.3 439.3 800.5 438 L 797.5 441 L 789.5 443 L 786.5 446 L 783 446 L 783 448 L 778 448 Q 779.1 450.7 776.5 450 L 775.5 451 L 768 451 Q 769.4 454.7 763.5 453 Q 761.8 457.5 755 456 L 755 458 L 748.5 458 L 748 459.5 L 746.5 461 L 738.5 461 L 736.5 463 L 727 464 L 727 466 L 717.5 466 L 717 468 L 714.5 468 Q 713 470.5 707.5 469 L 705.5 471 L 691.5 471 L 686.5 474 L 673.5 474 L 671.5 476 L 656 476 Q 657.1 478.7 654.5 478 L 653.5 479 L 636.5 479 L 634.5 481 L 597.5 481 L 592.5 484 L 512.5 484 L 507.5 481 L 465.5 481 L 463.5 479 L 443.5 479 L 441 478 L 440.5 476 L 419.5 476 L 417.5 474 L 398.5 474 L 394.5 471 L 376.5 471 L 374.5 469 Q 365 470.5 361.5 466 L 350.5 466 L 348.5 464 L 337 463 L 336.5 461 L 327 461 L 326.5 458 L 317.5 458 L 315.5 456 L 307.5 456 L 306 454.5 L 305.5 453 L 297.5 453 L 295.5 451 Q 289.5 452.5 288 449.5 Q 288.5 446.5 281.5 448 L 279.5 446 Q 273.4 446.8 271 445 L 271 443 L 266 443 L 266 441 L 259.5 441 L 256.5 438 L 252.5 438 Q 250.3 434.5 245 435 L 245 433 L 240 433 L 240 431.5 Q 238.8 429 235 430 Q 236.3 426.3 230.5 428 L 228 427 L 228 425 Q 223.9 426.3 225 423 L 220 423 Q 221.8 418.5 216.5 420 L 212 416.5 Q 212.9 413.5 208.5 415 L 205 410 L 202 410 Q 203.1 407.3 200.5 408 L 195 405 L 193.5 402 L 192 402 L 192 400 Q 189.3 401.1 190 398.5 L 187 397 L 187 392 L 184 392 Q 185.3 387.9 182 389 L 182 383 L 188.5 382 L 191 383 L 191 385 L 194 385 Q 192.9 387.7 195.5 387 Q 198.3 392.3 204 393 Q 202.7 396.3 207.5 395 L 209 398 L 214.5 400 L 217.5 403 L 222 403 Q 220.9 405.7 223.5 405 L 225 408 L 228.5 408 L 235 411.5 L 235 413 L 240 413 L 240 415 L 243.5 415 L 245 418 L 252.5 418 L 254.5 420 L 260 421 L 260 423 L 265 423 L 265 425 L 271.5 425 L 275 426 L 275.5 428 L 283 428 L 283.5 431 L 292.5 431 Q 291.6 434.2 299.5 433 L 301 436 L 310.5 436 L 311.5 438 L 322.5 438 L 324 441 L 334.5 441 L 336.5 443 Q 346.1 441.9 351 444 L 351.5 446 L 366.5 446 L 368.5 448 L 378.5 448 L 384 449 L 384.5 451 L 399.5 451 L 402.5 453 L 422.5 454 L 424.5 456 L 453.5 456 L 456.5 458 L 547.5 459 L 548.5 458 L 576.5 458 L 581.5 456 L 611.5 456 L 614.5 454 L 636.5 453 L 638.5 451 L 657 451 Q 655.6 447.3 661.5 449 L 662.5 448 L 672.5 448 L 674.5 446 L 691.5 446 L 695.5 443 L 704.5 443 L 706.5 441 L 718 441 Q 716.9 438.3 719.5 439 Q 721.3 436.3 727.5 438 L 729.5 436 L 738.5 436 L 741.5 433 Q 748 434.5 749.5 431 L 758 431 L 759.5 428 L 765.5 428 Q 764.5 424.7 770.5 426 L 775.5 423 L 781 423 Q 779.9 420.3 782.5 421 L 787 420 L 787 418 L 793.5 418 L 794 416 L 796.5 416 L 807 413 Q 805.9 410.3 808.5 411 L 812 410 L 812 408 L 817 408 Q 815.9 405.3 818.5 406 L 822 405 L 822 403 L 827 403 L 827 400 Q 831.1 401.3 830 398 L 833.5 398 L 835 395 Q 838 396 837 393 L 840.5 393 L 842 390 L 845 390 L 845 388 Q 847.7 389.1 847 386.5 L 850 385 Q 848.9 382.3 851.5 383 L 855 382 L 855 380 Z " /><path fill="rgb(29,100,131)" stroke="rgb(29,100,131)" stroke-width="1" opacity="0.6549019607843137" d="M 771.5 400 L 770.5 402 L 771.5 400 Z " /><path fill="rgb(0,0,0)" stroke="rgb(0,0,0)" stroke-width="1" opacity="0" d="M 0 0 L 1061 0 L 1061 619 L 0 619 L 0 0 Z M 327 149 L 327 151 L 320 151 L 319 154 Q 313 153 314 156 L 309 156 L 309 159 L 306 159 Q 307 162 304 161 L 304 164 Q 300 163 301 166 L 294 169 L 293 172 Q 290 171 291 174 Q 287 173 286 177 Q 282 176 283 179 L 279 179 L 278 182 L 271 182 L 271 184 L 266 184 Q 268 189 263 187 Q 262 192 265 194 L 253 195 L 253 194 L 252 193 L 250 193 L 245 192 L 243 193 L 241 192 L 239 193 Q 236 194 237 192 L 236 192 L 229 190 Q 226 191 227 188 Q 221 190 220 186 L 218 187 L 218 186 Q 220 187 219 185 L 218 185 L 212 182 Q 203 184 201 180 L 199 180 Q 196 181 197 179 L 196 179 Q 193 180 194 177 L 185 176 Q 183 172 182 175 Q 180 173 175 174 L 173 172 L 165 172 L 164 171 L 162 172 Q 157 173 157 170 L 154 171 L 151 172 Q 146 173 145 171 L 143 172 L 141 172 Q 135 170 136 174 L 135 174 Q 136 171 134 172 L 134 174 Q 133 176 132 174 L 131 176 L 127 178 L 125 178 L 124 180 L 122 181 L 121 180 L 118 182 L 120 183 L 117 185 L 114 189 L 113 188 L 112 191 L 110 190 L 110 192 L 103 205 Q 104 207 101 206 L 101 211 Q 98 212 99 215 L 96 216 L 98 216 L 96 223 L 96 225 L 94 226 L 96 226 L 95 236 L 93 238 L 94 239 L 94 246 L 92 247 L 94 252 L 93 258 L 93 260 L 94 262 L 93 265 L 95 265 L 94 270 Q 97 271 96 276 Q 94 277 97 279 L 95 280 L 99 288 L 98 291 Q 97 293 100 292 Q 102 293 101 299 L 106 308 Q 105 314 108 317 L 108 319 L 116 335 Q 114 340 119 339 L 118 341 L 119 344 L 121 343 L 121 347 L 123 347 L 122 349 L 129 361 L 131 360 Q 133 361 131 363 L 133 363 L 134 363 L 133 366 L 135 366 Q 137 367 135 369 L 138 372 Q 140 371 139 374 L 142 374 L 142 377 Q 141 379 144 378 L 145 381 L 147 380 L 146 382 L 149 386 L 151 389 L 154 390 L 154 392 Q 157 391 156 394 L 159 395 L 161 400 L 163 399 L 166 403 Q 168 402 167 405 L 175 408 L 176 411 L 186 419 Q 189 418 188 421 L 189 421 Q 188 417 192 419 L 192 418 L 191 418 Q 188 417 190 416 L 186 413 L 187 411 L 186 408 L 181 406 L 182 403 L 180 401 Q 177 400 179 399 L 176 395 L 176 392 L 173 390 L 163 375 L 163 373 L 162 373 L 162 372 L 159 370 L 160 368 L 159 368 L 150 354 Q 151 350 149 351 L 141 339 Q 142 333 140 332 Q 136 333 138 329 L 137 329 L 135 327 L 136 325 L 135 324 L 131 316 L 133 316 L 131 313 Q 127 311 130 310 L 128 307 Q 129 302 125 304 L 125 297 L 123 297 L 124 292 L 122 286 L 122 282 Q 123 279 121 280 L 121 277 L 119 271 L 121 271 L 121 258 L 120 257 L 122 253 L 121 251 L 123 251 L 123 250 Q 119 248 122 247 L 121 245 L 123 244 L 122 243 L 126 230 L 128 230 L 128 226 L 132 223 L 131 222 L 133 219 Q 132 216 135 217 L 140 209 Q 142 210 141 207 L 143 207 L 143 206 L 157 196 L 163 196 Q 165 193 171 194 Q 172 197 169 196 L 169 197 Q 174 198 175 194 L 182 196 L 179 196 L 179 197 Q 184 198 185 195 L 185 197 L 194 196 L 197 199 L 199 199 L 201 198 L 205 199 L 206 201 L 207 199 L 208 202 L 209 200 L 209 202 L 211 201 L 217 202 Q 218 205 220 203 Q 221 205 226 204 L 225 206 L 228 207 L 230 206 L 233 207 L 235 206 L 241 209 L 248 210 L 249 209 L 252 212 L 280 212 L 286 209 L 290 209 L 289 208 L 291 208 L 296 206 L 296 204 L 300 204 L 300 202 Q 303 203 302 201 L 306 199 L 309 194 L 308 189 Q 309 186 307 187 L 307 186 Q 309 187 308 184 L 311 184 L 311 182 L 318 179 L 319 176 L 329 173 L 330 171 L 351 171 L 353 174 L 357 174 Q 356 177 362 176 L 362 179 Q 366 178 365 181 L 369 182 Q 371 181 370 184 L 372 184 L 372 187 L 375 187 L 379 194 Q 382 193 380 197 L 382 197 Q 381 201 384 202 L 385 202 L 385 207 L 387 207 L 388 213 Q 387 215 390 214 L 390 223 L 392 225 Q 390 231 393 233 L 393 235 Q 396 234 395 237 L 400 237 Q 399 234 402 235 Q 402 230 405 228 L 405 222 L 407 219 L 407 211 L 405 210 L 405 199 L 403 197 L 403 192 L 399 184 Q 400 181 397 182 L 397 179 L 395 179 Q 396 175 394 174 Q 391 175 392 172 L 390 172 L 390 169 Q 386 170 387 168 L 380 161 Q 376 162 377 159 L 374 158 L 374 156 L 369 156 L 369 154 L 363 154 L 362 153 Q 360 149 354 151 L 352 149 L 327 149 Z M 204 179 Q 202 182 205 181 L 204 179 Z M 540 259 Q 539 262 535 261 L 530 267 Q 528 277 533 281 L 544 285 L 554 282 L 557 279 L 558 274 L 557 266 L 549 259 L 540 259 Z M 215 263 L 210 264 Q 206 267 207 273 L 206 272 L 205 272 L 207 280 Q 209 286 205 285 L 207 298 Q 209 304 205 306 L 205 317 L 206 318 Q 207 322 205 324 L 207 330 L 207 336 L 206 339 Q 204 345 207 347 Q 208 351 206 353 L 207 357 L 207 359 L 205 359 Q 204 363 207 362 L 206 365 L 208 368 L 208 369 L 210 368 L 215 369 L 218 368 L 221 369 Q 223 365 225 369 Q 227 370 226 368 L 228 368 L 245 368 L 246 367 L 248 368 L 252 366 L 262 366 L 263 367 Q 266 368 264 364 L 266 364 L 268 364 Q 271 365 270 363 L 274 361 Q 275 357 277 360 L 281 356 L 284 354 L 295 339 L 295 335 L 298 329 Q 297 323 299 322 L 299 309 L 300 307 Q 296 308 298 304 L 301 304 L 298 303 Q 300 296 296 293 L 297 291 L 295 290 L 296 287 L 295 287 L 294 286 L 292 284 Q 289 283 291 282 L 290 279 L 289 279 L 287 276 L 286 276 L 285 275 Q 284 272 283 274 L 279 270 L 278 271 L 275 268 L 269 267 Q 267 263 266 266 L 264 265 L 262 266 L 262 265 L 260 263 L 232 263 L 231 264 L 229 263 L 224 264 L 215 263 Z M 500 271 L 484 277 L 481 281 Q 482 287 479 290 L 480 292 Q 478 295 472 294 L 469 297 L 469 309 L 474 313 Q 479 312 480 316 L 480 347 L 479 348 Q 483 349 482 357 L 487 365 L 500 368 L 503 369 Q 514 371 520 366 L 521 365 Q 520 359 522 358 L 521 347 L 518 348 L 516 348 L 514 347 Q 508 349 509 346 L 506 343 L 507 342 L 506 339 L 508 338 L 508 331 L 506 329 Q 505 324 508 323 L 507 313 L 513 314 Q 515 311 521 312 L 522 313 L 521 311 L 522 308 Q 524 296 518 292 L 515 292 L 515 294 L 510 294 Q 505 292 508 291 L 505 275 L 500 271 Z M 662 271 L 642 277 L 640 281 L 638 291 L 639 293 L 638 294 L 630 294 L 628 299 L 629 300 L 629 310 L 632 312 L 639 314 L 639 346 L 638 347 L 638 350 L 642 355 L 642 359 Q 645 358 644 361 Q 647 365 654 367 L 657 370 L 658 369 L 675 369 L 677 370 L 676 369 L 678 369 L 683 365 L 682 363 L 683 360 L 682 356 L 684 353 L 679 348 L 675 349 Q 671 350 670 348 Q 671 345 667 346 L 666 343 L 666 325 L 667 324 L 666 321 L 668 318 L 667 315 L 670 313 L 672 313 L 675 314 L 683 312 L 682 311 L 684 308 Q 686 299 682 296 L 678 293 L 675 294 Q 669 294 666 291 L 667 286 L 666 283 L 667 280 L 666 275 L 662 271 Z M 336 290 Q 336 293 332 292 L 332 294 L 329 293 L 320 300 L 317 299 L 316 303 Q 317 305 314 304 L 314 306 L 312 305 L 312 307 L 311 311 L 309 312 L 309 314 Q 310 318 307 319 L 307 329 L 306 330 L 307 335 L 306 340 L 306 342 L 307 344 L 306 346 L 309 347 L 308 350 L 312 355 L 311 357 L 313 356 L 319 361 Q 321 360 320 363 L 324 364 L 327 367 L 328 366 L 336 368 L 358 368 L 360 366 Q 367 367 370 364 L 372 360 L 371 349 Q 370 346 367 347 L 362 348 Q 363 350 359 349 Q 357 347 356 350 L 355 349 L 345 349 L 343 349 L 339 347 Q 335 348 336 346 L 334 342 L 336 341 L 335 340 L 335 339 Q 338 338 337 341 L 338 341 L 339 338 L 376 338 L 380 332 L 379 330 L 380 327 L 377 318 L 377 313 L 375 311 L 376 307 L 373 305 L 374 303 L 369 301 Q 370 298 366 299 L 366 297 L 364 297 L 361 294 L 360 294 Q 355 295 354 292 L 348 292 L 345 292 Q 346 289 344 290 L 344 292 L 341 292 Q 339 288 338 291 L 336 290 Z M 440 290 L 435 291 L 433 291 L 430 291 L 426 294 L 422 294 L 416 296 L 415 299 L 412 295 Q 409 293 401 294 L 399 294 L 391 295 L 388 299 L 388 301 L 388 311 L 387 312 L 388 314 L 388 333 L 387 334 Q 386 339 388 341 L 387 342 L 387 352 L 388 355 L 387 360 L 389 365 L 396 368 L 403 367 L 405 367 L 413 368 L 412 367 Q 411 364 414 365 L 415 362 L 413 355 L 415 348 L 415 337 L 414 336 L 415 334 L 415 325 L 414 324 L 417 316 L 420 313 L 426 311 L 430 313 Q 432 312 431 315 L 433 315 L 436 323 L 436 325 L 436 348 L 435 349 L 436 351 L 436 359 L 435 360 L 436 365 L 440 368 L 440 367 L 443 368 L 444 367 L 447 369 L 451 368 L 453 369 L 454 367 L 459 369 L 461 369 L 459 368 Q 458 365 461 366 L 461 363 L 461 361 Q 460 354 463 352 L 462 350 L 463 348 L 462 343 L 463 331 L 462 331 L 462 330 Q 460 328 461 323 L 462 320 L 460 313 L 461 310 L 458 306 Q 459 301 456 302 L 455 299 L 447 294 L 445 292 Q 444 289 443 291 L 440 290 Z M 606 290 Q 604 293 603 291 L 592 291 L 591 292 L 589 291 L 586 294 Q 580 293 579 297 Q 575 296 576 299 L 573 301 Q 569 300 570 303 L 569 302 L 567 306 L 568 308 L 566 318 L 566 320 L 565 322 L 571 330 L 570 329 L 569 331 Q 575 330 578 334 Q 580 333 579 336 L 583 335 L 595 341 Q 597 340 596 343 L 599 344 L 598 346 L 600 347 L 598 350 L 594 349 L 589 351 Q 584 352 585 350 L 584 350 L 581 350 L 578 347 Q 572 348 571 345 L 568 350 L 565 352 L 567 356 L 566 360 L 567 363 L 571 366 Q 577 366 580 370 Q 582 371 581 368 L 585 369 Q 590 371 592 368 Q 596 367 598 369 L 604 368 L 606 368 Q 608 369 607 366 L 612 366 L 616 364 L 626 350 L 625 343 L 625 341 Q 627 335 623 336 Q 624 332 620 331 L 620 328 L 619 328 L 614 324 L 610 324 Q 611 321 609 322 L 607 322 L 597 319 L 595 314 L 594 314 L 593 312 L 597 309 Q 603 308 602 311 L 604 310 L 606 311 L 608 310 L 613 311 L 617 313 L 619 312 L 622 304 L 620 294 L 606 290 Z M 541 291 L 541 293 L 533 294 L 530 300 L 528 304 Q 527 308 530 307 L 529 310 Q 532 311 530 318 L 530 320 L 528 320 L 528 318 L 527 334 L 529 333 L 528 321 Q 532 320 530 326 L 530 328 Q 532 333 529 335 L 530 336 L 530 347 L 528 348 L 530 348 Q 531 352 528 351 Q 527 355 530 357 L 530 361 L 530 363 L 531 366 L 538 368 L 555 366 L 557 360 L 556 358 L 557 356 L 557 313 L 558 312 L 557 311 L 557 300 L 557 298 L 556 294 L 555 294 L 550 293 L 546 294 L 543 293 Q 544 290 541 291 Z M 735 291 Q 733 294 727 292 L 718 297 L 718 299 L 715 294 L 693 294 L 688 299 Q 691 300 690 305 L 690 307 L 690 320 L 689 320 L 689 321 L 690 322 L 690 335 L 690 337 L 690 350 L 688 352 Q 691 353 690 359 Q 693 360 689 362 L 691 365 L 695 367 L 700 368 L 702 367 L 705 368 L 714 367 L 717 363 L 716 358 L 717 356 L 717 335 L 718 334 L 717 333 L 717 325 L 720 323 L 719 322 Q 723 320 722 316 Q 726 317 728 314 L 738 314 L 740 311 L 740 299 L 742 297 L 741 295 Q 739 291 735 291 Z M 749 294 L 746 297 L 749 308 L 751 310 L 751 314 L 754 317 L 754 320 L 756 322 L 772 364 Q 770 365 773 367 L 770 370 L 771 371 L 770 374 L 767 375 L 766 378 Q 767 380 765 379 L 762 380 L 753 380 L 752 379 L 746 382 Q 749 383 748 386 L 746 387 L 748 387 L 748 395 L 749 396 L 748 396 L 747 398 L 749 397 L 756 401 L 769 401 Q 770 398 775 399 L 782 394 L 785 392 L 793 381 L 798 368 L 801 366 L 800 365 L 801 363 L 801 361 L 803 359 L 804 351 L 813 327 L 813 324 L 816 320 L 816 316 L 821 315 Q 822 312 819 313 Q 817 309 821 310 Q 823 309 821 308 L 822 306 L 824 307 L 823 306 L 824 304 L 822 304 L 823 302 Q 824 295 822 294 L 803 294 L 800 295 L 797 306 L 794 311 L 794 316 Q 791 317 792 322 L 790 324 L 790 327 Q 786 325 787 329 L 789 329 L 789 332 L 786 337 L 783 334 L 783 329 Q 780 325 780 319 L 778 317 L 778 313 L 775 309 L 775 304 L 773 302 L 772 297 L 770 294 L 749 294 Z M 775 296 L 774 299 L 775 299 L 775 296 Z M 559 298 L 558 302 L 559 302 L 559 298 Z M 387 300 L 386 303 L 387 303 L 387 300 Z M 386 308 L 385 322 L 386 322 L 386 308 Z M 559 312 L 558 315 L 559 315 L 559 312 Z M 689 313 L 688 317 L 689 317 L 689 313 Z M 669 325 L 668 338 L 669 338 L 669 325 Z M 387 328 L 386 332 L 387 332 L 387 328 Z M 858 332 L 858 334 L 851 334 L 850 335 Q 847 334 848 337 L 845 337 L 845 339 Q 841 338 840 341 Q 841 344 837 342 L 837 345 Q 834 344 835 347 L 835 349 L 833 349 L 835 356 L 839 357 Q 843 358 842 356 L 844 356 L 844 354 L 849 354 L 849 352 L 868 352 L 868 354 L 873 354 L 873 356 L 878 359 L 878 362 Q 881 361 880 364 L 883 364 Q 882 368 885 367 L 885 383 L 888 390 L 895 390 Q 894 386 898 387 L 898 382 L 900 382 L 900 356 L 898 355 Q 899 350 897 349 Q 894 350 895 347 L 893 347 L 892 344 Q 889 345 890 342 L 888 342 L 888 339 Q 884 340 885 337 L 882 337 L 882 335 Q 879 333 873 334 L 871 332 L 858 332 Z M 559 336 L 558 342 L 559 342 L 559 336 Z M 386 341 L 385 352 L 386 352 L 386 341 Z M 206 346 L 205 351 L 206 351 L 206 346 Z M 434 348 L 433 352 L 434 352 L 434 348 Z M 719 351 L 718 355 L 719 355 L 719 351 Z M 750 377 L 751 379 L 753 378 L 750 377 Z M 855 380 L 855 382 L 852 383 Q 849 382 850 385 L 847 387 Q 848 389 845 388 L 845 390 L 842 390 L 841 393 L 837 393 Q 838 396 835 395 L 834 398 L 830 398 Q 831 401 827 400 L 827 403 L 822 403 L 822 405 L 819 406 Q 816 405 817 408 L 812 408 L 812 410 L 809 411 Q 806 410 807 413 L 797 416 L 794 416 L 794 418 L 787 418 L 787 420 L 783 421 Q 780 420 781 423 L 776 423 L 771 426 Q 765 425 766 428 L 760 428 L 758 431 L 750 431 Q 748 435 742 433 L 739 436 L 730 436 L 728 438 Q 721 436 720 439 Q 717 438 718 441 L 707 441 L 705 443 L 696 443 L 692 446 L 675 446 L 673 448 L 663 448 L 662 449 Q 656 447 657 451 L 639 451 L 637 453 L 615 454 L 612 456 L 582 456 L 577 458 L 549 458 L 548 459 L 457 458 L 454 456 L 425 456 L 423 454 L 403 453 L 400 451 L 385 451 L 384 449 L 379 448 L 369 448 L 367 446 L 352 446 L 351 444 Q 346 442 337 443 L 335 441 L 324 441 L 323 438 L 312 438 L 311 436 L 301 436 L 300 433 Q 292 434 293 431 L 284 431 L 283 428 L 276 428 L 275 426 L 272 425 L 265 425 L 265 423 L 260 423 L 260 421 L 255 420 L 253 418 L 245 418 L 244 415 L 240 415 L 240 413 L 235 413 L 235 412 L 229 408 L 225 408 L 224 405 Q 221 406 222 403 L 218 403 L 215 400 L 209 398 L 208 395 Q 203 396 204 393 Q 198 392 196 387 Q 193 388 194 385 L 191 385 L 191 383 L 189 382 L 182 383 L 182 389 Q 185 388 184 392 L 187 392 L 187 397 L 190 399 Q 189 401 192 400 L 192 402 L 194 402 L 195 405 L 201 408 Q 203 407 202 410 L 205 410 L 209 415 Q 213 413 212 417 L 217 420 Q 222 419 220 423 L 225 423 Q 224 426 228 425 L 228 427 L 231 428 Q 236 426 235 430 Q 239 429 240 432 L 240 433 L 245 433 L 245 435 Q 250 435 253 438 L 257 438 L 260 441 L 266 441 L 266 443 L 271 443 L 271 445 Q 273 447 280 446 L 282 448 Q 288 446 288 450 Q 289 453 296 451 L 298 453 L 306 453 L 306 455 L 308 456 L 316 456 L 318 458 L 327 458 L 327 461 L 337 461 L 337 463 L 349 464 L 351 466 L 362 466 Q 365 471 375 469 L 377 471 L 395 471 L 399 474 L 418 474 L 420 476 L 441 476 L 441 478 L 444 479 L 464 479 L 466 481 L 508 481 L 513 484 L 593 484 L 598 481 L 635 481 L 637 479 L 654 479 L 655 478 Q 657 479 656 476 L 672 476 L 674 474 L 687 474 L 692 471 L 706 471 L 708 469 Q 713 471 715 468 L 717 468 L 718 466 L 727 466 L 727 464 L 737 463 L 739 461 L 747 461 L 748 460 L 749 458 L 755 458 L 755 456 Q 762 458 764 453 Q 769 455 768 451 L 776 451 L 777 450 Q 779 451 778 448 L 783 448 L 783 446 L 787 446 L 790 443 L 798 441 L 801 438 Q 805 439 804 436 L 808 435 Q 810 436 809 433 Q 813 434 814 432 L 814 430 L 819 430 Q 818 427 821 428 L 822 425 L 826 423 L 829 423 L 829 420 Q 833 421 832 418 L 835 418 L 839 415 L 841 412 Q 843 413 842 410 L 844 410 L 844 408 L 847 407 Q 846 404 849 405 L 851 402 Q 853 403 852 400 L 854 400 L 856 397 L 857 397 L 857 392 L 860 391 Q 859 386 862 387 L 862 382 Q 860 379 855 380 Z " /><path fill="rgb(0,0,0)" stroke="rgb(0,0,0)" stroke-width="1" opacity="0" d="M 209.5 183 L 210.5 185 L 209.5 183 Z " /><path fill="rgb(0,0,0)" stroke="rgb(0,0,0)" stroke-width="1" opacity="0" d="M 235 285 Q 245.4 283.7 251 286 Q 249.7 289.3 254.5 288 L 258.5 290 L 261 290 Q 259.9 292.7 262.5 292 L 262.5 294 L 266 296.5 L 265.5 298 Q 267.8 297.3 267 299.5 L 269.5 304 L 271 303.5 Q 269.3 309.8 272 311.5 L 271 316.5 L 272 318.5 L 271 319.5 L 271 327.5 L 266 337 Q 262.2 335.5 263 338.5 Q 261.8 341.3 260.5 339 L 257.5 342 L 254 342 Q 255.1 344.7 252.5 344 L 250.5 344 L 247.5 345 L 245.5 344 L 243.5 345 L 241.5 344 L 238.5 345 L 236.5 344 L 235 344.5 L 234 341.5 L 234.5 340 L 233 340 L 233 336 L 235 335.5 L 234 332.5 L 235 328.5 Q 232.3 326.8 234 320.5 L 235 319.5 L 235 301.5 L 234 297.5 L 235 296.5 L 235 285 Z " /><path fill="rgb(0,0,0)" stroke="rgb(0,0,0)" stroke-width="1" opacity="0" d="M 341.5 310 L 348 311 L 348.5 313 L 349.5 311 L 352 314.5 L 350 315.5 L 352 316 L 351.5 320 L 350 319.5 L 349.5 321 L 336 321 Q 337 318 334 319 L 334 315 L 336.5 316 L 337 314.5 Q 334.2 312.8 338.5 311 L 341.5 310 Z " /><path fill="rgb(0,0,0)" stroke="rgb(0,0,0)" stroke-width="1" opacity="0" d="M 506.5 317 L 507 320.5 L 506 320.5 L 506.5 317 Z " /></svg>