<svg width="412" height="332" version="1.1" xmlns="http://www.w3.org/2000/svg" desc="Created with imagetracer.js version 1.2.6" ><path fill="rgb(243,190,4)" stroke="rgb(243,190,4)" stroke-width="1" opacity="1" d="M 174.5 80 L 177 81 L 177 83 L 179 83 Q 177.9 85.7 180.5 85 L 183 86.5 L 182.5 88 Q 187.3 86.7 186 90 Q 183 88 175.5 89 L 167 93 L 163 98.5 L 163 101 Q 160 99.8 161 103.5 L 160 103.5 L 160.5 99 L 162 99.5 Q 161.3 94.8 164.5 94 L 167 92.5 L 163.5 92 L 161.5 92 Q 158.5 92.7 160 89 L 162.5 88 L 167 89 L 168.5 92 L 171 91 L 171 89 L 169 89 L 169 87 Q 166.3 88.1 167 85.5 Q 168.6 82.5 174 84 L 174.5 80 Z M 174 84 Q 175 87 172 89 L 173 90 L 177 88 L 178 85 L 177 85 L 174 84 Z " /><path fill="rgb(243,190,4)" stroke="rgb(243,190,4)" stroke-width="1" opacity="1" d="M 184.5 80 L 191 82.5 L 189 85.5 L 196.5 90 L 197 88.5 L 196 86.5 L 198 86.5 L 196.5 84 L 193 82.5 L 196.5 80 L 199 81.5 L 198.5 83 Q 202.5 82.5 203 85.5 L 201 91 L 197 90 Q 195.8 93 199.5 92 L 199 93.5 L 199.5 95 Q 200.8 92.8 202 95.5 Q 200.8 98.3 199.5 96 Q 197.3 95.3 198 97.5 L 196 98.5 L 194 95.5 L 195.5 96 L 197 95.5 Q 194.5 90.7 192 92.5 Q 192.8 90.3 190.5 91 L 190.5 93 Q 187.8 91.8 190 90.5 L 187.5 85 L 186 84.5 L 186.5 83 L 183 82.5 L 184.5 80 Z " /><path fill="rgb(243,190,4)" stroke="rgb(243,190,4)" stroke-width="1" opacity="1" d="M 257.5 80 L 261.5 82 L 263 81.5 Q 264.5 85.9 261.5 85 L 255.5 83 L 253.5 84 L 253.5 83 L 257.5 80 Z " /><path fill="rgb(243,190,4)" stroke="rgb(243,190,4)" stroke-width="1" opacity="1" d="M 275.5 80 L 279 82.5 L 276.5 86 Q 271.7 87.3 273 84 Q 276 85 275 82 L 273 81.5 L 275.5 80 Z " /><path fill="rgb(243,190,4)" stroke="rgb(243,190,4)" stroke-width="1" opacity="1" d="M 227.5 81 Q 233.5 79.5 235 82.5 L 236 84.5 L 231.5 86 L 231.5 84 Q 228.9 83.2 230 86.5 L 226 89.5 L 224.5 95 L 223.5 92 L 221.5 96 L 221 88.5 L 223.5 84 L 225 84.5 Q 223.9 81.2 226.5 82 L 227.5 81 Z " /><path fill="rgb(243,190,4)" stroke="rgb(243,190,4)" stroke-width="1" opacity="1" d="M 245.5 81 L 247 83.5 L 242 84.5 L 242.5 86 Q 240.3 85.3 241 87.5 L 237 90.5 Q 236.2 93.1 239.5 92 L 243.5 87 Q 246.4 84.4 252.5 85 L 252.5 86 L 250 86.5 L 250.5 88 L 244.5 90 Q 243.3 87.8 242 90.5 Q 242.8 92.8 240.5 92 L 236.5 95 L 235.5 93 L 234 95.5 Q 236.5 97 233 98.5 L 232.5 100 L 232 98.5 Q 235.8 96.8 232.5 95 L 229 97 L 228 100.5 L 231 101.5 L 228.5 110 L 228 108 Q 225 109.3 226 105.5 L 224 105.5 L 226 102.5 L 224 98.5 L 229 94.5 L 231.5 89 Q 236.3 88.8 238 85.5 Q 237.2 82.9 240.5 84 L 245.5 81 Z " /><path fill="rgb(243,190,4)" stroke="rgb(243,190,4)" stroke-width="1" opacity="1" d="M 163.5 82 L 165 82.5 L 161 85.5 Q 159.9 82.2 162.5 83 L 163.5 82 Z " /><path fill="rgb(243,190,4)" stroke="rgb(243,190,4)" stroke-width="1" opacity="1" d="M 281.5 82 L 282 84.5 L 281 84.5 L 281.5 82 Z " /><path fill="rgb(243,190,4)" stroke="rgb(243,190,4)" stroke-width="1" opacity="1" d="M 266.5 84 L 270.5 85 L 274 88.5 L 274 94.5 Q 277.4 96.6 277.5 102 L 278.5 100 L 279 101.5 L 278 103.5 L 278.5 105 L 277 104.5 L 278.5 107 L 281 105.5 L 280 102.5 L 282 102.5 L 282.5 101 L 284.5 102 L 284.5 100 L 288 101.5 L 287.5 103 L 289.5 102 L 289.5 104 L 293 103.5 L 292.5 102 L 293.5 103 L 300 103 L 300.5 101 L 301.5 103 L 303.5 102 L 305 105 L 307 105.5 L 305.5 106 Q 302.9 102.6 295.5 104 L 287.5 107 L 286 106.5 L 285.5 108 L 284.5 104 L 281.5 111 L 278.5 112 L 277.5 109 L 274 109.5 L 274.5 111 L 272 109.5 L 275 114.5 L 272.5 115 L 270 113.5 Q 270.8 111.3 268.5 112 L 267 112.5 L 268 109 Q 271.7 110.5 271 107.5 L 269 107.5 L 270 105.5 L 269.5 104 L 272 105.5 L 273 102.5 L 271 99.5 L 273 96.5 L 273 94.5 L 272.5 92 L 270 93 Q 271.2 89.3 266 91 L 268 97.5 L 267 97.5 L 261.5 91 L 260 90.5 L 264 90 L 264.5 92 L 265 88.5 L 263.5 86 L 266.5 84 Z M 282 106 L 281 109 L 282 109 L 282 106 Z " /><path fill="rgb(243,190,4)" stroke="rgb(243,190,4)" stroke-width="1" opacity="1" d="M 258.5 86 L 259 89.5 L 257.5 89 L 255 87.5 L 258.5 86 Z " /><path fill="rgb(243,190,4)" stroke="rgb(243,190,4)" stroke-width="1" opacity="1" d="M 276.5 88 Q 278.8 87.3 278 89.5 L 279 90.5 L 279 98.5 L 278 98.5 Q 274.3 96.2 275 89.5 L 276.5 88 Z M 277 90 Q 274 95 278 94 L 277 90 Z " /><path fill="rgb(243,190,4)" stroke="rgb(243,190,4)" stroke-width="1" opacity="1" d="M 281 88 Q 283.7 86.9 283 89.5 Q 285.5 91 284 96.5 L 281.5 100 L 282 98.5 L 281.5 97 L 280 97.5 Q 279.1 90.7 281 88 Z " /><path fill="rgb(243,190,4)" stroke="rgb(243,190,4)" stroke-width="1" opacity="1" d="M 201.5 98 L 202 105.5 L 201 108.5 L 201.5 110 Q 198.9 110.8 200 107.5 L 198 104.5 L 199 101.5 L 198 99.5 L 201 100.5 L 201.5 98 Z " /><path fill="rgb(243,190,4)" stroke="rgb(243,190,4)" stroke-width="1" opacity="1" d="M 268.5 99 L 269 101.5 L 268 101.5 L 268.5 99 Z " /><path fill="rgb(243,190,4)" stroke="rgb(243,190,4)" stroke-width="1" opacity="1" d="M 306 100 Q 308.7 98.9 308 101.5 L 310 101.5 L 309.5 103 L 312.5 102 L 317 105.5 L 315 109.5 Q 317.6 110.9 317 115.5 L 314 117.5 L 312 114.5 L 314 109.5 L 311 110.5 L 310 106.5 L 310.5 105 L 306 104 L 306 100 Z " /><path fill="rgb(243,190,4)" stroke="rgb(243,190,4)" stroke-width="1" opacity="1" d="M 152.5 101 L 155.5 103 L 158 101.5 L 158.5 106 L 160 105.5 Q 159.4 112.4 155.5 116 L 155 114 L 153 114.5 L 153.5 117 L 156 117.5 L 155 122 Q 158 120.8 157 124.5 L 156 129.5 L 157 132.5 L 154.5 137 L 153 135.5 L 154 132.5 L 152.5 130 L 150 131.5 Q 152 127.8 154 129.5 L 155 123.5 L 153 122.5 L 151.5 125 L 150 125.5 L 151 129 L 147.5 128 Q 144.5 129.6 146 135 Q 148.7 136.1 148 133.5 L 149 133.5 L 149.5 137 L 150.5 134 L 152 137.5 L 152.5 139 L 154 138.5 L 155 142.5 L 154.5 144 L 156 144.5 L 154.5 145 L 152 143.5 Q 152.8 147.3 150.5 148 L 150 145.5 Q 152.3 144.3 149.5 143 Q 146.5 143.9 148 139.5 L 145.5 136 L 145 143 L 143 142.5 L 143 123.5 L 145 121.5 Q 143.7 113.2 146.5 109 L 148 111.5 L 148 122 L 150.5 123 L 153.5 108 L 154 112 L 156.5 113 L 157 111.5 L 156 109.5 Q 158.5 108 155 106.5 L 153.5 103 Q 152.3 105.3 151 102.5 L 152.5 101 Z " /><path fill="rgb(243,190,4)" stroke="rgb(243,190,4)" stroke-width="1" opacity="1" d="M 222.5 101 L 222 102.5 L 223 107.5 L 221 106.5 L 222 104.5 L 221 102.5 L 222.5 101 Z " /><path fill="rgb(243,190,4)" stroke="rgb(243,190,4)" stroke-width="1" opacity="1" d="M 316.5 102 Q 318.8 101.3 318 103.5 L 316.5 102 Z " /><path fill="rgb(243,190,4)" stroke="rgb(243,190,4)" stroke-width="1" opacity="1" d="M 319.5 103 L 320 105 L 323 106.5 L 324 108.5 L 321 110 Q 322.5 106.3 319.5 107 Q 316.8 105.8 319 104.5 L 319.5 103 Z " /><path fill="rgb(243,190,4)" stroke="rgb(243,190,4)" stroke-width="1" opacity="1" d="M 150 105 L 154 106.5 L 152 106.5 Q 152.7 109.1 150 108 L 150 105 Z " /><path fill="rgb(243,190,4)" stroke="rgb(243,190,4)" stroke-width="1" opacity="1" d="M 141.5 109 L 143 114.5 L 140 114.5 L 141.5 109 Z " /><path fill="rgb(243,190,4)" stroke="rgb(243,190,4)" stroke-width="1" opacity="1" d="M 224 109 Q 228.1 107.3 227 111.5 L 228 113.5 L 226.5 122 Q 227.3 114.3 223 111.5 L 224 109 Z " /><path fill="rgb(243,190,4)" stroke="rgb(243,190,4)" stroke-width="1" opacity="1" d="M 319.5 111 L 323 117.5 L 321.5 117 L 318 115.5 Q 317.3 111.8 319.5 111 Z " /><path fill="rgb(243,190,4)" stroke="rgb(243,190,4)" stroke-width="1" opacity="1" d="M 202.5 114 L 203 120.5 L 202 120.5 L 202.5 114 Z " /><path fill="rgb(243,190,4)" stroke="rgb(243,190,4)" stroke-width="1" opacity="1" d="M 266.5 114 L 269.5 120 L 272.5 116 L 271 118.5 L 269.5 122 L 268.5 120 L 266.5 123 L 265 123.5 L 267 125.5 L 263.5 129 L 262 129.5 L 264 130 Q 263 133.8 265.5 135 L 267.5 134 L 268.5 136 Q 267.3 133.7 266 136.5 L 267.5 139 L 270.5 135 L 271.5 136 L 274 134.5 L 273.5 136 L 276 134.5 L 276.5 132 Q 277.8 134.3 279 131.5 L 277 128 L 281 129 L 281.5 127 L 282 129 L 284.5 128 L 283.5 130 L 281.5 131 L 279.5 130 L 281.5 133 L 283 133.5 L 280.5 135 L 279 134.5 Q 279.8 137.1 276.5 136 L 270 140 L 269.5 142 L 268 141.5 Q 268.8 144.1 265.5 143 L 265.5 144 L 267 144.5 L 265 145 L 261 153 Q 258.3 151.9 259 154.5 L 256 156.5 L 256 158.5 Q 256.8 162.3 254.5 163 L 255 161.5 L 254 159.5 L 254.5 158 Q 251.2 156.9 252 159.5 L 252 161.5 L 253 163.5 L 253 165.5 Q 253.5 171 250.5 173 L 248.5 168 L 247 168 L 247 173 L 245.5 173 Q 243.3 173.8 244 177.5 Q 246.5 179 243 180.5 L 242 182.5 L 243.5 183 Q 245 179.5 246.5 182 Q 249.9 182.9 248 177.5 L 248 175.5 L 248.5 174 L 251 175 L 250 181.5 L 247 184.5 L 249 185.5 L 247.5 188 L 247 185 L 245 185.5 L 245.5 187 Q 243.3 186.3 244 188.5 L 243 188.5 L 243 186 L 241 185.5 L 241 179.5 L 244 171.5 L 243 169.5 Q 246.6 168.1 246 162.5 L 245.5 161 Q 248.8 162.1 248 159.5 L 251 158 L 253.5 153 L 256 154.5 L 257.5 152 L 259 152.5 L 258 147 L 261.5 149 L 264 145 L 261.5 146 L 259.5 139 L 257 143.5 L 256.5 145 L 255 144.5 Q 255.8 148.3 253.5 149 Q 251.7 145.9 250 147.5 L 249 144.5 L 251 139.5 L 250 134.5 L 253.5 130 Q 256.9 129.1 255 134.5 L 255 136.5 Q 254.3 141.3 256.5 143 L 257 140.5 L 256.5 139 L 258 139.5 L 261 128.5 L 260 126 Q 254.8 123.9 256 128.5 L 256.5 130 L 254 128.5 L 263.5 118 L 264.5 120 L 265 117.5 Q 262.2 115.8 266.5 114 Z M 262 121 Q 260 124 263 123 L 262 121 Z M 263 125 L 261 127 L 262 128 L 264 127 L 263 125 Z " /><path fill="rgb(243,190,4)" stroke="rgb(243,190,4)" stroke-width="1" opacity="1" d="M 223.5 116 L 225 120 Q 222 118.8 223 122.5 L 222 124.5 L 224.5 130 Q 225.8 127.7 227 130.5 L 226 137 L 221.5 138 L 221 120.5 L 223.5 116 Z " /><path fill="rgb(243,190,4)" stroke="rgb(243,190,4)" stroke-width="1" opacity="1" d="M 141.5 117 L 143 120.5 L 141 119.5 L 141.5 117 Z " /><path fill="rgb(243,190,4)" stroke="rgb(243,190,4)" stroke-width="1" opacity="1" d="M 310 117 L 314 119.5 Q 312.5 123.9 315.5 123 L 314.5 125 L 304.5 125 L 304 126.5 L 306 128.5 L 305.5 131 Q 304.3 128.8 303 131.5 L 306 132.5 L 303.5 133 L 301 132 Q 302.3 129 298.5 130 L 296 129 Q 294.8 132 298.5 131 L 298.5 132 L 286.5 133 L 288 130.5 L 288.5 129 Q 290 131.5 291.5 128 Q 295.3 128.8 296 126.5 L 290 125.5 Q 294.5 123 302.5 124 L 307.5 122 L 309 122.5 L 308 120.5 L 310 117 Z " /><path fill="rgb(243,190,4)" stroke="rgb(243,190,4)" stroke-width="1" opacity="1" d="M 318.5 120 L 324 120.5 L 321.5 122 L 319.5 122 L 318.5 120 Z " /><path fill="rgb(243,190,4)" stroke="rgb(243,190,4)" stroke-width="1" opacity="1" d="M 319.5 124 Q 323.3 123.3 324 125.5 Q 324.8 127.8 322.5 127 L 316.5 130 L 316 128 L 314 127.5 L 319.5 124 Z " /><path fill="rgb(243,190,4)" stroke="rgb(243,190,4)" stroke-width="1" opacity="1" d="M 283.5 126 L 287 126.5 L 283.5 127 L 283.5 126 Z " /><path fill="rgb(243,190,4)" stroke="rgb(243,190,4)" stroke-width="1" opacity="1" d="M 257.5 127 L 258.5 129 L 257.5 127 Z " /><path fill="rgb(243,190,4)" stroke="rgb(243,190,4)" stroke-width="1" opacity="1" d="M 275.5 129 L 274.5 133 Q 271 131 275.5 129 Z " /><path fill="rgb(243,190,4)" stroke="rgb(243,190,4)" stroke-width="1" opacity="1" d="M 310.5 129 L 313 130 L 312 133.5 L 313.5 133 L 320.5 133 Q 319.8 130 324 131 Q 325.5 134.7 322.5 134 L 320 135.5 L 320.5 137 L 312.5 136 Q 311.3 133.3 307 133.5 L 308 130 L 310.5 129 Z " /><path fill="rgb(243,190,4)" stroke="rgb(243,190,4)" stroke-width="1" opacity="1" d="M 141.5 132 L 142 134.5 L 141 134.5 L 141.5 132 Z " /><path fill="rgb(243,190,4)" stroke="rgb(243,190,4)" stroke-width="1" opacity="1" d="M 202.5 132 L 203 139.5 L 202 139.5 L 202.5 132 Z " /><path fill="rgb(243,190,4)" stroke="rgb(243,190,4)" stroke-width="1" opacity="1" d="M 156.5 136 Q 158.8 137.8 158 142.5 L 157 142.5 L 156.5 138 L 155.5 140 L 155 138.5 L 156.5 136 Z " /><path fill="rgb(243,190,4)" stroke="rgb(243,190,4)" stroke-width="1" opacity="1" d="M 227.5 136 L 229 145.5 L 231 148.5 L 228 146.5 L 227.5 145 L 225.5 149 Q 223.3 148.3 224 150.5 L 225 153 Q 218.6 155.3 221 147.5 L 223 147.5 L 225 143.5 L 222 143 Q 221 139.2 223.5 138 L 224 142 L 227 140.5 L 226 138.5 L 227.5 136 Z " /><path fill="rgb(243,190,4)" stroke="rgb(243,190,4)" stroke-width="1" opacity="1" d="M 322 137 Q 326.1 135.7 325 139 Q 322 138 323 141 L 326.5 142 L 330.5 141 L 334.5 148 Q 335.8 145.8 337 148.5 L 336 151.5 L 338 152.5 L 338.5 150 L 339 152.5 L 338 154.5 L 340 154.5 L 341 156.5 L 339 156.5 Q 339.6 161.6 336.5 163 Q 333.9 162.2 335 165.5 L 336 165.5 Q 335.3 163.3 337.5 164 L 338 166.5 L 337.5 170 L 336.5 166 L 336 170.5 L 337 176 Q 334.3 174.9 335 177.5 L 334 177.5 L 334 160.5 L 330 152.5 L 330.5 151 L 329 150.5 L 331 150 L 330.5 147 Q 328.8 150.8 327 147.5 L 326 144 L 324 144 Q 325.1 141.3 322.5 142 L 319.5 138 L 322 139 L 322 137 Z M 328 142 L 326 144 L 327 146 L 328 146 L 328 142 Z M 336 152 Q 333 156 337 155 L 336 152 Z M 334 155 L 333 158 L 334 158 L 334 155 Z " /><path fill="rgb(243,190,4)" stroke="rgb(243,190,4)" stroke-width="1" opacity="1" d="M 201.5 141 L 202 144.5 L 199.5 148 L 199 146.5 L 201.5 141 Z " /><path fill="rgb(243,190,4)" stroke="rgb(243,190,4)" stroke-width="1" opacity="1" d="M 337.5 141 Q 342.3 139.3 341 143.5 L 343 143.5 L 342 147.5 Q 345.9 149.1 345 155.5 L 343 160.5 Q 346.5 162.2 345 168 Q 341.2 166.5 342 169.5 L 342.5 171 Q 339.5 169 340 163.5 Q 344.2 159.7 343 150.5 L 342 150.5 L 341.5 154 L 338 146 L 334 144.5 L 337.5 141 Z " /><path fill="rgb(243,190,4)" stroke="rgb(243,190,4)" stroke-width="1" opacity="1" d="M 100 142 Q 103 140.8 102 144.5 L 100 145.5 L 100 142 Z " /><path fill="rgb(243,190,4)" stroke="rgb(243,190,4)" stroke-width="1" opacity="1" d="M 248.5 142 L 247.5 144 L 246 144.5 L 249 146 L 247 150.5 L 248 152.5 L 245.5 154 L 244 153.5 L 246 158.5 L 244 158.5 Q 245.1 161.8 242.5 161 L 240.5 161 L 236 162.5 L 238 163.5 L 236.5 164 L 235 161.5 L 235.5 160 L 233.5 159 L 232 159.5 L 233 157.5 L 232 155 L 230 155 L 230 158 Q 227 157 228 160 L 224 160 L 224 164 L 222.5 164 L 221 160 Q 225.1 161.7 224 157.5 L 225.5 154 Q 226.8 156.3 228 153.5 L 227.5 150 L 229.5 150 L 232 151.5 L 236 156.5 L 235.5 158 L 241.5 160 L 243 158.5 L 244 146.5 L 246.5 143 L 248.5 142 Z M 230 151 L 229 153 L 231 152 L 230 151 Z " /><path fill="rgb(243,190,4)" stroke="rgb(243,190,4)" stroke-width="1" opacity="1" d="M 116.5 144 L 120 146.5 Q 120.8 150.3 118.5 151 Q 114 150 113 152.5 L 112.5 154 L 110.5 154 L 108 154 Q 109 151 106 152 L 106 149.5 L 107 147 L 114.5 145 L 116 145.5 L 116.5 144 Z " /><path fill="rgb(243,190,4)" stroke="rgb(243,190,4)" stroke-width="1" opacity="1" d="M 158.5 144 L 159.5 146 L 158.5 144 Z " /><path fill="rgb(243,190,4)" stroke="rgb(243,190,4)" stroke-width="1" opacity="1" d="M 155.5 146 L 160 147 L 161 151 Q 164 149.8 163 153.5 L 164.5 156 L 163 156.5 L 163.5 158 L 162 157.5 Q 161.3 159.8 163.5 159 L 166.5 160 L 166.5 158 L 172 161 Q 170.8 164 174.5 163 L 174.5 164 L 167.5 162 L 164.5 164 L 164.5 163 L 167 161.5 L 165.5 161 L 164 161.5 L 163.5 160 L 162 160.5 Q 162.7 157.9 160 159 L 160 154.5 L 162 154.5 L 162 152 Q 159.3 153.1 160 150.5 L 155.5 148 L 153.5 151 L 153 149.5 L 155.5 146 Z " /><path fill="rgb(243,190,4)" stroke="rgb(243,190,4)" stroke-width="1" opacity="1" d="M 201.5 148 L 202 149.5 L 202 151.5 L 201 155 Q 197.2 153.5 198 156.5 Q 196.3 160.8 194.5 158 L 193 157.5 L 196.5 152 L 199.5 150 L 201.5 148 Z " /><path fill="rgb(243,190,4)" stroke="rgb(243,190,4)" stroke-width="1" opacity="1" d="M 157.5 151 Q 159.8 150.3 159 152.5 Q 157.5 155.5 156 152.5 L 157.5 151 Z " /><path fill="rgb(243,190,4)" stroke="rgb(243,190,4)" stroke-width="1" opacity="1" d="M 121.5 152 Q 126.3 150.7 125 154 Q 121.2 154.8 121.5 152 Z " /><path fill="rgb(243,190,4)" stroke="rgb(243,190,4)" stroke-width="1" opacity="1" d="M 126.5 153 L 128.5 153 L 131 154.5 Q 131.8 157.1 128.5 156 L 129 157.5 L 128 159.5 L 131 160 L 127.5 167 L 126 163 L 118 157.5 Q 117.3 155.3 119.5 156 L 126 155 L 126.5 153 Z " /><path fill="rgb(243,190,4)" stroke="rgb(243,190,4)" stroke-width="1" opacity="1" d="M 100 155 L 104 155 L 104 156.5 L 100 159.5 L 100 155 Z " /><path fill="rgb(243,190,4)" stroke="rgb(243,190,4)" stroke-width="1" opacity="1" d="M 115.5 155 L 115.5 157 L 117 157.5 L 116 160 L 107 164 Q 108.1 166.7 105.5 166 L 104 166.5 L 103 163.5 Q 109.5 163 112 158.5 L 110 158 Q 109 155 112 156 L 112.5 158 L 115.5 155 Z " /><path fill="rgb(243,190,4)" stroke="rgb(243,190,4)" stroke-width="1" opacity="1" d="M 189.5 160 Q 191.8 159.3 191 161.5 L 184.5 164 L 184.5 163 L 187 163 Q 185.9 160.3 188.5 161 L 189.5 160 Z " /><path fill="rgb(243,190,4)" stroke="rgb(243,190,4)" stroke-width="1" opacity="1" d="M 193.5 160 L 194.5 162 Q 191.7 162.7 193.5 160 Z " /><path fill="rgb(243,190,4)" stroke="rgb(243,190,4)" stroke-width="1" opacity="1" d="M 198.5 160 L 200.5 160 Q 204.3 159 203 162 Q 200 161 201 164 L 197.5 164 Q 194 162 198.5 160 Z " /><path fill="rgb(243,190,4)" stroke="rgb(243,190,4)" stroke-width="1" opacity="1" d="M 79.5 162 L 83 163.5 L 81.5 166 L 78 164.5 L 79.5 162 Z " /><path fill="rgb(243,190,4)" stroke="rgb(243,190,4)" stroke-width="1" opacity="1" d="M 90.5 162 L 92.5 163 Q 93.8 160.8 95 163.5 L 93 164.5 L 96.5 165 L 96.5 163 Q 100.3 162 99 165 L 96 166.5 L 95 169.5 L 97.5 171 L 99 170.5 Q 98.3 172.8 94.5 172 L 92.5 170 L 89 171.5 L 88 174.5 L 89.5 175 L 93 173 L 91.5 176 L 86.5 179 L 87.5 176 Q 82.1 174.1 83 177.5 L 85 181 L 83 181.5 Q 85.3 182.8 82.5 184 Q 80.3 184.8 81 182.5 L 80 179.5 L 81 174.5 L 80 174.5 L 79.5 176 L 79 171 Q 82.4 170.3 83.5 173 L 84 171 L 86 170.5 L 84 170 Q 82.7 165.9 86 167 L 87.5 171 Q 90.1 171.7 89 169 L 91 169 L 91 165.5 Q 87.3 163.8 90.5 162 Z " /><path fill="rgb(243,190,4)" stroke="rgb(243,190,4)" stroke-width="1" opacity="1" d="M 138.5 162 L 141 163.5 L 139.5 166 L 140 164.5 Q 140.7 161.9 138 163 L 139 171.5 L 138 173.5 L 139 178 L 137 178.5 L 138 184 Q 140.7 182.9 140 185.5 L 141 189.5 L 138.5 193 L 133 194.5 L 133.5 196 Q 130.9 195.3 132 198 L 134.5 197 L 134.5 199 L 137 197.5 Q 135.9 194.2 138.5 195 L 140 194.5 L 139 196.5 L 141 202.5 L 139.5 202 L 136.5 200 L 136 202.5 L 136.5 204 Q 131.7 201.5 133.5 199 L 128 194.5 L 125.5 189 L 124 189.5 Q 125.1 186.2 122.5 187 L 119 181.5 L 127 175.5 L 128.5 168 L 129.5 170 L 130.5 166 Q 133.6 167.4 133 172.5 L 132 172.5 L 130.5 170 L 130 171.5 L 132 175.5 L 131 175.5 L 130.5 174 L 128 175.5 L 131 177.5 Q 130.3 179.8 132.5 179 L 134 179.5 L 135 168.5 L 133 164.5 L 138.5 162 Z M 128 178 Q 126 181 129 180 L 128 178 Z M 127 180 L 125 184 L 127 183 L 129 188 L 127 192 L 130 194 L 132 194 L 133 191 L 135 191 Q 134 188 137 189 L 138 187 L 136 186 L 136 188 L 134 189 L 133 187 L 132 187 L 131 184 L 130 186 L 129 186 L 130 182 L 127 180 Z M 122 181 Q 120 184 123 183 L 122 181 Z " /><path fill="rgb(243,190,4)" stroke="rgb(243,190,4)" stroke-width="1" opacity="1" d="M 411.5 163 L 412 194.5 Q 404.1 203.1 400 215.5 L 398 224.5 L 398 239.5 L 397 242.5 L 400 251.5 L 399 254.5 L 401 258.5 L 400 260.5 L 401 263.5 L 400 265.5 L 401 268.5 L 399 273.5 L 400 275.5 L 394 286.5 L 395 289.5 L 390 303.5 L 390 317.5 L 393 332 L 363 332 L 363 295.5 Q 366 292.5 365 285.5 L 368 282.5 L 370 274.5 L 374 270.5 L 378 259.5 L 373 241.5 L 373 222.5 Q 379.2 187.2 402.5 169 L 411.5 163 Z " /><path fill="rgb(243,190,4)" stroke="rgb(243,190,4)" stroke-width="1" opacity="1" d="M 101.5 165 L 103 167.5 L 101 168 L 100.5 170 L 100 168.5 L 101.5 165 Z " /><path fill="rgb(243,190,4)" stroke="rgb(243,190,4)" stroke-width="1" opacity="1" d="M 339.5 177 L 344 180.5 L 345 186.5 Q 343 191 341 187.5 L 339 181.5 L 339.5 177 Z " /><path fill="rgb(243,190,4)" stroke="rgb(243,190,4)" stroke-width="1" opacity="1" d="M 333.5 179 L 334 181.5 L 333 181.5 L 333.5 179 Z " /><path fill="rgb(243,190,4)" stroke="rgb(243,190,4)" stroke-width="1" opacity="1" d="M 332.5 183 Q 334.8 182.3 334 184.5 L 332 188.5 L 333 190.5 L 329 192 L 332.5 183 Z " /><path fill="rgb(243,190,4)" stroke="rgb(243,190,4)" stroke-width="1" opacity="1" d="M 338.5 183 L 336.5 186 L 335.5 184 Q 337 186.5 338.5 183 Z " /><path fill="rgb(243,190,4)" stroke="rgb(243,190,4)" stroke-width="1" opacity="1" d="M 338.5 186 L 338 187.5 L 339.5 194 L 340.5 192 L 341.5 195 L 342.5 193 Q 346.5 194.7 345 201 L 341 202.5 L 341.5 204 L 340 201.5 Q 342.2 200.3 341 195.5 L 339 195.5 L 338.5 194 L 335 195 L 337 203.5 Q 335.8 206.3 334.5 204 L 333 203.5 L 333.5 202 Q 331.3 202.8 332 200.5 L 331.5 198 Q 328.9 198.8 330 195.5 L 329.5 194 Q 331.8 193.3 331 195.5 L 332 195.5 L 334 188 Q 337.4 188.8 338.5 186 Z " /><path fill="rgb(243,190,4)" stroke="rgb(243,190,4)" stroke-width="1" opacity="1" d="M 80.5 187 Q 83.1 186.2 82 189.5 L 82 191.5 L 80.5 194 L 78 194 L 78 188 L 80.5 187 Z " /><path fill="rgb(243,190,4)" stroke="rgb(243,190,4)" stroke-width="1" opacity="1" d="M 246.5 190 L 247 191.5 L 244 200 Q 241.3 201.1 242 198.5 L 242.5 196 L 244 196.5 L 246.5 190 Z " /><path fill="rgb(243,190,4)" stroke="rgb(243,190,4)" stroke-width="1" opacity="1" d="M 83.5 193 Q 85.7 197.8 92.5 198 L 100.5 193 L 106 198.5 L 106.5 201 L 108 200.5 L 106.5 205 L 105.5 204 L 103 205.5 L 102.5 200 L 97 201.5 L 97.5 203 L 95.5 199 L 94 202.5 L 94.5 204 L 90.5 205 Q 88 203.8 89 200 L 85.5 199 L 85 200.5 L 85.5 202 L 81 203.5 L 81.5 205 Q 79.3 205.8 80 203.5 L 80.5 202 Q 77.5 202.7 79 199 L 82.5 198 L 84.5 198 L 86 197.5 L 83.5 193 Z M 101 194 L 99 197 Q 101 200 102 197 L 101 194 Z M 91 199 L 91 201 L 94 201 L 91 199 Z " /><path fill="rgb(243,190,4)" stroke="rgb(243,190,4)" stroke-width="1" opacity="1" d="M 327.5 195 L 327 196.5 L 330 204 L 326 205 L 327 200.5 L 325 200 Q 326 203 323 202 L 323 205.5 L 322 207.5 L 325 210.5 L 324 211.5 L 322 214.5 L 323.5 217 L 321 216 L 322 219.5 L 320.5 219 L 318 220.5 L 316 223.5 L 316.5 225 Q 311.1 226.9 312 223.5 L 310.5 224 L 309 223.5 L 311 223 Q 312.5 218.5 308 220 L 307.5 223 L 307 220.5 L 311.5 217 L 311 218.5 L 311.5 220 L 314 218.5 L 314.5 221 L 318 215.5 L 316.5 213 Q 313.8 214.3 316 215.5 L 315.5 217 L 315 215 L 312.5 216 L 314 213.5 L 314.5 212 L 316 212.5 L 316.5 211 L 318.5 215 L 323 209 Q 319.2 207.5 320 210.5 L 318.5 210 L 317 209.5 L 319 209 L 321 203.5 L 327.5 195 Z " /><path fill="rgb(243,190,4)" stroke="rgb(243,190,4)" stroke-width="1" opacity="1" d="M 241.5 201 Q 243.8 200.3 243 202.5 L 238.5 208 Q 235.9 207.2 237 210.5 L 236 210.5 L 234 206.5 L 236 202 L 241.5 201 Z " /><path fill="rgb(243,190,4)" stroke="rgb(243,190,4)" stroke-width="1" opacity="1" d="M 227.5 202 L 232 203 L 231.5 205 L 230 204.5 Q 227.4 205.9 228 210.5 L 229 210.5 L 229.5 208 L 230 210 L 234 208 L 233 212 Q 230.3 210.9 231 213.5 L 228 214.5 L 226 217.5 L 227 220 Q 224.3 218.9 225 221.5 L 220.5 224 L 210.5 228 L 208.5 228 L 203.5 229 L 186.5 229 L 181 228 Q 179.5 224.2 182.5 225 L 185.5 223 L 187 224.5 L 185.5 227 L 200.5 228 L 200.5 227 Q 196.8 227.8 196 225.5 L 197.5 223 Q 203 222.5 205 225.5 Q 204.2 228.1 207.5 227 L 209.5 226 L 211 226.5 L 212.5 223 L 220.5 223 L 222 221.5 L 221 218.5 L 225 216 Q 224 213 227 214 L 227 210 Q 224.3 208.9 225 211.5 Q 223 216 221 212.5 Q 220 208 222.5 207 Q 225.8 208.1 225 205.5 L 227.5 202 Z " /><path fill="rgb(243,190,4)" stroke="rgb(243,190,4)" stroke-width="1" opacity="1" d="M 109.5 203 Q 113.7 205.9 114 212 L 118 213.5 L 117 215.5 L 118 218.5 L 116 219.5 L 115.5 218 L 112 219 L 112 224 L 113.5 224 L 113.5 225 Q 109.8 225.8 109 223.5 L 107 219 L 111 217.5 Q 109.5 213.1 112.5 214 L 112.5 213 L 111 212.5 L 113 212 L 111.5 209 L 108.5 212 L 107.5 211 L 105 210.5 L 106 206 L 109.5 207 L 110 204.5 L 109.5 203 Z " /><path fill="rgb(243,190,4)" stroke="rgb(243,190,4)" stroke-width="1" opacity="1" d="M 138.5 203 L 140.5 206 L 142.5 204 L 145 204.5 L 145.5 208 L 148 207 L 148.5 204 L 150 206.5 L 148 207 L 148.5 210 L 152 208 L 152.5 204 L 153 206 Q 156.8 205 158 207.5 L 159.5 211 L 160.5 209 L 161 211.5 L 158.5 216 L 158 214.5 L 159 212 L 155 212.5 L 156 216 L 151.5 216 L 147 213 L 145.5 209 L 143.5 210 L 138 204.5 L 138.5 203 Z M 155 213 L 151 215 L 155 215 L 155 213 Z " /><path fill="rgb(243,190,4)" stroke="rgb(243,190,4)" stroke-width="1" opacity="1" d="M 100.5 210 L 104.5 213 L 106 212.5 L 105 216 L 101 217 L 100.5 214 L 99.5 216 L 99 211.5 L 100.5 210 Z " /><path fill="rgb(243,190,4)" stroke="rgb(243,190,4)" stroke-width="1" opacity="1" d="M 107.5 213 L 107 214.5 L 106.5 217 L 106 214.5 L 107.5 213 Z " /><path fill="rgb(243,190,4)" stroke="rgb(243,190,4)" stroke-width="1" opacity="1" d="M 162 213 L 165 214.5 L 162 215 L 162 213 Z " /><path fill="rgb(243,190,4)" stroke="rgb(243,190,4)" stroke-width="1" opacity="1" d="M 119.5 215 L 123 217.5 L 125.5 221 L 133 226 Q 131.5 229.8 134.5 229 L 138.5 231 Q 141.1 230.3 140 233 L 142 233 L 142 235 L 144.5 235 L 155.5 242 L 170 247.5 L 166 248 Q 167.3 245 163.5 246 L 163.5 247 L 166.5 249 L 168.5 249 L 173.5 249 L 179 251 L 179.5 253 Q 181 250.5 186.5 252 L 197.5 255 L 199.5 255 L 202 255.5 Q 199.8 256.8 202.5 258 Q 205.1 257.3 204 260 L 197.5 261 Q 194.5 258.2 189 259 Q 190.1 261.7 187.5 261 L 185.5 261 L 177 262 L 177 265 L 185.5 265 L 185.5 266 L 176.5 266 L 175 264.5 L 176.5 261 Q 181.9 262.9 181 259.5 Q 179.8 256.8 178.5 259 Q 176.3 259.8 177 257.5 L 173.5 254 L 171.5 254 L 169.5 255 L 165.5 254 L 163 255 Q 164 258 161 257 L 162 254.5 L 160 251.5 L 162 251 L 160 247 Q 163 248 162 245 L 159.5 244 L 155.5 244 L 152.5 241 L 146.5 245 L 143 245 L 144 241.5 L 143.5 240 L 148 242 L 146.5 238 L 144 239 Q 145.5 235.2 142.5 236 L 140 237.5 Q 142.1 231.7 137.5 233 L 135 232 Q 136 229 133 230 L 134 232.5 L 132.5 232 L 131 231.5 L 132 229.5 L 128.5 225 L 126 226.5 Q 124.8 230.3 128.5 229 L 128.5 230 Q 123.5 230.5 123 226.5 Q 123.7 223.5 120 225 L 120 221.5 L 121.5 222 L 124 220.5 L 120 218.5 L 121 216.5 L 119.5 215 Z M 183 254 L 181 257 Q 179 258 182 259 L 183 258 L 192 258 L 195 257 L 193 255 L 190 255 Q 191 258 189 257 L 186 254 L 185 255 L 183 254 Z " /><path fill="rgb(243,190,4)" stroke="rgb(243,190,4)" stroke-width="1" opacity="1" d="M 167.5 215 L 170 216.5 Q 168.3 214.9 166.5 218 L 163 218.5 L 166.5 220 Q 168.3 216.3 170 219.5 L 167 221.5 L 169.5 223 L 171 222.5 L 171.5 224 Q 173 221.5 174.5 225 L 178.5 224 L 180 227 L 176.5 226 L 174.5 227 L 172.5 225 L 161 222 L 159.5 219 L 155 217.5 L 167.5 215 Z " /><path fill="rgb(243,190,4)" stroke="rgb(243,190,4)" stroke-width="1" opacity="1" d="M 229.5 217 L 228.5 219 L 229.5 217 Z " /><path fill="rgb(243,190,4)" stroke="rgb(243,190,4)" stroke-width="1" opacity="1" d="M 103 220 Q 106 219 105 222 Q 102 223 103 220 Z " /><path fill="rgb(243,190,4)" stroke="rgb(243,190,4)" stroke-width="1" opacity="1" d="M 118.5 220 L 119 222.5 L 118 222.5 L 118.5 220 Z " /><path fill="rgb(243,190,4)" stroke="rgb(243,190,4)" stroke-width="1" opacity="1" d="M 305.5 221 L 306 222.5 L 302 225 Q 301 228 304 227 L 304 230 L 301 230.5 Q 304.5 231 304 235.5 L 303 238 Q 298.1 238.1 296 234.5 L 296.5 232 L 297.5 235 L 300 234 L 300 232 L 298 232 Q 299.1 229.3 296.5 230 L 296.5 229 L 300.5 230 L 301 228 L 298 227.5 L 305.5 221 Z " /><path fill="rgb(243,190,4)" stroke="rgb(243,190,4)" stroke-width="1" opacity="1" d="M 121.5 229 L 122 232.5 L 121 232.5 L 120 230.5 L 121.5 229 Z " /><path fill="rgb(243,190,4)" stroke="rgb(243,190,4)" stroke-width="1" opacity="1" d="M 292.5 231 L 295 231.5 Q 296.1 234.8 293.5 234 L 291 232.5 L 292.5 231 Z " /><path fill="rgb(243,190,4)" stroke="rgb(243,190,4)" stroke-width="1" opacity="1" d="M 124 233 L 132 234 L 133.5 237 L 138 238 L 136.5 241 L 134 241.5 L 135 243.5 L 134 243.5 L 133 240 L 126.5 239 L 123 241.5 L 121.5 245 L 119 242.5 Q 122.5 241 120 239.5 L 121.5 236 L 124 234.5 L 124 233 Z " /><path fill="rgb(243,190,4)" stroke="rgb(243,190,4)" stroke-width="1" opacity="1" d="M 289.5 234 L 291 234.5 Q 288.8 235.8 291.5 237 L 292.5 235 L 293.5 238 L 294.5 236 L 299 239.5 L 297.5 239 L 295.5 238 L 295 239.5 Q 297.2 240.8 294.5 242 L 292.5 241 L 289.5 243 L 288 242.5 Q 289.1 245.8 286.5 245 L 284.5 246 L 281.5 242 L 279 242.5 L 277.5 245 L 272 243.5 L 276.5 240 L 278.5 242 L 281 241.5 Q 281.8 238.9 278.5 240 L 278.5 239 L 282.5 237 L 282 238.5 L 282.5 240 L 284.5 240 L 287.5 242 L 289 239.5 L 287.5 237 L 286 237.5 L 285.5 236 L 284 236.5 L 289.5 234 Z " /><path fill="rgb(243,190,4)" stroke="rgb(243,190,4)" stroke-width="1" opacity="1" d="M 296 242 L 302.5 242 L 303 243.5 Q 301.5 246.5 295.5 245 L 296 243.5 L 296 242 Z " /><path fill="rgb(243,190,4)" stroke="rgb(243,190,4)" stroke-width="1" opacity="1" d="M 268.5 244 L 271 244.5 Q 268.7 246.9 264 246 Q 265.1 248.7 262.5 248 L 263 249.5 L 262.5 253 L 257.5 251 L 254.5 252 L 252.5 252 L 251 252.5 L 256.5 255 L 263 254 L 263 258 Q 260.3 256.9 261 259.5 L 261.5 261 L 258 260.5 L 259 257 L 248.5 256 L 249 257.5 Q 249.8 260.1 246.5 259 L 243.5 260 L 241 259 L 242 255 L 246 254.5 L 243 252.5 L 248.5 251 L 250.5 252 L 255.5 249 L 255.5 251 L 259 250 Q 257.8 247 261.5 248 L 264.5 245 L 268.5 244 Z " /><path fill="rgb(243,190,4)" stroke="rgb(243,190,4)" stroke-width="1" opacity="1" d="M 236.5 253 L 241 253.5 Q 239.6 256.3 235 255 L 234.5 257 L 227.5 257 Q 224.5 258.5 227.5 260 Q 228.8 257.8 230 260.5 L 223.5 263 L 219 260.5 L 221 260 Q 222.1 257.3 219.5 258 L 217 259 Q 218.3 262 214.5 261 L 209.5 262 Q 206.8 260.8 209 259.5 L 208 257.5 L 209.5 256 L 221.5 256 L 236.5 253 Z M 225 256 L 225 258 L 227 257 L 225 256 Z " /><path fill="rgb(243,190,4)" stroke="rgb(243,190,4)" stroke-width="1" opacity="1" d="M 170.5 257 Q 173.8 255.9 173 258.5 L 174.5 261 Q 170.7 263.7 162.5 262 L 161.5 263 L 160 260.5 Q 161.8 257.3 168.5 259 L 170.5 257 Z " /><path fill="rgb(243,190,4)" stroke="rgb(243,190,4)" stroke-width="1" opacity="1" d="M 250.5 258 L 251 260 L 253 260.5 L 250 261 L 250.5 258 Z " /><path fill="rgb(243,190,4)" stroke="rgb(243,190,4)" stroke-width="1" opacity="1" d="M 235.5 260 L 241 260.5 L 235.5 261 L 235.5 260 Z " /><path fill="rgb(243,190,4)" stroke="rgb(243,190,4)" stroke-width="1" opacity="1" d="M 238 262 L 245.5 262 L 247 263.5 Q 247.9 266.5 243.5 265 Q 241.8 267.8 235.5 266 L 235.5 265 L 238 263.5 L 238 262 Z " /><path fill="rgb(243,190,4)" stroke="rgb(243,190,4)" stroke-width="1" opacity="1" d="M 178.5 263 L 181 263.5 L 178.5 264 L 178.5 263 Z " /><path fill="rgb(243,190,4)" stroke="rgb(243,190,4)" stroke-width="1" opacity="1" d="M 258 263 Q 263.2 261.3 262 265 Q 256.8 266.7 258 263 Z " /><path fill="rgb(245,192,2)" stroke="rgb(245,192,2)" stroke-width="1" opacity="1" d="M 0 0 L 412 0 L 412 162.5 Q 399.7 169.7 391 180.5 Q 381.3 192.3 376 208.5 L 373 222.5 L 373 241.5 L 378 259.5 Q 375.2 261.2 376 266.5 L 370 274.5 Q 369.9 282.4 365 285.5 Q 366 292.5 363 295.5 L 363 332 L 0 332 L 0 0 Z M 175 80 Q 172 85 176 84 L 178 84 L 178 87 L 175 88 L 172 90 L 174 84 Q 169 82 167 86 Q 166 88 169 87 L 169 89 L 171 89 L 171 91 L 169 92 L 167 89 L 163 88 L 160 89 Q 158 93 162 92 L 164 92 L 167 93 L 165 94 Q 161 95 162 100 L 161 99 Q 161 104 159 106 L 158 102 L 156 103 L 154 101 L 151 103 Q 152 105 154 103 L 155 107 Q 158 108 156 110 L 157 113 L 156 112 Q 152 113 154 109 L 153 109 L 153 114 L 155 114 L 155 116 L 157 115 L 157 121 L 155 122 L 156 118 L 154 117 L 153 114 L 151 117 Q 149 122 153 124 L 153 123 L 155 124 L 153 131 L 154 133 L 153 136 L 155 137 L 156 134 L 157 134 L 156 137 L 158 145 L 160 147 L 156 146 L 153 150 L 154 151 L 156 148 L 160 151 Q 159 153 162 152 L 162 155 L 161 154 L 160 159 Q 163 160 162 158 L 165 156 L 166 159 Q 169 160 167 162 L 172 164 L 187 164 L 190 163 L 191 160 L 195 158 Q 196 161 198 157 Q 197 153 201 155 L 201 153 L 199 153 L 201 152 L 202 153 L 201 151 L 202 149 L 200 150 L 198 150 L 202 145 L 203 140 L 203 115 L 201 113 L 201 109 L 202 106 L 202 98 L 201 101 L 198 100 L 199 102 L 199 104 L 197 101 L 198 96 L 200 96 L 199 94 L 200 92 Q 196 93 197 91 L 189 86 L 190 90 L 192 93 L 194 92 L 197 96 L 190 91 Q 187 92 188 90 L 186 90 Q 187 86 183 88 L 183 87 L 181 85 Q 178 86 179 83 L 177 83 L 177 81 L 175 80 Z M 185 80 L 183 83 L 187 83 L 186 85 L 189 86 L 191 83 L 185 80 Z M 196 80 L 193 83 L 197 84 L 198 87 L 196 87 L 197 90 L 201 91 L 203 86 Q 202 83 199 83 L 199 82 L 196 80 Z M 258 80 L 255 83 L 262 85 Q 264 86 263 82 L 262 82 L 258 80 Z M 276 80 L 273 82 L 275 82 Q 276 85 273 84 Q 272 87 277 86 L 279 83 L 276 80 Z M 228 81 L 227 82 Q 224 81 225 85 L 224 84 L 221 89 L 222 96 L 224 92 L 224 95 L 225 95 L 224 91 L 226 91 L 226 90 L 229 88 L 230 84 L 233 85 L 236 85 L 235 83 Q 233 80 228 81 Z M 246 81 L 241 84 Q 237 83 238 86 Q 236 89 232 89 L 229 95 L 224 99 L 226 104 L 226 106 Q 225 109 228 108 L 228 112 L 227 112 Q 228 107 224 109 L 223 112 L 226 116 L 226 129 L 225 130 L 222 125 L 223 123 Q 222 119 225 120 L 224 116 L 221 121 L 221 138 L 223 137 Q 227 138 226 136 L 227 136 L 226 139 L 227 141 L 224 142 L 224 138 Q 221 139 222 143 L 225 144 L 223 148 L 221 148 Q 219 155 225 153 L 224 151 Q 223 148 226 149 L 228 145 L 231 150 L 229 151 L 231 152 L 229 153 Q 227 156 226 154 L 224 160 L 228 160 Q 227 157 230 158 L 230 155 L 232 155 L 233 155 L 232 157 L 234 157 L 232 160 L 234 159 L 236 160 L 235 162 L 236 163 L 240 161 L 242 162 L 244 161 L 245 158 L 244 154 L 246 154 L 248 153 L 247 151 L 249 146 L 246 145 L 248 144 L 247 143 L 248 141 L 247 140 L 250 134 L 251 140 L 249 145 L 250 148 Q 252 146 254 149 Q 256 148 255 145 L 257 145 L 255 141 L 256 136 L 254 130 L 257 128 Q 259 129 258 126 L 260 126 L 261 128 L 261 127 L 261 125 L 264 127 L 263 127 Q 259 129 260 135 L 258 137 L 258 140 L 261 138 L 262 139 L 260 139 Q 259 144 262 146 L 264 145 L 262 149 L 258 147 L 259 152 L 258 155 L 257 153 L 256 155 L 254 153 L 251 158 L 248 160 Q 249 162 246 161 L 246 163 Q 247 168 243 170 L 244 172 L 241 180 L 241 186 L 243 186 L 243 189 L 244 189 Q 243 186 246 187 L 245 186 L 247 185 L 249 184 Q 250 186 247 185 L 247 190 L 242 199 L 243 201 Q 241 203 236 202 L 234 207 Q 237 207 236 212 L 233 213 L 233 215 L 230 217 Q 228 221 226 218 L 228 215 L 231 214 Q 230 211 233 212 L 234 208 L 230 210 L 230 208 L 229 211 L 228 211 Q 227 206 230 205 L 232 205 L 232 203 L 228 202 L 225 206 Q 226 208 223 207 Q 220 208 221 213 Q 223 216 225 212 Q 224 209 227 210 L 227 214 Q 224 213 225 216 L 221 219 L 223 223 L 222 222 L 221 223 L 213 223 L 210 228 L 210 226 L 208 227 Q 204 228 205 226 L 204 226 L 204 225 L 198 223 L 196 226 Q 197 228 201 227 L 201 228 L 186 227 L 187 225 L 186 223 L 181 225 L 181 227 L 180 226 L 179 226 L 175 225 Q 173 221 172 224 L 171 223 L 170 223 L 167 222 L 170 220 Q 168 216 167 220 L 163 219 L 167 218 L 169 215 L 162 217 L 154 217 L 156 216 L 156 213 L 155 215 Q 151 216 150 214 L 152 214 L 159 212 L 158 215 L 159 216 L 161 212 L 161 209 L 160 211 L 158 208 Q 157 205 153 206 L 153 204 L 152 208 L 149 210 L 148 207 L 146 208 L 145 205 L 143 204 L 141 206 L 139 204 L 138 204 L 136 201 L 139 202 Q 142 203 140 198 L 140 196 L 140 194 L 137 195 L 136 199 L 132 198 Q 131 195 134 196 L 133 195 L 139 193 L 141 190 L 140 186 Q 141 183 138 184 L 137 179 L 139 178 L 138 174 L 139 172 L 138 163 Q 134 162 133 165 L 135 169 L 134 180 L 133 179 Q 130 180 131 178 L 128 176 L 130 175 L 129 174 L 130 172 L 128 168 L 129 166 L 128 163 L 130 163 L 131 160 L 127 161 L 125 158 L 128 160 L 129 158 L 126 155 Q 120 154 118 157 L 115 156 Q 112 162 104 163 L 104 165 Q 105 168 102 167 L 102 165 L 100 170 L 98 171 L 95 170 L 97 166 L 94 165 L 92 166 L 95 164 Q 94 161 93 163 L 91 162 Q 87 164 91 166 L 91 169 Q 88 168 89 171 L 92 171 L 94 169 Q 92 171 95 173 Q 94 175 93 173 L 90 175 L 88 175 L 89 171 L 87 170 L 84 171 L 84 173 Q 82 170 79 171 L 80 176 L 80 175 L 81 175 L 80 180 L 81 183 Q 80 185 83 184 L 83 187 L 78 188 L 78 194 L 81 194 L 83 191 L 86 198 L 85 198 L 83 198 L 81 199 Q 77 198 79 202 L 82 203 L 86 202 L 85 201 L 86 199 L 89 200 Q 88 204 91 205 L 95 204 L 94 203 L 96 199 L 97 202 L 102 201 L 102 199 Q 104 200 103 206 L 107 205 Q 106 201 109 202 L 110 205 L 110 207 L 106 206 L 105 211 L 108 211 L 109 212 L 112 209 L 115 211 L 113 214 Q 109 213 111 218 L 107 219 L 109 224 Q 110 226 114 225 L 114 224 L 112 224 L 112 219 L 116 218 L 117 220 L 118 217 Q 116 215 119 214 L 119 216 L 121 217 L 120 219 L 124 221 L 122 222 L 120 222 Q 119 227 123 225 L 126 229 L 126 227 L 129 225 L 132 231 L 132 232 Q 134 233 133 230 Q 136 229 135 232 L 138 233 Q 142 232 140 238 L 143 236 Q 146 235 144 239 L 147 238 L 148 242 L 144 240 L 144 242 L 143 245 L 147 245 L 153 241 L 156 244 L 160 244 L 162 245 Q 163 248 160 247 L 162 251 L 160 252 L 162 254 L 162 253 L 163 253 L 161 257 Q 164 258 163 255 L 166 254 L 170 255 L 172 254 L 174 254 L 177 258 Q 176 260 179 259 L 181 256 L 184 254 L 186 254 L 189 257 Q 191 258 190 255 L 195 257 Q 191 259 183 258 L 181 260 Q 180 263 186 261 L 188 261 Q 190 262 189 259 Q 195 258 198 261 L 202 260 Q 205 261 204 258 L 201 257 L 209 256 L 208 258 L 209 260 Q 207 261 210 262 L 215 261 Q 218 262 217 259 L 220 258 Q 222 257 221 260 L 219 261 L 224 263 L 230 261 Q 229 258 228 260 L 225 256 L 228 257 L 235 257 L 235 255 Q 240 256 242 253 L 246 255 L 242 255 L 241 259 L 244 260 L 247 259 Q 250 260 249 258 L 248 258 L 249 256 L 259 257 L 258 261 L 262 261 L 261 260 Q 260 257 263 258 L 263 254 L 257 255 L 250 252 L 250 251 L 253 252 L 252 251 L 255 252 L 257 252 L 256 251 L 258 248 Q 260 247 259 250 L 257 251 L 263 253 L 263 250 L 263 248 Q 265 249 264 246 L 271 245 L 271 243 L 278 245 L 279 243 L 276 242 Q 277 239 281 240 L 285 246 L 288 245 Q 289 241 286 240 L 284 241 L 282 239 L 286 236 L 286 238 L 288 237 L 288 239 L 288 241 L 290 243 L 292 242 L 294 242 L 296 241 L 295 239 Q 297 237 295 236 L 294 238 L 293 235 L 292 237 Q 289 236 291 235 L 290 234 L 290 233 L 294 234 Q 296 235 295 232 L 295 230 L 298 230 L 300 234 L 297 236 L 303 238 L 304 234 L 300 229 L 298 229 L 298 228 L 301 228 Q 300 231 304 230 Q 305 226 302 227 Q 301 224 304 225 L 307 221 L 307 223 L 308 223 Q 307 218 311 220 L 312 217 L 315 215 Q 317 214 315 213 L 317 213 Q 316 209 319 210 L 320 211 Q 319 208 323 209 L 322 208 L 323 206 L 323 202 Q 326 203 325 200 L 327 201 L 326 205 L 330 204 Q 331 199 327 198 L 328 196 Q 326 190 332 192 L 333 190 L 330 191 L 334 185 L 333 183 L 335 178 Q 334 175 337 176 L 335 166 Q 334 162 337 163 Q 340 160 340 155 L 339 155 L 338 154 L 337 154 Q 338 156 335 155 L 337 149 Q 336 146 335 148 L 333 145 L 331 150 Q 328 151 329 149 L 329 147 L 331 147 L 332 143 Q 331 140 328 141 L 328 143 L 328 146 L 327 145 L 327 143 L 323 141 L 325 137 Q 321 136 322 139 L 318 138 L 321 137 L 320 136 L 323 134 Q 326 135 324 131 Q 320 130 321 133 L 314 133 L 312 134 L 313 132 Q 314 129 312 130 L 310 130 Q 307 129 308 133 L 302 131 L 303 129 L 303 131 L 306 129 L 304 125 L 315 125 L 316 124 L 314 123 Q 315 117 310 116 L 309 106 L 305 105 L 304 102 L 302 103 L 301 101 L 300 103 L 294 103 L 293 104 L 288 103 L 288 102 L 285 100 L 285 102 L 283 101 L 281 104 L 282 107 L 282 109 L 281 107 L 280 107 L 277 106 L 278 104 Q 278 97 274 95 L 274 89 L 271 85 L 267 84 L 263 87 Q 266 87 265 92 L 264 92 L 264 90 L 259 90 L 259 86 L 255 88 L 253 87 Q 251 89 250 87 L 253 86 L 253 85 Q 246 84 244 87 L 240 92 Q 236 93 237 91 L 241 88 Q 240 85 243 86 L 242 85 L 247 84 L 246 81 Z M 164 82 L 163 83 Q 160 82 161 86 L 165 83 L 164 82 Z M 282 82 L 281 85 L 282 85 L 282 82 Z M 277 88 L 275 90 L 276 94 L 277 90 L 278 93 Q 279 95 276 94 L 278 99 L 279 99 L 279 91 L 278 90 Q 279 87 277 88 Z M 281 88 Q 279 91 280 98 L 282 97 L 283 99 L 284 97 Q 286 91 283 90 Q 284 87 281 88 Z M 306 100 L 306 104 L 311 105 L 310 107 L 311 111 L 314 110 L 312 115 L 314 118 L 317 116 Q 318 111 315 110 L 317 106 L 314 103 L 312 103 L 308 102 Q 309 99 306 100 Z M 317 102 L 318 104 Q 319 101 317 102 Z M 320 103 L 319 105 Q 317 106 320 107 Q 322 106 321 110 L 324 109 L 323 107 L 320 105 L 320 103 Z M 223 104 L 221 107 L 223 108 L 223 104 Z M 150 105 Q 149 109 152 108 L 153 106 L 150 105 Z M 142 109 L 140 115 L 143 115 L 142 109 Z M 147 109 Q 144 113 145 122 L 143 124 L 143 143 L 145 143 L 146 136 L 148 140 Q 146 144 150 143 Q 152 144 150 146 L 151 148 Q 153 147 152 144 L 155 143 L 154 139 L 153 139 L 152 138 Q 151 135 150 137 L 149 134 L 148 134 Q 149 136 146 135 Q 144 130 148 128 L 151 129 L 150 126 L 152 125 L 148 122 L 148 112 L 147 109 Z M 320 111 L 318 113 Q 317 116 320 117 L 322 117 L 320 111 Z M 142 117 L 141 120 L 142 120 L 142 117 Z M 319 120 L 320 122 L 322 122 L 324 121 L 319 120 Z M 320 124 L 314 128 L 316 128 L 317 130 L 323 127 Q 325 128 324 126 Q 323 123 320 124 Z M 142 132 L 141 135 L 142 135 L 142 132 Z M 258 140 L 258 143 Q 261 142 258 140 Z M 338 141 L 334 145 L 338 146 L 342 154 L 342 151 L 343 151 Q 344 160 340 164 L 341 170 L 342 170 Q 341 167 345 168 Q 347 162 343 161 L 345 156 Q 346 149 342 148 L 343 144 L 341 144 Q 342 139 338 141 Z M 100 142 L 100 146 L 102 145 Q 103 141 100 142 Z M 117 144 L 116 146 L 115 145 L 107 147 L 106 150 L 106 152 Q 109 151 108 154 L 111 154 L 113 154 L 113 153 Q 114 150 119 151 Q 121 150 120 147 L 117 144 Z M 339 150 L 338 153 L 339 153 L 339 150 Z M 158 151 L 156 153 Q 158 156 159 153 Q 160 150 158 151 Z M 122 152 Q 121 155 125 154 Q 126 151 122 152 Z M 127 153 L 126 155 L 129 156 Q 132 157 131 155 L 129 153 L 127 153 Z M 100 155 L 100 160 L 104 157 L 104 155 L 100 155 Z M 110 156 Q 109 159 112 158 Q 113 155 110 156 Z M 162 159 L 162 161 L 164 160 L 162 159 Z M 164 160 L 165 162 L 167 161 L 164 160 Z M 194 160 Q 192 163 195 162 L 194 160 Z M 199 160 Q 194 162 198 164 L 201 164 Q 200 161 203 162 Q 204 159 201 160 L 199 160 Z M 221 160 L 221 163 L 224 164 Q 226 158 221 160 Z M 80 162 L 78 165 L 82 166 L 83 164 L 80 162 Z M 97 163 L 99 165 Q 100 162 97 163 Z M 336 164 L 336 166 L 338 165 L 336 164 Z M 131 166 Q 129 170 132 173 L 133 173 Q 134 167 131 166 Z M 338 166 L 337 170 L 338 170 L 338 166 Z M 84 167 Q 83 171 86 170 Q 87 166 84 167 Z M 340 177 L 339 182 L 341 188 Q 343 191 345 187 Q 346 181 343 179 L 342 181 L 341 181 L 342 179 L 340 177 Z M 338 187 L 337 188 Q 332 187 334 192 L 334 194 L 333 193 L 332 196 L 331 194 L 329 195 L 330 198 L 334 201 L 332 201 Q 331 203 334 202 L 333 204 L 335 204 Q 336 206 337 204 L 335 195 L 339 194 Q 340 189 338 187 Z M 341 192 L 339 196 L 341 195 L 341 192 Z M 343 193 L 340 202 L 341 203 Q 342 200 345 201 Q 347 195 343 193 Z M 81 203 Q 79 206 82 205 L 81 203 Z M 149 204 L 148 207 L 150 207 L 149 204 Z M 324 209 L 315 221 L 314 219 L 311 221 L 312 224 Q 311 227 317 225 L 316 224 L 320 219 Q 322 220 321 216 L 323 216 L 322 215 L 324 212 Q 326 210 324 209 Z M 101 210 L 99 212 L 100 216 L 101 214 L 101 217 L 104 216 Q 106 217 105 213 L 101 210 Z M 162 213 L 162 215 L 165 215 L 162 213 Z M 107 214 L 106 217 L 107 217 L 107 214 Z M 103 220 Q 102 223 105 222 Q 106 219 103 220 Z M 119 220 L 118 223 L 119 223 L 119 220 Z M 122 229 L 120 231 L 121 233 L 122 233 L 122 229 Z M 127 229 L 127 230 L 129 230 L 127 229 Z M 297 232 L 296 235 L 297 235 L 297 232 Z M 124 233 L 124 235 L 122 236 L 120 240 Q 122 241 119 243 L 122 245 L 123 242 L 127 239 L 133 240 L 134 242 L 137 241 L 138 238 L 134 237 L 132 234 L 124 233 Z M 296 242 L 296 244 L 296 245 Q 302 246 303 244 L 303 242 L 296 242 Z M 171 257 L 169 259 Q 162 257 160 261 L 162 263 L 163 262 Q 171 264 175 261 L 173 259 Q 174 256 171 257 Z M 251 258 L 250 261 L 253 261 L 251 260 L 251 258 Z M 236 260 L 236 261 L 241 261 L 236 260 Z M 177 261 L 175 265 L 177 266 L 186 266 L 186 265 L 177 265 L 177 262 L 181 262 L 177 261 Z M 238 262 L 238 264 L 236 265 L 236 266 Q 242 268 244 265 Q 248 266 247 264 L 246 262 L 238 262 Z M 179 263 L 179 264 L 181 264 L 179 263 Z M 258 263 Q 257 267 262 265 Q 263 261 258 263 Z " /><path fill="rgb(245,192,2)" stroke="rgb(245,192,2)" stroke-width="1" opacity="1" d="M 266 91 L 270 91 Q 268.9 93.7 271.5 93 L 273 92.5 L 272 95.5 L 272 97.5 L 271 100.5 L 273 103.5 L 271.5 106 L 270 105.5 L 271 109 L 269 108.5 L 269 106.5 L 270 104.5 L 266 91 Z " /><path fill="rgb(245,192,2)" stroke="rgb(245,192,2)" stroke-width="1" opacity="1" d="M 234.5 92 L 236 94.5 Q 231.3 95.9 232 101 L 230 101.5 L 230.5 103 Q 226.2 101.2 229 99.5 Q 227.9 96.2 230.5 97 Q 232.3 93.9 234 95.5 L 233 93.5 L 234.5 92 Z " /><path fill="rgb(245,192,2)" stroke="rgb(245,192,2)" stroke-width="1" opacity="1" d="M 283.5 103 Q 286 104.2 285 108 Q 282 109.3 283 105.5 L 283.5 103 Z " /><path fill="rgb(245,192,2)" stroke="rgb(245,192,2)" stroke-width="1" opacity="1" d="M 272.5 109 L 274.5 109 L 278 109.5 L 277 112.5 L 277 114 L 274 114 Q 275.1 116.7 272.5 116 L 271.5 119 L 270 118.5 L 267.5 124 L 264.5 125 L 265.5 123 L 267 122.5 L 266.5 121 L 268 121.5 L 269 117.5 L 267 113.5 L 270 112 L 271.5 115 L 274 113.5 L 272.5 109 Z " /><path fill="rgb(245,192,2)" stroke="rgb(245,192,2)" stroke-width="1" opacity="1" d="M 264.5 117 L 265 119.5 L 264 119.5 L 264.5 117 Z " /><path fill="rgb(245,192,2)" stroke="rgb(245,192,2)" stroke-width="1" opacity="1" d="M 261.5 121 L 262.5 123 Q 259.7 123.7 261.5 121 Z " /><path fill="rgb(245,192,2)" stroke="rgb(245,192,2)" stroke-width="1" opacity="1" d="M 307.5 121 Q 309.8 120.3 309 122.5 L 307.5 121 Z " /><path fill="rgb(245,192,2)" stroke="rgb(245,192,2)" stroke-width="1" opacity="1" d="M 287.5 126 L 295.5 126 L 297 127.5 L 294.5 128 Q 290.3 127.3 289.5 130 L 288 129.5 L 285.5 133 Q 280.5 134 279.5 131 Q 277.8 134.1 276 132.5 L 274.5 136 L 270 135 L 268 138.5 L 271 140.5 L 269.5 140 L 267 138.5 L 266 136.5 L 276.5 129 Q 278 132.5 279.5 130 L 281.5 131 L 284 129.5 L 282 129 Q 280.6 125.3 286.5 127 L 287.5 126 Z " /><path fill="rgb(245,192,2)" stroke="rgb(245,192,2)" stroke-width="1" opacity="1" d="M 296 129 L 301 130 Q 302.1 132.7 299.5 132 L 296 131 L 296 129 Z " /><path fill="rgb(245,192,2)" stroke="rgb(245,192,2)" stroke-width="1" opacity="1" d="M 333.5 155 L 334 157.5 L 333 157.5 L 333.5 155 Z " /><path fill="rgb(245,192,2)" stroke="rgb(245,192,2)" stroke-width="1" opacity="1" d="M 252 158 L 255 158.5 L 255 160.5 L 253.5 167 L 252 164.5 L 252 162.5 L 253 160.5 L 252 158 Z " /><path fill="rgb(245,192,2)" stroke="rgb(245,192,2)" stroke-width="1" opacity="1" d="M 247 168 L 250 169.5 L 251 175 L 248.5 174 L 247 176.5 L 248 182 L 245.5 183 L 243.5 183 L 242 182.5 L 245 178.5 L 244 174.5 L 247 173 L 247 168 Z " /><path fill="rgb(245,192,2)" stroke="rgb(245,192,2)" stroke-width="1" opacity="1" d="M 83 176 L 88 176.5 L 84.5 179 L 82 178.5 L 83 176 Z " /><path fill="rgb(245,192,2)" stroke="rgb(245,192,2)" stroke-width="1" opacity="1" d="M 127.5 178 L 128.5 180 L 127 180.5 L 130 182 L 133.5 189 L 136 187.5 L 135.5 186 L 138.5 185 L 137 187.5 L 135 190.5 L 133 190.5 L 131.5 194 L 129.5 194 L 127 191.5 L 129 187.5 L 127.5 186 L 125 187.5 L 127 183.5 L 125 183.5 L 127.5 178 Z " /><path fill="rgb(245,192,2)" stroke="rgb(245,192,2)" stroke-width="1" opacity="1" d="M 121.5 181 L 122.5 183 Q 119.7 183.7 121.5 181 Z " /><path fill="rgb(245,192,2)" stroke="rgb(245,192,2)" stroke-width="1" opacity="1" d="M 100.5 194 L 102 196.5 Q 100.5 199.5 99 196.5 L 100.5 194 Z " /><path fill="rgb(245,192,2)" stroke="rgb(245,192,2)" stroke-width="1" opacity="1" d="M 91 199 L 94 200.5 L 91 201 L 91 199 Z " /><path fill="rgb(245,192,2)" stroke="rgb(245,192,2)" stroke-width="1" opacity="1" d="M 142.5 206 L 143.5 208 L 142.5 206 Z " /><path fill="rgb(245,192,2)" stroke="rgb(245,192,2)" stroke-width="1" opacity="1" d="M 151.5 209 L 150.5 211 L 151.5 209 Z " /><path fill="rgb(245,192,2)" stroke="rgb(245,192,2)" stroke-width="1" opacity="1" d="M 163.5 246 L 166 246 L 166.5 248 L 171.5 248 L 171.5 249 L 167.5 250 L 165 249 Q 166.1 246.3 163.5 247 L 163.5 246 Z " /><path fill="rgb(245,192,2)" stroke="rgb(245,192,2)" stroke-width="1" opacity="1" d="M 179 251 L 181 251.5 L 179 252.5 L 179 251 Z " /><path fill="rgb(2,1,3)" stroke="rgb(2,1,3)" stroke-width="1" opacity="1" d="M 251.5 91 L 259.5 94 L 262 96.5 Q 266 100 265 108.5 Q 263.8 114.3 259.5 117 Q 257.3 116.3 258 118.5 L 244 135.5 Q 244 141.5 241 144.5 L 240 154 L 236 151.5 L 232 143.5 L 230 133.5 L 230 125.5 L 229 124.5 L 233 105.5 L 240.5 96 L 251.5 91 Z " /><path fill="rgb(2,1,3)" stroke="rgb(2,1,3)" stroke-width="1" opacity="1" d="M 175.5 93 Q 185.6 91.4 189 96.5 L 191 99.5 Q 196.2 104.3 198 112.5 L 199 117.5 L 199 135.5 L 196 146.5 L 187.5 158 L 181.5 161 L 178.5 161 Q 170.8 159.1 167 153.5 L 162 144.5 L 159 130.5 L 159 122.5 L 163 106.5 L 166 101 Q 168.7 102.1 168 99.5 L 170 96 L 175.5 93 Z " /><path fill="rgb(2,1,3)" stroke="rgb(2,1,3)" stroke-width="1" opacity="1" d="M 294.5 108 Q 304.3 106.3 307 111.5 L 308 114.5 L 303.5 120 L 285.5 122 L 269.5 129 L 270 127.5 L 271 124.5 L 279.5 116 Q 285.3 110.3 294.5 108 Z " /><path fill="rgb(2,1,3)" stroke="rgb(2,1,3)" stroke-width="1" opacity="1" d="M 287.5 136 L 302.5 136 L 310.5 138 Q 320.2 142.3 326 150.5 L 329 156.5 L 329 159.5 L 331 161.5 L 331 177.5 L 322 197.5 L 304.5 218 L 282.5 234 L 258.5 245 L 234.5 251 L 204.5 252 L 203.5 251 L 194.5 251 L 174.5 246 L 151.5 236 L 129.5 220 L 116 206.5 L 103.5 189 L 100.5 189 Q 97.6 193.6 90.5 194 L 87 191.5 L 86 184.5 L 113.5 164 L 119.5 163 L 123 165.5 L 124 171.5 L 120.5 176 L 116 179.5 L 115 181.5 L 119 189 Q 121.7 187.9 121 190.5 L 134 207 L 136 207 Q 134.9 209.7 137.5 209 Q 149.9 221.1 167.5 228 L 191.5 233 L 199.5 233 L 204.5 231 L 215.5 230 L 226.5 225 L 240 212.5 L 250 193.5 L 258 163.5 Q 261.9 152.9 269.5 146 Q 271.8 146.8 271 144.5 Q 274.2 140.4 280 140 Q 278.8 137 282.5 138 L 287.5 136 Z M 293 149 L 283 153 L 275 161 L 272 167 L 261 202 L 254 215 L 252 218 L 250 219 L 248 223 L 241 230 L 239 230 L 232 235 L 229 239 L 233 240 L 250 235 L 252 233 L 261 230 L 274 220 Q 273 217 276 218 L 287 206 L 292 194 L 295 192 L 295 197 L 292 205 L 294 207 L 299 205 L 304 199 Q 303 196 306 197 L 314 185 L 317 174 L 316 162 L 314 159 Q 315 156 312 157 L 312 155 L 305 150 L 293 149 Z " /><path fill="rgb(184,38,16)" stroke="rgb(184,38,16)" stroke-width="1" opacity="1" d="M 248.5 90 L 256 90.5 L 248.5 91 L 248.5 90 Z " /><path fill="rgb(184,38,16)" stroke="rgb(184,38,16)" stroke-width="1" opacity="1" d="M 174.5 91 L 177 91.5 L 171.5 94 L 172.5 92 L 174.5 91 Z " /><path fill="rgb(184,38,16)" stroke="rgb(184,38,16)" stroke-width="1" opacity="1" d="M 182.5 91 Q 187.3 91.3 189 94.5 L 186.5 93 L 182.5 92 L 182.5 91 Z " /><path fill="rgb(184,38,16)" stroke="rgb(184,38,16)" stroke-width="1" opacity="1" d="M 257.5 91 L 264 95.5 L 260.5 93 Q 256.8 92.7 257.5 91 Z " /><path fill="rgb(184,38,16)" stroke="rgb(184,38,16)" stroke-width="1" opacity="1" d="M 241.5 93 L 240.5 95 L 241.5 93 Z " /><path fill="rgb(184,38,16)" stroke="rgb(184,38,16)" stroke-width="1" opacity="1" d="M 169.5 94 L 166.5 98 L 169.5 94 Z " /><path fill="rgb(184,38,16)" stroke="rgb(184,38,16)" stroke-width="1" opacity="1" d="M 238.5 95 L 237.5 97 L 238.5 95 Z " /><path fill="rgb(184,38,16)" stroke="rgb(184,38,16)" stroke-width="1" opacity="1" d="M 191.5 97 L 193.5 100 L 191.5 97 Z " /><path fill="rgb(184,38,16)" stroke="rgb(184,38,16)" stroke-width="1" opacity="1" d="M 264.5 97 L 266 99.5 L 265 99.5 L 264.5 97 Z " /><path fill="rgb(184,38,16)" stroke="rgb(184,38,16)" stroke-width="1" opacity="1" d="M 165.5 99 L 165 100.5 L 163.5 103 L 164 101.5 L 165.5 99 Z " /><path fill="rgb(184,38,16)" stroke="rgb(184,38,16)" stroke-width="1" opacity="1" d="M 235.5 99 L 234 101.5 L 232.5 105 L 232 103.5 L 235.5 99 Z " /><path fill="rgb(184,38,16)" stroke="rgb(184,38,16)" stroke-width="1" opacity="1" d="M 194.5 101 L 198 107.5 L 197 107.5 L 194.5 101 Z " /><path fill="rgb(184,38,16)" stroke="rgb(184,38,16)" stroke-width="1" opacity="1" d="M 266.5 101 L 267 108.5 L 266 108.5 L 266.5 101 Z " /><path fill="rgb(184,38,16)" stroke="rgb(184,38,16)" stroke-width="1" opacity="1" d="M 161.5 106 L 162 107.5 L 159.5 115 L 159 111.5 L 161.5 106 Z " /><path fill="rgb(184,38,16)" stroke="rgb(184,38,16)" stroke-width="1" opacity="1" d="M 294.5 106 L 297 106.5 L 294.5 107 L 294.5 106 Z " /><path fill="rgb(184,38,16)" stroke="rgb(184,38,16)" stroke-width="1" opacity="1" d="M 301.5 106 Q 306.3 106.3 308 109.5 L 305.5 108 L 301.5 107 L 301.5 106 Z " /><path fill="rgb(184,38,16)" stroke="rgb(184,38,16)" stroke-width="1" opacity="1" d="M 288.5 108 L 290 108.5 L 283.5 112 L 284.5 110 L 288.5 108 Z " /><path fill="rgb(184,38,16)" stroke="rgb(184,38,16)" stroke-width="1" opacity="1" d="M 265.5 110 L 266 111.5 L 263.5 115 L 264 113.5 L 265.5 110 Z " /><path fill="rgb(184,38,16)" stroke="rgb(184,38,16)" stroke-width="1" opacity="1" d="M 229.5 111 L 230 113.5 L 229 113.5 L 229.5 111 Z " /><path fill="rgb(184,38,16)" stroke="rgb(184,38,16)" stroke-width="1" opacity="1" d="M 308.5 111 L 309 117.5 Q 306.8 122.8 299.5 123 L 299.5 122 Q 305.9 121.9 308 117.5 L 308.5 111 Z " /><path fill="rgb(184,38,16)" stroke="rgb(184,38,16)" stroke-width="1" opacity="1" d="M 281.5 112 L 280.5 114 L 281.5 112 Z " /><path fill="rgb(184,38,16)" stroke="rgb(184,38,16)" stroke-width="1" opacity="1" d="M 278.5 114 L 271 122.5 L 266 131.5 L 267.5 132 L 269 131.5 L 265.5 134 L 265 131.5 Q 269.5 120.5 278.5 114 Z " /><path fill="rgb(184,38,16)" stroke="rgb(184,38,16)" stroke-width="1" opacity="1" d="M 158.5 116 L 159 119.5 L 158 119.5 L 158.5 116 Z " /><path fill="rgb(184,38,16)" stroke="rgb(184,38,16)" stroke-width="1" opacity="1" d="M 228.5 116 L 229 120.5 L 228 120.5 L 228.5 116 Z " /><path fill="rgb(184,38,16)" stroke="rgb(184,38,16)" stroke-width="1" opacity="1" d="M 262.5 116 L 251.5 128 L 262.5 116 Z " /><path fill="rgb(184,38,16)" stroke="rgb(184,38,16)" stroke-width="1" opacity="1" d="M 200.5 118 L 201 125.5 L 200 125.5 L 200.5 118 Z " /><path fill="rgb(184,38,16)" stroke="rgb(184,38,16)" stroke-width="1" opacity="1" d="M 287.5 123 L 294 123.5 L 283.5 125 L 283.5 124 L 287.5 123 Z " /><path fill="rgb(184,38,16)" stroke="rgb(184,38,16)" stroke-width="1" opacity="1" d="M 277.5 126 L 279 126.5 L 270.5 131 L 271.5 129 L 277.5 126 Z " /><path fill="rgb(184,38,16)" stroke="rgb(184,38,16)" stroke-width="1" opacity="1" d="M 200.5 127 L 201 135.5 L 200 135.5 L 200.5 127 Z " /><path fill="rgb(184,38,16)" stroke="rgb(184,38,16)" stroke-width="1" opacity="1" d="M 249.5 130 L 249 131.5 L 247.5 134 L 248 132.5 L 249.5 130 Z " /><path fill="rgb(184,38,16)" stroke="rgb(184,38,16)" stroke-width="1" opacity="1" d="M 228.5 131 L 229 134.5 L 228 134.5 L 228.5 131 Z " /><path fill="rgb(184,38,16)" stroke="rgb(184,38,16)" stroke-width="1" opacity="1" d="M 158.5 133 L 159 136.5 L 158 136.5 L 158.5 133 Z " /><path fill="rgb(184,38,16)" stroke="rgb(184,38,16)" stroke-width="1" opacity="1" d="M 287.5 134 L 292 134.5 L 287.5 135 L 287.5 134 Z " /><path fill="rgb(184,38,16)" stroke="rgb(184,38,16)" stroke-width="1" opacity="1" d="M 299.5 134 L 303 134.5 L 299.5 135 L 299.5 134 Z " /><path fill="rgb(184,38,16)" stroke="rgb(184,38,16)" stroke-width="1" opacity="1" d="M 283.5 135 L 286 135.5 L 281.5 137 L 281.5 136 L 283.5 135 Z " /><path fill="rgb(184,38,16)" stroke="rgb(184,38,16)" stroke-width="1" opacity="1" d="M 304.5 135 L 307 135.5 L 304.5 136 L 304.5 135 Z " /><path fill="rgb(184,38,16)" stroke="rgb(184,38,16)" stroke-width="1" opacity="1" d="M 229.5 137 L 231 143.5 L 230 143.5 L 229.5 137 Z " /><path fill="rgb(184,38,16)" stroke="rgb(184,38,16)" stroke-width="1" opacity="1" d="M 311.5 137 L 316 139.5 L 314.5 139 Q 310.8 138.8 311.5 137 Z " /><path fill="rgb(184,38,16)" stroke="rgb(184,38,16)" stroke-width="1" opacity="1" d="M 159.5 139 L 162 146.5 L 161 146.5 L 159.5 139 Z " /><path fill="rgb(184,38,16)" stroke="rgb(184,38,16)" stroke-width="1" opacity="1" d="M 244.5 139 L 245 140.5 L 243.5 144 L 243 141.5 L 244.5 139 Z " /><path fill="rgb(184,38,16)" stroke="rgb(184,38,16)" stroke-width="1" opacity="1" d="M 275.5 139 L 274.5 141 L 271.5 143 L 273.5 140 L 275.5 139 Z " /><path fill="rgb(184,38,16)" stroke="rgb(184,38,16)" stroke-width="1" opacity="1" d="M 317.5 140 L 326 147.5 L 319.5 142 L 317.5 140 Z " /><path fill="rgb(184,38,16)" stroke="rgb(184,38,16)" stroke-width="1" opacity="1" d="M 198.5 142 L 199 143.5 L 196.5 149 L 196 147.5 L 198.5 142 Z " /><path fill="rgb(184,38,16)" stroke="rgb(184,38,16)" stroke-width="1" opacity="1" d="M 242.5 145 L 243 147.5 L 242 147.5 L 242.5 145 Z " /><path fill="rgb(184,38,16)" stroke="rgb(184,38,16)" stroke-width="1" opacity="1" d="M 232.5 148 L 237 154.5 L 234 152.5 L 232.5 148 Z " /><path fill="rgb(184,38,16)" stroke="rgb(184,38,16)" stroke-width="1" opacity="1" d="M 265.5 148 L 263 151.5 L 261.5 154 L 262 152.5 L 265.5 148 Z " /><path fill="rgb(184,38,16)" stroke="rgb(184,38,16)" stroke-width="1" opacity="1" d="M 326.5 149 L 327.5 151 L 326.5 149 Z " /><path fill="rgb(184,38,16)" stroke="rgb(184,38,16)" stroke-width="1" opacity="1" d="M 163.5 150 L 166 153.5 L 164 152.5 L 163.5 150 Z " /><path fill="rgb(184,38,16)" stroke="rgb(184,38,16)" stroke-width="1" opacity="1" d="M 195.5 150 L 195 151.5 L 192.5 155 L 194 152.5 L 195.5 150 Z " /><path fill="rgb(184,38,16)" stroke="rgb(184,38,16)" stroke-width="1" opacity="1" d="M 241.5 151 L 242 153.5 L 241 153.5 L 241.5 151 Z " /><path fill="rgb(184,38,16)" stroke="rgb(184,38,16)" stroke-width="1" opacity="1" d="M 291.5 151 Q 306.7 149.8 312 158.5 Q 317 164 315 176.5 L 311 186.5 L 300.5 200 Q 298.3 199.3 299 201.5 Q 298.5 204.5 294.5 204 L 295 202.5 L 297 183 Q 294.3 181.9 295 184.5 L 291 194.5 L 278 214 L 276 214 Q 277.1 216.7 274.5 216 Q 260.2 232.2 234.5 237 L 236.5 234 L 249 225 L 262 203.5 L 270 175.5 L 275 164.5 L 284.5 154 L 291.5 151 Z " /><path fill="rgb(184,38,16)" stroke="rgb(184,38,16)" stroke-width="1" opacity="1" d="M 166.5 155 L 176 161.5 L 174.5 162 Q 168.4 159.8 166.5 155 Z " /><path fill="rgb(184,38,16)" stroke="rgb(184,38,16)" stroke-width="1" opacity="1" d="M 237.5 156 L 241 157 L 240.5 159 L 237.5 156 Z " /><path fill="rgb(184,38,16)" stroke="rgb(184,38,16)" stroke-width="1" opacity="1" d="M 259.5 157 L 259 158.5 L 257.5 162 L 257 160.5 L 259.5 157 Z " /><path fill="rgb(184,38,16)" stroke="rgb(184,38,16)" stroke-width="1" opacity="1" d="M 188.5 158 L 190 158.5 L 183.5 162 L 183.5 161 L 188.5 158 Z " /><path fill="rgb(184,38,16)" stroke="rgb(184,38,16)" stroke-width="1" opacity="1" d="M 331.5 159 L 332 161.5 L 331 161.5 L 331.5 159 Z " /><path fill="rgb(184,38,16)" stroke="rgb(184,38,16)" stroke-width="1" opacity="1" d="M 115.5 161 L 120 161.5 L 115.5 162 L 115.5 161 Z " /><path fill="rgb(184,38,16)" stroke="rgb(184,38,16)" stroke-width="1" opacity="1" d="M 178.5 162 L 181 162.5 L 178.5 163 L 178.5 162 Z " /><path fill="rgb(184,38,16)" stroke="rgb(184,38,16)" stroke-width="1" opacity="1" d="M 111.5 163 L 109.5 166 L 106.5 168 L 108.5 165 L 111.5 163 Z " /><path fill="rgb(184,38,16)" stroke="rgb(184,38,16)" stroke-width="1" opacity="1" d="M 332.5 164 L 333 174.5 L 332 174.5 L 332.5 164 Z " /><path fill="rgb(184,38,16)" stroke="rgb(184,38,16)" stroke-width="1" opacity="1" d="M 125.5 167 L 126 172.5 L 125 172.5 L 125.5 167 Z " /><path fill="rgb(184,38,16)" stroke="rgb(184,38,16)" stroke-width="1" opacity="1" d="M 104.5 168 L 102.5 171 L 96.5 175 L 98.5 172 L 104.5 168 Z " /><path fill="rgb(184,38,16)" stroke="rgb(184,38,16)" stroke-width="1" opacity="1" d="M 253.5 172 L 254 174.5 L 252.5 178 L 252 175.5 L 253.5 172 Z " /><path fill="rgb(184,38,16)" stroke="rgb(184,38,16)" stroke-width="1" opacity="1" d="M 124.5 174 L 121.5 178 L 116.5 181 L 117.5 179 L 124.5 174 Z " /><path fill="rgb(184,38,16)" stroke="rgb(184,38,16)" stroke-width="1" opacity="1" d="M 94.5 175 L 93.5 177 L 94.5 175 Z " /><path fill="rgb(184,38,16)" stroke="rgb(184,38,16)" stroke-width="1" opacity="1" d="M 331.5 176 L 332 179.5 L 331 179.5 L 331.5 176 Z " /><path fill="rgb(184,38,16)" stroke="rgb(184,38,16)" stroke-width="1" opacity="1" d="M 91.5 177 L 90.5 179 L 91.5 177 Z " /><path fill="rgb(184,38,16)" stroke="rgb(184,38,16)" stroke-width="1" opacity="1" d="M 88.5 179 L 85 183.5 L 84.5 186 L 84 183.5 L 88.5 179 Z " /><path fill="rgb(184,38,16)" stroke="rgb(184,38,16)" stroke-width="1" opacity="1" d="M 117.5 182 L 120 185.5 L 118 184.5 L 117.5 182 Z " /><path fill="rgb(184,38,16)" stroke="rgb(184,38,16)" stroke-width="1" opacity="1" d="M 120.5 187 L 125 192.5 L 122 190.5 L 120.5 187 Z " /><path fill="rgb(184,38,16)" stroke="rgb(184,38,16)" stroke-width="1" opacity="1" d="M 328.5 187 L 329 188.5 L 321.5 201 L 322 199.5 L 328.5 187 Z " /><path fill="rgb(184,38,16)" stroke="rgb(184,38,16)" stroke-width="1" opacity="1" d="M 84.5 189 L 87 193.5 L 85 192.5 L 84.5 189 Z " /><path fill="rgb(184,38,16)" stroke="rgb(184,38,16)" stroke-width="1" opacity="1" d="M 101.5 190 L 105 192.5 L 106 194.5 L 104 193.5 L 102.5 191 L 99.5 193 L 101.5 190 Z " /><path fill="rgb(184,38,16)" stroke="rgb(184,38,16)" stroke-width="1" opacity="1" d="M 248.5 190 L 249 192.5 L 247.5 195 L 247 193.5 L 248.5 190 Z " /><path fill="rgb(184,38,16)" stroke="rgb(184,38,16)" stroke-width="1" opacity="1" d="M 97.5 193 L 96.5 195 L 90.5 196 L 90.5 195 Q 95.8 195.8 97.5 193 Z " /><path fill="rgb(184,38,16)" stroke="rgb(184,38,16)" stroke-width="1" opacity="1" d="M 126.5 195 L 130.5 200 L 126.5 195 Z " /><path fill="rgb(184,38,16)" stroke="rgb(184,38,16)" stroke-width="1" opacity="1" d="M 106.5 196 L 108.5 199 L 106.5 196 Z " /><path fill="rgb(184,38,16)" stroke="rgb(184,38,16)" stroke-width="1" opacity="1" d="M 245.5 199 L 245 200.5 L 244.5 202 L 244 200.5 L 245.5 199 Z " /><path fill="rgb(184,38,16)" stroke="rgb(184,38,16)" stroke-width="1" opacity="1" d="M 109.5 200 L 116 207.5 L 111 203.5 L 109.5 200 Z " /><path fill="rgb(184,38,16)" stroke="rgb(184,38,16)" stroke-width="1" opacity="1" d="M 132.5 201 L 133.5 203 L 132.5 201 Z " /><path fill="rgb(184,38,16)" stroke="rgb(184,38,16)" stroke-width="1" opacity="1" d="M 320.5 202 L 319 204.5 L 304.5 221 L 296.5 227 L 298.5 224 L 313 211.5 L 320.5 202 Z " /><path fill="rgb(184,38,16)" stroke="rgb(184,38,16)" stroke-width="1" opacity="1" d="M 137.5 206 L 150 216.5 L 147.5 215 Q 140.4 211.8 137.5 206 Z " /><path fill="rgb(184,38,16)" stroke="rgb(184,38,16)" stroke-width="1" opacity="1" d="M 241.5 207 L 240.5 209 L 241.5 207 Z " /><path fill="rgb(184,38,16)" stroke="rgb(184,38,16)" stroke-width="1" opacity="1" d="M 117.5 210 L 134 225.5 L 128.5 221 L 117.5 210 Z " /><path fill="rgb(184,38,16)" stroke="rgb(184,38,16)" stroke-width="1" opacity="1" d="M 239.5 210 L 229.5 221 L 239.5 210 Z " /><path fill="rgb(184,38,16)" stroke="rgb(184,38,16)" stroke-width="1" opacity="1" d="M 151.5 217 L 152.5 219 L 151.5 217 Z " /><path fill="rgb(184,38,16)" stroke="rgb(184,38,16)" stroke-width="1" opacity="1" d="M 156.5 220 L 163 223.5 L 161.5 224 Q 156.9 222.8 156.5 220 Z " /><path fill="rgb(184,38,16)" stroke="rgb(184,38,16)" stroke-width="1" opacity="1" d="M 227.5 221 L 225.5 224 L 221.5 226 L 222.5 224 L 227.5 221 Z " /><path fill="rgb(184,38,16)" stroke="rgb(184,38,16)" stroke-width="1" opacity="1" d="M 166.5 225 L 174 227.5 L 171.5 228 L 166.5 226 L 166.5 225 Z " /><path fill="rgb(184,38,16)" stroke="rgb(184,38,16)" stroke-width="1" opacity="1" d="M 135.5 226 L 137.5 229 L 135.5 226 Z " /><path fill="rgb(184,38,16)" stroke="rgb(184,38,16)" stroke-width="1" opacity="1" d="M 218.5 226 L 220 226.5 L 215.5 228 L 215.5 227 L 218.5 226 Z " /><path fill="rgb(184,38,16)" stroke="rgb(184,38,16)" stroke-width="1" opacity="1" d="M 294.5 227 L 292.5 230 L 287.5 233 L 288.5 231 L 294.5 227 Z " /><path fill="rgb(184,38,16)" stroke="rgb(184,38,16)" stroke-width="1" opacity="1" d="M 139.5 229 L 140.5 231 L 139.5 229 Z " /><path fill="rgb(184,38,16)" stroke="rgb(184,38,16)" stroke-width="1" opacity="1" d="M 179.5 229 L 184.5 230 L 206.5 230 L 210.5 229 L 210.5 230 L 206.5 231 L 184.5 231 L 179.5 230 L 179.5 229 Z " /><path fill="rgb(184,38,16)" stroke="rgb(184,38,16)" stroke-width="1" opacity="1" d="M 142.5 231 L 147 234.5 L 145.5 234 L 142.5 231 Z " /><path fill="rgb(184,38,16)" stroke="rgb(184,38,16)" stroke-width="1" opacity="1" d="M 285.5 233 L 284.5 235 L 280.5 237 L 281.5 235 L 285.5 233 Z " /><path fill="rgb(184,38,16)" stroke="rgb(184,38,16)" stroke-width="1" opacity="1" d="M 148.5 235 L 156 239.5 L 154.5 239 Q 148.9 238.2 148.5 235 Z " /><path fill="rgb(184,38,16)" stroke="rgb(184,38,16)" stroke-width="1" opacity="1" d="M 157.5 240 L 165 243.5 L 163.5 244 L 157.5 241 L 157.5 240 Z " /><path fill="rgb(184,38,16)" stroke="rgb(184,38,16)" stroke-width="1" opacity="1" d="M 271.5 240 L 273 240.5 L 267.5 243 L 267.5 242 L 271.5 240 Z " /><path fill="rgb(184,38,16)" stroke="rgb(184,38,16)" stroke-width="1" opacity="1" d="M 166.5 244 L 170 245.5 L 168.5 246 L 166.5 244 Z " /><path fill="rgb(184,38,16)" stroke="rgb(184,38,16)" stroke-width="1" opacity="1" d="M 177.5 248 L 180 248.5 L 177.5 249 L 177.5 248 Z " /><path fill="rgb(184,38,16)" stroke="rgb(184,38,16)" stroke-width="1" opacity="1" d="M 181.5 249 L 184 249.5 L 181.5 250 L 181.5 249 Z " /><path fill="rgb(184,38,16)" stroke="rgb(184,38,16)" stroke-width="1" opacity="1" d="M 245.5 249 L 249 249.5 L 242.5 251 L 242.5 250 L 245.5 249 Z " /><path fill="rgb(184,38,16)" stroke="rgb(184,38,16)" stroke-width="1" opacity="1" d="M 189.5 251 L 192 251.5 L 189.5 252 L 189.5 251 Z " /><path fill="rgb(184,38,16)" stroke="rgb(184,38,16)" stroke-width="1" opacity="1" d="M 237.5 251 L 240 251.5 L 237.5 252 L 237.5 251 Z " /><path fill="rgb(184,38,16)" stroke="rgb(184,38,16)" stroke-width="1" opacity="1" d="M 195.5 252 L 199 252.5 L 195.5 253 L 195.5 252 Z " /><path fill="rgb(184,38,16)" stroke="rgb(184,38,16)" stroke-width="1" opacity="1" d="M 230.5 252 L 234 252.5 L 230.5 253 L 230.5 252 Z " /><path fill="rgb(184,38,16)" stroke="rgb(184,38,16)" stroke-width="1" opacity="1" d="M 202.5 253 L 228 253.5 L 202.5 254 L 202.5 253 Z " /><path fill="rgb(36,13,2)" stroke="rgb(36,13,2)" stroke-width="1" opacity="1" d="M 177.5 91 Q 186.9 91.1 191 96.5 L 198 108.5 L 200 115.5 L 200 125.5 L 201 126.5 L 200 127.5 L 199 141.5 L 196 149.5 L 189.5 158 L 182.5 162 L 176.5 162 L 166 154.5 L 159 138.5 L 158 120.5 L 162 105.5 L 170.5 94 L 177.5 91 Z M 176 93 L 170 96 L 168 100 Q 169 102 166 101 L 163 107 L 159 123 L 159 131 L 162 145 L 167 154 Q 171 159 179 161 L 182 161 L 188 158 L 196 147 L 199 136 L 199 118 L 198 113 Q 196 104 191 100 L 189 97 Q 186 91 176 93 Z " /><path fill="rgb(36,13,2)" stroke="rgb(36,13,2)" stroke-width="1" opacity="1" d="M 247.5 91 L 251 91.5 L 243.5 94 L 237 99.5 L 232 108.5 L 229 124.5 L 230 125.5 L 230 133.5 L 232 143.5 L 238.5 154 Q 241.9 154.9 240 149.5 L 242.5 142 L 243 144.5 L 241 157 L 237 155.5 L 231 144.5 L 228 130.5 L 228 121.5 L 231 107.5 L 239.5 95 L 247.5 91 Z " /><path fill="rgb(36,13,2)" stroke="rgb(36,13,2)" stroke-width="1" opacity="1" d="M 253.5 91 Q 261 91.5 264 96.5 Q 267.5 100.5 266 109.5 L 263 115.5 L 248 131.5 L 243.5 141 L 243 138.5 L 248 129.5 L 258 117 L 263 113.5 Q 265.9 109.9 265 102.5 L 259.5 94 L 253.5 92 L 253.5 91 Z " /><path fill="rgb(36,13,2)" stroke="rgb(36,13,2)" stroke-width="1" opacity="1" d="M 297.5 106 Q 305 106 308 110.5 L 307.5 113 L 304.5 109 Q 301.3 106.7 294.5 108 Q 279.4 112.9 271 124.5 L 270 128 L 285.5 122 L 301.5 121 L 306 117.5 L 307.5 115 L 308 117.5 L 302.5 122 L 283.5 124 L 266.5 132 L 267 130.5 Q 270.8 119.8 279.5 114 Q 286.8 108.3 297.5 106 Z " /><path fill="rgb(36,13,2)" stroke="rgb(36,13,2)" stroke-width="1" opacity="1" d="M 292.5 134 Q 316 134.5 326 148.5 Q 330.2 152.8 331 160.5 L 329 159.5 Q 326.9 147.1 317.5 142 L 307.5 137 L 302.5 136 L 287.5 136 L 280 138 Q 281.3 141 277.5 140 L 271 144.5 Q 271.8 146.8 269.5 146 Q 261.9 152.9 258 163.5 L 251 186.5 L 251 190.5 L 244 206.5 L 230.5 222 Q 222.4 229.9 207.5 231 L 207.5 230 Q 229.8 226.3 240 210.5 L 249 192.5 L 257 162.5 Q 261.8 150.8 270.5 143 L 280.5 137 L 292.5 134 Z " /><path fill="rgb(36,13,2)" stroke="rgb(36,13,2)" stroke-width="1" opacity="1" d="M 292.5 149 L 304.5 150 L 312 155 L 312 157 Q 314.7 155.9 314 158.5 L 316 161.5 L 317 173.5 L 314 184.5 L 305.5 197 Q 303.3 196.3 304 198.5 L 299 205 L 293.5 207 L 292 204.5 L 295 196.5 L 295 192 L 292 193.5 L 287 205.5 L 275.5 218 Q 273.3 217.3 274 219.5 L 260.5 230 L 251.5 233 L 249.5 235 L 232.5 240 L 229 239 L 231.5 235 L 238.5 230 L 240.5 230 L 248 222.5 L 249.5 219 L 252 217.5 L 254 214.5 L 261 201.5 L 272 166.5 L 275 160.5 L 282.5 153 L 292.5 149 Z M 292 151 L 285 154 L 275 165 L 270 176 L 262 204 L 249 225 L 237 234 L 235 237 Q 260 232 275 216 Q 277 217 276 214 L 278 214 L 291 195 L 295 185 Q 294 182 297 183 L 295 203 L 295 204 Q 299 205 299 202 Q 298 199 301 200 L 311 187 L 315 177 Q 317 164 312 159 Q 307 150 292 151 Z " /><path fill="rgb(36,13,2)" stroke="rgb(36,13,2)" stroke-width="1" opacity="1" d="M 114.5 162 Q 121.8 160.8 124 164.5 L 125 173.5 L 116.5 180 L 119.5 176 L 122 174.5 Q 124.8 172.8 124 167.5 L 121.5 164 L 116.5 163 L 97.5 175 L 86 184.5 Q 85 191 88.5 193 L 93.5 194 L 100.5 189 L 103.5 189 Q 114.1 206.9 129.5 220 L 151.5 236 L 171.5 245 L 194.5 251 L 225.5 252 L 226.5 251 L 240.5 250 Q 244.5 247 251.5 247 L 272.5 239 Q 296.6 228.1 313 209.5 Q 324.8 196.8 330.5 178 L 331 180.5 Q 323 204.5 305.5 219 Q 282.8 239.3 249.5 249 L 229.5 253 L 199.5 253 L 176.5 248 L 156.5 240 Q 132.8 227.8 116 208.5 L 102.5 190 L 94.5 195 L 89.5 195 L 86 192.5 L 84 186.5 L 89.5 179 L 114.5 162 Z " /><path fill="rgb(36,13,2)" stroke="rgb(36,13,2)" stroke-width="1" opacity="1" d="M 331.5 162 L 332 175.5 L 331 175.5 L 331.5 162 Z " /><path fill="rgb(36,13,2)" stroke="rgb(36,13,2)" stroke-width="1" opacity="1" d="M 115.5 181 Q 117.8 180.3 117 182.5 Q 127.3 199.8 142.5 212 Q 158.4 226.1 184 230.5 L 179.5 231 L 170.5 229 L 158.5 224 L 136 209 L 136 207 Q 133.3 208.1 134 205.5 L 122 192.5 L 121 189 Q 118.3 190.1 119 187.5 L 115.5 181 Z " /><path fill="rgb(36,13,2)" stroke="rgb(36,13,2)" stroke-width="1" opacity="1" d="M 186.5 231 L 204 231.5 Q 199.5 234 191.5 233 L 186.5 232 L 186.5 231 Z " /><path fill="rgb(231,185,9)" stroke="rgb(231,185,9)" stroke-width="1" opacity="1" d="M 248.5 88 L 255.5 88 Q 262.9 90.6 267 96.5 L 269 102.5 L 269 108.5 Q 264.6 119.1 256 125.5 L 258 126.5 L 256 127.5 L 255.5 126 L 252.5 131 L 251 131 L 251 134 Q 248.3 132.9 249 135.5 L 244 146.5 L 243 158.5 L 241.5 160 L 235 157.5 L 236 156.5 L 232 152.5 L 229 145.5 L 226 129.5 L 226 122.5 L 227 121.5 L 228 110.5 L 231 104.5 L 231 102.5 L 235 95 L 242 92 Q 240.8 89 244.5 90 L 248.5 88 Z M 249 90 L 239 95 L 232 104 L 228 117 L 228 135 Q 230 136 229 141 L 237 157 L 241 159 L 243 145 L 247 135 Q 253 123 263 117 L 267 109 Q 268 99 264 96 Q 260 89 249 90 Z " /><path fill="rgb(231,185,9)" stroke="rgb(231,185,9)" stroke-width="1" opacity="1" d="M 175.5 89 L 183.5 89 L 192 93 Q 190.9 95.7 193.5 95 L 198 101.5 L 198 104.5 L 202 113.5 L 203 131.5 L 202 132.5 L 202 140.5 L 200 142.5 L 198 152 L 195 153.5 L 190.5 160 L 187 161 Q 188.3 164 184.5 163 L 183.5 164 L 175.5 164 L 172 163 Q 173.1 160.3 170.5 161 L 165 156.5 L 163 151 Q 160.3 152.1 161 149.5 L 158 143.5 L 156 125.5 L 157 122.5 L 157 120.5 L 157 113.5 Q 160.8 108.5 161 101 Q 164 102.3 163 98.5 L 167 93 L 175.5 89 Z M 175 91 L 170 94 Q 161 102 158 117 Q 155 143 166 156 Q 170 162 179 163 Q 186 163 189 159 Q 191 160 190 157 L 192 157 L 198 147 L 201 136 L 201 119 L 198 107 L 194 100 L 185 91 L 175 91 Z " /><path fill="rgb(231,185,9)" stroke="rgb(231,185,9)" stroke-width="1" opacity="1" d="M 295.5 104 L 302.5 104 L 308 106 L 310 109.5 Q 308.5 115 311 116.5 L 305.5 123 L 294.5 124 L 281 127 Q 282.1 129.7 279.5 129 L 277.5 128 L 270.5 134 L 265.5 135 Q 262.8 133.8 264 128.5 Q 268.3 126.3 266.5 124 L 270 121.5 L 275.5 114 L 278.5 112 L 283 109.5 Q 282.2 106.9 285.5 108 L 290.5 105 L 295.5 104 Z M 295 106 L 279 114 Q 270 121 265 132 L 266 134 L 283 125 L 294 124 L 295 123 L 303 123 L 309 118 L 308 110 Q 305 104 295 106 Z " /><path fill="rgb(231,185,9)" stroke="rgb(231,185,9)" stroke-width="1" opacity="1" d="M 291.5 132 L 302.5 132 L 310.5 134 L 312.5 136 L 317.5 137 L 324 142 L 324 144 Q 326.7 142.9 326 145.5 L 334 160.5 L 334 178.5 L 328 194.5 L 321 203.5 L 319 209 Q 316.3 207.9 317 210.5 L 314 212 L 312 217 L 294 230 L 293.5 232 Q 292 229.5 290.5 233 Q 287.9 232.3 289 235 L 285.5 235 L 272.5 243 L 264.5 245 L 261.5 248 L 257.5 248 L 251.5 251 L 229.5 255 L 222.5 255 L 221.5 256 L 202.5 256 L 198.5 254 L 196.5 254 L 176.5 251 L 165.5 245 L 155.5 242 L 144.5 235 L 142 235 L 142 233 L 140 233 Q 141.1 230.3 138.5 231 L 134.5 229 L 133 229 Q 134.5 225.3 131.5 226 L 123 218.5 L 120.5 215 L 115 212 L 107.5 200 L 106 200.5 L 106 198.5 L 100.5 193 Q 97.6 197.6 90.5 198 L 83 192.5 L 82 187.5 L 84 182.5 L 83.5 181 L 86.5 179 L 95.5 172 L 101 170 Q 99.9 167.3 102.5 168 L 107 166 Q 105.9 163.3 108.5 164 L 114 160.5 L 113.5 159 L 116 160 L 117.5 157 L 126 163 Q 128.7 165.6 128 172.5 L 123.5 179 Q 119.5 178.5 119 181.5 L 122.5 187 Q 125.1 186.2 124 189.5 L 126 189.5 Q 127.5 196 132.5 199 L 134 199.5 L 133 200.5 L 136.5 204 L 144.5 210 L 146 209.5 L 147 213 L 161 220.5 Q 160.3 222.8 162.5 222 L 175.5 227 L 177.5 227 L 186.5 229 L 203.5 229 L 213.5 227 L 225 221.5 Q 224.3 219.3 226.5 220 L 233 216 L 237 210.5 L 237 208 L 241 205.5 L 249 185.5 L 251 172.5 L 254 166.5 L 254 163.5 L 259 153 Q 261.7 154.1 261 151.5 L 265 145 Q 267.7 146.1 267 143.5 L 276.5 136 L 279 136 L 279.5 134 L 281.5 135 L 283.5 133 Q 289.8 134.8 291.5 132 Z M 288 134 L 274 140 Q 263 148 257 161 L 246 199 L 240 210 Q 229 225 207 230 L 185 230 L 166 225 Q 149 218 137 206 L 134 203 L 131 201 L 120 187 L 117 180 L 122 178 L 126 173 L 125 166 L 120 161 Q 114 160 112 163 L 84 184 L 85 193 L 91 196 L 95 196 L 103 191 L 117 211 Q 131 226 150 237 L 178 249 L 203 254 L 228 254 L 249 250 Q 282 241 305 221 Q 316 210 325 197 Q 331 187 333 175 Q 334 156 326 148 Q 315 132 288 134 Z " /><path fill="rgb(231,185,9)" stroke="rgb(231,185,9)" stroke-width="1" opacity="1" d="M 411.5 195 L 412 332 L 393.5 332 L 393 330.5 L 390 317.5 L 390 303.5 L 395 287.5 Q 392.5 286 396 284.5 L 400 274.5 L 399 272.5 L 401 266.5 L 400 264.5 L 401 261.5 L 400 259.5 L 401 257.5 L 399 252.5 L 399 250.5 L 397 240.5 L 398 239.5 L 398 224.5 L 400 215.5 Q 404 203.5 411.5 195 Z " /></svg>